<svg id="Capa_1" data-name="Capa 1" xmlns="http://www.w3.org/2000/svg" viewBox="0 0 142.19 101.46"><defs><style>.cls-1{fill:#00a8e6;fill-rule:evenodd;}</style></defs><path class="cls-1" d="M18.92,52.59a16.74,16.74,0,0,1-4.33.65c-2.57,0-4.29-1.38-4.29-3.82v-7.2a3.84,3.84,0,0,1,4-4,14.25,14.25,0,0,1,4.16.68l.61-4A15.65,15.65,0,0,0,13.93,34c-4.72,0-8.64,2.71-8.64,7.85v8c0,4.85,3.82,7.63,8.46,7.63a17.08,17.08,0,0,0,5.64-.87l-.47-4ZM29.54,32.86l5.31-5.5L30.4,25.82,26.56,32l3,.91ZM20.75,49.77c0,5.06,3.57,7.68,8.74,7.68s8.77-2.62,8.77-7.68V41.65c0-5-3.58-7.68-8.77-7.68s-8.74,2.65-8.74,7.68v8.12Zm5-8.23a3.37,3.37,0,0,1,3.73-3.63,3.38,3.38,0,0,1,3.74,3.63v8.35a3.38,3.38,0,0,1-3.74,3.64,3.37,3.37,0,0,1-3.73-3.64V41.54Zm15.37-7.23V57.12h5V49.79H49l3.51,7.33h5.41l-4.24-8.21a6.27,6.27,0,0,0,3.85-6.08V41.36c0-4.63-3.42-7-8.14-7Zm8.07,3.94c2,0,3.3,1.08,3.3,3.08v1.55c0,2-1.3,3.12-3.3,3.12H46.13V38.25ZM61.06,57.12h8.15c5.09,0,8.66-2.29,8.66-7.35v-8c0-4.65-3.57-7.47-8.66-7.47H61.06V57.12ZM72.85,49.7c0,2.17-1.31,3.47-3.85,3.47H66.06V38.25H69c2.87,0,3.85,2.2,3.85,4.39V49.7Zm7.2.07c0,5.06,3.57,7.68,8.74,7.68s8.77-2.62,8.77-7.68V41.65c0-5-3.58-7.68-8.77-7.68s-8.74,2.65-8.74,7.68v8.12Zm5-8.23a3.73,3.73,0,0,1,7.46,0v8.35a3.73,3.73,0,0,1-7.46,0V41.54Zm23.7,15.58c5,0,8-2.22,8-6.51a5.65,5.65,0,0,0-3.87-5.22,4.94,4.94,0,0,0,3.08-4.7c0-3.95-2.31-6.38-7.34-6.38h-8.25V57.12Zm3.15-6.93c0,2.1-1.35,3-3.62,3h-3.12v-6h3c2.26,0,3.69.91,3.69,3Zm-3.47-6.46h-3.27V38.2h3.14c2,0,2.93,1,2.93,2.73a2.53,2.53,0,0,1-2.8,2.8Zm29,13.39-6.53-22.81h-7.16l-6.53,22.81h5.34l1.26-4.88h7l1.27,4.88Zm-10.12-19L130,48.32h-5.34Z"/><path class="cls-1" d="M6,66.14V88.51c0,2.84-1.53,4.06-3.27,5.2l2.13,3.12c3.63-1.75,6.17-3.78,6.17-8V66.14Zm7.94,15.47c0,5,3.57,7.67,8.74,7.67s8.77-2.62,8.77-7.67V73.49c0-5-3.58-7.69-8.77-7.69s-8.74,2.65-8.74,7.69v8.12Zm5-8.24a3.37,3.37,0,0,1,3.73-3.63,3.38,3.38,0,0,1,3.74,3.63v8.35a3.38,3.38,0,0,1-3.74,3.64,3.37,3.37,0,0,1-3.73-3.64V73.37Zm27.68-7.23L42.26,84.29l-4.4-18.15H32.49l6,22.81H46l6-22.81ZM53.77,89H68.19V84.73h-9.4V79.46H67.5v-4H58.79V70.37h9.05V66.14H53.77V89Zm29.44,0h5V66.14H83.32V80.65L75.44,66.14h-5V89h4.89V74.45Z"/><path class="cls-1" d="M17.18,19.8,11.93,4H9.63L4.38,19.8H6.1l1.36-4.14h6.65l1.35,4.14ZM10.77,5.38l2.89,8.86H7.9l2.87-8.86ZM26,5.86a10.46,10.46,0,0,1-1.16,2.51,4.84,4.84,0,0,0-2.11-.46c-2.52,0-4.38,1.67-4.38,3.78v.73a3.66,3.66,0,0,0,1.93,3.19A2.74,2.74,0,0,0,19,17.68a1.82,1.82,0,0,0,1.14,1.61,3.42,3.42,0,0,0-1.92,2.86c0,2,1.58,3.13,4,3.13h1.64c2.43,0,4.31-1.36,4.31-3.49s-1.74-3.54-3.86-3.54H21.5c-.7,0-1.08-.34-1.08-.89A1.93,1.93,0,0,1,21.36,16a5.3,5.3,0,0,0,1.39.19c2.53,0,4.38-1.75,4.38-3.8V11.8A3.59,3.59,0,0,0,25.86,9a8.27,8.27,0,0,0,1.69-2.67L26,5.86Zm-6.13,5.92a2.6,2.6,0,0,1,2.84-2.57,2.61,2.61,0,0,1,2.87,2.57v.54a2.6,2.6,0,0,1-2.87,2.57,2.58,2.58,0,0,1-2.84-2.57v-.54Zm1.45,7.81H24c1.42,0,2.55.62,2.55,2.19s-1.28,2.15-2.9,2.15H22.29c-1.48,0-2.65-.64-2.65-2a2.8,2.8,0,0,1,1.72-2.37Zm7.7-4.2c0,2.92,2.05,4.64,4.87,4.64a12.36,12.36,0,0,0,3.83-.61L37.58,18a12,12,0,0,1-3.6.55,3,3,0,0,1-3.32-3.22v-.87H38v-2a4.47,4.47,0,1,0-8.94,0v2.86Zm1.6-2.83c0-2.09,1.07-3.22,2.87-3.22s2.87,1.13,2.87,3.22v.7H30.66v-.7ZM40.77,8.14V19.8h1.61V10.89a6.79,6.79,0,0,1,3.75-1.44c1.36,0,2,.73,2,2.09V19.8h1.61V11.12a2.87,2.87,0,0,0-3.14-3.21A7.72,7.72,0,0,0,42.22,9.6l-.11-1.46Zm13.39,4.58c0-2,1.09-3.35,3.12-3.35a9.12,9.12,0,0,1,2.49.4L60,8.37a8.27,8.27,0,0,0-2.8-.46,4.42,4.42,0,0,0-4.69,4.65v2.83c0,3,2,4.64,4.76,4.64a10.52,10.52,0,0,0,2.82-.4L60,18.23a11,11,0,0,1-2.6.34,3,3,0,0,1-3.19-3.31V12.72Zm8.4-4.58V19.8h1.6V8.14Zm-.24-3.37a1,1,0,0,0,2.07,0,1,1,0,0,0-2.07,0Zm4.25,12.1C66.57,18.94,68,20,70,20a5.63,5.63,0,0,0,3.45-1.35A1.74,1.74,0,0,0,75.25,20a3.2,3.2,0,0,0,1.25-.23l-.08-1.24a2.89,2.89,0,0,1-.74.09c-.54,0-.85-.34-.85-1V12.1c0-2.76-1.14-4.19-4-4.19a11.61,11.61,0,0,0-3.54.62l.19,1.38a11.36,11.36,0,0,1,3.19-.54c1.9,0,2.59.94,2.59,2.54v1.61H70.48c-2.26,0-3.91,1.18-3.91,3.35Zm3.6,1.85a1.85,1.85,0,0,1-2-1.91c0-1.38.89-2.1,2.43-2.1h2.67v2.82A5,5,0,0,1,70.17,18.72Z"/></svg>