<svg id="Capa_1" data-name="Capa 1" xmlns="http://www.w3.org/2000/svg" viewBox="0 0 300 300"><defs><style>.cls-1{fill:#f6f6f6;}</style></defs><path class="cls-1" d="M257.22,235.32l0,0a8.5,8.5,0,0,0-6-2.47H122.78a8.5,8.5,0,0,0-8.49,8.5v10H103.94a4.31,4.31,0,0,0-4.31,4.31v10h-18a4.3,4.3,0,0,0-4.3,4.31v14.3a4.3,4.3,0,0,0,4.3,4.31H292.39a4.31,4.31,0,0,0,4.3-4.31v-14.3a4.31,4.31,0,0,0-4.3-4.31h-18v-10a4.31,4.31,0,0,0-4.3-4.31H259.7v-10A8.44,8.44,0,0,0,257.22,235.32Zm8.53,24.62v10a4.31,4.31,0,0,0,4.31,4.3h18v5.7H85.91v-5.7h18a4.31,4.31,0,0,0,4.3-4.3v-10H118.6a4.31,4.31,0,0,0,4.31-4.31l-.13-14.2H251.09v14.21a4.31,4.31,0,0,0,4.31,4.31Z"/><path class="cls-1" d="M156.53,145a17.39,17.39,0,0,0,23.87,25.06l48.19-37.49a17.34,17.34,0,0,0-15.87-30.24L162.6,37.91a17.34,17.34,0,0,0-25.41-22.79L89,52.61A17.37,17.37,0,0,0,107.4,81.88l15.86,20.38L6.37,187.61a7.52,7.52,0,0,0-3,5,7.41,7.41,0,0,0,0,1.94,7.49,7.49,0,0,0,1.49,3.72l15,19.29a7.6,7.6,0,0,0,1.38,1.34A7.46,7.46,0,0,0,25,220.42a7.32,7.32,0,0,0,.81,0,7.53,7.53,0,0,0,4.8-1.72l111.5-92.27Zm56.75-33.55.23-.13h0a8.75,8.75,0,0,1,9.78,14.47l-48.19,37.48a8.78,8.78,0,0,1-10.79-13.86L212.52,112A6,6,0,0,1,213.28,111.48ZM105.72,72.76l-.64.5A8.78,8.78,0,1,1,94.3,59.4l48.18-37.48h0a8.75,8.75,0,0,1,5.38-1.85,10.46,10.46,0,0,1,1.11.06A8.74,8.74,0,0,1,154.1,35l-.2.2a6.16,6.16,0,0,1-.63.62Zm8.72,4.14,31.77-24.72,10.32-8,48.67,62.58-42.09,32.73Zm13.94,49.73L26,211.38l-13.6-17.49,107.41-78.42,8.77-6.41,8.25,10.61Z"/></svg>