<svg id="Capa_1" data-name="Capa 1" xmlns="http://www.w3.org/2000/svg" viewBox="0 0 186.88 111.65"><defs><style>.cls-1{fill:#1e355e;}.cls-2{fill:#1e345c;}.cls-3{fill:#1d345c;}.cls-4{fill:#1e3660;}.cls-5{fill:#1f3663;}.cls-6{fill:#1c2c4d;}.cls-7{fill:#829ec5;}.cls-8{fill:#1a233f;}.cls-9{fill:#303d4e;}.cls-10{fill:#1f3356;}.cls-11{fill:#253855;}.cls-12{fill:#1a2841;}.cls-13{fill:#1e355f;}.cls-14{fill:#203661;}.cls-15{fill:#1a3357;}.cls-16{fill:#1c3458;}.cls-17{fill:#193355;}.cls-18{fill:#1a355a;}.cls-19{fill:#1f3661;}.cls-20{fill:#1f3560;}.cls-21{fill:#203758;}.cls-22{fill:#223463;}.cls-23{fill:#223563;}.cls-24{fill:#1c3358;}.cls-25{fill:#203560;}.cls-26{fill:#1e3158;}.cls-27{fill:#203460;}.cls-28{fill:#203765;}.cls-29{fill:#1a3459;}.cls-30{fill:#1e3662;}.cls-31{fill:#1e2c4f;}.cls-32{fill:#1a3559;}.cls-33{fill:#193458;}.cls-34{fill:#253756;}.cls-35{fill:#1c3359;}.cls-36{fill:#203664;}.cls-37{fill:#203563;}.cls-38{fill:#223558;}.cls-39{fill:#1b2641;}.cls-40{fill:#173556;}.cls-41{fill:#19355a;}.cls-42{fill:#223461;}.cls-43{fill:#1e3456;}.cls-44{fill:#153656;}.cls-45{fill:#1f3057;}.cls-46{fill:#213768;}.cls-47{fill:#1c2c4c;}.cls-48{fill:#1f3151;}.cls-49{fill:#1b2745;}.cls-50{fill:#1e3764;}.cls-51{fill:#14263c;}.cls-52{fill:#1a3153;}.cls-53{fill:#223564;}.cls-54{fill:#1d3865;}.cls-55{fill:#163353;}.cls-56{fill:#1e3763;}.cls-57{fill:#182c49;}.cls-58{fill:#233457;}.cls-59{fill:#263b5e;}.cls-60{fill:#d56e18;}</style></defs><path class="cls-1" d="M181.24,43.82,180,47.67c-.2,0-.3-.75-.58-.06a1.67,1.67,0,0,1-1.49,1A2,2,0,0,1,175.59,47c-.14-.51-.39-1-1.07-.93a6.56,6.56,0,0,0,.08,5.78,2.4,2.4,0,0,1,0,1.71,4.22,4.22,0,0,0-.68,2.81c0,.31,0,.62,0,.93-.08,1.17.53.85,1.14.52,1-1.35,2-2.5,3.88-1.73a1.31,1.31,0,0,1,.53.37c.79-.07.85.74,1.3,1.08a1.91,1.91,0,0,1,1,2,4.16,4.16,0,0,0-.07,2.47,4.22,4.22,0,0,1,.1.62c.1.77-.62,1.69.45,2.26a1.6,1.6,0,0,1,.7.66c.08,1.36-.94,1.94-1.85,2.6-.67.31-1.17,1.08-2.07.79a1,1,0,0,0-1.54.45,3.51,3.51,0,0,1-2.05,1.73c.55.22,1.18.08,1.44.69s-.08,1.49.12,2.22a3.11,3.11,0,0,1-.68,1.82,5.3,5.3,0,0,1-.57.33,2.48,2.48,0,0,1-1.24.06c-.21,0-.38-.24-.62-.14a.93.93,0,0,1,.31.25c.52,1-.21,1.5-.88,2-1.63.35-1.78-1.92-2.88-1.82s-1.74,1.57-3.24,1c.82.56,1.66.06,2.36.45s.11.94.06,1.41c.92-.22,1.25.36,1.48,1.09.1.56.3,1.13-.15,1.63-1.16.55-2.5,0-3.64.65a3.89,3.89,0,0,0-.48.43l-.19.27c-.34.88-.15,1.93-.86,2.69-1.07,1.2-2.51,1.13-3.92,1.17-3.76.13-7.53-.35-11.26.4-.63-.09-.88-.59-1.12-1.08a7.5,7.5,0,0,1-.13-3.46,4.32,4.32,0,0,0,.1-2.73c1.08-3-.17-5.88-.23-8.83.55-1.91,0-4.11,1.46-5.79a.79.79,0,0,1,.64,0,1.26,1.26,0,0,1,0,1.09c.43-.82-.51-1.8.3-2.57a1,1,0,0,1,.93-.06.84.84,0,0,1,.24.81c.31-.24-.08-.58.12-.85a.55.55,0,0,1,.76-.25,2.45,2.45,0,0,1,.45,1.55c.1.57-.17,1.28.64,1.56a6.11,6.11,0,0,0,.86.08,6,6,0,0,0,1.46-.13,2.54,2.54,0,0,0,.09-3.41c-.62.28-1.16.94-1.92.33-.73-1.08-.05-2.53-.95-3.57a3.06,3.06,0,0,1-.28-.67c-.35-2.31.11-4.69-.68-7a2.84,2.84,0,0,1-.26-1.32c.5,1.89.09,4.08.12,6.26a2.38,2.38,0,0,1-.67,2.14.65.65,0,0,1-.65-.28c-.88-2.16,0-4.49-.63-6.67-.44-1.71-.62-3.47-.91-5.22a6.42,6.42,0,0,1-.19-1.08c0-2.17-1-4.09-1.67-6.09a4.94,4.94,0,0,1-.2-1.43,3.16,3.16,0,0,1,.2-1.06.93.93,0,0,1,1.11-.59,1.73,1.73,0,0,1,.5.4c.17.19.07.51.34.64a2.24,2.24,0,0,1-.19-.85,2.41,2.41,0,0,1,.16-1c-.21.06-.35.24-.56.29-.85.16-1.48-.47-2.24-.62a1,1,0,0,1-.45-1.11,3.12,3.12,0,0,1,.62-1.46c.7-.51,1.42.67,2.12,0a1.46,1.46,0,0,1,.42.5c.14.24.16.22.08,0-.34-1.06-.11-2.26-.83-3.23a1.13,1.13,0,0,1,.15-.93c.62-.93,2.11.06,2.6-1.18.65-.84-.05-1.75.13-2.62.8-1.12,1.78-.72,2.76-.33a1.66,1.66,0,0,1,.49.42c.41,1.33,1.7,1.23,2.67,1.63,1.07.58,2,.82,1.9-.93-.06-1.43.8-2.07,2.07-2.33a1.1,1.1,0,0,1,.76.58c-.38,2.12,1,2.36,2.58,2.49.22.07.51.33.62.24.28-.26-.11-.31-.24-.42a1.64,1.64,0,0,1-.47-.51,1,1,0,0,1,.21-1,1.57,1.57,0,0,1,1-.29c1.05.14,2.18-.4,3.15.38.24.11-.25.75.46.57a6.73,6.73,0,0,1,2.1-.2c1,.41,1,1.39,1.33,2.2.45,1.05,1,2.07,1.38,3.14,1.11,1,2.48.31,3.7.58,1.29.7,1.83,2,2.5,3.17a1.74,1.74,0,0,1,.13.6,3.44,3.44,0,0,0,.62,2.3,5.4,5.4,0,0,1,.5,1.22,3.15,3.15,0,0,1-1,3.11c-.46,0-.58-.3-.49-.71A3.17,3.17,0,0,0,181.24,43.82Z"/><path class="cls-2" d="M162.52,25c-1.12.68-2.33,1.29-1.49,3a.8.8,0,0,1-.73,1.17c-.78,0-1.79.42-2-.89a1.37,1.37,0,0,1,.15-2.11,1.13,1.13,0,0,0,.26-.23,1.14,1.14,0,0,1-.37.27,2,2,0,0,1-2.87.19h0c-.24-.35-1-.12-.92-.8.08-.51.6-.22.94-.36-.78-.19-1.31.42-2,.46s-2.09-1.21-2.26-2.14c2-.43,4-.91,6.05-1.26a4.07,4.07,0,0,1,3.38,1.18,1.78,1.78,0,0,1,1.52.36C162.49,24.15,162.76,24.49,162.52,25Z"/><path class="cls-3" d="M169.59,78.19a4.58,4.58,0,0,1-3.14-.08.79.79,0,0,1-.53-1.11c.26-.78.62-.26,1-.06a1.73,1.73,0,0,0,2.67-.8c.63-1.19,1.38-1.18,1.86.21a2.58,2.58,0,0,0,1.87,1.84c.44-.16.57.1.66.45A2.89,2.89,0,0,1,172.54,81l-.27.42a.9.9,0,0,1-1.06-.55A2.88,2.88,0,0,0,169.59,78.19Z"/><path class="cls-4" d="M179,49.46l.11,2.82a.67.67,0,0,1,.05.64c-.34,1-.5,2.06-1.77,2.31a4.28,4.28,0,0,1-1.71-3.86c.15-1.37.26-1.43,1.7-.86,0,0,0-.25.12-.37a.65.65,0,0,1,.58-.31c.37.19.07.69.42.89-.24-.24-.13-.54-.11-.81S178.62,49.44,179,49.46Z"/><path class="cls-5" d="M151.22,23.55c1.09,2,2.92,1.72,4.74,1.39-.07.61-1.75.51-.5,1.45-.94.16-1.88-.77-2.83,0-.47.42-.9,1-1.64.53a2.61,2.61,0,0,1-.31-3.37Z"/><path class="cls-6" d="M179,49.46c-.64.31-.23,1.08-.78,1.63L178.05,50a1.36,1.36,0,0,1,0-1.9c1,.05,1-1.11,1.77-1.61.07.5.11.87.16,1.23A2.5,2.5,0,0,1,179,49.46Z"/><path class="cls-7" d="M168.65,83l-1.86,0a1.74,1.74,0,0,0-.39,0l.4-.61a12.32,12.32,0,0,1,4.61,0C170.65,83.37,169.55,82.66,168.65,83Z"/><path class="cls-8" d="M171.41,82.41l-4.61,0c1.32-.87,2.8-.16,4.19-.42a.39.39,0,0,1,.54,0A3.45,3.45,0,0,1,171.41,82.41Z"/><path class="cls-9" d="M173.39,29.13c1.34.26,1.39,1.55,1.94,2.44a1,1,0,0,0-.06.45A6.08,6.08,0,0,1,173.39,29.13Z"/><path class="cls-10" d="M171.53,82l-.54,0-.45-1.38c.53-.31.67.2.93.46l.8.43C172.42,82.2,171.82,81.86,171.53,82Z"/><path class="cls-11" d="M165.85,24.91l.89.08.1.46c0,.28.06.56.08.85l-1.09.08a.93.93,0,0,1,0-1.47Z"/><path class="cls-12" d="M181.39,42.88l.06.46-.21.48a1.92,1.92,0,0,1-.19-2C181.5,42.11,181.3,42.54,181.39,42.88Z"/><path class="cls-3" d="M178.92,56.05l.14.46c-2.08-1-2.69,1-3.82,1.9-.46-.64-1.43-.27-1.88-.94v-.94a3,3,0,0,1,.69-.54c.79-.46.17-1,0-1.43a.84.84,0,0,1,.23-.85V51.82a10.19,10.19,0,0,1,0-6.59c.92,0,2-.14,1.87,1.29s.8,1.61,1.9,1.53c0,.64,0,1.27,0,1.9-.53-.35-.09,1.82-1.18.41-.45-.6-.58.24-.69.63-.48,1.7.88,2.77,1.41,4.13C178.47,54.81,178.49,55.73,178.92,56.05Z"/><path class="cls-13" d="M150.29,87.61a2.73,2.73,0,0,1,2.46-1c3,.06,6.08-.05,9.12,0a6.56,6.56,0,0,0,3.93-1,3.5,3.5,0,0,1-.08,3c-1.48.79-3.08.41-4.62.44-3,0-6,.09-8.93,0C151.26,89.13,149.94,89.31,150.29,87.61Z"/><path class="cls-14" d="M152.63,59.84V48.49c1.47,1.53.72,3,1,4.28a16.34,16.34,0,0,1,.5,5.44c-.05.68-.47,1.56.43,2.09h0c.75,1.52.8,2.87-.94,3.76-.65.3-.27,1.08-.84,1.62l-.11-1.16C151.13,63,152,61.4,152.63,59.84Z"/><path class="cls-15" d="M150.29,87.61c.21,1.31,1.25.92,2,.93,4.5,0,9,0,13.49,0,.29.43.35.83-.17,1.14-4.74.1-9.49,0-14.24,0-.7,0-1.67.36-1.8-.88.07-.72-.21-1.48.24-2.17A1,1,0,0,1,150.29,87.61Z"/><path class="cls-16" d="M149.83,86.66l0,1.9c-.13.21-.25.21-.35,0l-.19-5.62c-.46-2.85.2-5.74-.34-8.58l0-.85c-.57-.77.08-1.3.39-1.9l.18,0c.69,3,1.78,5.89.36,8.92a2.87,2.87,0,0,1,0,2.35C149.82,84.15,149.83,85.41,149.83,86.66Z"/><path class="cls-17" d="M147,35.3a.9.9,0,0,0,0-.23c-.47-1.35-1.34-2.71-1.31-4.06,0-1.9,2.5,0,3.11-1.49a1,1,0,0,1,.4.5A5.22,5.22,0,0,1,148,33.91c0,.52.06,1.09-.48,1.45A1.74,1.74,0,0,1,147,35.3Z"/><path class="cls-18" d="M155.46,50.88c-.12.54.29,1.25-.65,1.71-.52-1.85-.45-3.78-1.23-5.49.44-.56.06-1.53.94-1.87h.94c.9,1.1.66,2.41.65,3.67A2.76,2.76,0,0,1,155.46,50.88Z"/><path class="cls-18" d="M153.58,64.06a5.25,5.25,0,0,0,.94-3.76c1.89.86.54,2.53.94,3.77a3,3,0,0,1,0,3.76h-.94a1.33,1.33,0,0,1-.39-1.45c.27-.82-.48-.16-.55-.43Z"/><path class="cls-19" d="M176.66,72.08a.61.61,0,0,0-.77-.33c-.52.12-1.28.29-1.45-.2-.3-.93.7-.73,1.18-1a3.75,3.75,0,0,0,1.58-1.89c.53-1.24,1.29-1.3,1.81.11C179.18,70.55,178.21,71.52,176.66,72.08Z"/><path class="cls-20" d="M165.79,25.45c0,.31,0,.62,0,.93s0,.63,0,.95a.62.62,0,0,1,0,.94,11.09,11.09,0,0,1-1.63,0C162.4,28,162,27.13,163,25.45c.48-.46,1.14-.09,1.67-.35A1.17,1.17,0,0,1,165.79,25.45Z"/><path class="cls-21" d="M176.66,72.08A16.41,16.41,0,0,0,179,68.77c.83.06,1.12-1.1,2-.9-1.4,2.06-2.36,4.44-4.31,6.12C175.78,73.38,176.41,72.72,176.66,72.08Z"/><path class="cls-22" d="M155.46,67.83V64.07l1.88-.94a5.38,5.38,0,0,1,0,4.7Z"/><path class="cls-23" d="M155.47,49V45.23h1.88A4.31,4.31,0,0,1,157.5,49,1.49,1.49,0,0,1,155.47,49Z"/><path class="cls-24" d="M157.35,52.76V60h-.95V52.76A.64.64,0,0,1,157.35,52.76Z"/><path class="cls-25" d="M176.18,36.75c-1.41-.32-1-1.43-.79-2.22.3-1,1.33-.63,2-.58,1.45.11.06,1.36.65,1.86C177.58,36.4,177.29,37.39,176.18,36.75Z"/><path class="cls-26" d="M154.52,60.3c-.49.38-1,1-1-.34.06-2.4,0-4.79,0-7.19C155.22,55.11,154.26,57.78,154.52,60.3Z"/><path class="cls-20" d="M174.3,45.23v6.59C173,50.55,173,46.5,174.3,45.23Z"/><path class="cls-27" d="M158.76,25.92a3.86,3.86,0,0,0-.47,2.35c-1.29-.1-3.13.61-2.83-1.88a8.81,8.81,0,0,0,3.3-.47Z"/><path class="cls-28" d="M148,33.91c.31-1.25.62-2.5.92-3.75a.61.61,0,0,1,.74-.19l.2.19v.94a2.28,2.28,0,0,1,0,2.82C149.18,35.05,148.57,33.89,148,33.91Z"/><path class="cls-29" d="M157.34,67.83v-4.7c.12-.32.19-1,.64-.59C158.79,63.23,158.26,67,157.34,67.83Z"/><path class="cls-27" d="M157.35,52.76h-.95c-.09-.74.33-1.73-.94-1.88,0-.63,0-1.26,0-1.89h1.87a.65.65,0,0,1,0,.94Z"/><path class="cls-29" d="M151,26.92l1.64-.53c1.07,1.41,1.07,1.41,0,2.82a.86.86,0,0,1-.91.21c-.77-.27-.69-1.06-1-1.62S150.9,27.21,151,26.92Z"/><path class="cls-30" d="M171.47,81l-.93-.46a3.37,3.37,0,0,0-.21-.63c-2.22.25-.63-1.1-.74-1.74C172,78,171.75,79.47,171.47,81Z"/><path class="cls-31" d="M151.32,64.54c-.33-1.47.48-2.81.44-4.25a.86.86,0,0,1,.41-.45,3.53,3.53,0,0,1,.46,0c.31,1.56-.59,3.12,0,4.68l-.95,0C151.56,64.75,151.44,64.77,151.32,64.54Z"/><path class="cls-32" d="M157.35,49.93c0-.31,0-.62,0-.94V45.23A3.23,3.23,0,0,1,157.35,49.93Z"/><path class="cls-33" d="M176.18,36.75l1.89-.94c.06.61,1.36,1.11.47,1.66C177.85,37.89,176.58,38.25,176.18,36.75Z"/><path class="cls-14" d="M152.17,59.84l-.41.45c0-2.5,0-5,0-7.51C152.65,55.09,151.94,57.49,152.17,59.84Z"/><path class="cls-34" d="M181.88,62.68c1.69.47,1.55,1.59,1,2.85l-1.08-.06A2.57,2.57,0,0,1,181.88,62.68Z"/><path class="cls-35" d="M149.8,33.92c0-.94,0-1.88,0-2.82,1,.95,1,.95.8,3.77C150,34.81,150.05,34.25,149.8,33.92Z"/><path class="cls-36" d="M177.3,47.44c-.16-1-.5-1.83.58-2.15.35-.1.85-.06,1,.39C179.09,46.75,178.05,46.78,177.3,47.44Z"/><path class="cls-37" d="M151.69,29.21h.94c.65.16,1.25.54.22.85a11.79,11.79,0,0,1-3,.1h0C149.89,28.75,150.65,28.7,151.69,29.21Z"/><path class="cls-38" d="M175.7,75.84a7.67,7.67,0,0,1-1.89,2.72l-.46-.37c-.16-.71,1.11-1,.49-1.87,0-.29.28-.34.46-.48Z"/><path class="cls-39" d="M165.81,89.49c0-.31,0-.63,0-.95V85.73c.2-.92-.37-2,.47-2.78l0,6.54C166.1,89.67,166,89.66,165.81,89.49Z"/><path class="cls-40" d="M180,59.9c-1.08.56-1.82.38-3.22.16C178.13,59.2,178.86,58.78,180,59.9Z"/><path class="cls-41" d="M173.36,57.47c.74.09,1.73-.32,1.88.94C174.13,59.06,173.09,59.58,173.36,57.47Z"/><path class="cls-42" d="M174.3,53.71v.94a1.36,1.36,0,0,1,0,1.88h-.94C173.68,55.59,172.59,54.18,174.3,53.71Z"/><path class="cls-28" d="M165.82,28.27v-.94c.55.13,1.39-.33,1.56.48.07.32-.51,1-.93,1.16S166.25,28.33,165.82,28.27Z"/><path class="cls-43" d="M148,36.73a3.39,3.39,0,0,0,0-.45c.91-1,1.11.86,1.87.47a.58.58,0,0,1,.2.74,1.8,1.8,0,0,1-.19.2,1,1,0,0,0-1,.56C147.72,38.21,148.48,37.1,148,36.73Z"/><path class="cls-44" d="M153.58,66c.31.06.73-1.22.93,0a12.41,12.41,0,0,1,0,1.83C153.25,67.68,153.67,66.69,153.58,66Z"/><path class="cls-45" d="M181.26,36.26l1.44,1.9a1.17,1.17,0,0,1-.84.46C181.2,38,180.52,37.29,181.26,36.26Z"/><path class="cls-46" d="M181.88,62.68l-.06,2.79c-1.64-.78-.44-1.95-.41-3Z"/><path class="cls-6" d="M164.43,25.45c-.48.53-1-.17-1.43,0l-.48-.47-.46-.89c.64-.29.95.31,1.41.5C163.77,24.9,164.67,24.53,164.43,25.45Z"/><path class="cls-47" d="M151.32,64.54h.36v2.81c-.71-.45-.3-1.09-.52-1.55Z"/><path class="cls-48" d="M181.37,59.82c.8.78-.06,1.54,0,2.31A1.54,1.54,0,0,1,181.37,59.82Z"/><path class="cls-28" d="M174.3,75.84l-.46.48c-.44-.13-1.41.17-1.12-.6S173.76,75.68,174.3,75.84Z"/><path class="cls-49" d="M181.86,38.62a.83.83,0,0,1,.84-.46c.07.52.26,1.06-.36,1.4C181.93,39.38,181.87,39,181.86,38.62Z"/><path class="cls-50" d="M170.06,29.21l2.15.64c-1.13.51-1.72.18-2.15-.64Z"/><path class="cls-50" d="M166.13,80.88a1.78,1.78,0,0,1-.24-.57.57.57,0,0,1,.54-.64c.48,0,.54.18.22.49S166.68,80.84,166.13,80.88Z"/><path class="cls-51" d="M170.13,26.84l2.29.15a2.85,2.85,0,0,1-2.37.22S170,27.08,170,27,170.08,26.9,170.13,26.84Z"/><path class="cls-52" d="M150.75,37.69l-.07,1.56a1.75,1.75,0,0,1-.87-1.56h0A.62.62,0,0,1,150.75,37.69Z"/><path class="cls-53" d="M150.75,37.69h-.94c0-.32,0-.63,0-1,.24-.17.6-.55.69-.49C151.05,36.61,150.63,37.21,150.75,37.69Z"/><path class="cls-54" d="M170.06,29.21c-.56-.38-.41-.77.05-1.08.11-.07.38.12.57.19l-.62.89Z"/><path class="cls-45" d="M149.82,82.9V80.55A1.6,1.6,0,0,1,149.82,82.9Z"/><path class="cls-55" d="M154.52,45.23l-.94,1.87C153.67,46.37,153.25,45.38,154.52,45.23Z"/><path class="cls-24" d="M151.69,29.21c-.8,0-1.53.08-1.88.95h-.94c0-.21-.05-.43-.07-.64.41-.85,1.31-1.12,1.94-1.72Z"/><path class="cls-56" d="M158.76,25.92a1.11,1.11,0,0,1,.09-1.45c.25-.25.35.06.46.24.38.66,0,1-.55,1.21Z"/><path class="cls-57" d="M165.81,89.49c.15,0,.29,0,.43,0-.18.85-.87.48-1.31.48-4.67,0-9.33,0-14,0-1.06,0-1.92,0-1.48-1.47.11,0,.23,0,.35,0,.23,1.28,1.25.92,2,.92C156.49,89.51,161.15,89.49,165.81,89.49Z"/><path class="cls-58" d="M178.92,56.05c-.7.06-.84-.68-1.32-.93L179,52.77c.45.78-.08,1.58.05,2.37C179,55.44,179,55.75,178.92,56.05Z"/><path class="cls-59" d="M164.43,25.45l-1-.86a2.93,2.93,0,0,1,2.38.32l-.06.54Z"/><path class="cls-1" d="M174.3,56.53V54.65a.87.87,0,0,1,.91,1.06C175.17,56.28,174.8,56.47,174.3,56.53Z"/><path class="cls-60" d="M108.49,108c23.07-10,37.65-26.6,37.56-52.6S131.31,13.13,107.71,3.15c18.44,2.5,40.81,23.19,41,52.28C148.8,84.22,126.7,105.54,108.49,108Z"/><path class="cls-1" d="M14.1,42.81a7.09,7.09,0,0,1-2.91.52c-3.11,0-5.45-2-5.45-5.58A5.49,5.49,0,0,1,11.5,32a6,6,0,0,1,2.62.49l-.34,1.16a5.23,5.23,0,0,0-2.23-.45C9,33.15,7.24,34.8,7.24,37.7c0,2.7,1.56,4.43,4.24,4.43a5.86,5.86,0,0,0,2.33-.45Z"/><path class="cls-1" d="M25,37.53c0,3.8-2.31,5.82-5.13,5.82s-5-2.26-5-5.6c0-3.51,2.18-5.8,5.13-5.8S25,34.26,25,37.53Zm-8.57.18c0,2.36,1.28,4.47,3.52,4.47s3.54-2.08,3.54-4.58c0-2.2-1.15-4.49-3.52-4.49S16.41,35.29,16.41,37.71Zm5.91-8.12-2.07,1.9H19.07l1.52-1.9Z"/><path class="cls-1" d="M26.83,32.28a14.57,14.57,0,0,1,2.73-.23,4.54,4.54,0,0,1,3.2.9A2.75,2.75,0,0,1,33.62,35a2.89,2.89,0,0,1-2.07,2.82v0a2.76,2.76,0,0,1,1.62,2.23,17.63,17.63,0,0,0,.85,3H32.54a14.89,14.89,0,0,1-.73-2.64c-.33-1.52-.92-2.1-2.21-2.15H28.25v4.79H26.83Zm1.42,5h1.46c1.52,0,2.49-.83,2.49-2.09,0-1.43-1-2.05-2.54-2.06a5.65,5.65,0,0,0-1.41.13Z"/><path class="cls-1" d="M35.64,32.28a20.56,20.56,0,0,1,3-.23,6.32,6.32,0,0,1,4.47,1.37,5.1,5.1,0,0,1,1.56,4,5.85,5.85,0,0,1-1.59,4.29,6.81,6.81,0,0,1-4.88,1.58,23.46,23.46,0,0,1-2.59-.13ZM37.07,42a9.68,9.68,0,0,0,1.44.08c3,0,4.7-1.71,4.7-4.69,0-2.6-1.46-4.25-4.47-4.25a7.46,7.46,0,0,0-1.67.15Z"/><path class="cls-1" d="M56,37.53c0,3.8-2.31,5.82-5.13,5.82s-5-2.26-5-5.6c0-3.51,2.18-5.8,5.13-5.8S56,34.26,56,37.53Zm-8.56.18c0,2.36,1.27,4.47,3.52,4.47s3.53-2.08,3.53-4.58c0-2.2-1.14-4.49-3.52-4.49S47.42,35.29,47.42,37.71Z"/><path class="cls-1" d="M57.83,32.28a13.89,13.89,0,0,1,2.6-.23,4.52,4.52,0,0,1,3,.8,2.3,2.3,0,0,1,.92,1.95,2.61,2.61,0,0,1-1.87,2.42v0A2.85,2.85,0,0,1,64.79,40a3,3,0,0,1-.93,2.21,5.53,5.53,0,0,1-3.82,1,16,16,0,0,1-2.21-.13Zm1.43,4.52h1.29c1.51,0,2.39-.79,2.39-1.85,0-1.3-1-1.8-2.42-1.8a6.2,6.2,0,0,0-1.26.09Zm0,5.28a7.25,7.25,0,0,0,1.19.07c1.47,0,2.83-.54,2.83-2.14S62,37.88,60.43,37.88H59.26Z"/><path class="cls-1" d="M68.49,39.69l-1.14,3.48H65.87l3.75-11h1.72l3.77,11H73.58L72.4,39.69Zm3.62-1.11L71,35.4c-.25-.72-.41-1.37-.57-2h0c-.16.66-.34,1.33-.55,2l-1.08,3.19Z"/><path class="cls-1" d="M88.6,42.67a10.25,10.25,0,0,1-3.39.61,5.19,5.19,0,0,1-5.66-5.57c0-3.29,2.27-5.69,6-5.69a6.8,6.8,0,0,1,2.75.5l-.34,1.17a5.61,5.61,0,0,0-2.44-.48,4.13,4.13,0,0,0-4.44,4.44c0,2.8,1.69,4.45,4.26,4.45a4.76,4.76,0,0,0,1.9-.29V38.52H85V37.37H88.6Z"/><path class="cls-1" d="M90.78,32.13h1.43V42h4.71v1.2H90.78Z"/><path class="cls-1" d="M107.3,37.53c0,3.8-2.31,5.82-5.12,5.82s-5-2.26-5-5.6c0-3.51,2.17-5.8,5.12-5.8S107.3,34.26,107.3,37.53Zm-8.56.18c0,2.36,1.28,4.47,3.52,4.47s3.54-2.08,3.54-4.58c0-2.2-1.15-4.49-3.52-4.49S98.74,35.29,98.74,37.71Z"/><path class="cls-1" d="M109.15,32.28a14,14,0,0,1,2.61-.23,4.56,4.56,0,0,1,3,.8,2.32,2.32,0,0,1,.91,1.95,2.61,2.61,0,0,1-1.86,2.42v0A2.85,2.85,0,0,1,116.11,40a3,3,0,0,1-.93,2.21,5.5,5.5,0,0,1-3.81,1,16.08,16.08,0,0,1-2.22-.13Zm1.43,4.52h1.29c1.51,0,2.39-.79,2.39-1.85,0-1.3-1-1.8-2.42-1.8a6.28,6.28,0,0,0-1.26.09Zm0,5.28a7.47,7.47,0,0,0,1.2.07c1.47,0,2.83-.54,2.83-2.14s-1.3-2.13-2.85-2.13h-1.18Z"/><path class="cls-1" d="M119.82,39.69l-1.15,3.48H117.2l3.75-11h1.72l3.76,11h-1.52l-1.18-3.48Zm3.62-1.11-1.09-3.18c-.24-.72-.4-1.37-.57-2h0c-.17.66-.35,1.33-.56,2l-1.08,3.19Z"/><path class="cls-1" d="M128.05,32.13h1.43V42h4.71v1.2h-6.14Z"/><path class="cls-1" d="M12.13,60.26a6.06,6.06,0,0,1-2.52.45,4.46,4.46,0,0,1-4.72-4.83,4.76,4.76,0,0,1,5-5,5,5,0,0,1,2.26.43l-.29,1a4.64,4.64,0,0,0-1.93-.39c-2.24,0-3.72,1.43-3.72,3.93,0,2.34,1.34,3.84,3.66,3.84a4.92,4.92,0,0,0,2-.4Z"/><path class="cls-1" d="M18.62,56.1H14.91v3.44H19v1H13.68V51h5.15v1H14.91v3h3.71Z"/><path class="cls-1" d="M20.65,60.57V51H22l3.06,4.83A26.06,26.06,0,0,1,26.76,59l0,0c-.11-1.27-.14-2.43-.14-3.92V51h1.16v9.54H26.57l-3-4.84a30.18,30.18,0,0,1-1.78-3.19l0,0c.07,1.2.1,2.35.1,3.93v4.08Z"/><path class="cls-1" d="M31.78,52.08h-2.9V51h7.06v1H33v8.49H31.78Z"/><path class="cls-1" d="M37,51.16a12.52,12.52,0,0,1,2.36-.2,3.88,3.88,0,0,1,2.76.78,2.36,2.36,0,0,1,.75,1.81A2.5,2.5,0,0,1,41.09,56V56A2.38,2.38,0,0,1,42.49,58a16.18,16.18,0,0,0,.73,2.62H42a12,12,0,0,1-.64-2.28C41,57,40.52,56.48,39.4,56.44H38.24v4.13H37Zm1.23,4.34H39.5c1.32,0,2.15-.72,2.15-1.81s-.89-1.77-2.19-1.78a5,5,0,0,0-1.22.11Z"/><path class="cls-1" d="M52.83,55.7c0,3.29-2,5-4.43,5s-4.29-2-4.29-4.85,1.88-5,4.43-5S52.83,52.87,52.83,55.7Zm-7.41.16c0,2,1.11,3.86,3,3.86s3.06-1.8,3.06-4c0-1.9-1-3.88-3.05-3.88S45.42,53.76,45.42,55.86Z"/><path class="cls-1" d="M57.43,51.16a16.94,16.94,0,0,1,2.62-.2,5.48,5.48,0,0,1,3.87,1.19,4.39,4.39,0,0,1,1.35,3.42,5,5,0,0,1-1.38,3.71,5.83,5.83,0,0,1-4.22,1.38,20,20,0,0,1-2.24-.12Zm1.24,8.43a7.21,7.21,0,0,0,1.24.08c2.64,0,4.07-1.48,4.07-4.05,0-2.26-1.26-3.69-3.87-3.69a6.91,6.91,0,0,0-1.44.13Z"/><path class="cls-1" d="M71.81,56.1H68.1v3.44h4.14v1H66.87V51H72v1H68.1v3h3.71Z"/><path class="cls-1" d="M81.78,56.1H78.07v3.44h4.14v1H76.84V51H82v1H78.07v3h3.71Z"/><path class="cls-1" d="M83.64,59.07a4.36,4.36,0,0,0,2.21.62c1.26,0,2-.66,2-1.62s-.51-1.41-1.8-1.9c-1.56-.55-2.52-1.36-2.52-2.71s1.23-2.59,3.08-2.59a4.32,4.32,0,0,1,2.11.47l-.34,1a3.77,3.77,0,0,0-1.81-.45c-1.3,0-1.8.78-1.8,1.43,0,.89.59,1.33,1.9,1.84,1.62.63,2.44,1.4,2.44,2.81S88,60.71,85.77,60.71a5,5,0,0,1-2.44-.61Z"/><path class="cls-1" d="M92.61,52.08H89.7V51h7.07v1H93.85v8.49H92.61Z"/><path class="cls-1" d="M99.07,51v5.65c0,2.14,1,3,2.22,3s2.32-.93,2.32-3V51h1.25v5.56c0,2.93-1.55,4.14-3.61,4.14s-3.43-1.12-3.43-4.08V51Z"/><path class="cls-1" d="M107,51.16a16.74,16.74,0,0,1,2.62-.2,5.48,5.48,0,0,1,3.87,1.19,4.38,4.38,0,0,1,1.34,3.42,5,5,0,0,1-1.37,3.71,5.85,5.85,0,0,1-4.22,1.38,19.88,19.88,0,0,1-2.24-.12Zm1.23,8.43a7.33,7.33,0,0,0,1.25.08c2.63,0,4.06-1.48,4.06-4.05,0-2.26-1.26-3.69-3.86-3.69a7.1,7.1,0,0,0-1.45.13Z"/><path class="cls-1" d="M117.67,51v9.54h-1.24V51Z"/><path class="cls-1" d="M128,55.7c0,3.29-2,5-4.44,5s-4.29-2-4.29-4.85,1.89-5,4.44-5S128,52.87,128,55.7Zm-7.41.16c0,2,1.11,3.86,3,3.86s3.06-1.8,3.06-4c0-1.9-1-3.88-3-3.88S120.57,53.76,120.57,55.86Z"/><path class="cls-1" d="M129.41,59.07a4.36,4.36,0,0,0,2.21.62c1.26,0,2-.66,2-1.62s-.51-1.41-1.8-1.9c-1.56-.55-2.52-1.36-2.52-2.71s1.23-2.59,3.08-2.59a4.32,4.32,0,0,1,2.11.47l-.34,1a3.77,3.77,0,0,0-1.81-.45c-1.3,0-1.8.78-1.8,1.43,0,.89.58,1.33,1.9,1.84,1.62.63,2.44,1.4,2.44,2.81s-1.09,2.74-3.35,2.74a4.91,4.91,0,0,1-2.43-.61Z"/><path class="cls-1" d="M7.8,64.39v11H6.38v-11Z"/><path class="cls-1" d="M10.29,75.43v-11h1.55L15.38,70a30.09,30.09,0,0,1,2,3.58h0c-.13-1.48-.16-2.82-.16-4.54V64.39h1.34v11H17.13l-3.5-5.6a33.56,33.56,0,0,1-2.06-3.69l-.05,0c.08,1.39.11,2.72.11,4.55v4.72Z"/><path class="cls-1" d="M23.15,65.6H19.8V64.39H28V65.6H24.6v9.83H23.15Z"/><path class="cls-1" d="M34.91,70.25H30.62v4H35.4v1.2H29.19v-11h6v1.2H30.62v3.49h4.29Z"/><path class="cls-1" d="M37.25,64.54A14.57,14.57,0,0,1,40,64.31a4.51,4.51,0,0,1,3.19.9,2.75,2.75,0,0,1,.87,2.1A2.89,2.89,0,0,1,42,70.12v0a2.76,2.76,0,0,1,1.62,2.23,17.33,17.33,0,0,0,.86,3H43a14.35,14.35,0,0,1-.73-2.64c-.33-1.52-.92-2.09-2.21-2.14H38.67v4.78H37.25Zm1.42,5h1.46c1.52,0,2.49-.84,2.49-2.1,0-1.42-1-2-2.54-2.06a5.65,5.65,0,0,0-1.41.13Z"/><path class="cls-1" d="M46.05,75.43v-11h1.56L51.15,70a31.59,31.59,0,0,1,2,3.58h0C53,72.07,53,70.73,53,69V64.39h1.34v11H52.9l-3.51-5.6a35.29,35.29,0,0,1-2.06-3.69l0,0c.08,1.39.12,2.72.12,4.55v4.72Z"/><path class="cls-1" d="M58.61,72l-1.15,3.47H56l3.75-11h1.72l3.76,11H63.7L62.52,72Zm3.62-1.12-1.08-3.17c-.25-.72-.41-1.38-.58-2h0c-.16.66-.34,1.33-.55,2L58.9,70.84Z"/><path class="cls-1" d="M74.31,75.07a7.13,7.13,0,0,1-2.91.52c-3.12,0-5.46-2-5.46-5.58a5.49,5.49,0,0,1,5.77-5.8,6.05,6.05,0,0,1,2.62.49L74,65.87a5.07,5.07,0,0,0-2.23-.46c-2.58,0-4.3,1.65-4.3,4.55,0,2.7,1.55,4.44,4.24,4.44A5.63,5.63,0,0,0,74,73.94Z"/><path class="cls-1" d="M77.52,64.39v11H76.09v-11Z"/><path class="cls-1" d="M89.43,69.8c0,3.79-2.3,5.81-5.12,5.81s-5-2.26-5-5.6c0-3.51,2.18-5.8,5.12-5.8S89.43,66.52,89.43,69.8ZM80.87,70c0,2.35,1.28,4.47,3.52,4.47s3.54-2.08,3.54-4.59c0-2.19-1.15-4.48-3.52-4.48S80.87,67.55,80.87,70Z"/><path class="cls-1" d="M91.28,75.43v-11h1.56L96.37,70a31.77,31.77,0,0,1,2,3.58h0c-.13-1.48-.17-2.82-.17-4.54V64.39h1.35v11H98.13l-3.51-5.6a35.29,35.29,0,0,1-2.06-3.69l0,0c.08,1.39.11,2.72.11,4.55v4.72Z"/><path class="cls-1" d="M103.84,72l-1.15,3.47h-1.47l3.75-11h1.72l3.76,11h-1.52L107.75,72Zm3.62-1.12-1.09-3.17c-.24-.72-.4-1.38-.57-2h0c-.16.66-.34,1.33-.56,2l-1.08,3.19Z"/><path class="cls-1" d="M112.07,64.39h1.43v9.84h4.71v1.2h-6.14Z"/><path class="cls-1" d="M125.51,70.25h-4.29v4H126v1.2h-6.2v-11h6v1.2h-4.54v3.49h4.29Z"/><path class="cls-1" d="M127.65,73.69a5,5,0,0,0,2.56.72c1.46,0,2.31-.77,2.31-1.88s-.59-1.62-2.08-2.19c-1.8-.64-2.92-1.58-2.92-3.13,0-1.72,1.43-3,3.57-3a5.11,5.11,0,0,1,2.44.54l-.39,1.17a4.36,4.36,0,0,0-2.1-.53c-1.5,0-2.08.9-2.08,1.66,0,1,.68,1.53,2.2,2.12,1.86.72,2.81,1.62,2.81,3.25s-1.26,3.17-3.86,3.17a5.77,5.77,0,0,1-2.82-.7Z"/></svg>