<svg id="Capa_1" data-name="Capa 1" xmlns="http://www.w3.org/2000/svg" viewBox="0 0 300 300"><defs><style>.cls-1{fill:#f6f6f6;}</style></defs><path class="cls-1" d="M164.88,59.91H278.15c12.75,0,21.84,9,21.84,21.75q0,68.34,0,136.68c0,12.69-9.1,21.75-21.84,21.75H51.92c-13,0-22-9-22-21.94,0-5.09-.06-10.19,0-15.28,0-2-.69-2.84-2.73-2.75-2.28.11-4.57.07-6.86,0C17,200,15,198.09,15,195s1.93-5.13,5.29-5.24c2.28-.07,4.57-.1,6.86,0,1.92.08,2.86-.5,2.84-2.63q-.12-12.17,0-24.33c0-2.15-1-2.63-2.86-2.61-6.66.06-13.31,0-20,0-5,0-7.18-1.61-7.14-5.28s2.17-5.13,7.29-5.14c6.45,0,12.9-.1,19.35.05,2.63.07,3.36-.86,3.35-3.41-.08-21.63-.06-43.26,0-64.9,0-12.5,9.14-21.6,21.67-21.61ZM50.14,70.57c1.73,1.54,2.83,2.57,4,3.54l53.35,45.13q23.46,19.85,46.94,39.66c6.61,5.55,14.42,5.5,21.07.07,2-1.64,4-3.34,6-5q48.23-40.8,96.44-81.61c.49-.41,1.41-.66,1-1.77Zm1.29,158.24.16.62H279.1c-1.25-1-1.92-1.58-2.66-2.09q-44.49-30.27-89-60.57c-1.82-1.24-3-1.35-4.79.18-10.92,9.14-24.22,9.28-35,.33-2.09-1.74-3.38-1.76-5.54-.28q-41.34,28.26-82.79,56.33C56.68,225.14,54.06,227,51.43,228.81ZM289.58,150.1q0-32.76,0-65.52a38.91,38.91,0,0,0-.22-4c-.23-2.13-1-3.22-3-1.24-.37.36-.8.66-1.2,1l-88.82,75.15c-2.83,2.39-2.83,2.43.28,4.55q43.32,29.48,86.67,58.93c1.64,1.11,3.41,3.61,5.2,2.57,1.56-.92,1.06-3.8,1.06-5.88ZM40.36,114.76c0,10.61.06,21.22,0,31.82,0,2.42.67,3.33,3.19,3.25,5.09-.16,10.18-.06,15.28,0,4.4,0,6.55,1.77,6.52,5.28s-2.17,5.12-6.67,5.13c-4,0-7.9,0-11.85,0-7.29.1-6.26-1.15-6.48,6.46-.07,2.6,1,3.2,3.32,3.12,3.84-.13,7.69-.1,11.54,0a4.88,4.88,0,0,1,5.14,5.06c0,3.14-1.91,5.19-5.23,5.3-2.7.08-5.4,0-8.11,0-7.49.18-6.54-1.64-6.62,7.21,0,1.78.78,2.39,2.46,2.35,2.5-.06,5-.08,7.49,0a5.18,5.18,0,0,1,0,10.35c-2.49.11-5,.09-7.48,0-1.7,0-2.46.61-2.44,2.37.06,5.19-.09,10.4.08,15.59.14,4.35.75,4.57,4.39,2.1L114.2,173c6.62-4.5,13.2-9.05,19.86-13.5,1.76-1.17,2.1-2.15.26-3.46-.51-.36-.94-.82-1.42-1.23q-43.82-37-87.65-74.07c-1.15-1-2.36-3-3.7-2.37s-1.1,2.91-1.18,4.55c0,.52,0,1,0,1.56Z"/><path class="cls-1" d="M15.44,169.77c1.66,0,3.31-.07,5,0a5.17,5.17,0,0,1-.06,10.34c-3.51.11-7,.12-10.55,0a4.81,4.81,0,0,1-4.8-5,4.88,4.88,0,0,1,4.87-5.29C11.71,169.69,13.58,169.78,15.44,169.77Z"/></svg>