<svg id="Capa_1" data-name="Capa 1" xmlns="http://www.w3.org/2000/svg" viewBox="0 0 300 300"><defs><style>.cls-1{fill:#f6f6f6;}</style></defs><path class="cls-1" d="M298.69,38.61V262.46l-.42,2A43.85,43.85,0,0,1,254.89,300c-22.34,0-44.69,0-67,.06-2.73,0-3.7-.72-3.7-3.59q.14-49.4,0-98.79c0-2.75.75-3.71,3.6-3.68,12.14.13,24.28.05,36.43.05,4.24,0,4.22,0,4.91-4.26q3.6-22,7.28-43.91c.58-3.47.33-3.84-3.32-3.84H188.2c-4,0-4,0-4-4.07q0-13.84,0-27.68c0-4.24,0-4.25,4.39-4.25,15.06,0,30.11,0,45.17,0,2.38,0,3.54-.53,3.53-3.23-.1-15.25-.08-30.5,0-45.75,0-2.24-.77-3.13-3.06-3.09-18,.33-35.93-.66-53.88.55-15,1-27.07,7.74-36.51,19.25C135.45,84,132.27,96,132.21,109c-.05,9.91-.08,19.82,0,29.73,0,2.55-.79,3.37-3.34,3.34-9.42-.12-18.85,0-28.27-.08-2.46,0-3.46.69-3.45,3.31q.13,22.72,0,45.46c0,2.59,1,3.35,3.44,3.32,9.13-.1,18.26,0,27.39,0,4.17,0,4.19,0,4.19,4.15v97.63c0,4.15,0,4.16-4.18,4.17q-42.54,0-85.09,0C19.69,299.94,0,280.26,0,257Q0,150.6,0,44.24A41.33,41.33,0,0,1,5.88,22.89C13,10.77,23.8,3.82,37.54,1.31H261.39a47.51,47.51,0,0,1,15.28,5.36C289,13.87,296.14,24.66,298.69,38.61Z"/></svg>