<svg id="Capa_1" data-name="Capa 1" xmlns="http://www.w3.org/2000/svg" viewBox="0 0 50 50"><defs><style>.cls-1{fill:#e05206;}</style></defs><path class="cls-1" d="M14,49a3.74,3.74,0,0,1-2.19-1.64,3.44,3.44,0,0,1,.64-4.25c.46-.49.95-1,1.42-1.43L30,25.47c.47-.47.47-.47,0-.94Q21.28,15.78,12.54,7a3.69,3.69,0,0,1-1.23-2.59,3.4,3.4,0,0,1,2.31-3.3L14,1h1.5a5.64,5.64,0,0,1,2.32,1.6q9.82,9.87,19.68,19.72a3.73,3.73,0,0,1,1.23,2.49,3.61,3.61,0,0,1-1.2,2.84l-8.7,8.71q-5.5,5.52-11,11A5.74,5.74,0,0,1,15.46,49Z"/></svg>