<svg id="Capa_1" data-name="Capa 1" xmlns="http://www.w3.org/2000/svg" viewBox="0 0 50 50"><defs><style>.cls-1{fill:#e05206;}</style></defs><path class="cls-1" d="M34.54,49a5.77,5.77,0,0,1-2.36-1.63L12.54,27.69a3.67,3.67,0,0,1-1.24-2.58,3.62,3.62,0,0,1,1.21-2.74l8.83-8.82L32.62,2.27A3.57,3.57,0,0,1,35.39,1a3.25,3.25,0,0,1,2.94,1.9,3.22,3.22,0,0,1-.28,3.45,6.06,6.06,0,0,1-.71.81L20,24.49c-.52.53-.52.53,0,1.07q8.69,8.69,17.37,17.36a3.68,3.68,0,0,1,1.25,2.62,3.37,3.37,0,0,1-2.3,3.29L36,49Z"/></svg>