<svg id="Capa_1" data-name="Capa 1" xmlns="http://www.w3.org/2000/svg" viewBox="0 0 50 50"><defs><style>.cls-1{fill:#fff;}.cls-2{fill:#e05206;}</style></defs><circle class="cls-1" cx="24.5" cy="25.5" r="22.5"/><path class="cls-2" d="M27.1,50.1H23c-.78-.12-1.58-.19-2.35-.35C10.71,47.66,4.19,41.75,1,32.1A25.5,25.5,0,0,1,.1,27.19V23.1c.11-.79.19-1.58.35-2.35,2.09-9.95,8-16.47,17.64-19.61A25.65,25.65,0,0,1,23,.2h4.1c.78.11,1.57.18,2.35.35Q44.36,3.68,49.06,18.19A26.29,26.29,0,0,1,50,23.1v4.09c-.11.79-.19,1.58-.35,2.36Q46.5,44.46,32,49.16A26.6,26.6,0,0,1,27.1,50.1ZM25,46.17a21,21,0,1,0-21-21A21.06,21.06,0,0,0,25,46.17Z"/><path class="cls-2" d="M34.72,31.15a2.2,2.2,0,0,1-1.62-.79l-7.58-7.57c-.47-.47-.47-.47-.94,0L17,30.4A2,2,0,0,1,15,31a1.85,1.85,0,0,1-1.4-1.48,2,2,0,0,1,.67-2c2.19-2.17,4.37-4.36,6.55-6.54.89-.89,1.78-1.79,2.69-2.68a2,2,0,0,1,3.16,0L36,27.62a2,2,0,0,1-.68,3.44A5.21,5.21,0,0,1,34.72,31.15Z"/></svg>