<svg id="Capa_1" data-name="Capa 1" xmlns="http://www.w3.org/2000/svg" viewBox="0 0 206.33 75.4"><defs><style>.cls-1{fill:#df0a14;}.cls-2{fill:#253776;}</style></defs><path class="cls-1" d="M50.72,65.05c-.55-1.13-1.11-2.27-1.67-3.4A1.88,1.88,0,0,1,48.94,60a1.13,1.13,0,0,0,.06-.41c0-1.77.41-3.5.44-5.27a12.77,12.77,0,0,1,.19-1.62,3.42,3.42,0,0,0-.4-2,8.16,8.16,0,0,0-2.71-3.83,1.19,1.19,0,0,1-.46-1c0-.67-.07-1.35,0-2,.06-1-.28-1.86-.25-2.82,0-.51-.56-.38-.86-.44-.87-.19-1.8-.17-2.64-.44a8.71,8.71,0,0,1-2.67-1.64.57.57,0,0,1-.22-.48,2.22,2.22,0,0,0-1.2-2c-1.88-1-2.95-2.81-4.12-4.5a1.15,1.15,0,0,1-.18-.66,19.45,19.45,0,0,1,0-2,3.81,3.81,0,0,0-1.47-3.19c-1.31-1.25-2.64-2.47-3.94-3.73a.73.73,0,0,0-1-.18,16.69,16.69,0,0,1-2.83,1,.7.7,0,0,1-.53,0L22.79,22a1.63,1.63,0,0,1-1-1.4A8.51,8.51,0,0,1,22,17.19a1.27,1.27,0,0,0-.34-1.07c-.8-1-.79-1.08,0-2.1.5-.64,1-1.26,1.49-1.92a1,1,0,0,1,1.12-.48c2.1.54,4.31.56,6.32,1.47a2.33,2.33,0,0,0,1.43.05c.78-.12,1.56-.32,2.35-.38a7,7,0,0,1,2.86.77A10.76,10.76,0,0,0,42,14c1.1-.1,2.19-.45,3.31-.56a.94.94,0,0,1,1.08.73c.28.78.62,1.53.87,2.31a1.19,1.19,0,0,1-.31,1.38,20.48,20.48,0,0,0-1.39,1.55,1.22,1.22,0,0,0,.3,2.06c.56.36,1.13.7,1.68,1.07.34.23.52.19.49-.25a17.32,17.32,0,0,1,.42-3.2c.07-.6.6-.75,1.12-.63a15.48,15.48,0,0,1,2.08.62,1.16,1.16,0,0,1,.67,1c0,.28.19.47.4.49a2,2,0,0,1,1.29.86,14.5,14.5,0,0,0,2.15,1.85,1.05,1.05,0,0,1,.4,1.48c-.4.79-.63,1.64-1.55,2.08-.42.2-.48.79-.69,1.22a5.3,5.3,0,0,1-2.75,2.74c-.27.1-.61.23-.61.59a3.24,3.24,0,0,1-2,2.77,8.56,8.56,0,0,1-4.2,1.61c-.28,0-.77,0-.88.47a1,1,0,0,0,.47,1.17,13.2,13.2,0,0,0,2.17.81c.18.07.36-.07.45-.26a4.52,4.52,0,0,1,.23-.5c.71-1.41.73-1.33,2.28-1.06a10.41,10.41,0,0,0,3,.21A1.64,1.64,0,0,1,54,37.1a3.88,3.88,0,0,0,2.16,1.08c1.12.3,1.72,1.25,2.42,2.07a.39.39,0,0,1,.07.33c-.33.82.2.78.76.82a7,7,0,0,1,2.82.83c.6.34,1.23.61,1.84.94a.93.93,0,0,1,.44,1.48c-.32.56-.63,1.13-1,1.68a4.8,4.8,0,0,0-.64,2.15A8.45,8.45,0,0,1,62.66,50a1.09,1.09,0,0,1-.65.68,5.09,5.09,0,0,1-.95.38c-1.22.2-1.52,1-1.52,2.09a1.68,1.68,0,0,1-.49,1.18c-.44.47-.89.94-1.29,1.45a2,2,0,0,1-1.34.73,1.54,1.54,0,0,0-1.29,1.3A6.91,6.91,0,0,1,54,60.38a1,1,0,0,0,0,1.33,1,1,0,0,1,0,1.15c-.45.74-.91,1.48-1.37,2.22a1.13,1.13,0,0,1-1.25.55C51.38,65.19,51,65.17,50.72,65.05ZM41.91,37.68a17.2,17.2,0,0,1,.39-2.79.82.82,0,0,1,.61-.69,13.69,13.69,0,0,1,2.16-.41c1,0,1.76-.74,2.64-1.13a2.6,2.6,0,0,0,1.54-2.32,1.25,1.25,0,0,1,1.24-1.23,2,2,0,0,0,1.26-.76,7.25,7.25,0,0,0,1-1.53c.28-.53.34-1.19.91-1.57,1-.67,1-.72.06-1.44-.68-.5-1.08-1.36-2-1.59-.68-.18-1.3-.36-1.26-1.26a.33.33,0,0,0-.38-.32c-.19.05-.21.23-.2.4,0,1.31-.35,2.6-.24,3.92a1,1,0,0,1-.85,1.13c-.77.06-1.72-.39-1.84-.88v-.07a1.72,1.72,0,0,0-1-1.42c-.74-.37-1.42-.86-2.13-1.28a1.17,1.17,0,0,1-.66-1.26,9.57,9.57,0,0,0,.17-1.5,1.66,1.66,0,0,1,.48-1.25l.81-.86c.8-.84.79-.84.32-1.89a.44.44,0,0,0-.59-.28,25,25,0,0,1-2.83.49,11.17,11.17,0,0,1-5.15-.7,5.88,5.88,0,0,0-3.5-.37c-.77.17-1.64.56-2.38.23a24.25,24.25,0,0,0-4.62-1.23c-1.05-.24-1.87-.34-2.45.8-.19.36-.29.56,0,.87a1.73,1.73,0,0,1,.38,1.73,8.06,8.06,0,0,0-.36,2.44,1,1,0,0,0,1.35,1,12.68,12.68,0,0,0,2.55-1,1.39,1.39,0,0,1,1.74.31c1.46,1.39,3,2.74,4.41,4.14S36,27,35.75,29.14a6.86,6.86,0,0,0,0,1.11.76.76,0,0,0,.1.53c1,1.23,1.7,2.66,3.17,3.43a5.3,5.3,0,0,1,2.28,2.88A.9.9,0,0,0,41.91,37.68Zm8.82,22.53a4.49,4.49,0,0,0,.77,2c.08.15.12.43.36.3s.12-.33,0-.5A1.8,1.8,0,0,1,52,60a6.13,6.13,0,0,0,1.13-2.46c.09-1.21.95-1.88,1.67-2.66.09-.09.31,0,.46-.1a3.64,3.64,0,0,0,1.13-.4A4.24,4.24,0,0,0,58,51a1.1,1.1,0,0,1,.76-1c.61-.26,1.22-.53,1.84-.77.29-.1.36-.27.4-.56A6.84,6.84,0,0,1,62.16,45c.4-.49.12-.67-.29-.9a14.29,14.29,0,0,0-4.7-1.2c-.89-.15-1.26-.65-.94-1.45a1,1,0,0,0-.89-1.56A3.35,3.35,0,0,1,53.26,39c-.18-.21-.41-.46-.67-.46a13,13,0,0,1-3.34-.4.23.23,0,0,0-.29.13,8,8,0,0,0-1.2,2.69,42.48,42.48,0,0,0,.17,4.36.82.82,0,0,0,.41.69,6.12,6.12,0,0,1,2.1,2.84,13.69,13.69,0,0,1,1.05,2.45,12.42,12.42,0,0,1-.2,4.12A41.27,41.27,0,0,1,50.73,60.21Z"/><path class="cls-2" d="M50.72,65.05c.29.12.66.14.67.58a13.08,13.08,0,0,1-3.23,1.52,33.57,33.57,0,0,1-3.58.78,41.69,41.69,0,0,1-5.47.14,23.31,23.31,0,0,1-4.62-.54A35.16,35.16,0,0,1,23,63.32a32.36,32.36,0,0,1-4.89-3.4,37.36,37.36,0,0,1-4.53-4.54,30.73,30.73,0,0,1-3.73-5.54,29.57,29.57,0,0,1-2.39-6A37.23,37.23,0,0,1,6.4,38a25.08,25.08,0,0,1-.11-5,40.76,40.76,0,0,1,.87-5.9,33.25,33.25,0,0,1,5-11.44,30.3,30.3,0,0,1,9.71-9,31.48,31.48,0,0,1,6.84-3c.19-.06.43-.23.55,0s-.22.34-.4.42a38.47,38.47,0,0,0-6.42,3.75,32.2,32.2,0,0,0-5.81,5.5,31.38,31.38,0,0,0-4.51,7.23,24.22,24.22,0,0,0-1.82,5.59c-.25,1.34-.64,2.67-.76,4A31.91,31.91,0,0,0,9.49,37a31.37,31.37,0,0,0,2.56,9.61,34,34,0,0,0,3.77,6.21,32.84,32.84,0,0,0,9,7.92,34.28,34.28,0,0,0,7.85,3.48c1.54.49,3.13.73,4.67,1.17a4.39,4.39,0,0,0,1.28.15c1,0,2,.25,3.08.31,1.23.08,2.45.12,3.67.14a20.08,20.08,0,0,0,4.76-.59A2.2,2.2,0,0,0,50.72,65.05Z"/><path class="cls-1" d="M50.64,10.71a6.6,6.6,0,0,1,0-1,1.09,1.09,0,0,1,.71-1,3.07,3.07,0,0,1,3.35.52c1.31,1,2.64,1.93,3.95,2.91.33.24.65.51.31,1-.21.3,0,.55.26.77a2,2,0,0,1,.24,2.74,1.92,1.92,0,0,0-.29,1.09,5.29,5.29,0,0,1-.31,1.32c-.11.54-.62.47-1,.31a2,2,0,0,1-.63-.43A4.5,4.5,0,0,0,55,17.88a3,3,0,0,1-.38-.15c-.71-.3-.82-.76-.28-1.31a6.36,6.36,0,0,0,1-1,1.21,1.21,0,0,0-.89-1.75,9.88,9.88,0,0,0-2.24-.19c-.41,0-.64-.27-.83-.55C50.9,12.24,50.36,11.55,50.64,10.71Zm7,6.75c.2-.47-.14-.68-.29-.94-.38-.67-.17-1.09.6-1.18.13,0,.31.06.34-.13s-.13-.23-.21-.33c-.26-.32-.79-.54-.71-1,.17-.93-.49-1.23-1.06-1.63-.38-.26-.74-.55-1.12-.82A14.32,14.32,0,0,0,53.12,10c-.34-.15-.75-.3-1,.16a1.28,1.28,0,0,0,1.32,2,3.12,3.12,0,0,1,3.13,1.41,1.63,1.63,0,0,0,.33.36A.93.93,0,0,1,57,15.4a6.89,6.89,0,0,0-.51,1c-.1.18-.21.32.09.41A4.4,4.4,0,0,1,57.69,17.46Z"/><path class="cls-1" d="M38.91,7.38a6.64,6.64,0,0,0,1.21-.44.87.87,0,0,1,1,0c.3.15.54.2.79-.22.37-.62,1.06-.35,1.59-.29s.6.53.61,1a5.73,5.73,0,0,1,0,.83,1,1,0,0,0,.55,1,1.52,1.52,0,0,1,.58,1.82c-.18.71-.52,1-1.25.82a3.12,3.12,0,0,0-1.88.21l-.19.09A7.42,7.42,0,0,1,39,11.09a.28.28,0,0,1,0-.2c.25-1-.43-1.85-.2-2.81.13-.53-.3-.41-.56-.34a3.94,3.94,0,0,0-2,1.56.89.89,0,0,1-1,.37c-.89-.22-1.54-.74-1.13-1.73.26-.63.21-1.38.53-2a1.06,1.06,0,0,1,1.17-.72A4.14,4.14,0,0,1,38.26,6,1.47,1.47,0,0,1,38.91,7.38ZM42.77,8.5c-.63.63-1.17.22-1.67-.05s-.71-.28-.9.09.3.4.52.51c.55.28,1,.54.7,1.31-.15.38.24.5.5.36a4.35,4.35,0,0,1,1.73-.42A1.63,1.63,0,0,1,42.77,8.5Zm-6-1.69c-.87-.21-1-.07-.91.76Z"/><path class="cls-2" d="M201.09,49.75v1.86H71.63V49.75Z"/><path class="cls-2" d="M133.61,33.25v12.5a1.82,1.82,0,0,1-1.15,1.77,1.64,1.64,0,0,1-1.94-.55,2.13,2.13,0,0,1-.4-1.16q0-8.79,0-17.58a1.75,1.75,0,0,1,3.2-1.06q5.15,6.57,10.27,13.15a1.09,1.09,0,0,0,.4.35v-.52c0-4,0-8,0-12a1.71,1.71,0,0,1,1.18-1.69,1.65,1.65,0,0,1,2,.64,2.6,2.6,0,0,1,.33,1.28c0,5.63,0,11.26,0,16.88,0,.22,0,.44,0,.66a1.72,1.72,0,0,1-3.1,1l-6.14-7.84L134,33.69C133.9,33.57,133.79,33.46,133.61,33.25Z"/><path class="cls-2" d="M127.41,45.87a1.83,1.83,0,0,1-1.36,1.7,1.63,1.63,0,0,1-2-.92c-.47-1.06-.91-2.13-1.34-3.21a.46.46,0,0,0-.51-.35h-7.94a.46.46,0,0,0-.49.33c-.43,1.07-.87,2.15-1.33,3.2a1.71,1.71,0,0,1-1.93,1,1.77,1.77,0,0,1-1.38-1.83,2.36,2.36,0,0,1,.18-.68q3.63-8.7,7.25-17.41a1.76,1.76,0,0,1,3.36,0q3.61,8.72,7.25,17.42C127.28,45.36,127.33,45.62,127.41,45.87Zm-12-6.27h5.76l-2.89-6.89Z"/><path class="cls-2" d="M151.37,45.9a6.73,6.73,0,0,1,.23-.8q3.63-8.76,7.29-17.5a1.74,1.74,0,0,1,3.3.06q3.31,8,6.62,15.9c.22.54.46,1.07.67,1.6a1.73,1.73,0,0,1-.89,2.32,1.69,1.69,0,0,1-2.31-1q-.65-1.5-1.26-3a.56.56,0,0,0-.59-.4q-3.9,0-7.8,0a.56.56,0,0,0-.61.43c-.4,1-.82,2-1.26,3a1.72,1.72,0,0,1-1.93,1.07A1.86,1.86,0,0,1,151.37,45.9Zm12-6.27c-1-2.32-1.91-4.56-2.89-6.92l-2.88,6.92Z"/><path class="cls-2" d="M99.23,47.63a10.59,10.59,0,1,1,6.34-19.11,1.72,1.72,0,0,1,.52,2.53,1.75,1.75,0,0,1-2.57.29,7.12,7.12,0,1,0-4,12.8A7,7,0,0,0,104,42.36,1.75,1.75,0,1,1,106.29,45,10.37,10.37,0,0,1,99.23,47.63Z"/><path class="cls-2" d="M80.82,37q0-4.38,0-8.74a1.75,1.75,0,0,1,1.22-1.75,1.71,1.71,0,0,1,2,.73,2.17,2.17,0,0,1,.28,1c0,5.84,0,11.68,0,17.52a1.74,1.74,0,1,1-3.48,0C80.82,42.87,80.83,40,80.82,37Z"/><path class="cls-2" d="M71.63,37.05V28.22a1.74,1.74,0,0,1,1.15-1.67,1.68,1.68,0,0,1,2,.61,2,2,0,0,1,.35,1c0,5.89,0,11.78,0,17.67a1.74,1.74,0,1,1-3.48,0C71.62,42.91,71.63,40,71.63,37.05Z"/><path class="cls-2" d="M76.29,64.37a2.51,2.51,0,0,1,.91,2A2.74,2.74,0,0,1,74.45,69c-1,0-1.91,0-2.87,0a.73.73,0,0,1-.82-.81c0-2.51,0-5,0-7.52,0-.49.23-.77.7-.78a29.88,29.88,0,0,1,3.14,0,2.59,2.59,0,0,1,1.81,4.29A1.11,1.11,0,0,0,76.29,64.37Zm-4.05.81c0,.74,0,1.42,0,2.1a.35.35,0,0,0,.21.23,19.24,19.24,0,0,0,2.15,0,1.15,1.15,0,0,0,1.1-1.18,1.2,1.2,0,0,0-1.19-1.1C73.79,65.15,73.05,65.18,72.24,65.18Zm0-1.51c.76,0,1.48,0,2.2,0a1.23,1.23,0,0,0,1.09-1.11,1,1,0,0,0-.86-1.12,21.85,21.85,0,0,0-2.43,0Z"/><path class="cls-2" d="M128.22,66c0-.25,0-.4,0-.55V60.74c0-.56.29-.9.74-.9s.74.36.74.9c0,2.44,0,4.89,0,7.33a.79.79,0,0,1-.5.86c-.43.16-.71-.05-1-.38-1.38-1.78-2.77-3.55-4.16-5.33l-.35-.42c0,.26,0,.41,0,.56v4.7c0,.58-.29.94-.75.93s-.74-.36-.74-.95V60.8a.81.81,0,0,1,.5-.9c.44-.17.71.07,1,.39l4.19,5.37Z"/><path class="cls-2" d="M172.05,62.93v5.16c0,.54-.3.9-.74.9s-.74-.34-.74-.89q0-3.69,0-7.38a.76.76,0,0,1,1.42-.48q2,2.64,4.1,5.26l.4.51c0-.2.05-.31.05-.42V60.93a3,3,0,0,1,0-.42.77.77,0,0,1,.78-.67.73.73,0,0,1,.69.75c0,1,0,1.94,0,2.91V68c0,.4,0,.76-.47.92s-.74-.07-1-.41q-2-2.59-4-5.18l-.35-.43Z"/><path class="cls-2" d="M89,65.91v-5.2a.77.77,0,0,1,.73-.87c.44,0,.75.35.75.88V68c0,.43,0,.83-.52,1s-.72-.13-1-.45l-4-5.19-.37-.46c0,.19,0,.3-.06.41V67.9a3,3,0,0,1,0,.52.72.72,0,0,1-1.42,0A1.93,1.93,0,0,1,83,68V60.67a.75.75,0,0,1,.54-.79.73.73,0,0,1,.85.34l3.38,4.33,1.1,1.39Z"/><path class="cls-2" d="M111.3,64.42A4.61,4.61,0,1,1,115.88,69,4.56,4.56,0,0,1,111.3,64.42Zm1.49,0a3.12,3.12,0,1,0,3.12-3.08A3.09,3.09,0,0,0,112.79,64.39Z"/><path class="cls-2" d="M199.34,65l1.4,2.84A.73.73,0,0,1,200.3,69a.72.72,0,0,1-.88-.45c-.44-.91-.93-1.81-1.34-2.74a.87.87,0,0,0-1.06-.63c-.18,0-.37,0-.61,0v2.68a2.6,2.6,0,0,1,0,.56.72.72,0,0,1-1.41,0,2,2,0,0,1,0-.42v-7c0-.91.18-1.1,1.11-1.09a26.36,26.36,0,0,1,2.81.07,2.59,2.59,0,0,1,.74,5Zm-2.89-1.33h1.75a1.93,1.93,0,0,0,.42,0,1.16,1.16,0,0,0-.08-2.31c-.68,0-1.37,0-2.09,0Z"/><path class="cls-2" d="M188.68,61.31v2.37h2.6c.59,0,.95.28.94.74s-.36.73-.95.74H188.7v2.33l.5,0h3.24c.55,0,.84.27.85.73a.72.72,0,0,1-.79.74q-2.28,0-4.56,0a.71.71,0,0,1-.77-.81q0-3.75,0-7.52c0-.56.27-.82.84-.83h4.41c.56,0,.88.3.87.77s-.31.71-.87.71h-3.74Z"/><path class="cls-2" d="M164.63,61.32v2.36c.91,0,1.8,0,2.68,0a1.09,1.09,0,0,1,.74.38c.35.47-.05,1.07-.69,1.08-.89,0-1.78,0-2.72,0v2.33l.51,0h3.24c.54,0,.84.27.84.72a.73.73,0,0,1-.83.75c-1.48,0-3,0-4.42,0-.63,0-.87-.26-.87-.9V60.71c0-.63.25-.88.89-.88h4.32c.6,0,.92.28.91.76s-.32.72-.9.72Z"/><path class="cls-2" d="M95.81,67c-.51,0-1,0-1.55,0a.58.58,0,0,0-.4.26c-.2.38-.33.78-.5,1.17A.75.75,0,1,1,92,67.91l3.12-7.49a.76.76,0,0,1,1.45,0l3.12,7.49a.75.75,0,0,1-.37,1,.73.73,0,0,1-1-.44c-.17-.37-.32-.74-.46-1.13a.43.43,0,0,0-.49-.32C96.85,67.06,96.33,67,95.81,67Zm0-4.5-1.23,3h2.48Z"/><path class="cls-2" d="M139,68.19a.71.71,0,0,1-.51.76.65.65,0,0,1-.84-.32,12.4,12.4,0,0,1-.54-1.25.42.42,0,0,0-.47-.34c-1,0-2.07,0-3.1,0a.66.66,0,0,0-.44.3,9.88,9.88,0,0,0-.41.94c-.26.62-.59.82-1.05.63s-.57-.6-.32-1.19q1.13-2.73,2.27-5.46c.26-.6.51-1.21.76-1.82a.77.77,0,0,1,1.49,0l3.06,7.37A1.76,1.76,0,0,1,139,68.19Zm-2.66-2.65-1.26-3-1.23,3Z"/><path class="cls-2" d="M153.49,64.52a4.59,4.59,0,0,1,7.2-3.83c.59.39.61,1.08.07,1.37a.88.88,0,0,1-1-.16,3.07,3.07,0,1,0,.07,5c.11-.08.21-.18.33-.26a.71.71,0,0,1,1,.09.69.69,0,0,1-.07,1,4.19,4.19,0,0,1-2.15,1.1,4.58,4.58,0,0,1-5.39-3.51C153.53,65.08,153.52,64.75,153.49,64.52Z"/><path class="cls-2" d="M182.33,61.31h-1.81c-.55,0-.84-.27-.84-.73s.29-.74.83-.74h5.12c.54,0,.84.28.84.74s-.29.73-.83.74h-1.82v.56c0,2.09,0,4.17,0,6.25,0,.66-.5,1-1,.81a.79.79,0,0,1-.45-.81c0-2.06,0-4.13,0-6.2Z"/><path class="cls-2" d="M104.41,61.31v6.75c0,.59-.3.94-.75.93s-.73-.36-.73-.95c0-2.05,0-4.11,0-6.16v-.57h-1.76c-.58,0-.89-.26-.89-.73s.31-.75.88-.75h5.07a.76.76,0,0,1,.86.73c0,.44-.32.74-.84.74Z"/><path class="cls-2" d="M141.8,67.52h3a2.9,2.9,0,0,1,.51,0,.72.72,0,0,1,.09,1.4,1.44,1.44,0,0,1-.46,0H141.3c-.75,0-1-.24-1-1q0-3.6,0-7.18c0-.19,0-.44.07-.55s.47-.43.7-.41.48.28.65.5.06.36.06.54v6.6Z"/><path class="cls-2" d="M80.74,64.42c0,1.25,0,2.51,0,3.76a1,1,0,0,1-.42.71.81.81,0,0,1-.72-.07.89.89,0,0,1-.31-.67q0-3.72,0-7.46a.7.7,0,0,1,.72-.8.73.73,0,0,1,.76.82C80.75,62,80.74,63.18,80.74,64.42Z"/><path class="cls-2" d="M108.46,64.47V60.81c0-.62.26-.92.75-.92s.73.31.73.94c0,2.39,0,4.79,0,7.18,0,.62-.29,1-.76,1s-.73-.35-.73-.95Z"/></svg>