<svg id="Capa_1" data-name="Capa 1" xmlns="http://www.w3.org/2000/svg" viewBox="0 0 300 300"><defs><style>.cls-1{fill:#f6f6f6;}</style></defs><path class="cls-1" d="M73.54,0H226.85c1.43.3,2.85.63,4.28.9,27.22,5,47.16,19.9,60.18,44.19,4.7,8.78,7.06,18.31,8.69,28.06V226.46c-1,4.17-1.59,8.4-2.66,12.56-8.87,34.41-42.36,60.71-77.82,60.78-46.22.09-92.44,0-138.65.06A69.54,69.54,0,0,1,67,298.38c-39.81-8.07-67-43-66.82-81.3C.31,172.52.18,128,.16,83.4a79.69,79.69,0,0,1,1.1-14.54c5-27.1,19.83-47,44-60C54.07,4,63.7,1.64,73.54,0ZM272.88,150.1h0q0-32.76,0-65.51a87,87,0,0,0-.55-10.2c-3.08-25.31-27.1-47.15-52.54-47.23-46-.14-92,0-138.06-.06a58,58,0,0,0-7,.57c-25.32,3-47.16,27.06-47.24,52.51-.13,46,0,92-.06,138.06a58,58,0,0,0,.57,7c3,25.3,27.09,47.16,52.51,47.24,46,.13,92,0,138.06.06a58.29,58.29,0,0,0,7-.57c25.32-3,47.08-27.07,47.24-52.52C273,196.32,272.88,173.21,272.88,150.1Z"/><path class="cls-1" d="M150.28,72.34c42.49-.28,77.53,35.05,77.45,77.62-.07,42.4-35.13,77.49-77.76,77.38-42.33-.11-77.46-35.1-77.31-77.83C72.82,107.17,107.75,72,150.28,72.34Zm50.05,77.57a50.13,50.13,0,1,0-50.32,50A50.09,50.09,0,0,0,200.33,149.91Z"/><path class="cls-1" d="M230.78,89.32a19.74,19.74,0,0,1-19.93-19.48c-.08-11,8.67-20.27,19.65-20.12a19.8,19.8,0,1,1,.28,39.6Z"/></svg>