<svg id="Capa_1" data-name="Capa 1" xmlns="http://www.w3.org/2000/svg" viewBox="0 0 300 70.33"><defs><style>.cls-1{fill:#d0a209;}.cls-2{fill:#cd6d1e;}.cls-3{fill:#e73e11;}.cls-4{fill:#d51317;}.cls-5{fill:#bb1e2f;}.cls-6{fill:#ad2255;}.cls-7{fill:#a31f5f;}.cls-8{fill:#951b81;}.cls-9{fill:#6f2e80;}.cls-10{fill:#3f2b69;}.cls-11{fill:#383077;}.cls-12{fill:#3a2e87;}.cls-13{fill:#0066b0;}.cls-14{fill:#009ca4;}.cls-15{fill:#00b0cc;}.cls-16{fill:#45b8ab;}.cls-17{fill:#008d77;}.cls-18{fill:#00764e;}.cls-19{fill:#569d33;}.cls-20{fill:#b0b427;}.cls-21{fill:#919ba6;}.cls-22{fill:#444f62;}</style></defs><rect class="cls-1" x="159.68" y="30.93" width="3.46" height="20.25"/><rect class="cls-2" x="166.45" y="29.09" width="3.46" height="22.09"/><rect class="cls-3" x="173.23" y="22.81" width="3.46" height="28.37"/><rect class="cls-4" x="180.01" y="26.42" width="3.46" height="24.76"/><rect class="cls-5" x="186.78" y="27.89" width="3.46" height="23.29"/><rect class="cls-6" x="193.56" y="27.89" width="3.46" height="23.29"/><rect class="cls-7" x="200.33" y="26.42" width="3.46" height="24.76"/><rect class="cls-8" x="207.11" y="23.17" width="3.46" height="28.01"/><rect class="cls-9" x="213.89" y="17.31" width="3.46" height="33.87"/><rect class="cls-10" x="220.66" y="5.65" width="3.46" height="45.53"/><rect class="cls-11" x="227.44" y="11.8" width="3.46" height="39.38"/><rect class="cls-12" x="234.21" y="14.61" width="3.46" height="36.57"/><rect class="cls-13" x="240.99" y="15.28" width="3.46" height="35.9"/><rect class="cls-14" x="247.77" y="13.81" width="3.46" height="37.37"/><rect class="cls-15" x="254.54" y="10.73" width="3.46" height="40.45"/><rect class="cls-16" x="261.32" y="3.11" width="3.46" height="48.07"/><rect class="cls-17" x="268.1" y="13.81" width="3.46" height="37.37"/><rect class="cls-18" x="274.87" y="16.78" width="3.46" height="34.41"/><rect class="cls-19" x="281.65" y="13.81" width="3.46" height="37.37"/><rect class="cls-20" x="288.42" y="18.34" width="3.46" height="32.84"/><rect class="cls-1" x="295.2" y="21.45" width="3.46" height="29.73"/><rect class="cls-21" x="159.68" y="51.18" width="3.46" height="6.37"/><rect class="cls-21" x="166.45" y="51.18" width="3.46" height="6.95"/><rect class="cls-21" x="173.23" y="51.18" width="3.46" height="8.92"/><rect class="cls-21" x="180.01" y="51.18" width="3.46" height="7.79"/><rect class="cls-21" x="186.78" y="51.18" width="3.46" height="7.32"/><rect class="cls-21" x="193.56" y="51.18" width="3.46" height="7.32"/><rect class="cls-21" x="200.33" y="51.18" width="3.46" height="7.79"/><rect class="cls-21" x="207.11" y="51.18" width="3.46" height="8.81"/><rect class="cls-21" x="213.89" y="51.18" width="3.46" height="10.65"/><rect class="cls-21" x="220.66" y="51.18" width="3.46" height="14.32"/><rect class="cls-21" x="227.44" y="51.18" width="3.46" height="12.38"/><rect class="cls-21" x="234.21" y="51.18" width="3.46" height="11.5"/><rect class="cls-21" x="240.99" y="51.18" width="3.46" height="11.29"/><rect class="cls-21" x="247.77" y="51.18" width="3.46" height="11.75"/><rect class="cls-21" x="254.54" y="51.18" width="3.46" height="12.72"/><rect class="cls-21" x="261.32" y="51.18" width="3.46" height="15.12"/><rect class="cls-21" x="268.1" y="51.18" width="3.46" height="11.75"/><rect class="cls-21" x="274.87" y="51.18" width="3.46" height="10.82"/><rect class="cls-21" x="281.65" y="51.18" width="3.46" height="11.75"/><rect class="cls-21" x="288.42" y="51.18" width="3.46" height="10.33"/><rect class="cls-21" x="295.2" y="51.18" width="3.46" height="9.35"/><path class="cls-22" d="M61.31,35.44H66.4V38H58.33V24.42h3Z"/><path class="cls-22" d="M67.13,32.07a4,4,0,0,1,4.34-4.26,3.93,3.93,0,0,1,4.23,4.27c0,.71,0,1.3,0,1.66H69.92v.38c0,1.15.76,1.77,2.29,1.77a14.24,14.24,0,0,0,3.07-.35l.23,2.16a12.8,12.8,0,0,1-3.72.5c-2.75,0-4.66-1.45-4.66-4.18Zm2.79.13H73v-.34c0-1.19-.48-1.87-1.56-1.87s-1.55.63-1.55,1.79Z"/><path class="cls-22" d="M85.75,26.32a7.8,7.8,0,0,1-1.69,2.43,3,3,0,0,1,1.17,2.53v.39c0,2-1.61,3.47-4.35,3.47a5.75,5.75,0,0,1-1-.09,1.19,1.19,0,0,0-.49.78c0,.33.27.51.68.51H82.5c2,0,3.67,1.11,3.67,3.3s-1.91,3.13-4.25,3.13h-1.7c-2.36,0-3.74-.93-3.74-2.56A2.66,2.66,0,0,1,78.07,38a1.77,1.77,0,0,1-1-1.5,2.47,2.47,0,0,1,1.22-1.92,3,3,0,0,1-1.68-2.7v-.8c0-1.93,1.66-3.27,4.23-3.27a5.48,5.48,0,0,1,1.55.22,11.43,11.43,0,0,0,.78-2.42ZM80.28,38.45h-.56a1.47,1.47,0,0,0-.84,1.21c0,.82.72,1.05,1.72,1.05h1.07c1,0,2-.08,2-1.09s-.63-1.16-1.41-1.16Zm-.85-6.79a1.51,1.51,0,1,0,3,0v-.38a1.46,1.46,0,0,0-1.5-1.63,1.37,1.37,0,0,0-1.51,1.4Z"/><path class="cls-22" d="M88.32,23.65c1,0,1.58.48,1.58,1.49s-.56,1.48-1.58,1.48a1.36,1.36,0,0,1-1.55-1.48A1.35,1.35,0,0,1,88.32,23.65ZM89.77,28V38H86.89V28Z"/><path class="cls-22" d="M94.5,38.2a10.65,10.65,0,0,1-3.45-.52l.35-2a9.72,9.72,0,0,0,2.67.44c1,0,1.6-.14,1.6-.85s-.52-1-2.18-1.37-2.44-1-2.44-3c0-1.79,1.37-3,3.82-3a13.45,13.45,0,0,1,3.1.36l-.28,2.09a11.7,11.7,0,0,0-2.44-.33c-1,0-1.49.24-1.49.93s.49.88,1.95,1.25c2,.48,2.67,1.22,2.67,3.08C98.38,37.26,97,38.2,94.5,38.2Z"/><path class="cls-22" d="M102.44,23.52V38H99.57V23.52Z"/><path class="cls-22" d="M107.25,32.37H109v-.69c0-.89-.35-1.48-1.74-1.48a10.57,10.57,0,0,0-2.86.47l-.36-2.26a12.65,12.65,0,0,1,3.63-.6c2.93,0,4.07,1.14,4.07,4V35c0,.51.21.79.59.79a3,3,0,0,0,.64-.08l0,2.17a4.13,4.13,0,0,1-1.56.29,2.12,2.12,0,0,1-2-1,5,5,0,0,1-2.86,1,2.69,2.69,0,0,1-3-2.89C103.61,33.23,105.37,32.37,107.25,32.37ZM109,35.72V34h-1.47a1.12,1.12,0,0,0-1.28,1.2,1,1,0,0,0,1.12,1.09A2.89,2.89,0,0,0,109,35.72Z"/><path class="cls-22" d="M112.79,28h1.38l.16-2.78h2.58c0,.93,0,1.85,0,2.78H119v2.22H117v4.52c0,.87.4,1.12,1,1.12a7.14,7.14,0,0,0,1.21-.13l.16,2.2a8.51,8.51,0,0,1-2.15.26c-1.72,0-2.86-.72-3-2.35s-.1-3.73-.1-5.62h-1.31Z"/><path class="cls-22" d="M126.6,38l-.15-1.07A6,6,0,0,1,123,38.2a2.59,2.59,0,0,1-2.83-2.9V28h2.88v6.41c0,.77.34,1.2,1.13,1.2a3.59,3.59,0,0,0,2-.73V28h2.88V38Z"/><path class="cls-22" d="M133.27,28l.17,1.34a5.3,5.3,0,0,1,3.2-1.54l0,2.77a5.83,5.83,0,0,0-3,1.13V38h-2.88V28Z"/><path class="cls-22" d="M140.7,32.37h1.77v-.69c0-.89-.35-1.48-1.74-1.48a10.57,10.57,0,0,0-2.86.47l-.36-2.26a12.65,12.65,0,0,1,3.63-.6c2.93,0,4.07,1.14,4.07,4V35c0,.51.21.79.59.79a3,3,0,0,0,.64-.08l0,2.17a4.13,4.13,0,0,1-1.56.29,2.12,2.12,0,0,1-2-1,5,5,0,0,1-2.86,1,2.69,2.69,0,0,1-3-2.89C137.06,33.23,138.82,32.37,140.7,32.37Zm1.77,3.35V34H141a1.12,1.12,0,0,0-1.28,1.2,1,1,0,0,0,1.12,1.09A2.89,2.89,0,0,0,142.47,35.72Z"/><path class="cls-22" d="M66.3,58.74a10.26,10.26,0,0,1-3.36.52c-2.76,0-5-1.65-5-4.54V50c0-3.06,2.33-4.67,5.14-4.67a9.44,9.44,0,0,1,3.09.52l-.36,2.39a8.79,8.79,0,0,0-2.48-.4,2.28,2.28,0,0,0-2.4,2.4v4.28a2.24,2.24,0,0,0,2.54,2.28A9.78,9.78,0,0,0,66,56.37Z"/><path class="cls-22" d="M67,53.08c0-2.76,1.88-4.2,4.62-4.2s4.61,1.44,4.61,4.2v2c0,2.75-1.88,4.19-4.61,4.19S67,57.82,67,55.07ZM69.86,55c0,1.18.54,2,1.74,2s1.73-.78,1.73-2V53.13c0-1.14-.54-2-1.73-2A1.63,1.63,0,0,0,69.86,53ZM70,47.69,72.32,44,75,45l-3.16,3.27Z"/><path class="cls-22" d="M80.08,49.08l.17,1.33a5.39,5.39,0,0,1,3.21-1.53l0,2.77a5.83,5.83,0,0,0-3,1.13v6.28H77.64v-10Z"/><path class="cls-22" d="M84.21,53a3.77,3.77,0,0,1,4.13-4.15,8.17,8.17,0,0,1,2.1.32V44.59h2.81V59.06H90.79l-.15-1a4.78,4.78,0,0,1-3.1,1.1c-1.9,0-3.33-1.43-3.33-3.78Zm6.16,3.17V51.46a4.48,4.48,0,0,0-1.53-.3c-1.38,0-1.76,1-1.76,2.11v1.62c0,1.18.37,2,1.52,2A2.89,2.89,0,0,0,90.37,56.2Z"/><path class="cls-22" d="M94.66,53.08c0-2.76,1.88-4.2,4.62-4.2s4.61,1.44,4.61,4.2v2c0,2.75-1.88,4.19-4.61,4.19s-4.62-1.44-4.62-4.19Zm2.88,2.1a1.74,1.74,0,1,0,3.47,0V53a1.74,1.74,0,1,0-3.47,0Z"/><path class="cls-22" d="M114.37,55c0,2.75-1.77,4.26-4.78,4.26a11.43,11.43,0,0,1-4.27-.74V44.59h2.8v5.3a4.66,4.66,0,0,1,2.84-1c1.85,0,3.41,1.36,3.41,3.83Zm-6.18-3v4.74a5.34,5.34,0,0,0,1.49.22,1.66,1.66,0,0,0,1.81-1.87v-2c0-1.1-.45-1.81-1.52-1.81A2.93,2.93,0,0,0,108.19,52Z"/><path class="cls-22" d="M118.9,53.44h1.78v-.69c0-.89-.35-1.49-1.75-1.49a10.37,10.37,0,0,0-2.85.48l-.36-2.26a12.58,12.58,0,0,1,3.63-.6c2.92,0,4.06,1.14,4.06,3.95V56.1c0,.51.22.79.6.79a3,3,0,0,0,.64-.08l0,2.16a4.15,4.15,0,0,1-1.57.29,2.13,2.13,0,0,1-2-1,5,5,0,0,1-2.86,1,2.68,2.68,0,0,1-3-2.88C115.27,54.3,117,53.44,118.9,53.44Zm1.78,3.35V55H119.2a1.13,1.13,0,0,0-1.28,1.21A1,1,0,0,0,119,57.31,2.9,2.9,0,0,0,120.68,56.79Z"/><path class="cls-22" d="M15.83,40.18c.05.06,0,.13,0,.19h-.05A.21.21,0,0,1,15.83,40.18ZM17,40.09s0,0,.06-.05.22.13.17.25h0c0-.1.08-.12.15-.19s-.06,0-.09,0-.14,0-.17-.11c-.07.08-.12,0-.19.06A0,0,0,0,0,17,40.09Zm.76.44h0Zm-.37-3s0,0,0-.07,0,0-.05,0S17.39,37.51,17.41,37.54Zm-.12,2.33s0-.06,0-.06-.09.06-.05.1S17.27,39.89,17.29,39.87Zm.55.71-.05,0a.31.31,0,0,1,0,.1Zm-2.3-.34h0s0,0,0,0,0,0,0,0Zm.31-1s0,0,0,0l0,0S15.86,39.28,15.85,39.26Zm-.26.51c0-.05.09-.09,0-.13s-.11.08-.07.14A0,0,0,0,0,15.59,39.77Zm.16-.57s0-.05,0-.06l0,0,0,0Zm-.48.4s0,0,.07,0,.05,0,0-.06S15.3,39.55,15.27,39.6Zm.22,0h0v0h0Zm0,.1s-.07,0-.09.07l0,0S15.52,39.79,15.5,39.74Zm2.36.66c-.09,0-.08.06-.08.12S17.88,40.46,17.86,40.4Zm-2-1.61s0,0,0,0,.05-.07,0-.08S15.89,38.76,15.89,38.79Zm0-.18v.07h0s0,0,0,0S16,38.61,15.94,38.61Zm0,0h0s0-.08,0-.09S15.91,38.56,16,38.56Zm-.34-1.2s0,0,0-.07-.05.06,0,.08ZM16,38.73h0s.13-.07.06-.15S16,38.67,16,38.73Zm.17-.26v.08h0s0,0,0,0S16.21,38.47,16.2,38.47Zm-.1,0s0,0-.06,0l0,.08S16.11,38.52,16.1,38.5Zm0,.19,0,.15s0,0,.05,0S16.22,38.67,16.14,38.69Zm-.42-1.31s0,0,0-.06S15.68,37.37,15.72,37.38Zm-.1.82s.11,0,.13-.07S15.59,38.13,15.62,38.2ZM17,40s0,0-.07,0v0h.06S17,40.05,17,40Zm-1.18-2.17c0,.06-.18.05-.11.15A.17.17,0,0,0,15.77,37.87Zm.86,1.91c0,.15-.17.12-.23.2l0,0s-.06,0-.08,0a.6.6,0,0,0,.27.06c.1-.18.15.08.27,0a0,0,0,0,0,0,0C16.69,40,16.74,39.81,16.63,39.78Zm-1.07-2.09s-.08,0-.07,0,0,0,0,0S15.56,37.72,15.56,37.69Zm.07.13s-.07,0-.05,0h0S15.63,37.84,15.63,37.82ZM15.5,38c-.05.05,0,.1,0,.19h0C15.52,38.16,15.63,38.1,15.5,38Zm.37-.71s0,0,0,0v.06S15.88,37.36,15.87,37.33Zm-.44.58.13.1,0,0C15.58,37.93,15.48,37.87,15.43,37.91ZM15.3,41.6s0,0,0,0v.06s0,0,0,0Zm.68-1a.22.22,0,0,0-.06.26C16,40.86,16,40.7,16,40.64Zm-.31,0h0v.06h0Zm0,.21s.05-.06,0-.08,0,.06,0,.08ZM15.81,42h0s0,0,0,0,0,0,0,0Zm0-.14s0-.06,0-.08,0,0,0-.05,0,0,0,0v.16S15.85,41.87,15.85,41.86Zm0-.58c0-.07,0,0-.08,0s0,0,0,0v.06S15.83,41.33,15.85,41.28Zm.09-.05h0v.06h0Zm-.14-.06s0-.07,0-.08l.06,0h0a.07.07,0,0,0,0-.08c0,.08-.13,0-.09.12Zm.16.75V42h0s0,0,0,0A0,0,0,0,0,16,41.92Zm.05,3c-.09.13-.21.14-.29.27v-.08c-.08,0-.08.08-.09.14s.06,0,.06,0l.07,0c.06-.07.08-.15.17-.17v.1c.05-.08.15,0,.15-.1H16S16,45,16,45s0,0,.07,0V44.9L16,45ZM15.29,42v0s.06-.06,0-.08Zm.12-.06v0h0s0,0,0,0S15.43,41.89,15.41,41.9Zm-3.23,3.38s.05,0,0-.07,0-.05-.08,0S12.16,45.23,12.18,45.28Zm3.08-3.55a.06.06,0,0,0-.06,0v.16s0,0,.06,0l-.06,0S15.26,41.76,15.26,41.73Zm2.37-.83V41s0,0,0-.05S17.65,40.88,17.63,40.9Zm-2.22.86s-.05,0-.09,0,0,.07.06.13.11-.11.1-.19S15.46,41.74,15.41,41.76Zm.51.25s-.1.05-.06.08h0S16,42.06,15.92,42Zm2.2-2,0,0s0,0,0-.06S18.1,40,18.12,40ZM17.52,39V39s0,0,.06,0S17.55,39,17.52,39Zm0-.05s0,0,0,0v-.06h0S17.51,38.88,17.54,38.91Zm.09.47,0,.06s.05,0,.06,0Zm0-.69,0,.08s0,0,0,0A.06.06,0,0,0,17.63,38.69Zm-.38-1.12h.05v-.06S17.23,37.54,17.25,37.57Zm.65,1.85v.08s0,0,0,0v0Zm-.16-.51V39h0C17.82,39,17.78,38.93,17.74,38.91Zm-.09.07,0,0,0,0Zm.45,1.11,0,0s0,0,.05,0,0,0,0-.07S18.11,40.1,18.1,40.09ZM18,41V41h0s.05,0,0-.06S18,41,18,41Zm.19,0,0,.06h0S18.24,41,18.21,41Zm-.13.12v.05c.08-.08.07.08.14,0S18.14,41.08,18.08,41.08Zm-2.7.54h0v.05h0Zm2.4-1.57h0s-.06.06,0,.09.06-.08.13-.06v0C17.8,40,17.82,40.07,17.78,40.05Zm-.07,1,0,0s0,0,0,0S17.66,41.05,17.71,41.08Zm-.41-3.75s0,.06,0,.08l0,0S17.34,37.32,17.3,37.33ZM17.84,40h0v-.05h0Zm-.1,1s.08-.07,0-.09S17.67,40.93,17.74,41ZM13,42.6s-.13,0-.13.09S13,42.66,13,42.6Zm.25-4.5s0-.05,0-.06-.05.07,0,.09Zm-.34,0h0s0,0,0,0S12.87,38.1,12.89,38.13Zm.34-1.56,0,0a0,0,0,0,0,0,0s-.05,0,0,.05S13.24,36.57,13.23,36.57Zm-.43,5.81s0,0,0,0,0,0,0,0S12.76,42.35,12.8,42.38Zm.43-5.81ZM13,38.45l0,0v.07S13,38.46,13,38.45Zm.81,4.06s.05,0,0-.1-.08.07,0,.1Zm-.72-4.25s.06-.06,0-.08S13.07,38.23,13.11,38.26Zm1.73-.12s0,0-.06,0-.08,0,0,.07S14.8,38.18,14.84,38.14Zm.05-.09c.07,0,.11-.06.13-.12s0,.11-.16.09Zm-.05,0s0,0-.06,0l0,.07h.06S14.84,38,14.84,38Zm.1-.15h0v0h0S15,37.89,14.94,37.87Zm-.81.36s0,0,0,0-.06,0,0,.08ZM13.86,38a0,0,0,0,0,0,0V38S13.88,38,13.86,38Zm.07.18,0,0H14S14,38.12,13.93,38.13Zm-.1-.08h-.05v.07S13.86,38.11,13.83,38.05Zm-1.07,5.71s0-.06,0-.08l-.08.12h0S12.73,43.76,12.76,43.76Zm-.25,1.13s0,0,0,0V45S12.52,44.9,12.51,44.89Zm-.11-.06,0,0a.09.09,0,0,0,0,.05s0,0,0,0,.06-.14,0-.15S12.37,44.82,12.4,44.83Zm.17.28,0,0s0,0-.06-.06.08,0,0-.09S12.49,45.05,12.57,45.11Zm-.17-.44c0-.05,0,0-.05,0h0S12.41,44.68,12.4,44.67Zm-.14,0,0,.05h0S12.28,44.73,12.26,44.72Zm0,.18s0,.07,0,.07l0,0s0,0,0-.05Zm0,0s0-.06,0-.06l0,.06Zm.34-.19c-.06,0,0-.11-.05-.13v.15S12.56,44.71,12.57,44.7Zm-.3.75v.13h0C12.38,45.52,12.26,45.49,12.27,45.45Zm2.78-7.73s0,0,0,0h0l0,.07ZM12.69,44.1s0,0-.06,0v.06S12.68,44.11,12.69,44.1Zm-.43,1c.06,0,.07-.1.12-.15S12.23,45.09,12.26,45.14Zm.42-2s0,0,0,0-.08,0,0,0Zm-.1.14v.11a.1.1,0,0,0,.07,0S12.65,43.3,12.58,43.33Zm.26-.51s0,0,0-.08-.07,0-.07.06Zm-.49,2.49s0,0,.05-.05l0,0S12.3,45.28,12.35,45.31Zm-.08,0s-.08,0-.07.07S12.3,45.42,12.27,45.36Zm4.14-7.5a0,0,0,0,0,0,.09l0,0S16.42,37.87,16.41,37.86Zm-.87,6.64,0,.07,0,0Zm.09-.25h0v0h0S15.63,44.27,15.63,44.25Zm-.05.5s-.07,0-.09,0v.08h.1Zm.05.12s.07-.09,0-.12A.07.07,0,0,0,15.63,44.87Zm-.33-.34v.06l0,0Zm.28.61,0,0-.13.12a.11.11,0,0,0,.08,0A.87.87,0,0,0,15.58,45.14Zm.14-.51s0-.05,0-.06l0,.08S15.71,44.66,15.72,44.63Zm-.34.36,0,.1h0S15.41,45,15.38,45Zm.69-.12h0s0,0,0,0l0,0Zm-.36.08s0,0,0,0V44.8h0Zm.39-.6h0v.06S16.11,44.39,16.1,44.35Zm-.14.48s.05,0,0-.08a.06.06,0,0,0-.05.08Zm-.66.48s0,0,0-.06-.07,0-.08,0S15.27,45.31,15.3,45.31Zm.71-.69s0,0,.07,0,0-.08,0-.08l0,0,0,0,0,.08h0S16,44.63,16,44.62Zm-.29.43h0s0,0,0-.06,0,0,0,0Zm.09-.08h0s.07-.07,0-.1S15.79,44.92,15.81,45Zm0-.51,0,0s-.06,0,0,.07ZM15.05,38s0,0,.09,0,0,0,0,.05h0a.25.25,0,0,0,0-.15h0l0,.06c0,.09-.07,0-.12,0S15,38,15.05,38Zm.45,7c0-.09.16,0,.12-.09S15.46,45,15.5,45Zm.79-7.13h0s0,0,0,0,0,0,0,0S16.27,37.88,16.29,37.91Zm1.72.27,0-.08c0,.08-.1,0-.13,0s.08,0,0,.13,0,0,0,0,0,.09,0,.14,0-.14.11-.14l0,.17s.08,0,.1,0,0,0,0-.07,0-.15.06-.21Zm-1.54-.41v.09s.07-.06,0-.09Zm-.27,0v.07h0a0,0,0,0,1,0,0ZM15,37.89s.12,0,.1-.1.06-.08,0-.1v.08l-.09.1Zm0-.57s0,0,0,0v.08h0S15.05,37.33,15.05,37.32Zm-.09.76,0,.06c0-.07.13,0,.19,0s0,0,0,.07.1,0,.15,0l0-.08C15.13,38.12,15.07,38.05,15,38.08ZM18,38h0v.06S18,38,18,38Zm-1.9,5.6h0s0,0,0,0S16.06,43.56,16.08,43.59Zm-.16-.09,0,0h0a.08.08,0,0,0,0-.07Zm-.81,1.69v.07s.06,0,.07,0S15.14,45.18,15.11,45.19Zm.09-.84h-.06v0h0S15.2,44.35,15.2,44.35Zm2.56-6v.07h.1v-.07l0,0S17.79,38.35,17.76,38.36Zm.21,0,0,.09.1,0,0-.07H18ZM15.18,45s.05,0,.08-.05-.06,0-.08,0Zm3-5.9-.05.15h0C18.11,39.15,18.27,39.1,18.17,39.05ZM16,41.8s0,0,0-.06-.06,0,0,.07A0,0,0,0,0,16,41.8Zm2.42,3.39s0,0,0,0,0,0,0,0Zm-.19.31c0-.13.24-.08.19-.24C18.35,45.38,18.19,45.36,18.22,45.5Zm-1.52-.1h0s.05,0,0-.06H16.7Zm1.65.1h0s0,0,0,0S18.34,45.47,18.35,45.5Zm-1.28-.07h0l0,0S17.05,45.4,17.07,45.43ZM17,45.21v0s.06,0,.09,0S17.05,45.21,17,45.21Zm1.1.15,0-.08s0,.06-.06.09l.12,0s.09-.09.09-.16S18.2,45.36,18.12,45.36Zm-1-.54h0v0A0,0,0,0,0,17.16,44.82Zm1.05-1.26s.05,0,.07,0a.11.11,0,0,0-.07-.11S18.13,43.53,18.21,43.56Zm.05-.2a.11.11,0,0,0,0-.09s0-.05,0,0-.07.09,0,.12Zm-.09,1.54h0V45h0S18.18,44.92,18.17,44.9Zm0,.31s0,0,0-.05-.06.05,0,.07Zm0-.46h0v.07h0A.1.1,0,0,0,18.19,44.75Zm-.11.17h0v0S18.08,45,18.08,44.92Zm-.11.51s-.06,0,0,.07.12.11.17,0S18,45.52,18,45.43Zm0-.17s-.06.06,0,.08l0,0S18,45.28,17.94,45.26Zm-.12.29s0,0,0,0S17.78,45.52,17.82,45.55Zm.22-.43s0,0,0,0-.05,0,0,.07S18,45.14,18,45.12ZM17,44.7v.07l0,0S17,44.71,17,44.7ZM13,43.92l0,0,0,0h0Zm.31,0s0,0,0-.05l0,.05Zm3.29.83s0,0,.06,0,0,0,0,0l-.06.07Zm-1.56-1.11s0,0,.06,0,0,0,0-.05S15.07,43.63,15.07,43.64Zm1.36,1.64c.07.09.19,0,.26,0s.17,0,.17-.12h-.05c0-.08-.31,0-.18-.14,0,0,0,.07.09.06s.11-.13.05-.19-.16.17-.27.15c.14,0,.07-.17.13-.24s-.11,0-.15,0l.1-.07-.11-.08,0,.18c0,.07.05.18,0,.26l.08,0C16.49,45.15,16.38,45.18,16.43,45.28Zm-1.25-1.52s0,0,0,0,.09-.05.08-.1S15.2,43.72,15.18,43.76Zm.48,0c-.05,0-.07,0-.1,0s0,0,.07.09S15.66,43.74,15.66,43.72Zm0-.18h0v.05h0S15.63,43.56,15.63,43.54Zm2.67,1.21,0,0s-.06.05,0,.08Zm-1.44.08s0,0,0,.07h0Zm0,.28s0,0,0,0l0,0ZM17,45s0,0,0-.06a0,0,0,0,0-.06.06Zm-.09.36s.05,0,.08,0S16.83,45.32,16.86,45.37Zm-.3-.75c0-.11.09-.06.14-.12s-.09,0-.16,0a.15.15,0,0,1-.06-.19h0C16.43,44.41,16.39,44.64,16.56,44.62Zm-.06-.34v-.06h0S16.5,44.28,16.5,44.28Zm.33.07,0,.06h.05S16.86,44.34,16.83,44.35Zm0,.28s0,0-.05,0v.05A0,0,0,0,0,16.86,44.63Zm1.7-1.18h0v.08S18.55,43.48,18.56,43.45ZM18,44h0v-.06h0Zm.72,0h0v0h0Zm-.92-1.35v.06h0s0,0,0-.05Zm.86,2.68.11,0c0,.09-.22.14-.1.26s.12.09.15,0l.08,0c.14-.1-.17-.18,0-.26l0,.08,0,0c.06-.07,0-.05-.06-.11l.07-.09s-.08-.16-.16-.11l0-.07-.09.07c.09,0,.08.11.18.07C18.86,45.43,18.75,45.23,18.7,45.36ZM18.63,44s0,0,0,0v.07S18.63,44.06,18.63,44Zm-3.27-1.8h0v.08s0,0,.06,0S15.36,42.25,15.36,42.23Zm3,2.42s0,0,0-.06-.07,0-.06.06Zm.45.31h0V45A.12.12,0,0,0,18.77,45Zm-.52-1-.08-.14v0a.32.32,0,0,0,.05.23L18.3,44h0l.06,0s0,0,0-.06Zm.79.8s0,0,0,0l0,.08S19,44.77,19,44.75Zm-.12.21s-.14.07-.11.11Zm-.06,3.33s0,.06.06,0,0,0,0,0S18.89,48.28,18.86,48.29Zm.35-1.9h0v0h0S19.21,46.4,19.21,46.39Zm-.27,1.77a0,0,0,0,0,0,0s0,0,0-.05ZM19,44.89s0,0,0,.06h0Zm-.12,0s.06,0,0-.08S18.84,44.89,18.9,44.9Zm0,.21.1,0s0,0,0-.07S18.89,45.05,18.89,45.11Zm-.23-1v.08l0,0S18.68,44.08,18.66,44.08ZM18,43c.14,0,0-.13,0-.23S18,42.93,18,43Zm.13-.08s.09,0,.12,0S18.11,42.84,18.1,42.93Zm-.49.9h0c0,.05,0,.08,0,.12s.07.08.11,0S17.58,43.9,17.61,43.83Zm.56-1.19s0,0,0,0v.07S18.18,42.67,18.17,42.64Zm.09.07a.17.17,0,0,1-.19,0v.06a.25.25,0,0,0,.19,0S18.34,42.73,18.26,42.71Zm.17,2.36a.07.07,0,0,0,0-.06l0,.06Zm-.15-2.16s0,0,0,0a.08.08,0,0,0,0-.05Zm0,2.25s0,0,.06,0,.14-.18.09-.34C18.35,44.87,18.17,45,18.28,45.16Zm-.2-2.64h0v.08h0Zm-.36,1.4,0,0,0,.08,0,0s0-.1-.11-.09Zm0-.11h0a.19.19,0,0,0-.07-.12C17.58,43.74,17.68,43.79,17.71,43.81Zm-.13-.14,0,0s0,0,0-.05S17.54,43.64,17.58,43.67Zm.16.45,0,0v0h0Zm0-.78h-.06v.07S17.76,43.39,17.74,43.34Zm.28-.65s0,0,0,0v0h0S18,42.71,18,42.69Zm-.14.76c.07,0,0-.05,0-.09l0,0s0,0,0,0l0,0-.05.08s-.06-.11-.11,0A.16.16,0,0,0,17.88,43.45Zm.06-.9v.07l0,0Zm-2.46,1.13h0v0h0Zm.33-1.35s0,0,.06,0,0-.05,0-.06Zm.11,0s-.05.05,0,.07,0,0,.06,0S15.94,42.35,15.92,42.33Zm2-.84h0v.07s0,0,0,0Zm0-.14s0-.05,0-.06-.06.05,0,.07S17.93,41.37,17.94,41.35Zm-1.6,1s0,0,0,0v.07h0Zm-.62.65a0,0,0,0,1,0,0l0,0c-.12,0,0,.14-.13.14s0,.05,0,.05l.16-.1,0,.22c.11-.06,0-.15.08-.24Zm-.16-.1L15.5,43h.08S15.59,42.9,15.56,42.88Zm.1,0s0,0,0,0l0,0s0,0,0,.06Zm2-5.34a.15.15,0,0,0,.06-.13S17.59,37.51,17.68,37.54Zm-2.61,1.12s-.05.07,0,.08a.07.07,0,0,0,.09,0S15.12,38.63,15.07,38.66Zm.42,4.88c.06,0,0-.09,0-.12l0,0S15.43,43.56,15.49,43.54Zm-.38-5h0v-.05h0Zm-1.7,1.21c-.09,0-.05.14,0,.19S13.38,39.84,13.41,39.77Zm4.3-2.13s0,0,.05,0,0,0,0-.06S17.66,37.62,17.71,37.64Zm.39,3.84a.08.08,0,0,0,0-.07s0,0-.06,0l0,0v.08C18,41.45,18.05,41.52,18.1,41.48Zm-.06.16c.06,0,0-.07,0-.11S18,41.64,18,41.64Zm-2.28,1.12,0,0,.09.13C15.89,42.84,15.73,42.85,15.76,42.76ZM17.67,42v.07s.06,0,0-.07Zm0-.6,0,.26h-.22c-.16,0,0,.11-.06.22s.06.06.09,0,0-.1,0-.13.13,0,.2,0,.07-.1.15-.1S17.72,41.48,17.71,41.38Zm-2.54,1.09s0,0,0-.07a0,0,0,0,0,0,0S15.14,42.44,15.17,42.47Zm2.48-.12c.07,0,.07,0,.14-.08l0,0c0,.08-.08.08-.11.06Zm-4.4-2.44h0s0,0,0,0S13.21,39.89,13.25,39.91Zm4.46,1.92c-.05,0,0,.07,0,.08s0,0,0,0v0A0,0,0,0,0,17.71,41.83Zm-2.45.44s0,0,0,0l0,0,0,0S15.26,42.31,15.26,42.27Zm0,.17h0s0,0,0,0,0,0-.05,0Zm0,.08s0,0,.06,0,.05,0,0-.08S15.23,42.48,15.23,42.52Zm.84.52,0,0s0,0,0,0S16,43,16.07,43Zm-.18,0v0s0,0,0,0v.08S15.87,43.07,15.89,43.07Zm.15.07,0,0a0,0,0,0,1,0,0C16,43.06,16,43.13,16,43.14Zm1.86-1v.09l0,0S17.91,42.17,17.9,42.14Zm-2,1a.08.08,0,0,0,0,.07s.12,0,.09-.12ZM16,43h0s0-.05,0-.07S15.92,42.93,16,43Zm1.51-.63c-.06,0-.18.11-.22,0l-.05.05.07.08a.43.43,0,0,1,.25,0,.2.2,0,0,0,0-.21Zm-.34.14h0s0-.07,0-.09l0,0A.11.11,0,0,0,17.13,42.47Zm-1,.44V43h0s0-.07,0-.09Zm-.87-5.67,0,.08s0,0,.05,0S15.33,37.24,15.3,37.24ZM13,43.13l0,0s0,0,0,0S13,43.1,13,43.13Zm.12.25s0,0,.05-.05h-.05ZM13,43l0,0V43S13,43,13,43Zm2,.21,0,0s.06-.06.06-.09S15,43.14,15,43.19Zm0-.31s0-.06,0-.06l0,0,0,0Zm-2,.34v.05h0s0,0,0-.05Zm0,0,0,0,0,.06S13,43.24,13,43.19Zm-.07.25c.1,0,.08-.1.12-.14S12.86,43.33,12.91,43.44ZM15,43s0,0,0,0V43S15,43,15,43Zm.39.66s0,0,0-.06-.06,0-.08,0S15.34,43.66,15.36,43.64Zm-1.6-4.77V39l0,0S13.78,38.88,13.76,38.87Zm1.47,4.72v0a0,0,0,0,1,0,0Zm.26.21s0-.06,0-.08l0,0s0,0-.06,0l0,0A.11.11,0,0,0,15.49,43.8Zm-.22-1s-.06,0-.07,0l0,0A.05.05,0,0,0,15.27,42.83Zm-.1.21,0,0c-.05,0-.06,0,0,.07Zm-.06-.16V43l0,0Zm.16.31s0,0,0,0a.21.21,0,0,1-.08-.11l0,.08C15.23,43.14,15.21,43.22,15.27,43.19Zm0,.3c-.09-.07-.07,0-.07.06S15.29,43.53,15.3,43.49ZM13,41.4l0,0-.05.12S13,41.43,13,41.4Zm.06.6,0,0s0,0,0,0S13.05,42,13.09,42Zm.6-1.1,0,.08a.07.07,0,0,0,.06,0S13.7,40.9,13.69,40.9Zm-.71.64c0-.06.25,0,.2-.13C13.12,41.49,13,41.43,13,41.54Zm.52-.44c.08,0,.1-.09.12-.14s-.16,0-.23.07S13.46,41.14,13.5,41.1Zm-.47.81s.08,0,.06,0c-.17,0,.05-.1-.07-.13S12.92,41.89,13,41.91Zm0,0a.06.06,0,0,0-.09,0s.07,0,.1,0l0,0c0,.13.09,0,.14,0l0,0h-.1A.07.07,0,0,1,13,41.94Zm-.09.2h0s0,0,0,0,0,0-.05,0Zm.3.91h0v0S13.19,43,13.23,43.05Zm.53,0s0,0,.06,0,0,0,0-.06S13.77,43,13.76,43.05Zm1.69-1.72-.09,0-.06.08C15.38,41.34,15.41,41.43,15.45,41.33Zm-.65-1.47s0,0,0,0a.17.17,0,0,0,0-.1S14.75,39.83,14.8,39.86Zm-1.59,3.28v.08s0,0,0-.06S13.22,43.14,13.21,43.14ZM14.49,40h0s.08,0,.06-.07S14.45,40,14.49,40Zm.31-.4,0,.1h0A.07.07,0,0,0,14.8,39.62Zm-1.62,1.71h0v.05h0S13.18,41.35,13.18,41.33Zm-.07,0s0-.09-.06-.09,0,.08,0,.11Zm5.3,3.42s0,0,0,0-.06,0,0,.07Zm-6.2,4.19V49s0,0,0-.06A.05.05,0,0,0,12.21,48.89Zm0,.42s0,0,0-.05l.07,0v.13s.07,0,0-.08h.09l0-.13c-.19,0-.11-.27-.31-.23s.1.09.11.17-.1,0-.12,0,0,.05,0,.08.14,0,0,0c.14,0,.11.1.12.22S12.14,49.34,12.17,49.31Zm0-.5s0,0-.06,0v.1S12.17,48.83,12.17,48.81Zm6.4-1.66c.1.05,0,0,.08-.11s0,0,.06,0,.14-.19.06-.3a.23.23,0,0,0-.06.16c-.06.06-.08.16-.18.18.1,0,0,0,0,0S18.56,47.14,18.57,47.15Zm-.11.35h0c.08-.16-.07-.33,0-.46l-.09,0s0,0,0-.09-.08,0-.1,0a0,0,0,0,1,0,0l0,0-.06.09C18.3,47.1,18.53,47.25,18.46,47.5Zm.2-.29s-.05.06,0,.09.08,0,.11,0v0l.09,0s0-.09,0-.13,0,.15-.09.21S18.68,47.22,18.66,47.21Zm.26-.31h0S18.91,46.89,18.92,46.9Zm0,0h0s-.07,0-.07,0,0,0,0,0S18.93,46.93,18.92,46.9Zm-6.34,1.56h0v.08s0,0,.06,0S12.57,48.48,12.58,48.46Zm-.31-.05v.07h.14C12.43,48.38,12.3,48.46,12.27,48.41ZM18,47.15c-.05,0-.05,0,0,0S18,47.16,18,47.15ZM18.92,46h0s-.05,0-.05,0h0A.08.08,0,0,0,18.92,46ZM18,47.19s.07.09,0,.15,0,0,.06,0,0-.12,0-.17S18,47.19,18,47.19Zm-5.56,1Zm-.67-3.11s0-.06,0-.07l0,.07Zm.77,3.43Zm-.1-.32h0s0,0,0,0,0-.06,0-.08S12.42,48.2,12.44,48.22ZM11.84,45s0,0,0-.06h0Zm0-.14a.08.08,0,0,0,0,0v.08Zm7.05,2.68,0,0,0,0s0,.05,0,.05Zm-7-3h0v.08S11.89,44.57,11.89,44.55Zm.46,3.73s0,0,0-.06,0,0,0,0,0,.05,0,.06Zm6.54-.83h0Zm-.08-.05s0,0-.07,0l0,0S18.82,47.43,18.81,47.4Zm-7-2.73h0v.07C11.82,44.73,11.8,44.69,11.81,44.67Zm7.08,2.78s0-.08,0-.09A0,0,0,0,0,18.89,47.45Zm-6.76-2s0,0,0-.07h0Zm-.4-.1v.06s0,0,0,0S11.74,45.32,11.73,45.31Zm0,.18c-.09.1.1.09.09.12S11.74,45.52,11.73,45.49Zm.09.27h0s0,0,0,0,0,0,0,0Zm6.94,1.85s0,.07.09,0,0,0,0,0l-.07-.07Zm.16-.85c-.07,0,0,.05,0,.09S19,46.79,18.92,46.76ZM11.84,45.4l0,0,0,0Zm0-.28v.05s0,0,0,0S11.87,45.11,11.86,45.12Zm-.2.64h0s.09,0,.07-.06S11.64,45.71,11.66,45.76Zm2.73,2.85s0,0,0,0v-.05h0Zm.1.07h0s0,0,0,0,0,0,0-.06S14.5,48.65,14.49,48.68Zm.07-.51h0s.06-.05,0-.07Zm0,.31h0v.07S14.56,48.51,14.54,48.48Zm.1-.16s0,0,0,0,.06,0,0-.07S14.64,48.28,14.64,48.32Zm3.07-1.47s-.05,0,0,0,0,0,0,0,.08,0,.06-.06S17.72,46.84,17.71,46.85Zm-3,1.32,0,0s0,0,0,0,.07-.06,0-.09A.06.06,0,0,0,14.67,48.17Zm3.18-1.9v.07H18C18,46.28,17.88,46.28,17.85,46.27Zm-.06-.33v0s-.05,0-.07,0l0,0A0,0,0,0,1,17.79,45.94Zm-5.71,2.48h.05v-.07h0S12.06,48.39,12.08,48.42Zm2.19-.25Zm3.52-2.28Zm-3.37,1.38a.13.13,0,0,0-.1.13C14.4,47.39,14.4,47.29,14.42,47.27Zm.07.66h0v0S14.48,47.9,14.49,47.93Zm-.05.2h0s0,0,0-.05l0,0Zm-.22,0,0,0a.1.1,0,0,0,0-.13C14.24,48.05,14.27,48.11,14.22,48.13Zm.17-.18s-.05.06,0,.09l0,0Zm-.08-.05s-.08,0,0,.08S14.32,47.93,14.31,47.9Zm1.61-2V46S16,46,16,46,16,45.94,15.92,45.94Zm.16,0V46h0s0,0,0-.05S16.1,46,16.08,46Zm2.84.22c-.06.08-.1,0,0,0-.1,0-.15,0-.24,0l0,0A.25.25,0,0,0,18.92,46.17Zm-5.61,1.56,0,.06s0,0,0,0S13.31,47.76,13.31,47.73Zm3.19-2h0s0,0,0,.07h0S16.5,45.72,16.5,45.71ZM12,48.6h0a.06.06,0,0,0,0,.08h0S12,48.63,12,48.6Zm0,0h0ZM18.81,46s-.07.06,0,.09S18.82,46.07,18.81,46Zm-2.09.13.07-.07s-.09,0-.1,0Zm-2.19,1.22s0,0,.05,0,0,0,0,0S14.53,47.36,14.53,47.39Zm0,.22h0s0,0,0-.06A0,0,0,0,0,14.54,47.61Zm.1-.13h0v0S14.64,47.45,14.64,47.48Zm1.92-1.32c.05,0,.1,0,.11-.07h-.11Zm-2.24,1.43.13-.14s0,0-.06,0S14.27,47.51,14.32,47.59Zm2.09-1.74c-.08.06-.19.06-.24.18s.08-.07.14-.08l.09.15s.11,0,.12,0l0,0C16.41,46,16.39,45.91,16.41,45.85Zm0,.25Zm-2.06,3.16h.05v-.08C14.33,49.18,14.32,49.25,14.34,49.26Zm2.31.25Zm-3.26-1.32c0-.06-.07,0-.07.05h0s0,0,.05,0S13.39,48.21,13.39,48.19Zm3.21,1.59h0s0-.05,0-.06S16.58,49.76,16.6,49.78Zm-3.28-1.54Zm0,0h0Zm.06.08-.05.07s.05,0,.07,0,0,0,0,0S13.43,48.33,13.39,48.32Zm1.17,1s0,0,0-.06-.1,0-.07.06Zm2,.5h0Zm-.05-.14h0s0,0,0-.06S16.55,49.61,16.56,49.64Zm.2,0s0,0,0-.09S16.69,49.61,16.76,49.62Zm0-1h0v0S16.72,48.64,16.72,48.63Zm.09,0h0v0S16.82,48.65,16.81,48.63Zm-3.72,1.21s.05,0,.05,0h0s0,0,0,0Zm3.58-.39h0v.06h0S16.66,49.46,16.67,49.45Zm0,.26s0,0,.05,0v0S16.72,49.69,16.72,49.71ZM13.38,48v-.07s0,0,0,0,0,0,0,0-.05.06,0,.09S13.36,48,13.38,48Zm0,.14V48S13.26,48.12,13.38,48.12Zm1.15-1.36v.07s0,0,0-.07Zm-1.42,2.85s-.07,0-.06.06h0S13.11,49.62,13.11,49.61Zm1.34-2.67,0,0v-.06h0Zm.11,2.68v.08s0,0,0-.06Zm-.14.16s0,0,0-.06h0Zm0-.16h0s0,0,0,0S14.39,49.62,14.39,49.62Zm-.17-.36s0,0,.07,0,0,0-.06,0S14.18,49.24,14.22,49.26Zm.37-2.6h0s0,0,.06,0l0,0S14.57,46.64,14.59,46.66Zm0,0h0S14.58,46.66,14.6,46.67Zm0,.37s0,0,0,0V47h0Zm-.29,2,0,0,0,0s0,0,.06,0S14.28,49,14.27,49Zm0,.09Zm.19,0s0,0,0,0l0,.06S14.43,49.11,14.44,49.08Zm-.19.69Zm0,0s0,0,.07-.05l0,0Zm1.25-3.1h0c.11,0,.08-.1.12-.13s-.13.12-.19.1S15.48,46.66,15.5,46.67Zm-1.23,3s.09-.11.05-.16S14.18,49.58,14.27,49.64Zm-1.76.2v-.13h0C12.43,49.75,12.51,49.81,12.51,49.84Zm6.39-1s0,0,0-.07l-.07.1,0,0S18.88,48.92,18.9,48.89Zm-.07.19h0s0,0,0,0,0,0,0,0Zm.27.08h0v.06s0,0,.05,0S19.1,49.16,19.1,49.16ZM18.9,49h0V49h0Zm-6.25.78h0v-.06h0Zm3.89-1.69v.05l0,0S16.56,48.11,16.54,48.12Zm.22,1.1h0s0,0,0-.06h0ZM16.52,48s.05,0,0-.08S16.47,48,16.52,48Zm-3.47,1.22s0,0,0,0-.06,0,0,.07Zm-1.3-4.43a.08.08,0,0,0,0,0l-.05.08S11.73,44.83,11.75,44.82Zm-.07.41s.05,0,0-.07a0,0,0,0,0-.06.07Zm0-.31,0,0V45h0S11.72,45,11.72,44.92Zm6.91,2.7s0,0,0,0,.05,0,0,0S18.63,47.6,18.63,47.62Zm-7-2.07,0,.08s.05,0,.06,0A.07.07,0,0,0,11.64,45.55Zm6.07,2.32h0S17.7,47.87,17.71,47.87Zm0,.11,0,0s0-.06,0-.07,0,0,0,0S17.67,48,17.71,48Zm1,1.05h0v.13C18.81,49.18,18.68,49.09,18.71,49Zm.39.85,0,0Zm-2.56-1.46v.07l.05,0S16.56,48.42,16.54,48.42ZM12.1,49.77s0,0,0-.05l0,0Zm.59-.79s0,0,0,0V49l0,0Zm0,.28a.08.08,0,0,0,.09,0s0,0,0,0l-.12-.1C12.61,49.18,12.72,49.2,12.71,49.26Zm-.2.31h0v0h0Zm.09,0s0,0,0,0,0,0,0-.06S12.61,49.52,12.6,49.55Zm6.06-2.16,0,.09s0,0,.05,0S18.69,47.42,18.66,47.39Zm-2.05,1.28v-.06l0,.06Zm.08.49h0s0,0,0-.08h0Zm-3.83-.06s.05.09.05.12h0s0-.1,0-.12Zm3.72-.55s0,0,0,0,0,0,0,.06h0S16.58,48.57,16.58,48.55Zm0,.6s0,0,0-.07a.06.06,0,0,0-.06.05s0,0,0,0S16.57,49.15,16.56,49.15Zm0,.1h0s.06,0,0-.09S16.55,49.21,16.58,49.25Zm-3.8-.19V49s0,0,0,.07Zm.09,0s0,0,0,0S12.86,49.08,12.87,49.08Zm3.72-.1h0V49h0ZM18.3,49s-.05,0-.08,0h0l0,0s0,0,0,0Zm-5.65-3.13,0,.07h0Zm.1.31s0,0,0,0l0,.08S12.72,46.25,12.75,46.22Zm-.64,1.55c-.06.09.12,0,.12.11h0a0,0,0,0,1,0,0C12.18,47.84,12.2,47.73,12.11,47.77ZM12.65,46l0,.06h0Zm6.21,3.74s0,.06,0,.08,0,0,0,0S18.93,49.78,18.86,49.78ZM12.8,46h0l0,.12S12.82,46,12.8,46Zm1.11.77c.06,0,0-.08.05-.1S13.86,46.74,13.91,46.78Zm0-.23,0,.08h0S14,46.57,14,46.55Zm-1.08-.33s-.07,0-.07.06S12.85,46.25,12.87,46.22Zm5.87,3.45h0s.05-.06,0-.12S18.73,49.62,18.74,49.67Zm-5.56-3.6a0,0,0,0,0,0-.06c0-.14-.13,0-.1.06Zm.65-.34s.05,0,0,0-.06,0-.06,0S13.82,45.74,13.83,45.73Zm-1.92.67a1.61,1.61,0,0,0,0-.31A1.07,1.07,0,0,0,11.91,46.4Zm.32,1.1h0v.07h0S12.23,47.52,12.23,47.5Zm6.38,1.63v-.07c-.05,0,0,0-.05,0S18.58,49.14,18.61,49.13Zm.24.48v.06h0s0,0,0-.05S18.86,49.61,18.85,49.61Zm-.57-.75h-.06v.06S18.3,48.92,18.28,48.86ZM12.51,46a.17.17,0,0,0-.06.14s0,0,.06,0A.17.17,0,0,0,12.51,46Zm6.1,2.09s0,0,0,0,0-.05,0-.06h0S18.57,48.06,18.61,48.08Zm-.08.24h0ZM12.17,46.9s0,0,0,0h0s0-.06,0-.08Zm0,.72v.08s0,0,0-.06S12.17,47.62,12.14,47.62Zm6.42.7s0,0,0,0-.08.13,0,.17.13,0,.14-.1S18.6,48.33,18.56,48.32Zm-6.45-.77s0,0,0,0v.08l0,0Zm.69-.84v.08s0,0,0,0S12.82,46.71,12.8,46.71Zm5.49,2.53h0s0,0,0,0a.08.08,0,0,0,0-.06S18.27,49.22,18.29,49.24Zm-5.67-1.88v.09s0-.05,0-.09Zm5.79,1.56,0,0,0,0a.06.06,0,0,1,.05,0Zm-6-2h0s0,0,0,0S12.34,46.89,12.38,46.9Zm.3.72v-.07s0,.05,0,.07Zm5.88,2.13c-.08,0,0,.09,0,.13s0-.07,0,0,.2,0,.13-.16C18.65,49.78,18.61,49.74,18.56,49.75Zm-6-2.09c-.09.07,0,.06,0,.13s.11,0,.12-.08S12.65,47.66,12.6,47.66Zm.27-.16,0,.07s0,0,.05,0Zm-.24,0a0,0,0,0,0,0,0l0,.07S12.61,47.53,12.63,47.52Zm.15-.66-.13.33h0c0-.09.12-.11.19,0s.05,0,0,0,.12,0,.11-.06S12.85,46.91,12.78,46.86Zm0,.85h0a.34.34,0,0,1,0-.11C12.68,47.59,12.75,47.68,12.75,47.71Zm-.52-.05v.07s0,0,.07,0S12.26,47.65,12.23,47.66Zm6.07,1.59h0S18.28,49.23,18.3,49.25Zm.35.42c.05-.05,0-.08,0-.1l-.05.07s0,0-.08,0v.06C18.54,49.66,18.61,49.77,18.65,49.67Zm-5.27-2.89h0a.19.19,0,0,0,0-.18C13.34,46.64,13.39,46.71,13.38,46.78Zm0-.25,0,0a.11.11,0,0,0,0-.08S13.41,46.48,13.39,46.53Zm-.68,1s0,0,0,0h0s0,0,0-.06Zm-.48.2Zm6.15,1.61h.05s0,0,0-.06S18.38,49.31,18.38,49.34Zm.27.12s-.19-.06-.19,0S18.59,49.52,18.65,49.46Zm-.08-.25c0-.07-.06-.07-.12-.09s0-.12.05-.13h0l0,0c-.06-.12,0-.15-.1-.21s0,0,0,.11,0,.06,0,.1,0,0-.05,0-.09.15,0,.2l0,0,0,.09A.05.05,0,0,0,18.57,49.21ZM13.14,47.3s0-.08,0-.09,0,0,0,0-.07.08,0,.13S13.12,47.32,13.14,47.3Zm2-.47.12-.12,0,0C15.21,46.74,15.1,46.78,15.14,46.83ZM18,48.92H18s0,0,0,0l0,0Zm-2.92-2.39a.08.08,0,0,0,0-.06h0Zm.67,0a.07.07,0,0,0,0-.06h0Zm1.78,1.13s0,0,0,0l0,.06s0,0,0,0S17.5,47.68,17.5,47.66Zm-.19-.58v.07h0s0,0,0-.07Zm2.42-1c-.34.34-.19.86-.28,1.34.12.29,0,.66,0,1-.12.31.09.56,0,.88a.84.84,0,0,1,.15.67H11.47a1.9,1.9,0,0,1,.14-.92.69.69,0,0,1-.08-.38,7.58,7.58,0,0,0,.06-1.72c0-.15.09-.26,0-.38,0-.23-.22-.33-.24-.53,0-.43,0-.93,0-1.36l.35-.2c.09,0,.15,0,.21-.08.19-.3.22-.68.4-1s0-.39.13-.53,0-.55.08-.78l0-.39.08-.34c.07-.14-.06-.3,0-.43,0-.48.11-.95.09-1.43-.49-.22-.12-.81-.21-1.24l.11-.34c.19-.13,0-.35.15-.51l0-1.18-.09-.15c0-.18-.08-.38.07-.51a.43.43,0,0,1,.33-.11v.2c.1,0,.1-.18.14-.27a.53.53,0,0,1,.41,0c.18,0,0,.23.15.29l0-.14.21.05c.25,0,.15.33.14.5-.22.33,0,.66-.09,1h.47l0-.54c-.1-.33.14-.66-.07-.9.12-.29-.14-.77.36-.77.08,0,.07.12.1.15l0,0c0-.17.08-.31.26-.33h.48c.14.05.1.22.11.32s.08-.1.05-.14c.19,0,.34.14.46.29s.09.44-.07.58a10.11,10.11,0,0,0,0,1.35c.15,0,.28.05.44,0l.05-.81c-.12-.12-.09-.31-.09-.47a1.5,1.5,0,0,1,.31-.24c.14,0,0,.19.16.17s0-.09.05-.14.19-.16.29-.13.07.24.21.27l.08-.19a.75.75,0,0,1,.46.28c0,.17,0,.37-.06.5,0,.5,0,1,0,1.54l.12.07.13.16,0,.56c-.09.24.1.55-.09.72l.07.06c-.07,0,0,.09-.13.07.05.68.13,1.36.12,2l0,.26v.06a7.64,7.64,0,0,0,.42,2,2.22,2.22,0,0,1,.18.59l.22.08.18.07.17.14A8.37,8.37,0,0,1,19.73,46.09Zm-.63.1.06-.06c.05,0,.08,0,.14,0L19.12,46a.73.73,0,0,0-.06.43s0,0,0,.07h0a.13.13,0,0,1,0-.06l0,0s.11,0,.09.12,0,0,0,0a.49.49,0,0,0,0-.19h0l0-.09a.2.2,0,0,0,0,.09c-.07,0-.17.14-.18,0a.06.06,0,0,1,.09,0Zm-.25,2.38h0v0c.17.06.22-.1.36-.15-.05-.19,0-.39-.08-.55l-.05.07a.14.14,0,0,0-.23-.1,1.93,1.93,0,0,1-.08.67c.13-.06.05-.2.22-.22-.1-.12.13-.18,0-.3a.1.1,0,0,1,.08-.05s.1,0,.1.06-.05.18,0,.24,0,.25-.16.18l0,.08C19,48.65,18.93,48.49,18.85,48.57ZM19.08,47h0l.08-.07c0,.09,0,.23,0,.31l0-.24c0-.12.05-.33-.13-.33s.07,0,.09.1.09.1,0,.14-.06-.06-.07-.06S19.06,47,19.08,47Zm-.06.73.08-.13s0,0,.06,0-.05,0,0,.09l.11,0v-.18c-.06,0-.13,0-.16,0s.08-.05.12-.07,0-.12-.06-.13S19,47.63,19,47.77Zm.15,1.07c-.18.19,0,0,.06.16,0-.07,0-.14,0-.09s0-.1-.06-.14Zm-.46-4.38a.57.57,0,0,0,0,.12,10.88,10.88,0,0,0-.07,1.13c.13,0,.31.15.44,0l.05-1.11C19,44.59,18.88,44.47,18.71,44.46Zm-.28-1.78c-.05,0-.11-.07-.15-.09s-.08,0-.11,0l-.11-.07a.13.13,0,0,0-.13,0h-.09s-.06,0-.06.06v.06a.39.39,0,0,1,0,.24s0,0,.08-.05l.06.05-.06.07a.11.11,0,0,1-.05.12c-.08,0-.18,0-.25.06l-.06.29,0,0a.06.06,0,0,1,0,.07h-.05l0,0h0c-.07.07-.08.19-.16.25a.05.05,0,0,1,0,0,.17.17,0,0,1,0-.07c-.05-.08-.14-.15-.16-.24l-.12,0s0,0,0,0a.09.09,0,0,0-.07,0,.05.05,0,0,1-.05,0c-.1,0-.22,0-.28.07s0,.33,0,.46l.64.11a.54.54,0,0,1,.09-.25v.26h.08a.56.56,0,0,1,.2.11l0,0a.29.29,0,0,0,.13,0l0,0A.27.27,0,0,0,17.9,44v0a.5.5,0,0,0,0-.12h0s0,0,0,.06h0s-.06,0-.05-.07,0,0,.06,0v-.13c-.11,0-.19-.06-.28-.09s0-.07.05-.09h.05s.07,0,.08.06v-.06a.12.12,0,0,1,.05-.07c.05,0,.05.1,0,.14l.15,0a.16.16,0,0,0,0-.15c-.07,0,0-.08,0-.13h0s0,0,0,0,0,.08-.07.11a.45.45,0,0,1-.2,0,.08.08,0,0,1,0-.12l0,0h0c.12,0,.1-.13.24-.11s.19,0,.25-.05.15-.06.21,0l0,0h0v0c-.11.08-.08.23-.1.35s.12.19.15.31,0,.19-.13.23a.18.18,0,0,0-.12-.15,1.57,1.57,0,0,0-.3,0L18,44s0,.09.06.12h0l.05,0h0s0,.1,0,.12l0,0h.05c0-.08,0-.23.15-.25s-.09.18-.09.28h.11a.34.34,0,0,1,0-.2l0,0c0,.08.06.2.14.24l.06,0h0c0,.09.15,0,.21.08s0-.08,0-.12l0,0h0s0,0,0-.05a.19.19,0,0,0,.05-.1v-.07c0-.1-.09-.19-.11-.29l-.05.05.08.09,0,0-.08,0c-.09,0,0-.22-.06-.26l0,0s.06,0,.08-.06-.1-.38-.15-.57h0v0l0-.06Zm.09,1.78a1.69,1.69,0,0,0-.78-.18c0,.4-.13.81-.11,1.21a1,1,0,0,0,.51.12c.1,0,.12-.16.21-.06s-.07.05-.1.08h.09C18.65,45.34,18.43,44.85,18.52,44.46Zm-.34-1.19v0a1.72,1.72,0,0,0-.07.21v0a.43.43,0,0,0,0,0l0,0,0,0h0s0-.08.07-.1h0l-.08-.13,0,0h.09l0,0s0,0,0-.06-.07-.1,0-.15h0l0,0,0,0h-.1l0,0A.14.14,0,0,1,18.18,43.27Zm.19.37-.05,0h.09v-.05Zm-2,1.77.64.08c.14,0,.36.06.43-.12,0-.36.18-.78,0-1.12l-1-.17c-.09,0-.07.1-.14.15C16.42,44.64,16.27,45,16.38,45.41Zm-2.3-2,0,0a1,1,0,0,1,.16-.12h.09c.11,0,0-.17.12-.2s0,.14,0,.2a.42.42,0,0,1,.36.06h0c.07,0,.06-.07.11-.1s0,0,.08,0,.11,0,.15,0-.17.09-.24.15,0,.31-.07.44l0,0,0,0h0c.07,0,.12-.16.2-.06a.05.05,0,0,1,0,.05v0h.07v0a.05.05,0,0,1,0-.05l0,0a.34.34,0,0,1,0,.1h0l.06,0h0l0,0h0l0,0v0s0,0,0-.05h0s0,.07,0,.09l.1-.08a.1.1,0,0,1,0,.08h.07v0s0-.07,0-.11h-.05s0-.09,0-.11l0,0c.08-.09-.06-.17-.09-.25a.31.31,0,0,0-.19,0,.51.51,0,0,0-.17.07c-.17-.16.09-.2.11-.34s0-.09,0-.14,0,0-.05,0,0,0,0,0a0,0,0,0,1,0,0h0c0-.06,0-.09,0-.13s-.1,0-.16,0a.11.11,0,0,1-.09-.07s0,0-.05.07l-.05,0a.05.05,0,0,1-.06,0s0,0,0-.07-.13.06-.22.07,0,0-.06,0-.07.23-.17.3,0-.13,0-.22-.14,0-.17-.08-.06,0-.08,0l-.09.05c-.07,0-.15,0-.22,0h0a.08.08,0,0,1,0,.13s-.05,0,0-.08h-.24c-.1,0,0,.23-.16.27a.3.3,0,0,1,0-.21c-.06-.08-.13-.06-.21-.06h-.08c-.29,0-.23.37-.24.56s.22.05.34.05h0c.14,0,.06-.22.15-.3l.06,0c0,.06,0,.14,0,.2v0h.08s.05,0,.06,0,.19-.09.19-.21h.05l0,0,0,.05v0c0,.06.18,0,.24.06s0,0,0,0h0l0,0h0s-.09,0-.14,0h0l0,0c0,.06,0,.19-.05.22s0-.19-.11-.2-.09,0-.11,0-.2-.07-.2.08-.06,0-.12,0a.09.09,0,0,0-.07.06s-.05,0-.05-.06l-.17.08c0,.12-.06.25-.06.37H13s.09,0,.13,0a.19.19,0,0,1,.08,0l0,0a.12.12,0,0,1,0-.12l0,0,0,0s0,0,0,.08l.17,0h.09l.08,0h.06c.11,0,.09-.2.13-.27a.2.2,0,0,1,0,.17v.06l.28,0h0s0-.06.05-.08,0,0,.06,0,0,.05,0,.07a3.87,3.87,0,0,1,.48,0l.12,0a.8.8,0,0,0,0-.53c0-.09-.15-.05-.23,0h-.08v0l-.23.06c-.11,0,0,.14,0,.21s0,.12-.05.15l0,0c-.07,0-.05-.2-.05-.27Zm.54.63c-.26,0-.6-.1-.81.08l-.06.06a3.27,3.27,0,0,0,0,1.21,3.43,3.43,0,0,0,.78-.07l.11-.11V44.12Zm-1.82.27,0-.05h0l0,.05-.05,1.23,0,.05c.22-.05.6,0,.78-.23l0-1,0-.23A.94.94,0,0,0,12.8,44.35Zm1.69-1.6h0v0h0Zm.4-2.62,0,0,0,.31a1,1,0,0,1,.17,0l.06,0h0c-.06.05-.15,0-.22.07a3.65,3.65,0,0,1,.1.92c.1,0,.09-.16.17-.21l0,0s0,.08,0,.08.2.07.3,0,.11-.3,0-.41l-.09,0-.05,0h.09s.06.07.07.11-.05.08-.09.07-.05,0,0-.07l-.12.09s0,0,0-.06,0,0,.08,0V41c-.16,0-.1.18-.15.28s-.06,0-.07-.05,0-.1,0-.15h0S15,41,15,41a.09.09,0,0,0,.07,0,.16.16,0,0,0,.1,0,1,1,0,0,0,.15-.24l0,.06s0,.09,0,.13,0,.06,0,.07h.06c-.06-.1,0-.21,0-.31h.06s0,0,0,0h0l0,0s0-.07,0-.07h-.17l0,0s-.05.11-.09.14,0-.08,0-.13a.15.15,0,0,1-.09,0c-.08-.08,0-.26,0-.36v0s0-.11-.05-.13A.18.18,0,0,0,15,40L15,40s0,.11-.1.13v0c-.06,0,0-.09,0-.14s-.16.13-.22,0a.65.65,0,0,1,.23-.13h.05l.1,0a.2.2,0,0,0,.14-.15v-.08a1.11,1.11,0,0,1-.07-.16c-.06,0-.12,0-.17,0l-.05,0,0,.1h-.09l0,0h0a.42.42,0,0,0-.42,0l-.07.11v.08c.05.13.34.15.26.34l.11,0,.12.05.1.08h0l.08.1h0C14.78,40.32,14.83,40.18,14.89,40.13Zm-.09.37a.53.53,0,0,0-.49-.23.58.58,0,0,0-.29.18,7.53,7.53,0,0,0-.09,1.42h.91A7.87,7.87,0,0,0,14.8,40.5Zm0,1.48h-.91a.88.88,0,0,1,0,.16h0a2.46,2.46,0,0,0,.47,0h.09a2.35,2.35,0,0,1,.37,0V42Zm-1-1.43-.2.05c0,.08,0,.18.07.26l-.06,0h0c-.07,0,0-.18-.11-.23l0,0H13.4l-.06,0,0,0a.35.35,0,0,0-.05.13V41h0s.05,0,.07,0l0,0a.13.13,0,0,1,0,.05l0,0h.08a.39.39,0,0,1-.11.21s0-.13,0-.13l-.06-.06c-.07,0-.15,0-.22,0,0,.15-.06.3-.08.44a.56.56,0,0,0,.18,0,.24.24,0,0,1,.16,0c0-.07,0-.24.1-.27s0,.1,0,.09l0,0c.06,0,.13,0,.19,0h.08l0,0s.09,0,.09-.06,0-.14,0-.18H13.7s0-.08,0-.1h0a.07.07,0,0,1,0-.08l.05,0a.07.07,0,0,1,0,.05h0l0,0C13.83,41,13.77,40.74,13.82,40.55Zm-.33,1.32v0a.37.37,0,0,1-.07.2h.35v-.56l0,0,0,0a.38.38,0,0,0-.15,0s0,0,0,.06l0,.06,0,0a.25.25,0,0,1-.12,0l0-.06h0c-.07,0-.18,0-.26,0l-.06,0c-.06.05-.06.14-.12.18a.22.22,0,0,1,0,.14s0,.11,0,.14h0l.1,0h0c.11,0,.22-.07.32-.1s0-.14,0-.21a.11.11,0,0,1,0-.06h.06Zm-.4-2.78h0s0,0,0,0l-.07,0-.08,0-.07,0h.1a.28.28,0,0,0,.13,0l0,0h0l0,0h0s0,0,0,.07h0l0,0,0,0s0,0,0,0a2.81,2.81,0,0,1,0-.29.14.14,0,0,0,0-.06h0a.21.21,0,0,0-.13,0,1.34,1.34,0,0,0-.2,0h0a0,0,0,0,0,0,0h0a.2.2,0,0,0-.06.11.57.57,0,0,0,0,.13c0-.06,0-.17.06-.24h0l0,0h0l0,0s0,.08,0,.1l.07-.11.09.11s-.08,0-.11.08l.11.08,0,0H13a.43.43,0,0,0,0,.07l0-.05s0,0,0,0h0l0,0,0,0,0,0h0v.08h.08s0,0,.07-.05h.09Zm-.17-.1h0v0l0,0h0Zm.37.32v0l0,0,0,0h0l0,0h0s0,0,0,0v0l0,0h-.05l0,0,0,0a.25.25,0,0,0,0,.07l0,0,0,0h-.05c.08,0,.19,0,.28,0l.09,0a.58.58,0,0,0,.06-.26.24.24,0,0,0,0-.08l-.05,0h-.06l-.1,0h0S13.29,39.3,13.29,39.31Zm.07-.68c0,.15,0,.3.05.46h.12l.1-.05v0l.07-.07,0,.07.09,0s0,0,.06,0h0c.09-.11,0-.32,0-.44v-.05A1.82,1.82,0,0,0,13.36,38.63Zm.23-1h.06l0,0h0a.09.09,0,0,0,0,0,.19.19,0,0,0,0-.07c0-.05,0-.19-.07-.2H13.6l0,0a0,0,0,0,0,0,0l0,.05a.78.78,0,0,0,0,.22h.12Zm.35,1.55v0h-.14l-.14.05a1.11,1.11,0,0,0-.09.31h.05a.34.34,0,0,0,.2,0l.07,0h0l0,0s0,0,0,0v-.08A.65.65,0,0,1,13.94,39.15Zm-.85.23v0a.12.12,0,0,1,.06-.06H13.1l0,0Zm0,.12h0v0h0Zm0,.91h0s0-.07,0-.08a.48.48,0,0,0,0,.26s0,.06,0,.09l.11-.12.09.09.06,0,.11,0h0l.05,0,0-.19v-.1a.32.32,0,0,0,0-.09s0,0,0,.06l0,0-.17.06a.13.13,0,0,0-.05.09h0a.19.19,0,0,0,0,.07l0,0h0S13,40.44,13,40.41Zm.07.44c0,.06-.06.1-.07.16h0v0a.09.09,0,0,1,0,0s.06-.06.07-.1h0s0,0,0,0,0-.09-.06-.1h0A.29.29,0,0,0,13,41l0,0h0s0,0,0,0,0-.08,0-.12a.08.08,0,0,1,.07,0A.08.08,0,0,1,13.11,40.85Zm.19.77h.08l.06,0H13.3Zm.52-1.13v0l0-.23s0-.09-.1-.09,0,0,0,0-.05,0,0-.08l.05,0c.09,0,0-.25.1-.29h0l0,0c0,.07.05.17.13.18h0l.05,0a.08.08,0,0,0,0,0l0,0v0c0-.06,0-.11,0-.17l-.06-.12c-.15-.05-.18.14-.25.22s-.09-.08-.07-.14l-.08,0h-.08l-.07,0a.15.15,0,0,0-.05.06l0,0,0,0,0,0s-.1,0-.14,0l0,0a.08.08,0,0,0,0,0l-.09-.06A.73.73,0,0,0,13,40s0,0,0,0v0l0,0v.12s0,0,0,0a.22.22,0,0,1,.06-.13H13S13,40,13,40h0s.12-.09.11-.16h0s0,.08,0,.11v0h0l0,0h.1s0,0,0,.05l-.06.07,0,0,0,0h0v0h0c.09,0,.13-.14.18-.21h0l0,0s0,.09,0,.1h.05a.25.25,0,0,1,.12,0l.06,0c0,.06-.09.08-.13.11v.14C13.57,40.48,13.73,40.48,13.82,40.49Zm.82-1.79v0s0-.1,0-.13a.12.12,0,0,0,0-.05c-.1-.1-.33,0-.46,0s0,.27,0,.41a.45.45,0,0,0,0,.11h.08l.41-.06h0Zm0,.35h0c0,.13,0,.26,0,.39h.19c0-.1,0-.2,0-.31s0-.07,0-.08h-.08Zm-.56.14a.19.19,0,0,0,0,.08v.08h0s0,.07,0,.09h.12l.19,0h.05v-.29l0,0h0a2.06,2.06,0,0,0-.26,0l-.07,0Zm-.21.91.08.12s0,.05,0,.07a.27.27,0,0,1,.16-.08.4.4,0,0,0,.13,0h0a.22.22,0,0,0,.09-.07s-.07-.07-.11-.08l0,0H14v0h-.13Zm1.35-1.65,0,0-.37,0a.57.57,0,0,0-.07.22v.24h0l.2,0v0l.06,0h0l0,0s0,0,0,0l.25,0,.1,0,.06,0h.06a.06.06,0,0,0-.07-.05h-.08s0,0,0-.06.05,0,.08,0h0l-.12,0s0,.18,0,.2,0,0,0,0l0,0,0,0,0,0s0-.06,0-.07l-.09,0a0,0,0,0,1,0,0,.2.2,0,0,1,0-.11.08.08,0,0,0,0,0l0,0,0-.05h.05s0,0,0,0a.56.56,0,0,0,0,.08h0s0,0,0,0l.05-.08h-.11A.33.33,0,0,1,15.21,38.45Zm0-1.07,0,0h0s.06.08.06.1,0,0,0,.06h.05v0a.1.1,0,0,1,.05-.14l0,0V37.2h-.17l0,0,0,.14h0v0a.09.09,0,0,0,.05.07ZM15,35.93l0,0H15c0,.08,0,.16,0,.24h0a.07.07,0,0,0,0-.06A.34.34,0,0,1,15,35.93Zm-.07.4v0s.06,0,.09,0h0l0,0,0,0a.75.75,0,0,1,.07-.12h-.17l-.08,0h0v0H15l0,0a0,0,0,0,1,0,.06h0s-.06,0-.07,0Zm.26.22v0h0l0,0a.12.12,0,0,0,0,.07.27.27,0,0,0,0,.16.19.19,0,0,0,0,.07h0C15.15,36.7,15.21,36.62,15.22,36.55Zm-.25.14h0v.12l0,0h0a.12.12,0,0,1,0-.08s0,0,0,0Zm0-.1h0v-.07h0v.07Zm0,.39h0a.11.11,0,0,0,0,.07h0a.32.32,0,0,1,.14,0h0v0a.08.08,0,0,0,0-.05.09.09,0,0,0,0,0l0,0h0l0,0h0l0,0h0l-.06,0h0S15,37,14.94,37Zm1-.61-.1.05v0l0,0h0a.18.18,0,0,1,0,.1l0,0a.14.14,0,0,0,0-.06A.33.33,0,0,1,15.92,36.37Zm.38,2.79h0l0,0a.13.13,0,0,0,0-.06h0l-.1,0h-.06c-.08.08,0,.21-.06.3h.16a.12.12,0,0,0,.1-.1l.08.06,0,0a.07.07,0,0,1,0,0l.13,0,.13,0h.09s0,0,0,0l0,0v0s0,0,0,0a.19.19,0,0,0,0-.08c0-.08-.12-.1-.18-.12a.86.86,0,0,0-.17,0h-.09l0,0h0s0,.07,0,.1,0,0,0,0A0,0,0,0,1,16.3,39.16Zm.64-2.33A.32.32,0,0,0,17,37L17,37h.06v-.2h0l-.07,0h0A.13.13,0,0,0,16.94,36.83Zm0-.27v0Zm.69-.2h0l.06,0v0h-.09Zm0-.11.07-.09h0s0,0,0,0h0s-.09,0-.13,0v.07a0,0,0,0,0,0,0h0l0,0Zm0,1.1h-.11v.06c0,.1,0,.24.07.32l0,0,.07,0,0-.08s.05,0,.07,0,0,0,0,0v0h0l0,0,0,0a0,0,0,0,1,0,0l.05,0h0a.19.19,0,0,0,0-.07l0,0,0,0Zm.13,4.34s0,0,.07,0l.05,0a.07.07,0,0,1,0,.05c.08,0,.14,0,.18-.07s-.09-.46-.32-.39l-.05,0c0-.08-.05.05-.1.06h0s-.07,0-.1-.05,0-.07,0-.11h0s-.06.05-.08,0l0,0h-.05s-.07,0-.08,0v.39s.09,0,.06.09a.1.1,0,0,1-.08,0c0,.14,0,.28,0,.42s.17-.13.25-.19.06.14.07.2a.09.09,0,0,1,0,0h-.06s-.05,0-.05,0-.19.05-.3.09h0c-.15-.11-.34,0-.5-.08v0l-.11,0c0,.13-.06.29,0,.42s.17.09.26.05l0,0s.09.06.13,0,.09-.14.17-.18l0,0c0,.06,0,.1-.05.15s.19,0,.27.08,0,0,0,.06h-.09c-.08,0-.19.05-.27,0s-.14.14-.19.22,0-.32-.2-.28-.25.07-.32,0a.34.34,0,0,0,.13-.32.16.16,0,0,0,0-.09h0a.14.14,0,0,0,0-.09c-.08,0-.13,0-.19.08s-.05-.05,0-.08-.07,0-.09,0l.08,0,0,0,0,0s0,0-.05,0l-.12,0c-.17,0-.24.21-.22.34,0,0,.06-.08.1-.1l0,0c.05,0,0,.07,0,.11h0s.08,0,.06.07l0-.1c.06,0,.05.09.07.13.2.06.09-.18.21-.24a.24.24,0,0,1,0,.23c.14.08-.07.12-.05.21s-.06,0-.08-.07a1.53,1.53,0,0,0-.29-.07h-.11s0,.07-.06.08h0c-.05,0-.1-.06-.16,0h0a1.92,1.92,0,0,1,0,.24.2.2,0,0,0,.07.19l.1,0s0,0,0,0,0,0,0,.06v0a.07.07,0,0,1,.05,0c.07,0,.09.09.15.09l0,0c.08,0,.16-.07.25,0l.05-.08-.05,0,.09-.09s0,.25,0,.24l.27.13.1-.09h.05c.09,0,.09-.16.18-.2s0,.16.05.19H17c.1,0,.18.09.27.12h.06c.11,0,.1-.16.17-.21s-.05-.23-.1-.33,0-.09.1-.08.09.11.09.18.12-.11.17-.21,0-.29-.15-.29,0-.08,0-.09.15,0,.17-.09l.09,0,0,0-.11.09.18-.07s0-.1.05-.16V42.1c-.08-.08-.16.08-.24,0l0,0a.2.2,0,0,1,.09-.13s.08,0,.08-.06v0C17.83,41.84,17.78,41.75,17.82,41.69Zm-2.43.93v0l0,0h0a.1.1,0,0,1,0,.05h0v0l.07,0,0,0s0,0,0,0l0,0h0l0,0a.19.19,0,0,0,0-.07v-.08a.51.51,0,0,1,0-.13l-.1.13s0,0,0,0h0v0a.12.12,0,0,1,0,.08h0l0,0v.07h0s0,0,0,0,0,0,0,0h0l-.06,0s0,0,0,0v0h0a.09.09,0,0,1,0-.11s.07,0,.09-.1v0h0a1,1,0,0,0-.35,0,.6.6,0,0,0-.08.08.42.42,0,0,0-.1.2h0a.51.51,0,0,0,0,.13l.26,0,0,0h.09l0,0h0Zm.09-1.75,0-.09,0,0v0s0,.07,0,.11h.06l0,0S15.48,40.88,15.48,40.87Zm.06.66,0,0h0l0,0,0,0h-.07a.4.4,0,0,0-.19,0h-.06l-.08,0a.84.84,0,0,0,0,.52.37.37,0,0,1,.11-.05,2,2,0,0,1,.35,0h0a0,0,0,0,0,0,0,.18.18,0,0,0,.09-.06,0,0,0,0,1,0,0c0-.09,0-.18,0-.27h0s0-.07,0-.1v0Zm.18.14a.26.26,0,0,0,0,.08v.15s0,.07,0,.11l.15.08h0l.17,0s0,0,0,0c.06-.16,0-.33,0-.49l0,0H16a.81.81,0,0,0-.27,0Zm-.1-.8V41h0s0-.06,0-.09l0,0h.08v0h.08a.56.56,0,0,1,.22,0h0v-.43h-.05l0,0-.07.07a.08.08,0,0,1-.06,0l0,0,0,0H15.7s0,0,0,0,0,.21-.08.31Zm0,.49h0l0,0s0,.09.08.12h.08a0,0,0,0,1,0,0,.05.05,0,0,0,0,0L16,41.4v.1H16a.39.39,0,0,0,.07-.3L16,41H16l-.2,0h-.06l-.05,0a.15.15,0,0,0,0,.11l.06,0,.07,0,0,.07h-.05l0,0s0,0,0,0v.08Zm.64.44h.41c.16,0,.33.11.44,0s0,0,0,.06c-.06-.47.13-1.14-.17-1.56a.75.75,0,0,0-.47-.05.48.48,0,0,0-.18.22C16.35,40.93,16.17,41.33,16.22,41.8Zm.87.16c-.23,0-.45,0-.68,0l-.07,0a.14.14,0,0,0-.1.07.24.24,0,0,0,0,.08l.11,0a1.48,1.48,0,0,1,.21,0h0a.15.15,0,0,1,.09,0l.06,0h0s0,0,.06,0a.82.82,0,0,0,.22,0l.06,0,0-.17Zm.25-1.28,0,0s0,0,0,0,0,.22,0,.32h.08l0,0,0,0C17.38,40.91,17.31,40.77,17.34,40.68Zm.49.3h0l0,0,0,0,0-.14,0,0a.06.06,0,0,0-.06,0l-.05,0-.06,0s0-.05,0-.08,0,0,0,0h0l0,.08h0l0,0,.05.35,0,0h0l.09,0h.05s0,0,0,0l0,0h-.06l0,0h0v0s0-.07.06-.09.06,0,.09,0,0,0,0,0v0a.08.08,0,0,0,0,0Zm.39.25a.09.09,0,0,0,.07-.06c0-.09-.07-.22,0-.3h-.07l-.1,0H18c-.06.07,0,.18-.06.26l.09.08.1,0S18.2,41.24,18.22,41.23Zm.05-.56v0c0-.07,0-.13,0-.19l0,0,0,0v0h0c-.05,0-.06.12-.06.16a.56.56,0,0,0,0,.21h0l.12,0S18.27,40.68,18.27,40.67Zm-.05-.6a.49.49,0,0,0-.1-.26l0,0h0L18,39.77s0,0,0,0h0s.08,0,.09.09h0v0l0,0h0s0,0,0,0l-.05-.06h0l-.06,0a.52.52,0,0,0-.16-.06.11.11,0,0,0,0,.06h0c0,.05,0,.11,0,.15l0,0s0,.08,0,.12,0,0,0,0,.19,0,.26,0h0c0-.06,0-.21.07-.22a.13.13,0,0,1,0,.12.35.35,0,0,0,0,.11.15.15,0,0,0,.08.11.42.42,0,0,0,.12,0A2.26,2.26,0,0,0,18.22,40.07Zm0-.42v-.09l0-.06s0,0,0-.06,0,.14-.08.2v0l0,0h.05s0,0,0,0A.19.19,0,0,0,18.17,39.65ZM18,39.38h0l-.06,0h0l-.08,0a2.67,2.67,0,0,0-.09.26s0,0,0,0h0s0,0,0,0h0s0,0,.07,0,.07,0,.09,0l.06,0C17.91,39.6,17.94,39.44,18,39.38Zm-.67-.05a.14.14,0,0,1,0,.09.37.37,0,0,1-.05.11h.35c.08-.07,0-.2.07-.29a1.18,1.18,0,0,0-.42,0,.41.41,0,0,0-.05-.09.13.13,0,0,1,0-.07l-.05,0-.12,0-.05,0s0,0,0,0a.36.36,0,0,0,0,.09v0a.05.05,0,0,0,0,0h0l.15,0h0l0,0,0,0h0a.14.14,0,0,1,.05-.11v0h0Zm-.29-.44a.13.13,0,0,0,0,.06l.07,0h.05l.06-.05c0-.06.05-.13.1-.18v0l0,0h0l-.12,0h0a.25.25,0,0,0,0,.07.43.43,0,0,0,0,.19Zm.78.07h0c-.07-.08,0-.23-.13-.29h-.05a.09.09,0,0,0-.07,0l-.08.08a.37.37,0,0,0-.12.31l.46,0Zm-.29-1.1-.06,0h0a.42.42,0,0,1-.19-.06,1.13,1.13,0,0,0,0,.68h.05a1,1,0,0,1,.16,0h.08c0-.17,0-.34.05-.5a.17.17,0,0,0,0-.12Zm-.08-.53s-.09,0-.13,0h0l0,0h-.05l-.05,0a.41.41,0,0,0-.05.09,2,2,0,0,1-.08.22h.1l.17,0h.05l.09,0A.64.64,0,0,0,17.47,37.33Zm-.25-.4v-.18h0v.18Zm0-.29v0h0V36.5h0l0,0h-.06s0,0,0,0a.11.11,0,0,0,0,0v.12h0Zm-.2.54h.11v0s0-.08,0-.11Zm0,.6h0a1.23,1.23,0,0,1-.2,0,1,1,0,0,0,0,.53h.05l.24,0a.08.08,0,0,0,0,0l0,0s0,0,0-.06a.84.84,0,0,1,0-.32s-.05-.06-.07-.06Zm-.17,1.75c-.11,0-.09.17-.18.21s-.05-.07-.05-.1-.2-.09-.24-.2l0,0s0,0,0,0,0,.1-.05.11,0,.39.09.51,0,0-.06,0h0s-.07-.06,0-.09H16c-.2-.15.16-.13.14-.28a.56.56,0,0,0-.05-.28,1.27,1.27,0,0,0-.27,0s-.07.14,0,.15a.13.13,0,0,1,0,.1c0,.1,0,.15.13.17a.08.08,0,0,1,0,.07l-.07,0s0,.11,0,.12-.09-.1-.12-.12h0a.11.11,0,0,0-.09,0c0-.06-.09,0-.14,0a.06.06,0,0,1-.06,0c0-.11.09-.06.18-.06h0a.18.18,0,0,0,.07,0c.08-.07,0-.22.07-.29s0,0-.05,0,0-.06,0-.09v0c0-.22.21,0,.31-.11s.05,0,.05-.08a.09.09,0,0,1,0-.1h0c0-.19-.25-.19-.36-.16v0l0,.06,0-.05s0,0,0,0-.09,0-.13,0a.1.1,0,0,0-.06,0v0c0,.07.11.13,0,.19h.07l0-.09c.12-.1,0,.08.12.11s-.06,0-.08,0l.13,0c-.07.14-.29,0-.41.05l-.06,0a.61.61,0,0,1,0,.42.13.13,0,0,1,.18.06c-.1,0-.11.15-.12.23s0,.09,0,.12h0v0h0v-.06h0a.07.07,0,0,0,0-.06c0-.1,0-.22.1-.16l0,.07h0s.1,0,.11.11-.13.18-.23.2,0,0,0,0h0s0,0,0,0l0,0h.06s.05,0,.05,0h.06c0-.07,0-.15.07-.19l.07.05s0,.08-.07.11.19,0,.22-.12a.11.11,0,0,1,0,.11l.13,0c.11,0,.22,0,.34,0,0-.08.09-.14.09-.23h0l0,0c0-.11.12,0,.17-.07v0h.05a.64.64,0,0,1,.68.13l.09.23,0,0h0a.14.14,0,0,1,0-.1l0,0c0,.07,0,.17-.07.21l.19,0a1.66,1.66,0,0,0,.27-.13l0,.13c.05,0,.09.06.14.07s.05,0,.06,0h0s0-.07.07,0,0-.07,0-.07l0,0-.08.13,0,0c0-.06.07-.11.09-.16l0,0a.23.23,0,0,0-.24-.18c-.07,0,0,.16-.11.18a.11.11,0,0,1,0-.11h-.05s0-.06,0-.09h-.07l0,0a1,1,0,0,0,.14-.42c0-.11-.14-.15-.24-.19l-.07.16c-.14,0,0-.13-.06-.2h0A2.73,2.73,0,0,0,16.81,39.53Zm-1.5-.37V39.1a.64.64,0,0,0-.27-.07H15a.21.21,0,0,0-.08.06l0,.09a1.77,1.77,0,0,0,0,.23.74.74,0,0,0,.21,0h0l.24-.07C15.38,39.25,15.32,39.22,15.31,39.16Zm.49-.9h0a.37.37,0,0,0,0-.11v-.06a.65.65,0,0,1,0-.24l0-.06a.24.24,0,0,0-.08-.09.27.27,0,0,0-.11-.05h-.12a.28.28,0,0,0-.13,0v.55A1.29,1.29,0,0,1,15.8,38.26Zm-.51.15v0l0,.08,0,0h0l.05,0h0l0,0h0s0,0,0,0Zm.23-1v0s0,0,0,0,0,0,0,0l.05-.08a.08.08,0,0,0,.07,0h0l0,0s0,0,0,0l0,0h0l0,0h0l0,0,.11.06c0-.09,0-.24,0-.32h-.29l-.09.06A.85.85,0,0,1,15.52,37.4Zm.17,1.34v.1l0-.06V38.7a.38.38,0,0,1,0-.15.08.08,0,0,0-.06,0v0s0,.06,0,.08h0Zm-.12-.31,0,0,.05,0h0l0,0v-.06a.08.08,0,0,0,0,0l0,0h0s0,0,0,0Zm.75.26a2,2,0,0,1-.05-.24h-.06l-.06,0-.17,0h-.05l0,0a.12.12,0,0,0-.05.05c.05.13,0,.27,0,.4H16s0,0,0,0,0,0,0,0l0,0c.06,0,0,.1,0,.13h.15l.06,0a.3.3,0,0,0,0-.1ZM16,37.08h.11V37a.06.06,0,0,0,0,0l-.22,0h0l0,0v0l0,0H16Zm.11-.7h-.05l-.05,0v.2h0l0,0h0v0C16.13,36.51,16.09,36.43,16.14,36.38Zm0-.13v-.08a.11.11,0,0,0,0-.06.13.13,0,0,1-.07,0s0,0,0,0v.06h.11Zm-.16.43h-.09a.25.25,0,0,0,0,.15l0,0h.2v-.15s0,0,0,0H16Zm-.06-.52h0l-.06,0h0l.08.14Zm-.09-.48a.18.18,0,0,0,.09-.14h-.07l-.14,0h-.1a.34.34,0,0,0,0,.1s0,0,0,0a.07.07,0,0,0,0,0l.09,0Zm-.3.1h0a.93.93,0,0,0-.05.1.06.06,0,0,0,0,0V36l.06,0h.06a.33.33,0,0,0,.13,0v-.21h0A.22.22,0,0,0,15.51,35.78Zm0-.17a.24.24,0,0,0,0-.09.16.16,0,0,0-.1,0l-.06,0h-.05a.47.47,0,0,0,0,.17h.12l0,0,0,0S15.49,35.61,15.5,35.61Zm-.16.79a5.92,5.92,0,0,0,0,.61c.08,0,.11,0,.18,0a.31.31,0,0,0,.24,0,3.87,3.87,0,0,0,0-.83.32.32,0,0,0-.28-.08C15.3,36.14,15.35,36.3,15.34,36.4Zm-.44,9,1.14,0,.13-.07a3.15,3.15,0,0,0-.05-1.15A5.7,5.7,0,0,0,15,44l-.12.06a6.33,6.33,0,0,0-.06.89C14.86,45.12,14.78,45.28,14.9,45.37ZM16.26,44h0l.06,0h.12l0-.32s0-.1-.07-.12h0a2.25,2.25,0,0,0-.31-.16l-.17.19a.12.12,0,0,0,0,.08v0c0,.08.07.15,0,.25H16l.11,0h0s.05,0,.06,0A.14.14,0,0,1,16.26,44Zm2.09-1.83c0-.08,0-.2-.09-.25l-.09-.06v0h0l0-.05h0v0h0a0,0,0,0,0,0,0s0,0,0-.07,0-.23,0-.35l0,.07c0,.06,0,.11,0,.16a.22.22,0,0,1,0,.08l0,.06h0l0,0,0,0h0l-.05.07s0-.06-.05-.07h-.13a.75.75,0,0,0,.1.33h.06c0-.05,0-.09,0-.14v0l0,0,0-.05a.07.07,0,0,1,.06,0c.07.14,0,.29,0,.43v.05a.5.5,0,0,0,0,.12h.06c.05,0,.06,0,.1,0s0,.09.06.12A.94.94,0,0,1,18.35,42.12Zm-.08-3.64v0a.61.61,0,0,0,0,.13,2.12,2.12,0,0,0,.05-.56.05.05,0,0,0,0,0h0A2.46,2.46,0,0,1,18.27,38.48Zm-.05.27a.27.27,0,0,0-.1-.06h-.07s0,0,0,0h0l-.08,0s0,.09,0,.13l.06-.06,0,0s0,.08,0,0,0-.09,0-.13l0,0,.06.06,0,0,0,.11.1.05,0,0h-.06l0,0h0s0,.1-.05.16H18c0-.06,0-.19.06-.23H18c0,.07,0,.18,0,.23l.14,0h0l.16.05a.13.13,0,0,0,0-.05s0,0,0,0v-.13a.13.13,0,0,0,0-.06v0A.37.37,0,0,0,18.22,38.75Zm-.1-.7,0-.07L18,38c-.05,0-.13,0-.19,0h0a1.3,1.3,0,0,0-.09.39v.18h0l0,0,0-.06h.08l0,0,0,0H18l.07,0,0,0A1.08,1.08,0,0,0,18.12,38.05ZM18,37.46c0,.06,0,.12,0,.18v0s0,0,0,0H18l.06,0v-.11s0,0,0,0l0,0v0a0,0,0,0,1,0,0H18l0,0,0,0s0-.08,0-.09h.05l-.05,0H18Zm.1-.2v0A.42.42,0,0,0,18,37l0,.24Zm0-.67s0-.06,0-.08,0,0,0,0l0,0h0v.12Zm-.12.12h-.1v.24H18a.06.06,0,0,0,0,0,.75.75,0,0,1,0-.15H18Zm-.09.57a.38.38,0,0,0,.06-.23h0l0,0s0,0,0,.06,0,.16,0,.24h0A.05.05,0,0,0,17.86,37.28Zm0-.8h0l0,0s0,.06,0,.08h.05ZM18,36H18a.16.16,0,0,1,.08.06v0c0-.07,0-.13,0-.2h0l0,0,0,0,0,0A2.34,2.34,0,0,1,18,36Zm0,.23-.06,0a.09.09,0,0,0,0,.08v.13H18s0-.09,0-.12,0,0,0,0h0Zm-.4-.31,0,0,0,0h.08l0,0h0l0,0h0l.06-.14a.28.28,0,0,0,0-.09l0-.07a.11.11,0,0,0,0,.05.59.59,0,0,0,0,.13l0,0-.15,0-.07,0h0l-.05-.05v-.13a.24.24,0,0,0,0-.09A.65.65,0,0,0,17.52,35.88Zm-.17.89a1.24,1.24,0,0,0,0,.38c.13.14.2,0,.37.05-.05-.22.11-.64-.21-.72C17.34,36.47,17.35,36.75,17.35,36.77Zm-.2-.85v0l0,0a0,0,0,0,0,0,0s0-.08,0-.09h.08l0,0a.19.19,0,0,1,0,.08v0h0a1.15,1.15,0,0,0,.06-.37.29.29,0,0,0,0-.1l0,.11s0,.09,0,.12l0,0-.1,0,0,0h0s0,0,0,0Zm-.16.29,0,0a.11.11,0,0,0,0,.08v0a.14.14,0,0,0,0,.06c.17,0,.06-.24.19-.27s0,.12.05.16l0,0h.11l.07,0,.05,0a.17.17,0,0,1,0-.07.22.22,0,0,0,0-.08.11.11,0,0,0,0-.05l-.07,0a.15.15,0,0,1,0,0h0s-.09,0-.12,0A1.13,1.13,0,0,1,17,36.21ZM16.91,36H17L17,36s0-.08,0-.12l0-.05H16.9s.06,0,.08,0v-.05h0l-.05.05a.13.13,0,0,0,0,.07s0,0,0,0v0s0,.06,0,.08Zm-.3,1.5a.06.06,0,0,0,0,0,.08.08,0,0,0,0,0l0,0a.45.45,0,0,1,.28,0l0-.27a.08.08,0,0,0,0,0,.1.1,0,0,0-.07,0h-.25A2.17,2.17,0,0,1,16.61,37.49Zm0,.87,0,0,0,0c-.12.1,0,.3-.09.42s.05.07.06.08h0a.18.18,0,0,0,.1,0h.24c0-.15,0-.3,0-.45s-.15-.05-.22-.1h0Zm-.13-.68h0a1,1,0,0,0-.35,0,.31.31,0,0,0-.12,0s0,.08,0,.11,0,.1,0,.14h0a.76.76,0,0,1,0,.26l.47.05h0c.13-.14.05-.33.08-.49Zm-.27-.48h-.06l-.07,0a.19.19,0,0,0,0,.08v.08s0,0,0,.07v0h.43v-.27h-.11l-.1,0h-.08Zm-.2-2s.07,0,.11,0h0s0,0,0,.06v0a.42.42,0,0,0-.06-.14h0A.24.24,0,0,0,16,35Zm0,.18,0,0h0l.12.06h0l0,0v-.06l-.05,0s0,0-.07,0l0,0h0v0l.08,0h.05v-.09h0s0,0,0,0h0s-.07,0-.1,0H16l0,0Zm0,.3v0h.08s0,0,0,0v-.1l-.05,0H16v0A.43.43,0,0,0,16,35.66Zm-.07.17-.08,0,0,.09.08,0,0,.1h.22s0-.13.05-.15ZM15.63,35l-.05.33h0l.26.06a.53.53,0,0,0,.06-.1v0h0a.09.09,0,0,0,0-.06.68.68,0,0,0-.17-.09l-.06,0s0,0,0,0v0l0-.14a.2.2,0,0,0,0,.11h0Zm-.43.35v.07a.38.38,0,0,1,.13-.06h.14a2.19,2.19,0,0,1,0-.51h-.11c0,.19-.15.26-.2.42,0,0,0,0,0,.06Zm-.09.66s0,.12,0,.14h.1l0,0a.19.19,0,0,0,0-.08V35.9h-.07A.33.33,0,0,0,15.11,36Zm0-.37h0a.22.22,0,0,0-.07.06.21.21,0,0,0,0,.07.28.28,0,0,0,0,.09h.1a.26.26,0,0,0,.1-.14v-.1h-.05Zm-.15-.53h0v0h0V35Zm0,.38a0,0,0,0,0,0,0v0l0,0h0s0,0,0,0h0l.05,0v-.11s0,0,0,0l0,0,0-.05,0,0h0l0,0H14.9v.14s0,0,.06,0,0,0,0,0h0l.06,0s-.06.06-.08.08l-.08,0Zm-.16,1.76v0a.88.88,0,0,0,0,.17s0,0,0,0v0l0,0h0l0,0s0,.06,0,.06l.07-.09s.06,0,.06.08h.05v-.27h-.21l0,0a0,0,0,0,1,0,0s0,0,0,.05v0h0s0,0,0,0a.17.17,0,0,1,0-.1h-.06S14.73,37.22,14.72,37.2Zm-.07.46a1.15,1.15,0,0,1-.17.06c0,.18,0,.36,0,.54h.07a.37.37,0,0,0,.14,0h.07l.08,0H15s0,0,.07-.05h.05l0,0h0l.15,0h0v-.57l-.09,0a.19.19,0,0,0-.1,0h-.2Zm-.37-.16v0l0,0,0,0a.16.16,0,0,1,.08-.06l.13,0h0c.07,0,0-.2,0-.24l0,0H14.4l0,0,0,0A1,1,0,0,1,14.28,37.5Zm-.55.24v.56a.19.19,0,0,1,0-.1l.09-.06s0,0,0,.08l-.06.05a.08.08,0,0,0,0,0h.06a1.57,1.57,0,0,0,.31-.08h.14c0-.17,0-.34,0-.51Zm.38-.43H14a.65.65,0,0,1-.14,0,2,2,0,0,1,0,.24h.33s0,0,0,0,0,0,0-.05a1.08,1.08,0,0,1,0-.18Zm-.3-1.13a.49.49,0,0,0,0-.12h-.07l0,0h0l0,0v.2h.06S13.8,36.21,13.81,36.18Zm.3.57h0l-.05,0h-.08l0,0a.57.57,0,0,0,0,.13l0,0,0,0s0,0,0,.07v0h.18v-.22h0Zm0-.1h0v0l0-.17Zm-.23.46v.09H14l.09,0h0s0,0,0-.06l0,0h-.18ZM14,35.88h.05s0,0,0,.07h0a.12.12,0,0,1,.1,0l0,0a.36.36,0,0,0,0-.1v0h0a0,0,0,0,0,0,0c0-.05,0-.09,0-.13l0,0h0s0,.1,0,.13v0l.06,0h0l.06,0v0h0v0s0,0,0,0l0,0h0l-.06,0h0s0,0,0,0,0-.06,0-.07l-.09,0Zm-.07.42h.21a.32.32,0,0,0,0-.09v0h0v0H14l0,0Zm-.08.08.06.18,0,.07c.09,0,.09-.13.09-.18h-.09Zm-.23-.48h0l0,0h.05l.07,0h.06c0-.13-.12-.26-.08-.4h-.12a.29.29,0,0,0,0,.1C13.61,35.68,13.63,35.79,13.62,35.9Zm-.08.5c-.15.14-.1.33-.1.5-.15.08,0,.17,0,.29.14,0,.22-.06.34-.08,0-.17.07-.41,0-.59S13.66,36.36,13.54,36.4Zm-.12-.09h0l.07,0a.17.17,0,0,0,0-.06.19.19,0,0,0,0-.08v-.09a.08.08,0,0,1,0,0h0s-.1,0-.14,0h0v.21Zm-.1-.54,0,.17.06,0h.07v-.06c0-.08.07-.15.08-.23v-.07a.09.09,0,0,0,0-.05c0,.08,0,.21-.08.27h-.06Zm-.21,1.36a.12.12,0,0,0,.07-.1v-.17h0C13.06,36.91,13.13,37.07,13.11,37.13Zm.07-.44h-.06v.09Zm-.07.66v.06l.06,0a.25.25,0,0,0,.12,0l0,0s0-.08-.06-.11h0l-.05,0h0l0,.05v.07Zm.2-.33v-.11l0,.2Zm-.1-.56h0l0,0h0v0l.07,0a.11.11,0,0,1,0,.06.13.13,0,0,1,0,.06.33.33,0,0,0,0,.06l0,0a1,1,0,0,1,0-.17v-.07h0l0,0h0Zm0-.28h0l0,0a.33.33,0,0,0,0,.06v.07a.43.43,0,0,0,0,0l0,0s0,0,0-.06A.13.13,0,0,0,13.22,36.18Zm-.2-.41h0l0,0,0,0h.08v0l0,.06s0,0,0-.07h0l-.07-.26h0l0,0,0,0H13a.06.06,0,0,0,0,0Zm0,.11h0v.06h0v-.06ZM13,37.68v0s0,0,0,0l.08,0,0,0a.15.15,0,0,1,0-.09l0-.06.05,0a.12.12,0,0,1-.05.09l.07,0,.09,0,.06,0h0a.11.11,0,0,0,0-.05.12.12,0,0,0-.07-.07h0a.89.89,0,0,0-.26.09.36.36,0,0,0,0,.1Zm-.16.68h0s.09.09.07.13h-.07v0h0c.09,0,.2,0,.29,0a.24.24,0,0,0,.08-.06s.05,0,0,0l.15,0a.52.52,0,0,0,.14-.3v-.22s0-.09,0-.14l-.08,0a.22.22,0,0,0-.08,0,2.32,2.32,0,0,0-.44.16.49.49,0,0,0-.14.21.27.27,0,0,0,0,.09l.07,0h0s0,0,0-.05.05-.08.09-.11h0l.06,0h0c0,.08,0,.2-.09.27l0,0s-.05,0-.07,0v0h0l0,0h.06s0,0,.07.07h.08l-.05.09s0,0-.07.06l0,0s0,0,0,0v0l0,0h0l0,0,0,.06h0s0-.07,0-.09H12.8Zm-.15,4.52h0a.14.14,0,0,0,.09,0h.07a.21.21,0,0,0,.17-.08c.07-.07.11-.15.18-.22s0,.13,0,.19l0,0,0,0h0a.15.15,0,0,0,.07,0h0a.06.06,0,0,1,.07,0c.1,0,.21,0,.31,0a.24.24,0,0,1,.1-.18c.09,0,.12.12.15.16h.14l0,0c0-.1-.06-.14,0-.23l.09,0a.11.11,0,0,1,.08,0c0,.06.06.14.08.19v0h0a.09.09,0,0,1,.05.07l.06,0h.09c0-.08.12,0,.18,0l0,0,0-.17v-.13l0-.07-.07,0H14.7a.25.25,0,0,0-.14,0l-.18,0-.08,0-.07.08-.09-.15a.48.48,0,0,0-.31.07.07.07,0,0,0,0-.06s-.08,0-.08,0h0v0s-.06,0-.09,0-.13,0-.2,0-.05,0-.07-.06l0,0s0,.09,0,.11-.05,0-.07,0,0,.16-.08.23a.24.24,0,0,1-.09-.21H13a.76.76,0,0,1-.21-.08l-.06.24s.08,0,.12-.07l0,0s0,0,0,0,.05,0,.06,0l0,0s-.05.1-.1.13l0,0,0-.07h0a.18.18,0,0,0,0,.14l0-.11s.05,0,.06,0,0,.08,0,.12S12.65,42.82,12.65,42.88Zm-.22.76h0a.42.42,0,0,0,0-.1h0l0,0h.06l0,0s0,0,.05-.05a.23.23,0,0,0,.07-.17c0-.11,0-.22,0-.33h-.09c0,.19-.11.37-.15.55l0,0A.22.22,0,0,0,12.43,43.64Zm.2,0-.1.05h0v.06l0,0v0h0s0,0,0,0h0Zm-.4.54-.05.11h.06l.11,0h0a.53.53,0,0,1,.33,0h0a.15.15,0,0,0,0,0v-.06l.06,0h0l0,0c0-.07,0-.18,0-.25l0,0v-.05c0-.06,0-.11,0-.16l-.16,0s0,0,0,0h0s-.06.09-.08.13v0a0,0,0,0,1,0,0l.06,0s0,.05,0,.08h0a0,0,0,0,1,0,0h-.11l0,.11h0l-.05,0h0l0,0,0,0h0l0,0h0v0h-.05v0h0v0l0,0s0,0,0,0h0a.11.11,0,0,1-.12-.06h0l0-.06h0l.06,0h0l0,0s0,0,0,0l0,0h0v-.06h0l0,0h0a.47.47,0,0,1,.09.06h0a.13.13,0,0,0,0-.06h-.09s0,0,0-.06a.28.28,0,0,1,0-.09,1.46,1.46,0,0,0-.07.19h0a.92.92,0,0,1-.09.23l0,0v0Zm.25-.2h0l0,0h0l.05,0,0,0V44Zm-.42,1.87.07-.19c.1.07.1-.11.22,0a.15.15,0,0,0,0-.19l0,0c.06,0,.11,0,.16,0s0-.07,0-.09,0-.05,0-.09l-.07,0s0-.06.05-.08a.11.11,0,0,1,.12.1c.16.18-.12.18-.1.36l.1-.1c.06.14-.16.14-.09.28s.11,0,.12,0a5.59,5.59,0,0,0,.06-1.3c-.15-.06-.47-.08-.49.14,0-.22,0,0,0,0s0,0,0-.09h0A7,7,0,0,0,12.06,45.83Zm.32-.15,0,.08c0,.07-.1,0-.12,0s-.06.09-.1.1a2.68,2.68,0,0,0,.27-.07Zm-.47.35c-.07,0-.05.13-.14.1v.19c0,.07.05.26.16.23s0,0,0,0,.06-.07,0,0,0-.15,0-.23,0-.27.12-.16c-.12.11.06.19,0,.29l.06,0a.43.43,0,0,0,.25,0,0,0,0,0,0,0,0,.46.46,0,0,1,.25-.19v.13h0c.06,0,0,.09,0,.07a.16.16,0,0,1,.15,0c.13,0,.18-.15.25-.24s.13-.07.17,0,.12,0,.24.08l.22-.12c0-.09.09-.15.05-.24s0-.05.06-.05,0,.11.05.11h0c.05,0,0,.13,0,.17l.21,0c0,.2-.22,0-.32,0l.1.12a.39.39,0,0,1,0,.28c-.15,0,0-.22-.11-.28s-.13,0-.15,0c-.17-.07-.17.2-.33.15.05-.22-.13-.06-.22-.15-.08.14-.28.2-.36.35,0,0,0,0,0-.08s-.14,0-.17-.07l.06,0s-.09,0-.09,0v.08a.36.36,0,0,1-.33.1c0,.07.1.15,0,.21s0-.18-.17-.14,0,.19.11.19l0,.06h0v0h0l0,0-.05,0s0,0-.06,0,0-.1,0-.11,0-.14-.05-.11a2.27,2.27,0,0,0,0,.58c0,.11.1,0,.14,0s-.07,0-.09-.1.05-.07.08-.13h-.06c-.08-.11.1-.09.13-.17h0l0,0s0,0,0,.07.05,0,.11,0,0,.09,0,.11h0a.13.13,0,0,1,.09-.12l.12.27c-.11.07-.24.08-.35.15a.44.44,0,0,0,0,.37c.08.09-.11.31.11.22s.26-.1.28-.23c-.14,0,.06-.13,0-.19.07-.07,0-.21.12-.25l0,0v0c-.22-.07.09-.12.09-.13s0,0,.06,0a1.71,1.71,0,0,0-.11.59c.05.09.13,0,.2.05s.2-.19.15-.2a.06.06,0,0,1,.09,0c0-.05.08-.09,0-.14a.38.38,0,0,1,.09-.09c.16.1-.09.18,0,.28s.27,0,.4,0a2,2,0,0,0,0-.55.79.79,0,0,0-.26.13c-.09,0-.12-.05-.16-.09a.47.47,0,0,1,.29-.09c0-.07,0-.15,0-.2s0,.1.11.13a.6.6,0,0,0,.44-.13c.1,0,.2.12.25.15a1.35,1.35,0,0,0,.21-.67c0-.12-.15-.06-.19-.17l0-.06a.07.07,0,0,1,.11.06v0c.11-.06,0-.21.14-.26a.13.13,0,0,1,0,.17c.08.11.16,0,.25,0l0,0c.06,0,.08,0,.12,0s0,0,0-.06S15,46,15,46h0l0,0s0,0,0,.06.27,0,.29-.1h-.18a.08.08,0,0,1-.08.06h0s0,0,0-.05v0h0l0,0c.15-.13,0-.29,0-.44a.13.13,0,0,1-.12,0c-.14,0-.36-.08-.42.09s0,.06,0,.08,0,.05-.06,0,0,0,0-.09l0,0c-.1-.15-.32,0-.46,0s-.22,0-.34,0-.4,0-.38.26c-.09,0-.05-.09-.1-.13s-.14,0-.18,0-.34.09-.45.19l-.08-.08A.78.78,0,0,1,11.91,46Zm3.45.68H15.3c-.05,0-.06-.09-.07-.13s0-.21-.05-.3a.68.68,0,0,0-.19,0h-.05a.69.69,0,0,0-.19.1c.06.21.25.32.36.5a.9.9,0,0,1,.42-.16h0l0,0h0s0,0,0,0h0a.13.13,0,0,1,.13,0,.09.09,0,0,1,.05,0h0s0,0,0,0,.1-.4.18-.55h-.07a1.2,1.2,0,0,0-.27-.08h-.07l-.07,0-.07.05A1.63,1.63,0,0,1,15.36,46.71Zm-.57-.49.06,0h0l-.07,0h-.16l0,0h0a.36.36,0,0,0,0,.09.25.25,0,0,0,0,.12h0l.05,0h0l0,0,.09-.07h0Zm0,2.52v0l0-.07c0-.09,0-.2,0-.29s0-.35,0-.53c0,0,0-.05,0-.07h-.56l0,.05s0,0,0,.06V48a.76.76,0,0,1,0,.26l.07,0h.06l.11-.08h0s0,0,0,.07h.05l0,0h.05l0,0s0,0,0,.06l0,0h0a.05.05,0,0,1,0,0,.13.13,0,0,1-.06.07h-.19l0,0,0,.24,0,0v-.06s0-.06,0-.09,0,0,0,0,.06,0,.07,0-.05.16-.09.22l.1,0h.05l0,0,0,0h-.13s0,0,0,0h.1a.15.15,0,0,0,.08,0l0,0h0l.06,0h.12s0,0,0,0v0l0,0h0S14.75,48.72,14.75,48.74Zm.05-1.13a.36.36,0,0,0,0-.09v-.06a.25.25,0,0,0,0-.07c-.09-.1-.27-.1-.39-.15h0l-.1-.06,0,0a1.51,1.51,0,0,0,0,.52h.15l.05,0,0,0h0v0h0l0,0h0s0,.07,0,.07.07,0,.1,0h.12l.08,0Zm-1.44.12h0v.06h0v-.06Zm-.61.62v-.11c0-.08-.06-.16-.07-.24l-.11-.07h-.13l-.11,0h0a.39.39,0,0,0-.1.08c-.06.05-.05.14-.07.2s0,0-.06,0l0,0c0-.07,0-.14.06-.2l-.05.06H12l-.08,0a.61.61,0,0,0-.09.16.77.77,0,0,0,0,.52H12l0,0s0,0,0-.05h0s0-.06,0-.08v0h0l0,0h0l0-.06a.45.45,0,0,1,.05-.25H12l0,0s0,.06,0,.06h0s0,0,0,.07v0l0,0s0,.08,0,.12h0a0,0,0,0,0,0,0l0,0h0s0,0,0,0,0,.08,0,.12h.44l.14,0a.25.25,0,0,0,0-.12V48.4A.43.43,0,0,0,12.75,48.35Zm-.71.87v0l0,0h0a.08.08,0,0,0,.06,0l0,0h.14l.07,0h0l.05,0h0l.11,0h0l.05-.06a.79.79,0,0,0,0-.43.43.43,0,0,0-.09-.1h-.13a.35.35,0,0,1-.11,0h0l-.19.1c0,.1,0,.21,0,.31a.14.14,0,0,0,0,.07l.08-.08Zm-.29.06h0s0,0,0-.06v0h0l0,0h0l0,.16h0Zm0,.12a.08.08,0,0,1,0,0v.1h0S11.74,49.41,11.74,49.4Zm.13-1.74h0s0,0,0,0h0l0-.22c0,.18,0,.35,0,.52a.51.51,0,0,0,0,.13,1.74,1.74,0,0,0,.11-.18v0l0,0,0-.06S11.87,47.69,11.87,47.66Zm-.23-1.77c.09,0,0,.07,0,.1s0-.1.07-.13,0,.08.06.08v-.09c0-.05,0-.05.08-.08l0-1.2c0-.15-.24-.09-.3,0h0a9.54,9.54,0,0,0,0,1.3Zm.23,4v-.05a0,0,0,0,0,0,0v0h0a.89.89,0,0,1,0-.14.21.21,0,0,0,0-.06l0,0,0,0a.18.18,0,0,0,0,.1h0s0,0,0,0h0l0,0,0,0h-.07s0,0-.06-.07l-.06.16Zm0-.43h0s0-.09,0-.13l-.07.06h0l0,0h0l0,0h0l0,0h.1Zm2.15.09a0,0,0,0,0,0,0,.3.3,0,0,0-.19,0l-.05,0a.25.25,0,0,0,0,.07c0,.07,0,.24,0,.3h-.05s0-.1,0-.12,0-.2,0-.26l-.09-.05h-.29l-.05,0a.09.09,0,0,0,0,0l0,.06H13s0,0,0,0l0,0h0l-.1,0a.89.89,0,0,1-.28,0s0,0,0-.08l0,0,.07,0a.46.46,0,0,0,.26,0l.11,0h0s0,0,0,.06l0,0v0h0s.07-.07.09-.12,0-.06,0-.08,0-.12,0-.19v0a.15.15,0,0,0,0-.06v0h0a0,0,0,0,0,0,0l0-.05-.25-.06h-.12a.31.31,0,0,0-.12,0,.25.25,0,0,0,0,.09v.08a.74.74,0,0,1,0,.33c-.07.1-.24.28-.14.41a.13.13,0,0,1-.07,0h0a0,0,0,0,1,0,.06c-.16,0,0-.23-.19-.28h0a.93.93,0,0,1-.23,0,.08.08,0,0,0,0,.08l0,0h0l0,0,0,0s-.06,0-.07,0a.08.08,0,0,0,0,0h0s0,0,.06,0l0,0-.05.06c.12,0,.26,0,.38,0a.2.2,0,0,0,.09-.06s0,0,0,.07H14c0-.06,0-.18,0-.25Zm0-.26a.54.54,0,0,1,0-.18.69.69,0,0,0,0-.45.6.6,0,0,0-.08-.08.52.52,0,0,1-.13.06l-.14,0a.8.8,0,0,1-.27,0h0l-.06.06v.06c0,.15-.08.39,0,.52h.11a1.27,1.27,0,0,1,.28,0h0l.25,0H14A.24.24,0,0,1,14,49.28Zm.06-1.55s0-.1,0-.14h0l-.07,0-.11.08-.07,0,0,0a.43.43,0,0,1,0,0l0,0-.05,0a.9.9,0,0,0-.16,0l-.05,0,0,0h0l0,.06,0,0s0,.06,0,.08l-.08-.07-.06,0h0l-.19,0-.06,0,0,0a.08.08,0,0,0,0,0l0,.06h0l0,0,0,0h0l0,0v0a.7.7,0,0,1,.09.56l.05.06.06,0h0a1.91,1.91,0,0,1,.33-.06.1.1,0,0,1,0-.07s0,0,.07,0l0,.12a1.69,1.69,0,0,0,.56-.12c0-.16.05-.39-.08-.52l-.06,0c0-.07,0-.14,0-.2H14s0,.1,0,.13h0A.15.15,0,0,0,14.06,47.73Zm0-.3v-.1c0-.08,0-.15.07-.23a.62.62,0,0,0,0-.13H13.9a0,0,0,0,0,0,0h-.1l-.06,0h0s0,0,0,0h-.13c.08.16,0,.34,0,.51h0l.08,0h0a.61.61,0,0,1,.19,0H14l.09-.07s0,0,0,0v0A0,0,0,0,0,14.05,47.43Zm.79,2.45v0c0-.11,0-.32-.07-.4h-.34a.19.19,0,0,1,0-.07h0v0h.07l.07,0,.06,0h.06l0,0c0-.14,0-.29,0-.43h-.06l0,0h0s0,0,0,0l0,0h0s0,0-.07,0h-.13l0,0V49l0,0h0s-.09,0-.11-.06c0,.13,0,.26,0,.4h.07l.07,0,0,0,0,0,0,0a0,0,0,0,1,0,0v0s-.07,0-.11,0h0s0,0,0,0h0c-.08.11,0,.26-.08.38l.09-.1a.06.06,0,0,1,0,.1h.06s0,0,0,0l.05-.07.05,0s0,0-.05.07Zm.05-2.63a1.3,1.3,0,0,0,.1-.15L15,47h0a2.26,2.26,0,0,0-.43-.49l-.08.08c0,.09-.1.16-.13.25v.05h0a.11.11,0,0,0,0,.07l0,0h0l0,0h0s0,0,0,0h0s.07,0,.09,0h0l.1,0h.07a.06.06,0,0,1,0,0l0,0,.05.07.1-.11v0a.41.41,0,0,1,0,.11h.05Zm1.45.56c-.12-.24,0-.58-.27-.73s-.45-.11-.69-.19c0,.15-.25,0-.21.23-.31.31-.18.73-.27,1.12A4.28,4.28,0,0,1,15,49.42a3.86,3.86,0,0,1,0,.47c.47,0,.88,0,1.35,0,.06-.36-.08-.74.05-1.08A3.42,3.42,0,0,1,16.34,47.81Zm-.36-1,.06,0h0l.05,0,.06,0h0l.08-.09a.63.63,0,0,1,.11-.12l.09-.12a.28.28,0,0,0,0-.13h0l-.05,0h0a.52.52,0,0,0-.17-.12h0l-.07,0h0c-.05,0-.12-.07-.17-.07a1,1,0,0,0-.11.42v.16Zm.42.41h0a.19.19,0,0,0,.13,0h.05l0,0h0l0,0h.06l.06,0h.09a.58.58,0,0,0-.06-.29.73.73,0,0,0-.09-.13s-.06-.07-.1-.1l-.4.45a.6.6,0,0,0,.06.11A.14.14,0,0,0,16.4,47.25Zm0,.37a.11.11,0,0,0,0,.06h.24l.1,0h.15l0,0a.61.61,0,0,0,0-.33l-.08,0h-.13l-.11,0h0l-.09,0,0,0h0l0,0s0,0-.05,0S16.42,47.58,16.42,47.62ZM17,49.46h0l-.05,0,0,0h0l-.05,0-.07,0H16.7l-.08,0h-.08l0,0,0,.46H17a.25.25,0,0,0,0-.08C17,49.7,17,49.57,17,49.46Zm0-.18v-.39H17c-.07,0-.21,0-.27,0h-.07l-.07,0h0l0-.07.05,0h.27a.14.14,0,0,0,.12,0,.37.37,0,0,0,.05-.18v-.09a.13.13,0,0,0,0-.06H17l-.13,0H16.5a1.07,1.07,0,0,0-.05.4.12.12,0,0,1,.07.07.48.48,0,0,1,0,.12.14.14,0,0,0-.06.07c0,.09,0,.2,0,.29l0,0h0s0,0,0,0h.06l0,0h.06s0,0,0,0l.09.05h.26Zm0-1.06v0A1.06,1.06,0,0,1,17,48a.33.33,0,0,0,0-.06s-.07,0-.11,0h-.21l-.06,0,0,0-.11.11a1.1,1.1,0,0,0,0,.18.28.28,0,0,0,0,.09h0s0,.06,0,.06h.05s.06,0,.09,0h.06v0h0a.06.06,0,0,0,0,0h0s0,0,0,.06l0,0h0l0,0h0l0,0s0,0,0,.07H17Zm2.21,1.56c0,.08-.1.08-.16.1s0,0,0,0,.1-.13.06-.18l0,0c0-.09-.09,0-.15,0s0-.1,0-.16a.17.17,0,0,0-.25.06l-.05-.06c.16-.09-.09-.2.06-.29l.1.14s.08,0,.09,0,0,0,0-.06-.07-.07-.1-.13.08.09.16.09l-.06-.16c.05-.09.1,0,.15,0s-.07.1,0,.16,0,.11-.07.12c.09-.06.16,0,.22-.08h0s0,0,0-.07c-.2-.07-.2-.32-.34-.45s0,.14-.08.09,0-.1,0-.12-.09.06-.13,0,.11.16.05.26h0s-.08-.06-.06-.12-.13-.19-.24-.18,0,.08,0,.09-.07-.07-.09-.1-.12,0-.17,0,0,.1-.07.13-.08,0-.11,0h0l-.1-.12c-.12,0-.23-.07-.34,0-.07-.07-.2,0-.28,0s0-.06,0-.08.19-.07.26,0l.06,0c.2,0,.05-.34.2-.48l0,0-.07.55s.07-.1.13-.07,0,.07.06.09.34.07.4,0a.06.06,0,0,1,0-.06.91.91,0,0,0,0-.61c-.06-.13-.25,0-.26-.18s-.14,0-.16,0,.1-.08.12,0a.37.37,0,0,1-.2.13s-.06,0,0-.09l-.11.08c0-.07-.08-.08-.09-.15s.4,0,.41-.27l.07-.07a.23.23,0,0,1-.05.26l0,0,.09.09a.39.39,0,0,0,.42-.16h0c0,.09-.07.17-.12.23h.11s0-.06.05-.08a.15.15,0,0,1,.08,0l0,.07h.09a.07.07,0,0,0,0-.06s.07-.07.09,0,0,.08,0,.11l.11-.07c0-.15.15-.27.05-.42s-.09.06-.14,0,.13,0,.14-.15.09-.34,0-.5-.16.09-.24,0l.06,0a.28.28,0,0,1-.27-.16.19.19,0,0,1-.2,0c-.19.08-.08.35-.16.49s0,.11-.16.15A.05.05,0,0,1,18,47c0-.12-.18,0-.18-.14s.09,0,.15,0a.6.6,0,0,0,.14-.29c.06,0,0-.12,0-.17s-.08,0-.11,0,.29,0,.44,0,.17-.14.11-.24c.25-.1,0,.21.11.3s.18,0,.23,0-.16.09-.25,0,.22-.06.33-.11v0s0,0,0,0,.07-.23,0-.33-.09,0-.16,0c.08-.12-.13-.09-.15-.1l0,.07c-.24.24-.05-.15-.24-.17l-.61-.08c0,.05,0,.14-.11.12l0-.13c-.12,0-.22-.16-.33-.08-.26-.07-.1.22-.31.16,0-.29-.35-.15-.52-.21v0s-.07.07-.09,0,0,0,0,0h-.05c-.07,0-.19-.05-.22-.12h0a.07.07,0,0,1,0-.06l0,.05h.05c-.15.08-.3,0-.46.08-.19-.11-.42,0-.62,0,0,.16,0,.38.21.44s.12-.05.18-.05.18-.23.19-.35c.33-.08-.09.26.18.32l0,0c-.06.1-.1,0-.15,0a.15.15,0,0,1,0,.08.64.64,0,0,0,.3.08,1,1,0,0,1,.65.33c.3.08.25.61.67.46.11-.11.09-.25.18-.37.15.07-.09.24.1.28l-.1.05.11,0c.11,0,0,.14,0,.17,0-.12-.17,0-.23,0s.06.1,0,.12-.13,0-.13-.09h-.11c0,.25.11.42.09.67.08-.09.06-.3.18-.36l0,0c0,.11-.07.26,0,.34a1.72,1.72,0,0,1-.3.11,1.32,1.32,0,0,1,.09.62c.09,0,.21,0,.27,0s-.2.05-.27.09,0,.21,0,.32.06.33.05.5h.09a1.11,1.11,0,0,0,.46.08c.13,0,.08-.14.18-.18l0,0c.24-.08-.07.12.07.2l0,0,.06.06c.08.1.21,0,.31,0l-.06.06a0,0,0,0,1-.05,0c-.14.07,0,.16,0,.26a.11.11,0,0,1-.08.07c-.07,0,0-.1,0-.13a.45.45,0,0,0-.23-.26,1.32,1.32,0,0,0-.48,0c-.07.06-.05.16-.06.26s0,.07-.07,0a.39.39,0,0,1,0-.24c-.12-.06-.05-.24-.23-.22s0,.39,0,.54h1.78l0,0c0-.07,0-.17.1-.18s0,0,0,0,0,.13,0,.18S19.28,50,19.26,49.78Zm-.59-1.26a1.26,1.26,0,0,0,0-.64c-.15,0-.18-.06-.32,0a1.47,1.47,0,0,1,0,.66.27.27,0,0,0,.25.1C18.67,48.54,18.68,48.52,18.67,48.52Zm.61.88s0,0,0,0a.07.07,0,0,0,0,.09s.1.21,0,.19h.05v.13h0A.8.8,0,0,0,19.28,49.4Zm0-4.68a7.2,7.2,0,0,0-.09,1.14.27.27,0,0,0,.13.13.07.07,0,0,0,.12-.08s-.07.11-.11,0,.08-.1.11-.13l0,0,0-.79A.25.25,0,0,0,19.3,44.72Zm-4.36,1.92,0,0h0s.11,0,.1-.07S14.93,46.6,14.94,46.64ZM12.2,45.52c-.06,0-.14,0-.1.07S12.2,45.6,12.2,45.52Zm6.21,4.29h0s0,0,0-.06h0Zm.17-.46h0Zm-3-3.08v0l0,0S15.59,46.26,15.58,46.27Zm-.09-.05h0v.06h0S15.49,46.25,15.49,46.22Zm0,.18a.06.06,0,0,0,0-.08l-.05,0S15.46,46.42,15.49,46.4Zm0,.07h0Zm2.26-.22s.06,0,.08,0-.09-.12-.08-.22a.46.46,0,0,1-.46.18v0c.14,0,.15,0,.17.16.09,0,0-.08.05-.14l0,0c.06.07.11,0,.17-.05Zm-2.24.23s.14,0,.14-.13a.45.45,0,0,0-.16.12Zm1.41-.34-.07,0C16.93,46.16,16.94,46.15,16.93,46.14Zm.15-.07.05,0s.05,0,.07,0V46C17.16,46,17.13,46,17.08,46.07Zm.12,0,.05.07.05-.06ZM19.37,45c.06,0,.15,0,.11-.09C19.45,45.05,19.36,44.9,19.37,45ZM17.18,46v0c-.05,0-.05-.11-.11-.1s-.15.2-.2.28a0,0,0,0,1,.06,0C17,46.08,17,45.92,17.18,46Zm-1.46.41h0l0,0s0-.07,0-.08S15.74,46.35,15.72,46.39ZM18,49.06l0,.1h0v0S18,49.06,18,49.06Zm1.42-3.8s0,0,0,0-.09-.1-.13,0h.09s0,0,0,0l.06,0,0,0s0,0,0,0l0,0c0,.08.1,0,.16,0v-.08l0,0S19.41,45.28,19.39,45.26Zm0,.15c-.09,0-.12.1,0,.11l-.07.06c0,.05,0,.24.07.18l-.05.13a.31.31,0,0,0,.11-.09C19.52,45.67,19.36,45.53,19.39,45.41Zm-.86,2.75v.05l.18,0-.05-.07C18.65,48.2,18.58,48.1,18.53,48.16Zm.11.15h0s0,0,0,0a.06.06,0,0,0,0,0S18.62,48.29,18.64,48.31Zm-.14,1s.05,0,.07,0h0c.07,0,.08-.08.05-.13S18.52,49.29,18.5,49.34Zm-3-2.86-.06.06h0C15.51,46.56,15.48,46.51,15.49,46.48Zm-3.55,2.11h0Zm.93.49h0ZM9.13,33.45m13.16-.2M5.58,35.17a1.31,1.31,0,0,1-1.07.17c0-.17.27-.29.53-.69s.6-.29.9-.5A2,2,0,0,1,7,33.8c.43,0,.47-.11,1-.12a3.82,3.82,0,0,0,1.08-.25l0,0-.25,0-.25-.7.62.39,0,.26L13,38.21l-.1.08L10.26,35a.72.72,0,0,1-.44.21,4.06,4.06,0,0,0-.82.16,2,2,0,0,1-.77.21,2.63,2.63,0,0,0-.92.18,5.68,5.68,0,0,1-1.24.44,1.53,1.53,0,0,0-.87.77c-.11-1.08.39-1.47.86-1.62A1.08,1.08,0,0,0,6.65,35a1.27,1.27,0,0,1-.59,0A.69.69,0,0,0,5.58,35.17ZM9,33.32l0-.23-.44-.28.17.49.24,0ZM6.17,34.87s.13.1.72,0a.77.77,0,0,1-.39.4,1.1,1.1,0,0,0,.56-.16,1,1,0,0,1,.67-.23c.35,0,.38-.09.47-.16a1,1,0,0,1,.54-.11,2.62,2.62,0,0,0,1-.12l-.32-.41a3.15,3.15,0,0,1-1.06.15,1.72,1.72,0,0,0-1.12.25.27.27,0,0,1-.24.08A1.76,1.76,0,0,0,6.17,34.87Zm12.54-1.76A3,3,0,0,0,17.9,33a2.11,2.11,0,0,1-.95-.34,2.46,2.46,0,0,0-1.32-.27v2.36H15.5V30.28l-.18-.18.24-.71.24.71-.17.18v.07a2,2,0,0,1,1.8.28c.94.7,1.36.08,2.25.6s.9.56,1.3.56a1.13,1.13,0,0,1-1,.35,1.78,1.78,0,0,0-.88.06,2.69,2.69,0,0,0,.67.17.93.93,0,0,1,.62.38c.05.07.46.09.4.93a.5.5,0,0,0,0,.18s-.61-.62-1.14-.52A1.36,1.36,0,0,1,18.71,33.11Zm-3.15-2.86.17-.18-.17-.49-.17.49.17.18Zm2.73,2c.4,0,.66.27.87.32s.68-.13,1.08.11c-.32-.4-1.06-.14-1.48-.64v0a.89.89,0,0,0,.79-.08,2.13,2.13,0,0,0-1.28-.18c-.95.05-1.59-1-2.55-.54v.35a2,2,0,0,1,.78.07C17.23,32,17.26,32.37,18.29,32.29Zm8.62,2.85A1.28,1.28,0,0,1,25.85,35a.73.73,0,0,0-.48-.16,1.46,1.46,0,0,1-.6,0,1.15,1.15,0,0,0,.6.34c.47.14,1,.54.86,1.62a1.54,1.54,0,0,0-.87-.77,6,6,0,0,1-1.25-.44,2.62,2.62,0,0,0-.91-.18,2,2,0,0,1-.78-.21A3.47,3.47,0,0,0,21.6,35a.74.74,0,0,1-.44-.2l-2.65,3.33L18.42,38l3.89-4.89,0-.26.62-.4-.24.71-.25,0,0,0a3.82,3.82,0,0,0,1.09.25c.48,0,.53.1,1,.12a1.91,1.91,0,0,1,1.05.35c.31.21.65.1.9.5S26.86,35,26.91,35.14Zm-4.56-2.25,0,.23h0l.22,0,.18-.48Zm2.91,1.78a1.8,1.8,0,0,0-.8-.31.27.27,0,0,1-.25-.09A1.75,1.75,0,0,0,23.1,34,3.38,3.38,0,0,1,22,33.89l-.31.39a2.33,2.33,0,0,0,1,.13.94.94,0,0,1,.54.11.7.7,0,0,0,.48.16,1,1,0,0,1,.68.23,1.08,1.08,0,0,0,.56.16.85.85,0,0,1-.4-.41C25.12,34.77,25.26,34.67,25.26,34.67Zm-.51,7.79a2.81,2.81,0,0,0,.41.2c.47.14.76.94.8,1.16a5.53,5.53,0,0,0,.52.89,1.66,1.66,0,0,1-1.12-.82c-.28-.55-.63-.39-.86-.55a1.88,1.88,0,0,0-.8-.4c-.38-.06-.41-.23-1.05-.37a3.48,3.48,0,0,1-1.2-.57l-2.12,2.66-.09-.07,3.28-4.11,0-.25.63-.42-.25.71-.25,0-.06.08a1.26,1.26,0,0,0,.53.11c.13,0,.81,0,.94.26s.86.23,1.27.4,0,.19.6.53a1.33,1.33,0,0,1,.66,1,.91.91,0,0,0-.48-.24.55.55,0,0,1-.37-.13c-.1-.11-.22-.07-.4,0A2.78,2.78,0,0,1,24.75,42.46Zm-2.19-2.22,0,.24h0l.23,0L23,40Zm2.89,2.11a.76.76,0,0,1-.38-.2.84.84,0,0,0-.58-.25,1.59,1.59,0,0,1-.77-.28c-.1-.13-.25-.22-.71-.25a1.38,1.38,0,0,1-.67-.18l-.28.31c.17.26.86.42.94.42a1,1,0,0,1,.53.14,2.68,2.68,0,0,0,.59.37.75.75,0,0,1,.33.14,1.11,1.11,0,0,0,.62.29,1.17,1.17,0,0,1,.53.26,1.05,1.05,0,0,0-.58-.41,1.06,1.06,0,0,1-.5-.4A2.22,2.22,0,0,0,25.45,42.35ZM8.9,40.68l3.29,4.1-.09.09L10,42.2a3.29,3.29,0,0,1-1.2.57c-.64.14-.66.3-1,.37a2,2,0,0,0-.8.4c-.23.16-.59,0-.86.56A1.6,1.6,0,0,1,5,44.9,5,5,0,0,0,5.46,44c0-.22.34-1,.8-1.16,0,0,.19-.08.41-.2a3.85,3.85,0,0,1-.54,0c-.19,0-.3-.07-.4,0a.59.59,0,0,1-.37.13,1,1,0,0,0-.49.23,1.32,1.32,0,0,1,.66-.94c.6-.34.2-.36.61-.53s1.13-.12,1.27-.39.8-.27.92-.27a1.49,1.49,0,0,0,.55-.11l-.07-.08-.25,0L8.31,40l.62.4Zm.46,1-.27-.32a1.32,1.32,0,0,1-.68.18c-.44,0-.61.13-.71.26a1.46,1.46,0,0,1-.76.27.92.92,0,0,0-.59.26.75.75,0,0,1-.37.2,2.1,2.1,0,0,0,.93,0,1.15,1.15,0,0,1-.5.39,1,1,0,0,0-.58.42,1.25,1.25,0,0,1,.52-.27A1.31,1.31,0,0,0,7,42.77a.64.64,0,0,1,.32-.13,3.26,3.26,0,0,0,.6-.38,1,1,0,0,1,.52-.14C8.5,42.12,9.19,42,9.36,41.7Zm-.51-1.26-.43-.28.18.49.22,0h0Zm.3-3.51L13,41.82,13,41.9,10.3,38.57a3.48,3.48,0,0,1-1,.25c-.47,0-.66.3-1.22.38a3.06,3.06,0,0,0-.9.28,5.41,5.41,0,0,1-.72.25.81.81,0,0,0-.64.54c-.12.26-.58.46-.69.54s.07-.5.08-.67A1,1,0,0,1,6.15,39a1.94,1.94,0,0,0,.79-.38,1.2,1.2,0,0,0-.54.07.43.43,0,0,1-.37,0,1.43,1.43,0,0,0-.77.19s.39-.88.63-.89a.46.46,0,0,0,.38-.24,1.28,1.28,0,0,1,1-.43c.5.08.49-.12,1-.08a2,2,0,0,0,.94-.15L9.05,37,8.8,37l-.24-.7.62.4Zm.58,1.16-.3-.38a1,1,0,0,1-.5.15,1.62,1.62,0,0,0-.7,0,1.6,1.6,0,0,1-.66.18,1.32,1.32,0,0,0-.62.11,1.41,1.41,0,0,1-.5.26.94.94,0,0,0-.3.24,1.65,1.65,0,0,1,.72-.14,2,2,0,0,0,.43-.06c-.15.27-.87.58-.87.58a2.29,2.29,0,0,0,.83-.31.85.85,0,0,1,.35-.12,1.65,1.65,0,0,0,.65-.17A1.39,1.39,0,0,1,9,38.25,4.67,4.67,0,0,0,9.73,38.09ZM9.1,36.7l-.44-.28.18.48.23,0h0Zm12,1.67L18.48,41.7l-.1-.08,3.89-4.89,0-.25.62-.41-.25.71-.24,0-.1.12a1.83,1.83,0,0,0,.94.16c.46,0,.45.16.94.08a1.32,1.32,0,0,1,1,.43.5.5,0,0,0,.38.23c.24,0,.63.91.63.91a1.22,1.22,0,0,0-.77-.2.53.53,0,0,1-.37,0,1.37,1.37,0,0,0-.54-.07,1.9,1.9,0,0,0,.79.39,1,1,0,0,1,.94,1.1c0,.17.09.68.09.68s-.58-.29-.69-.55a.82.82,0,0,0-.64-.54,5.5,5.5,0,0,1-.73-.26,2.93,2.93,0,0,0-.9-.27c-.56-.08-.75-.34-1.23-.38A3.58,3.58,0,0,1,21.12,38.37Zm1.38-.72A.88.88,0,0,1,22,37.5l-.29.38a4,4,0,0,0,.77.17,1.32,1.32,0,0,1,.7.18,1.49,1.49,0,0,0,.64.18.67.67,0,0,1,.34.12,2.33,2.33,0,0,0,.84.31s-.72-.31-.87-.58a2.15,2.15,0,0,0,.43.06,1.68,1.68,0,0,1,.72.14.92.92,0,0,0-.3-.25,1.4,1.4,0,0,1-.49-.24,1.11,1.11,0,0,0-.62-.11,2.33,2.33,0,0,1-.67-.18A1.69,1.69,0,0,0,22.5,37.65Zm-.18-1.14,0,.22h0l.24,0,.17-.48ZM10.91,29.24h-.2v.19h.91v-.19h-.21v-.43h.2v-.2H10.7v.2h.21Zm5.91,0h-.21v.2h.92v-.2h-.21v-.41h.2v-.2h-.91v.2h.21Zm-3,0H13.6v.19h.91v-.19h-.2v-.43h.2v-.2H13.6v.2h.21Zm15.4,6a.94.94,0,0,1-.78.26,9.91,9.91,0,0,0-1.17,4.73v.09a17.78,17.78,0,0,0,.36,3.45A17.88,17.88,0,0,1,28,47.17c0,3-.86,5.33-5.08,7.16L21.2,55c-2.68,1.12-3.79,1.57-5.42,4.21l-.34.55-.32-.54c-1.51-2.4-2.79-2.9-5.11-3.8l-2.33-.94c-3.95-1.72-4.76-4.19-4.76-7.35a17,17,0,0,1,.35-3.43,17,17,0,0,0,.36-3.45v-.1a9.9,9.9,0,0,0-1.17-4.72,1,1,0,0,1-.79-.26,1,1,0,0,1-.07-1.38l2.81-3.31a1.05,1.05,0,0,1,1.47,0,1.07,1.07,0,0,1,.28.73.75.75,0,0,1,0,.16l.26.27a1.75,1.75,0,0,0,2.24.21A1.93,1.93,0,0,0,9.5,30.2a.28.28,0,0,0,0-.1A1.13,1.13,0,0,1,8.74,29a1.16,1.16,0,0,1,1.13-1.18h.2v-.4h.78v-.56h9.51v.56h.95v.4h0a1.18,1.18,0,0,1,.33,2.29,1.83,1.83,0,0,0,.87,1.53,1.6,1.6,0,0,0,2.2-.28s0-.09,0-.14a1,1,0,0,1,.3-.7,1.05,1.05,0,0,1,1.48,0l2.77,3.26A1,1,0,0,1,29.21,35.21ZM11.43,27.76H19.8v-.41H11.43Zm-.81.45H20.73v-.27H10.62ZM10,29.6l11.36,0a.62.62,0,1,0,0-1.23H10a.59.59,0,0,0-.63.58A.63.63,0,0,0,10,29.6Zm-7.3,5.3c1-1.1,2-2.26,2.93-3.43a.58.58,0,0,0,0-.48c-.09-.09-.16-.21-.3-.21a.51.51,0,0,0-.45.13L2,34.19a.64.64,0,0,0,0,.54.56.56,0,0,0,.41.23Zm25.4.09-2.57-3-.28-.27a2.05,2.05,0,0,1-2.17.76,2.69,2.69,0,0,1-.5-.16,2.5,2.5,0,0,1-1.44-2.39v-.11h-11v.36a2.58,2.58,0,0,1-1.45,2.4,3.41,3.41,0,0,1-.5.15,2.17,2.17,0,0,1-2.07-.53l-.44-.44L2.84,35a12.16,12.16,0,0,1,1.09,8.37,14.1,14.1,0,0,0,0,6.46h0a5.07,5.07,0,0,0,1.22,2.27,9.05,9.05,0,0,0,2.49,1.73,3,3,0,0,1,.54.24l.88.38c.62.26,1.25.52,1.89.72.14,0,.63.26.83.35a9.29,9.29,0,0,1,1.55.84,5.49,5.49,0,0,1,2.16,2.32,7.68,7.68,0,0,1,2.2-2.44c0-.11.65-.41.81-.51a3.68,3.68,0,0,1,.95-.52c.32-.13.88-.34,1.31-.53l.8-.35c.62-.27,1.24-.49,1.84-.82A9.38,9.38,0,0,0,26,51.65,6.85,6.85,0,0,0,27,50l.05-.15h0a14,14,0,0,0,0-6.47A12.22,12.22,0,0,1,28.05,35Zm.83-.8-2.79-3.28a.51.51,0,0,0-.45-.13c-.13,0-.21.12-.3.21a.58.58,0,0,0,0,.48c.94,1.17,2,2.33,2.94,3.43l.22.06a.53.53,0,0,0,.41-.23A.64.64,0,0,0,28.88,34.19Zm-9.26-4.95h-.2v.19h.91v-.19h-.21v-.43h.2v-.2h-.91v.2h.21ZM13.17,52.1a.08.08,0,0,0,0,.09,4.34,4.34,0,0,1,.52.07h-.06v.08a.34.34,0,0,0,.14,0s0,0-.06-.05a3.18,3.18,0,0,0,.62.05c.12,0,.27,0,.35-.09C14.16,52.31,13.7,52,13.17,52.1Zm4.51.06v0c.18,0,.37,0,.54.09a1.27,1.27,0,0,0,.55,0l0-.05C18.41,52.19,18,52.19,17.68,52.16Zm3.05,2.47c-.18.18-.51,0-.72.12h-.7c.33,0,.67,0,1-.06,0-.06-.05-.08-.1-.09a6,6,0,0,0-1,.09l.06.05a.61.61,0,0,1-.19,0s0,0,0,0c0-.16-.25-.07-.38-.08l-.07.06c.08.1.24,0,.36.06-1.24.43-2.64,0-3.88-.09a4.3,4.3,0,0,1-1.64-.06c-.52.09-1.1-.12-1.58.11a1.1,1.1,0,0,0-.94-.11c-.36,0-.77-.05-1.11,0,.7-.06,1.42,0,2.11-.07a.88.88,0,0,1,.62,0s0,0,0-.08c-.33-.25-.68,0-1-.08a10.7,10.7,0,0,1-1.22.07,4.8,4.8,0,0,1,1.42-.24c.68,0,1.17.32,1.81.32a7,7,0,0,0,1.59,0,10.83,10.83,0,0,0,2.37.29l-.06.06c.07.09.23.05.31,0s0,0,0-.07l-.17,0a3.68,3.68,0,0,1,1.69-.16A4.63,4.63,0,0,1,20.73,54.63Zm-7.86-.12,0,0-.2,0v.08C12.75,54.48,12.8,54.6,12.87,54.51Zm.16,0c0-.06,0-.07-.08-.07s0,.07,0,.09S13,54.57,13,54.54Zm.2,0s0-.06-.06,0-.05,0,0,.06h.09Zm4.91.27,0,0s-.05,0-.1,0,0,.06,0,.1S18.11,54.85,18.14,54.81Zm.21-.07c0-.07-.11,0-.1,0s0,0,.07,0S18.37,54.76,18.35,54.74Zm.22,0a.07.07,0,0,0-.09,0v.09A.08.08,0,0,0,18.57,54.75Zm-8.73-.16-.34,0Zm-.74-.11a5.2,5.2,0,0,0,1.11,0A5.89,5.89,0,0,0,9.1,54.48Zm2.36.62a.2.2,0,0,0,.24,0,.23.23,0,0,0,.13,0h-.37Zm8.42-.1h0l-.08,0h0a.25.25,0,0,1-.22,0,5.51,5.51,0,0,0-1.36.15,17.83,17.83,0,0,1-2.2-.09l-2.47,0A4.72,4.72,0,0,0,12.23,55a8.92,8.92,0,0,0-1.46,0s-.06,0,0,.08a1.62,1.62,0,0,0,.73,0l0,0s0,0,0,0h0c.09.07.12.06.22,0a.23.23,0,0,0,.13,0l.13.09.08,0c.08.09.26,0,.34,0,0,.16.18,0,.24.11.11-.05.16.08.25,0,.06.1.22.1.3.14s.19-.1.24,0l.17-.06c.05,0,0,.06.05.09a.75.75,0,0,1,.44,0c.13-.06.24,0,.37-.1s0,0,.05,0,0,0-.05,0-.24,0-.37.11a.68.68,0,0,0-.44,0s0-.09-.05-.09l-.17.06c-.05-.12-.17,0-.24,0s-.24,0-.3-.14c-.09.11-.14,0-.25,0-.06-.12-.2.05-.24-.1-.08,0-.26.09-.34,0l-.08,0-.13-.08h0s1,0,1.28,0a3.93,3.93,0,0,1,.5.09,22,22,0,0,1,3.57.16,12.93,12.93,0,0,0,1.78-.18c.21,0,.38,0,.57,0l.2-.08h0l.06,0-.39.16a1.13,1.13,0,0,0-.33.13,0,0,0,0,0,0,0h0l0,0h0l-.13.09h0l-.61.37h0l-.2.1a.14.14,0,0,1-.07.06v0L18,56h0l-.21.13.11,0-.21.17v0l-.17.13,0,0-.12.08h0l-.24.21-.29.26-.17.18-.06.06c-.23.24-.44.5-.63.74h0a5.84,5.84,0,0,0-.48.74,2.06,2.06,0,0,0-.12-.26,0,0,0,0,1,0,0l-.12-.21h0s0-.05-.06-.08h0L15,58h0a.19.19,0,0,1-.11-.12h0a1.09,1.09,0,0,0-.13-.17c-.11-.05-.2-.22-.31-.31h0l-.12-.11h0l0,0L14.19,57h0c-.14-.13-.28-.24-.42-.35l-.16-.12-.37-.25-.17-.11c-.32-.19-.65-.37-1-.55h0l-.37-.16-.32-.14h0l-.33-.16c.06-.12.21,0,.29,0-.09,0-.23-.1-.3,0h0a2.89,2.89,0,0,1-.45-.14l.12,0c-.31-.1-.64-.24-1-.36l1.29,0c.42-.27.73.31,1.12,0,.45-.08,1,0,1.52,0,.69.23,1.48-.12,2.17.14a6.89,6.89,0,0,0,2.75.06c.44-.23,1,0,1.5-.12C20.07,54.89,20,55,19.88,55Zm-2,.45-.26.15h0l.26-.15a.12.12,0,0,1,.09,0,.48.48,0,0,1,.41-.14c.07-.18.22,0,.3-.11a.56.56,0,0,0,.34,0c.06,0,.06.07.07.11h0c.12-.13.33-.09.47-.18h0c-.14.08-.35,0-.46.18,0,0,0-.1-.07-.11a.56.56,0,0,1-.34,0c-.08.15-.23-.06-.3.11a.54.54,0,0,0-.41.14A.11.11,0,0,0,17.85,55.45Zm-.29.08-.12.07h0l.12-.07s0,0,0,0S17.56,55.56,17.56,55.53Zm-.25,0h0s.1-.08.14,0v0C17.41,55.48,17.34,55.57,17.31,55.56Zm0-.06a.21.21,0,0,0-.11.08h0a.26.26,0,0,1,.11-.07s0,0,0,0S17.29,55.52,17.29,55.5Zm-.24.07h0s.06-.11.11-.09,0,0,0,0a.05.05,0,0,0,0-.05C17.11,55.47,17.07,55.53,17.05,55.57Zm-.29.12s0,0,0,0a.05.05,0,0,0,0,0l.07-.11s.05,0,.07,0l.09-.11a.09.09,0,0,1,.06.08.12.12,0,0,0-.06-.09l-.09.12s0,0-.07,0Zm-.18-.24-.1.15h0l.1-.15c.06,0,.05.1.11,0a.06.06,0,0,1,0,.07.08.08,0,0,0,0-.08C16.63,55.55,16.64,55.45,16.58,55.45Zm-.33,0h0c.08-.12.15.08.22,0s.05,0,.05,0,0,0-.05,0S16.33,55.35,16.25,55.46Zm-.05-.08-.12,0h0l.12,0a.07.07,0,0,1,.06,0S16.22,55.38,16.2,55.38Zm-.66-.16c.05,0,.19,0,.21.11.06-.22.19.08.28,0a.1.1,0,0,1,.07.09A.1.1,0,0,0,16,55.3c-.09.11-.22-.19-.28,0C15.73,55.2,15.6,55.26,15.54,55.22Zm-.57.12v0c0-.05.08-.1.14-.11l.09.09.1-.12c.08.14.13,0,.22,0s0,0,0,0h0v0l0,0c-.09,0-.14.16-.22,0l-.1.12-.09-.1C15.05,55.24,15,55.3,15,55.34Zm-.48,0s0-.08.13-.06a.06.06,0,0,1,.05.06c0-.06,0-.06.05-.1s.06,0,.12,0,0-.12.12-.09l0,0,0,0c-.09,0-.08,0-.12.09s0-.08-.12-.06-.06,0-.05.1a.06.06,0,0,0-.05-.06c-.08,0-.08,0-.13.07Zm-3.06-.19s0,0,0,0S11.42,55.18,11.43,55.16Zm-.52,0-.11,0,.09,0Zm.55-.06Zm-2.7-3a2,2,0,0,1-.56.11,2.33,2.33,0,0,0,.51,0c.13,0,.72,0,.76-.07S9.1,52,8.76,52.11Zm.37,2.39c.5.2,1,.41,1.51.57l-.84-.31Zm-4-2.41h0l0,0ZM19.91,55Zm0,0h0c.19-.06.47-.18.76-.31l-.76.31Zm.79-.32.09,0-.12,0ZM4.48,51.28l0-.06.08.14-.07-.12Zm4.76,3.21h0Zm15.14-1.58h0Zm.11-.07h0l-.09.06Zm2.51-3L27,50l-.1.21h0l-.05.09-.07.18h0l-.08.16h0a.37.37,0,0,1,0,.09h0l-.09.13a4.15,4.15,0,0,1-.57.82l-.19.19-.17.17a8.22,8.22,0,0,1-1.11.83h0l-.1.07c-.75,0-1.19-.69-2-.6-.66-.45-1.52,0-2.27-.23-.87.27-1.77-.12-2.68,0A10.49,10.49,0,0,1,14,52a4.67,4.67,0,0,1-1.54,0,9,9,0,0,1-3.27,0A6.23,6.23,0,0,1,6.27,52c-.36.11-.79,0-1.14.12L5,52l0,0L5,52l-.17-.19h0l-.17-.21h0v0h0a.29.29,0,0,1-.07-.1h0l-.08-.12.09.12a5.79,5.79,0,0,0,2-.1c.55-.05,1,.25,1.54.1,1-.29,1.88.3,2.9.12a25.25,25.25,0,0,1,2.77-.11c1.23.38,2.57-.14,3.82.16a17.88,17.88,0,0,1,2.31,0,3.24,3.24,0,0,1,1.58-.05l.84-.1c-.07.08-.2,0-.23.13l0,0c-.36.17-.82,0-1.27,0a4.77,4.77,0,0,1-2,0c-.8.21-1.63-.15-2.38.15-1.24.12-2.37-.49-3.56-.14-.44,0-.83-.12-1.28-.07a4.83,4.83,0,0,1-1.65.09,5.05,5.05,0,0,0-2.75.09,2.74,2.74,0,0,0-1.74-.22c-.3-.09-.65.14-.87,0l.16.21c.61.08,1.13-.2,1.71,0a1.7,1.7,0,0,0,1.27.16,3.7,3.7,0,0,1,2.28,0,11.55,11.55,0,0,0,1.68-.13,5.38,5.38,0,0,0,2,0c1.23.08,2.49.49,3.73.12a4.72,4.72,0,0,0,1.5,0,5.23,5.23,0,0,0,2.05,0,2.45,2.45,0,0,0,1.11,0c.46-.06.66.6,1.13.41a5,5,0,0,0,1.1.58l.21-.14.05,0h0c-.1.09-.35,0-.51-.07-.4-.13-.68-.61-1.17-.52a1.47,1.47,0,0,0-.76-.37c.15,0,.3-.17.46,0s.26.25.42.14c.23.1.41.37.63.5a2.83,2.83,0,0,0,.93.35l.29-.19h0a.45.45,0,0,1-.36.06,2.73,2.73,0,0,1-1.38-.86c-.14-.08-.27.1-.38-.05.15,0,.25-.07.35-.13-.06-.18-.18,0-.3,0h-.3a2.33,2.33,0,0,1,1-.23A3.17,3.17,0,0,1,25.56,51s-.08,0,0,.05a0,0,0,0,1,0,0h.13a1.94,1.94,0,0,1,.67.18A1,1,0,0,0,26.4,51l0,0h0s-.1,0-.11,0l0,.11c-.16,0-.25-.21-.41-.15a1.66,1.66,0,0,0-1.16-.2c-.63,0-1.1.45-1.78.39a3.82,3.82,0,0,1-1.61.31c-.54-.24-1.11,0-1.65,0a15.44,15.44,0,0,0-2.25,0c-1.14-.26-2.35.21-3.47-.13-.81-.06-1.66.13-2.47,0-1,.43-2-.2-3-.1-.74.34-1.42-.17-2.19,0a3.82,3.82,0,0,1-1.81,0l-.07-.1,0,0-.07-.1h0l-.1-.21a4.61,4.61,0,0,1-.22-.51h0v0c-.06-.18-.12-.37-.17-.56H27ZM4.87,51.22l-.17,0Zm.34,0h0Zm.18,0h0Zm2.76,0a.08.08,0,0,0,0-.09c-.4,0-.75-.13-1.17-.12-.11,0-.26,0-.34.1C7.16,51,7.62,51.3,8.15,51.24Zm2.72.09,0-.06c-.31,0-.69,0-1-.07v0c.17,0,.35,0,.53.1A1.46,1.46,0,0,0,10.87,51.33Zm2.41-.16a1,1,0,0,0-.79,0c-.17,0-.41,0-.54.06.43.16.87-.14,1.28.06C13.29,51.27,13.31,51.19,13.28,51.17Zm3.51.1c0-.2-.31-.07-.46-.1a4.47,4.47,0,0,0-.7.18C16,51.35,16.42,51.27,16.79,51.27Zm.2,0c0-.07-.15-.1-.13,0S17,51.31,17,51.25Zm.79,0c-.11-.06-.26,0-.39,0s-.26-.08-.32,0a2.76,2.76,0,0,0,.65.09S17.79,51.35,17.78,51.3Zm.17.06s0-.08-.05-.09l0,.08h0l0-.07,0,0,0,0S17.93,51.41,18,51.36Zm1,0h0Zm1.3-.09a1.3,1.3,0,0,0-.78.09.61.61,0,0,0,.4,0,3.22,3.22,0,0,0,.38-.05ZM26,50.88c0-.05,0-.06-.07-.08l0,.08.1,0Zm.22.08s0-.05-.05-.07-.11,0-.06.09S26.2,51,26.21,51Zm-10.4.8a2.68,2.68,0,0,0,1,0l.05-.06a0,0,0,0,1,0,0,.72.72,0,0,0-.38,0C16.27,51.73,16,51.7,15.81,51.76Zm-6.6-.18h.06v-.06H9.21Zm-.41,0c.11,0,.21.09.3,0-.07-.15-.17.08-.24,0Zm-.26,0,0,.05.08,0C8.69,51.46,8.53,51.48,8.54,51.55Zm-1.9,0c.1.09.25.05.35.12.51.28,1-.13,1.49-.07v-.05a.68.68,0,0,0-.29,0,2.36,2.36,0,0,1-1.51,0ZM18.92,52c-.06-.09-.18,0-.27,0s0,.07,0,.1S18.88,52.08,18.92,52Zm.2,0S19,51.94,19,52a.09.09,0,0,0,.09.05S19.12,52,19.12,52Zm.16.07s0-.1-.07-.08a.05.05,0,0,0,0,.09S19.26,52.08,19.28,52.06Zm.16-.05c0-.07-.13,0-.1.06h.05S19.46,52.07,19.44,52Zm.24.06s0-.06-.07-.08-.12.07-.06.09A.08.08,0,0,0,19.68,52.07ZM21.31,52c-.11-.14-.38,0-.56-.07s-.16,0-.16.07l.69.05Zm.6,0s0-.05-.07-.07v.1S21.9,52.07,21.91,52Zm.84.15c0-.1-.16-.1-.24-.15A1.07,1.07,0,0,0,22,52a1.08,1.08,0,0,0,.43.1C22.52,52.09,22.63,52.3,22.75,52.18ZM25.36,51s.05,0,.07,0h0s0,0-.07,0,0,0-.06.06l-.63.11c-.12,0-.32,0-.4.16a.25.25,0,0,0-.3.07c-.15,0-.3,0-.44.06-.06-.09-.18-.05-.23,0h0s-.05.05,0,.08h0s0-.06,0-.07h0c.05-.08.17-.12.23,0,.14-.07.29,0,.44-.05a.24.24,0,0,1,.3-.07c.08-.14.28-.12.4-.17L25.3,51Zm.15.07h0Zm-1.16,1.87h0l-.39.24h0a4.35,4.35,0,0,1-.53.29l-.12.06h0l-.29.15-.65.29-.26.11-.64.27-.16.07h0l-.41.17-.05-.05c-.73-.19-1.51.05-2.23-.08a5,5,0,0,1-2.07.23,7.05,7.05,0,0,0-2.72-.23c-.55-.18-1.18-.15-1.73-.36a4.35,4.35,0,0,0-1.71.22c-.52,0-1.07,0-1.56.07H8.75a1.28,1.28,0,0,1-.24-.11h0l-.22-.1-.17-.07-.07,0-.47-.21h0l0,0h0l0,0a7,7,0,0,1-2.28-1.54h0L5.1,52.1l.14.15a2,2,0,0,0,.38.11H5.55a.8.8,0,0,0,.36,0c.1.06.26,0,.38,0s.28,0,.29.09c0-.17.2,0,.28,0a.07.07,0,0,1,.08,0s.07,0,0,.07,0-.06.07,0,.14-.1.2,0c0,0,.06-.09.11-.08s.06.06,0,.08.06,0,.09-.07a.48.48,0,0,0,.27,0s.06.08.06.1,0-.09,0-.1.13,0,.2,0,0,.07.05.1h0s0,0,0,0h0s0,0,0,0,.23,0,.31-.1c.15.09.34-.09.42.12l-.08,0h0l.08,0,0,0H8.9c0-.09.09-.09.13,0s0,0,0,.06l0,0s.06-.15.15-.08v0h.06l0-.08c.07,0,.07,0,.06.1h.1a.16.16,0,0,1,0-.06s.07,0,.09,0l0,0h.06s0,0,0,0,.08,0,.07,0h.09v0c.09-.09.16,0,.12.07h0s0,0,0,0H10a.1.1,0,0,1,.06-.08c.05,0,.05,0,0,.07h.1v0h0l0-.09c.07.1.1,0,.19,0v.05h0l.12-.07a.21.21,0,0,1,0,.06h.07c.05,0,.18,0,.24-.08a.42.42,0,0,0,.19,0l0,.06s0-.05,0-.1.16,0,.27,0,0-.06,0-.08.24-.08.26,0h0v0c0-.11.07-.08.08-.13.18.05.34,0,.46.07.08-.12.25,0,.34-.06s0,0,0,.09h.07v0c0-.1.14-.15.24-.09s0,0,0,.05.18-.07.27,0c.1-.11.15.14.23,0,.09.07.23-.1.25.09,0-.11.09,0,.14,0s0,.12.11.1,0-.05,0-.08.16.11.29,0a1.93,1.93,0,0,0,.49.09l0-.06c0-.07-.14,0-.13-.12s.2,0,.32,0,.11.13.19.18,0,.08,0,.1,0-.2.13-.1,0,.06,0,.1h0v0h0l.06-.08a.07.07,0,0,1,.1,0c.07-.11.22.09.26-.09l.08.09c.05,0,.11-.11.16-.07s-.07.06,0,.11.11-.21.26-.13-.09.07,0,.11a.29.29,0,0,0,.13-.11c.08,0,.07.08.13.09-.05-.18.3-.19.28,0h0s0,0,0,0l0-.13c.07,0,.06.07.08.12l.09,0a.11.11,0,0,0,0,0,.34.34,0,0,1,0-.2c.05,0,.07,0,.08.06v.06h.05v.06h0a.14.14,0,0,1,.15-.16s0,0,0,0,.07,0,.12,0,.24-.09.37,0,.2-.05.17.07c.05-.05.13-.09.19,0s.54,0,.72.21l0-.07c.09,0,.12.18.22,0,.05,0,.13,0,.16,0h0v0c.12,0,.24-.2.27,0,.06,0,.14-.13.18,0a.06.06,0,0,1,0,.06h0v0c0-.15.18-.08.21-.2s.13,0,.18,0a1.13,1.13,0,0,1,.52-.12l.28,0c.06,0,.14,0,.18,0s.29,0,.39.17.3-.19.39,0l0,0c.06,0,.13,0,.13.09a.09.09,0,0,1,0,.05h0a.08.08,0,0,0,0,0,.22.22,0,0,1,.06-.14s.09,0,.1.06c0-.13.13,0,.18,0s.06.08.09.13a.39.39,0,0,1,.08-.1c.07,0,.11.09.16.06a.12.12,0,0,1,0,.1h0c0-.11.14,0,.21-.06s.05.07.05.11l.12-.05c0,.12.25.12.21.21a1.67,1.67,0,0,1,.43.16l0,0,.13,0ZM5.57,52.53l0,0,0,0Zm2.06,1.31,0,0h0Zm9.17-1.29v0h0Zm-4.26-.16h0v0Zm-.91,0h0l0,0ZM10.26,54l0,0ZM10,54.1h0Zm-.27-1.55h0v0Zm-.26,0h0v0Zm-.1,0h0a.15.15,0,0,1,0-.09A.18.18,0,0,0,9.39,52.55Zm-.08,0h0s0,0,0,0Zm.82,1.62a.19.19,0,0,0-.26,0l0,0C10,54.22,10.1,54.21,10.13,54.16Zm.19,0s0,0,0,0-.09,0-.12,0l0,0A.13.13,0,0,0,10.32,54.12Zm.9-.15c-.26-.25-.59.1-.85.06v.09A1.11,1.11,0,0,0,10.8,54C10.93,54,11.12,54,11.22,54Zm.2,0s-.14,0-.13,0a.3.3,0,0,0,.13,0Zm.18,0-.07,0,0,.08s0,.05.05,0S11.62,54,11.6,53.94Zm11.19-1.21,0,.06h0S22.78,52.75,22.79,52.73Zm-14,1.63Zm.3.12-.11,0-.19-.08h0l.3.12h0Zm11.82.09h0l.42-.19h0l-.55.24ZM9.1,54.49h0Z"/><rect class="cls-21" x="43.46" y="25.99" width="0.52" height="36.43"/></svg>