<svg id="Capa_1" data-name="Capa 1" xmlns="http://www.w3.org/2000/svg" viewBox="0 0 300 300"><defs><style>.cls-1{fill:#f6f6f6;}</style></defs><path class="cls-1" d="M216.8,291.29a2.93,2.93,0,0,1-.72-2.2c0-5.7,0-11.39,0-17.08,0-.85-.07-1.79,1-2.09s1.52.42,2,1.13l9.78,14,.52.7a1.75,1.75,0,0,0,.22-1.23c.07-4.29-.13-8.58.12-12.87,0-.93.27-1.74,1.34-1.76s1.38.82,1.42,1.72c.06,1.14,0,2.28,0,3.42q0,6.88,0,13.78a3.35,3.35,0,0,1-.67,2.46h-1.37a7.89,7.89,0,0,1-1.59-1.91c-3.08-4.41-6.14-8.83-9.22-13.24-.18-.25-.25-.65-.78-.67v1.26c0,4.16,0,8.33,0,12.49a2.61,2.61,0,0,1-.73,2.07Z"/><path class="cls-1" d="M47.62,291.29a2.61,2.61,0,0,1-.73-2.07c0-5.72,0-11.45,0-17.17,0-.83-.14-1.79.9-2.12s1.59.42,2.11,1.17q4.74,6.82,9.49,13.63c.23.34.49.66.8,1.08a2.14,2.14,0,0,0,.19-1.3q0-6,0-12.05a4.23,4.23,0,0,1,.17-1.58,1.31,1.31,0,0,1,1.37-1,1.28,1.28,0,0,1,1.23,1.27c0,.23,0,.46,0,.68q0,8.82,0,17.64a2.49,2.49,0,0,1-.53,1.8H61.3A5.6,5.6,0,0,1,60,289.87q-4.17-6-8.36-12c-.56-.82-1.15-1.62-1.73-2.42l-.23.09v1.22c0,4.12,0,8.25,0,12.37a2.88,2.88,0,0,1-.71,2.2Z"/><path class="cls-1" d="M136.32,291.29a2.46,2.46,0,0,1-.74-2c0-5.84,0-11.69,0-17.53,0-.77,0-1.61.9-1.89s1.49.33,2,1q4.83,6.9,9.65,13.82a2.68,2.68,0,0,0,.79,1c.34-.36.18-.79.18-1.18,0-4.06,0-8.12,0-12.18a4,4,0,0,1,.2-1.57,1.32,1.32,0,0,1,2.56.25,5.23,5.23,0,0,1,0,.79c0,5.92,0,11.84,0,17.76a2.41,2.41,0,0,1-.52,1.7H150a5.06,5.06,0,0,1-1.17-1.23q-2.88-4.17-5.78-8.33l-4.44-6.36a1.73,1.73,0,0,0-.22,1.29c0,4.14,0,8.28,0,12.42a3,3,0,0,1-.71,2.21Z"/><path class="cls-1" d="M120.81,291.29a9.59,9.59,0,0,1-7.43-8.15c-.68-3.86-.1-7.53,2.68-10.5a8.62,8.62,0,0,1,14.05,1.84,12.62,12.62,0,0,1,.49,11.4,9,9,0,0,1-6.6,5.41Zm7.94-10.43a11.84,11.84,0,0,0-1-5.2,5.82,5.82,0,0,0-9.45-1.58c-2.68,2.73-3,8.87-.64,12.35a5.75,5.75,0,0,0,9.47,0A10,10,0,0,0,128.75,280.86Z"/><path class="cls-1" d="M264,291.29a1.55,1.55,0,0,1-.47-2q3.36-8.94,6.69-17.88a2,2,0,0,1,1.91-1.53,1.92,1.92,0,0,1,1.83,1.47q3.42,9,6.81,17.95a1.81,1.81,0,0,1-.35,2h-1.6a12.71,12.71,0,0,1-1.54-3.64,1.45,1.45,0,0,0-1.6-1.08c-2.38,0-4.77.05-7.15,0a1.42,1.42,0,0,0-1.57,1.11,10.91,10.91,0,0,1-1.59,3.61Zm8.23-17.76c-.19.14-.27.18-.3.24q-1.69,4.75-3.38,9.52c-.29.82.18.9.8.9,1.89,0,3.79,0,5.68,0,.75,0,1-.23.69-.94-.64-1.74-1.25-3.5-1.87-5.25C273.32,276.53,272.78,275.05,272.23,273.53Z"/><path class="cls-1" d="M67.23,291.29a1.55,1.55,0,0,1-.47-2q3.36-8.94,6.69-17.88a2,2,0,0,1,1.91-1.53,1.93,1.93,0,0,1,1.83,1.47q3.42,9,6.8,17.95a1.8,1.8,0,0,1-.34,2H82.28c-1.23-.93-1.24-2.46-1.8-3.72a1.38,1.38,0,0,0-1.43-1c-2.47,0-4.93,0-7.4,0a1.31,1.31,0,0,0-1.42,1c-.49,1.26-.71,2.65-1.63,3.72Zm8.13-17.78a2.64,2.64,0,0,0-.29.44c-1.09,3.07-2.16,6.15-3.26,9.21-.27.78,0,1,.75,1,1.89,0,3.79,0,5.68,0,.89,0,.93-.34.67-1-.73-2-1.4-4-2.14-6A25.29,25.29,0,0,0,75.36,273.51Z"/><path class="cls-1" d="M201.3,291.29a20.49,20.49,0,0,1-2-.71,6.75,6.75,0,0,1-4.13-6.31c-.13-4.24,0-8.5,0-12.75,0-.91.35-1.63,1.34-1.61s1.3.76,1.3,1.67V283a8.46,8.46,0,0,0,.35,2.7,5.24,5.24,0,0,0,5.8,3.21c3.07-.46,4.67-2,4.7-4.75,0-3.91,0-7.81,0-11.72a8.68,8.68,0,0,1,0-1.14c.11-.8.53-1.38,1.4-1.35a1.26,1.26,0,0,1,1.3,1.33c0,4.44.26,8.88-.09,13.31-.29,3.69-2.44,5.92-6.06,6.74Z"/><path class="cls-1" d="M174.39,291.29c-.76-.23-1.53-.44-2.28-.69a3.69,3.69,0,0,1-1.47-.85,1.34,1.34,0,0,1-.3-1.84,1.25,1.25,0,0,1,1.82-.3,9.31,9.31,0,0,0,3.51,1.26,3.88,3.88,0,0,0,4.32-2.73,3.27,3.27,0,0,0-2-4.2,31.07,31.07,0,0,0-3.28-1.3c-3.48-1.27-5-3.46-4.36-6.2a6.48,6.48,0,0,1,7.13-4.55,6.73,6.73,0,0,1,3.41,1.16c.66.5,1.08,1.15.6,2s-1.19.7-1.91.38a7.06,7.06,0,0,0-3.56-1,3,3,0,0,0-2.69,2.1,2.52,2.52,0,0,0,1.21,2.93,9,9,0,0,0,2,1c1,.38,2.06.76,3.08,1.18a5.22,5.22,0,0,1,3.51,5,6.23,6.23,0,0,1-3.14,5.71,21.34,21.34,0,0,1-2.28,1Z"/><path class="cls-1" d="M287.26,291.29a18.25,18.25,0,0,1-3.09-1.15c-.94-.58-1.3-1.43-.84-2.17.58-.92,1.35-.65,2.09-.24a9.12,9.12,0,0,0,3.31,1.14A4,4,0,0,0,293,286.2c.61-1.9,0-3.29-2-4.29a36.53,36.53,0,0,0-3.72-1.43c-2.89-1.15-4.19-3-4-5.56s2.61-4.67,5.7-5a7.14,7.14,0,0,1,4.8,1.07c.72.47,1.24,1.11.75,2s-1.25.72-2,.38a6.67,6.67,0,0,0-3.57-1,3,3,0,0,0-2.69,2.39,2.48,2.48,0,0,0,1.49,2.78,27.13,27.13,0,0,0,3.8,1.52c3.53,1.4,4.69,2.93,4.57,6.09-.11,2.85-1.93,5-5.1,6a3.07,3.07,0,0,0-.42.17Z"/><path class="cls-1" d="M94.36,291.29c-8.33-1.58-9.92-13.22-4.7-18.85a9.13,9.13,0,0,1,10.94-1.36,5.63,5.63,0,0,1,1.11,1,1.3,1.3,0,0,1,.16,1.85c-.56.67-1.22.46-1.82,0a6.22,6.22,0,0,0-4.16-1.54,5.49,5.49,0,0,0-4.54,2.42A11,11,0,0,0,91,286a5.73,5.73,0,0,0,7.5,2.35c.7-.3,1.36-.68,2-1s1.35-.48,1.81.27a1.37,1.37,0,0,1-.45,1.9,10.35,10.35,0,0,1-4.16,1.74Z"/><path class="cls-1" d="M107.13,291.29a2.84,2.84,0,0,1-.71-2.09q0-8.59,0-17.19a5,5,0,0,1,.09-1,1.24,1.24,0,0,1,1.38-1.08,1.3,1.3,0,0,1,1.29,1.22,7,7,0,0,1,0,.79c0,5.81,0,11.61,0,17.42a2.45,2.45,0,0,1-.73,2Z"/><path class="cls-1" d="M238,291.29a1.67,1.67,0,0,1-.76-1.55q0-9.11,0-18.21c0-.91.29-1.63,1.32-1.63s1.32.71,1.32,1.62c0,6.07,0,12.14,0,18.21a1.72,1.72,0,0,1-.76,1.56Z"/><path class="cls-1" d="M27.21,220.76q-.6,4.44-1.21,8.86Q25,237.3,23.91,245a8.71,8.71,0,0,1-.84,2.71,4.38,4.38,0,0,1-4.83,2.62,4.57,4.57,0,0,1-4-3.83c-.42-2.09.21-4.08.56-6.08,1.55-8.82,3.15-17.63,4.74-26.44a17,17,0,0,1,.88-3.29A5.32,5.32,0,0,1,25.09,207c2.64-.27,5,.21,6.64,2.58a11.5,11.5,0,0,1,1.55,3.89q2.86,11.2,5.69,22.4a2.59,2.59,0,0,0,.5,1.09q.86-3.52,1.69-7c1.38-5.8,2.73-11.6,4.14-17.39,1-4.23,3.62-6,8-5.53a5.24,5.24,0,0,1,4.27,2.84c1.15,2.13,1.36,4.49,1.74,6.81q2.16,13.19,4.27,26.4a10,10,0,0,1,.11,3.28,4.67,4.67,0,0,1-4,4,4.4,4.4,0,0,1-4.93-2.62c-.9-1.94-.93-4.06-1.18-6.12-.87-7-1.69-14-2.68-21-.68,2.87-1.35,5.75-2,8.61-1.35,5.5-2.58,11-4.32,16.41-.2.61-.43,1.21-.65,1.82a4.06,4.06,0,0,1-3.89,3c-2.27.12-4.35-.22-5.61-2.42A10.71,10.71,0,0,1,33.29,245q-2.79-11.56-5.55-23.14c-.08-.37-.19-.73-.28-1.09Z"/><path class="cls-1" d="M251.75,228.6c.08,5.76-1.32,11-5.1,15.53a18.83,18.83,0,0,1-12,6.61,22.88,22.88,0,0,1-11.34-1,18.2,18.2,0,0,1-11-10.31c-3.18-7.54-3.23-15.22.49-22.58,3.47-6.83,9.35-10.25,17-10.59a20.29,20.29,0,0,1,13.91,4,20.89,20.89,0,0,1,7.78,14A27.08,27.08,0,0,1,251.75,228.6Zm-20.8,13a8.52,8.52,0,0,0,7.84-4.21c3.15-5.28,3.08-10.86.69-16.36a8.7,8.7,0,0,0-8.7-5.45,9,9,0,0,0-8.62,6,18.44,18.44,0,0,0-.53,12.8C223,239,226.48,241.59,231,241.59Z"/><path class="cls-1" d="M87.49,206.26c11.91-.22,19.72,8.69,20.63,19.21a26.64,26.64,0,0,1-2,13.8c-3.41,7.37-9.3,11.19-17.35,11.7a21.36,21.36,0,0,1-10.14-1.66,19,19,0,0,1-10.59-11.6,27.45,27.45,0,0,1-.49-16.58C70.17,211.76,77.64,206.25,87.49,206.26Zm10.05,22.32a16.13,16.13,0,0,0-1.88-8.22,9.39,9.39,0,0,0-15.75-1.07,13.45,13.45,0,0,0-2.49,7,17.45,17.45,0,0,0,1.74,10.48,9.41,9.41,0,0,0,15.55,1.44C97,235.38,97.57,232.07,97.54,228.58Z"/><path class="cls-1" d="M125.34,207.43a44.29,44.29,0,0,1,9.42.52,17.63,17.63,0,0,1,13.71,11.6,24.16,24.16,0,0,1-.66,19.58c-3.07,6.58-8.59,9.83-15.68,10.48a85.37,85.37,0,0,1-13.09,0c-3.32-.21-4.59-1.47-4.92-4.78a30.75,30.75,0,0,1-.14-3.18q0-13.14,0-26.3a27.93,27.93,0,0,1,.2-3.29c.38-3,2.13-4.53,5.57-4.66C121.62,207.37,123.48,207.43,125.34,207.43Zm-1.51,21.08v11c-.09.83.26,1.16,1.11,1.13,1.4-.05,2.81,0,4.21,0,5.16-.21,8.57-2.8,9.75-7.49a19.46,19.46,0,0,0,.16-9,8.85,8.85,0,0,0-6.87-7.11c-2.35-.62-4.75-.38-7.13-.46-.94,0-1.26.3-1.25,1.24C123.86,221.39,123.83,225,123.83,228.51Z"/><path class="cls-1" d="M269,250.8a19.44,19.44,0,0,1-10.2-2.27,8.79,8.79,0,0,1-1.95-1.37,4.24,4.24,0,0,1-1.13-5.16,4.77,4.77,0,0,1,4.8-2.38,37,37,0,0,1,4.74,1.22c2.05.57,4.1,1.16,6.27.74a4.2,4.2,0,0,0,3.36-3.16,4.06,4.06,0,0,0-2.15-4.7,29.88,29.88,0,0,0-5.42-2.08,32.11,32.11,0,0,1-6.49-2.73c-4.08-2.37-5.38-6.29-5-10.56.57-6.47,5.78-10.9,12-11.83a20.51,20.51,0,0,1,9.89.81,10.31,10.31,0,0,1,3.36,1.88,4.51,4.51,0,0,1,1.22,5.38,4.31,4.31,0,0,1-4.73,2.15c-2.14-.34-4.17-1.19-6.34-1.37a5.36,5.36,0,0,0-3.78.94,2.86,2.86,0,0,0-.28,4.45,9.71,9.71,0,0,0,3.89,2.07,47.52,47.52,0,0,1,7.12,2.73c4.41,2.28,7.19,5.64,7.26,10.82a13.13,13.13,0,0,1-7.22,12.39A17.28,17.28,0,0,1,269,250.8Z"/><path class="cls-1" d="M168.15,207.38c2.75.16,5.45-.23,8.13.29s4.13,2,4.09,4.48a3.77,3.77,0,0,1-2.53,3.7,11,11,0,0,1-4,.73c-2.27,0-4.55,0-6.83,0-.95,0-1.28.32-1.25,1.26.05,1.63,0,3.26,0,4.89,0,.85.33,1.12,1.15,1.13a62.51,62.51,0,0,1,7.74.18,8.65,8.65,0,0,1,2.19.59,3.67,3.67,0,0,1,2.43,3.51,3.79,3.79,0,0,1-2.21,4,10.54,10.54,0,0,1-4.32.85q-2.85.06-5.7,0c-.91,0-1.31.25-1.28,1.22.06,1.78,0,3.57,0,5.35,0,.84.3,1.14,1.13,1.13,2.51,0,5,0,7.52,0a9.84,9.84,0,0,1,3.68.67,4.2,4.2,0,0,1,0,7.71,10.7,10.7,0,0,1-4.24.72c-4.25,0-8.51.22-12.76-.12-3.72-.29-5.05-1.66-5.19-5.4-.07-2,0-3.95,0-5.92q0-11.84,0-23.68a15,15,0,0,1,.28-3.06,4.44,4.44,0,0,1,4.08-4C162.89,207.16,165.55,207.55,168.15,207.38Z"/><path class="cls-1" d="M119.32,187a21.87,21.87,0,0,1-8-1.4c-1.54-.54-1.57-.55-.83-2.06a24.51,24.51,0,0,1,16.06-13.28c2-.56,1.68-.42.82-2a24.27,24.27,0,0,1-1.89-20.94c.46-1.3.54-1.33,1.77-.75a24.93,24.93,0,0,1,14.29,24.71c-.3,3.57-2.11,6.34-4.64,8.74A25,25,0,0,1,119.32,187Z"/><path class="cls-1" d="M83.69,32.71c-.09.9-.19,2.19-.34,3.47s-.09,1.31,1.15,1.14a24.43,24.43,0,0,1,20.35,6.15c1.15,1,1.13,1.09,0,2.1A24.84,24.84,0,0,1,76,48.75a12.72,12.72,0,0,1-5.61-7.34C67.08,32,68.52,23.48,75,15.89c1-1.22,1.12-1.2,2.17,0A25.11,25.11,0,0,1,83.69,32.71Z"/><path class="cls-1" d="M93.66,154.75a19.13,19.13,0,0,1,3.86.26c.92.18,1.24-.07,1.08-1a24.25,24.25,0,0,1,2-14.31,26.32,26.32,0,0,1,4.46-6.56c.57-.64,1-.49,1.48.06a25,25,0,0,1,6.33,12.65,25.65,25.65,0,0,1-1.78,14.47,13.32,13.32,0,0,1-7.4,7.33c-8.94,3.9-19.81,2.12-26.67-4.4-1.1-1-1.11-1.12,0-2.1A24.46,24.46,0,0,1,93.66,154.75Z"/><path class="cls-1" d="M201.14,150.12a18.26,18.26,0,0,1-.28,4c-.18.93,0,1.21,1,1a24.57,24.57,0,0,1,20.86,6.53c.57.55.59.93,0,1.47a24.83,24.83,0,0,1-15.28,6.57A27.17,27.17,0,0,1,196.51,168c-5.31-1.89-8.07-5.91-9.38-11.15q-3.36-13.4,5.87-23.66c.66-.72,1-.48,1.52.08A24.17,24.17,0,0,1,201.14,150.12Z"/><path class="cls-1" d="M175.6,155.62a24.09,24.09,0,0,1-3.48,12.86c-.7,1.22-.7,1.21.63,1.58a24.73,24.73,0,0,1,16.48,13.62c.45.95.33,1.37-.7,1.75A25,25,0,0,1,161,178a13,13,0,0,1-2.95-9.21,25.43,25.43,0,0,1,5.94-15.9,24.87,24.87,0,0,1,8.57-6.46c.85-.39,1.29-.27,1.61.65A22.74,22.74,0,0,1,175.6,155.62Z"/><path class="cls-1" d="M87.59,90.21a24.93,24.93,0,0,1-17.2,22.08,12.68,12.68,0,0,1-9.21-.61c-9.13-4-14.44-10.93-15.61-20.88-.3-2.57-.08-2.68,2.53-2.4A24.62,24.62,0,0,1,66,98.71c.73,1,1,.3,1.36-.21a24.47,24.47,0,0,1,16.42-9.9c.82-.13,1.66-.2,2.49-.28,1.3-.11,1.52.12,1.39,1.46C87.61,90,87.6,90.15,87.59,90.21Z"/><path class="cls-1" d="M214.35,88.5a24.54,24.54,0,0,1,17.77,9.84c1,1.28,1,1.28,2,0a24.77,24.77,0,0,1,18.09-9.78c2-.17,2.15.07,2,2a24.24,24.24,0,0,1-6.76,15.2c-3.79,3.85-8.19,6.66-13.72,7.24a11.61,11.61,0,0,1-6-1.16c-9.47-4.21-14.8-11.43-15.7-21.81C211.9,88.58,212.06,88.45,214.35,88.5Z"/><path class="cls-1" d="M69,80.36c-4.8.35-8.46-2.09-11.49-5.73a24.68,24.68,0,0,1-6-17.1,25.06,25.06,0,0,1,1.57-7.78c.34-.94.75-1,1.6-.59a24.42,24.42,0,0,1,13.56,16.1c.5,1.76.49,1.75,2.1.86a24.42,24.42,0,0,1,20.77-1.83c1.34.48,1.42.61.79,1.87a24.45,24.45,0,0,1-19.13,14A18.39,18.39,0,0,1,69,80.36Z"/><path class="cls-1" d="M222.74,144.12c-5.35.23-9.19-2.67-12.34-6.84a25,25,0,0,1-5.19-14.44,24.23,24.23,0,0,1,1.65-9.47c.3-.8.69-.93,1.45-.57a24.34,24.34,0,0,1,12.91,13.88,29.58,29.58,0,0,1,.93,3c.2.81.5,1,1.24.51a24.79,24.79,0,0,1,8.79-3.34,24.36,24.36,0,0,1,12.87,1.23c.89.32,1.08.74.66,1.6-4.11,8.31-10.77,13-19.94,14.22-.49.06-1,.14-1.47.17S223.39,144.12,222.74,144.12Z"/><path class="cls-1" d="M211.73,37.21a13.85,13.85,0,0,1,3.81.29c1.11.25,1.1-.23,1-1a26.07,26.07,0,0,1,.22-8.94,24.83,24.83,0,0,1,6.12-11.77c.71-.78,1.15-.7,1.79,0,6.05,7,7.82,14.83,5.52,23.75-1.81,7-6.48,10.65-13.36,12a24.56,24.56,0,0,1-22.07-6.05c-.76-.68-.74-1.13,0-1.8A24.7,24.7,0,0,1,211.73,37.21Z"/><path class="cls-1" d="M76.57,144c-9.84-.39-17.33-4.67-22.15-13.38-.09-.16-.17-.34-.25-.51-.82-1.74-.82-1.76,1-2.36A24.33,24.33,0,0,1,76.07,130c1,.59,1.2.34,1.45-.64A24.53,24.53,0,0,1,91,112.87c1.37-.67,1.47-.62,2,.75a24.86,24.86,0,0,1-7.25,27.3A13,13,0,0,1,76.57,144Z"/><path class="cls-1" d="M216.91,62.93A24.37,24.37,0,0,1,230,66.53c1.11.65,1.11.66,1.46-.63A24.66,24.66,0,0,1,245,49.49c1.41-.68,1.44-.66,2,.86a24.88,24.88,0,0,1-7.21,27,13.28,13.28,0,0,1-10,3.17,25.54,25.54,0,0,1-14.46-5.21,24.52,24.52,0,0,1-7.45-9.48c-.35-.79-.18-1.14.62-1.43A22.77,22.77,0,0,1,216.91,62.93Z"/><path class="cls-1" d="M186.44,228.63q0-7.51,0-15a11.58,11.58,0,0,1,.57-3.7,4.06,4.06,0,0,1,3.89-3c2.47-.09,3.83.66,4.67,2.65a11.65,11.65,0,0,1,.74,4.46V239c0,1.69,0,1.65,1.7,1.7,3,.08,6.08-.29,9.1.24,2.85.49,4.13,2,4.05,4.59a3.79,3.79,0,0,1-2.26,3.42,9.49,9.49,0,0,1-4.44.84c-4.29,0-8.58.22-12.86-.11-3.68-.28-5.1-1.74-5.14-5.43,0-5.2,0-10.4,0-15.6Z"/><path class="cls-1" d="M186.17,8.74A25.52,25.52,0,0,1,207.11,20.1,7.86,7.86,0,0,1,208.63,24a5,5,0,0,1-5.21,5.8,17.91,17.91,0,0,1-8.56-2.46A24.5,24.5,0,0,1,181.77,11c-.42-1.67-.31-1.8,1.39-2Z"/><path class="cls-1" d="M113,8.71c1.5,0,2.59.06,3.69.18s1.17.54,1,1.42a24.74,24.74,0,0,1-5.4,11,26.33,26.33,0,0,1-12.57,8.05,9.43,9.43,0,0,1-4.25.48,5.09,5.09,0,0,1-4.36-6.81,14.12,14.12,0,0,1,3.38-5.6,25.24,25.24,0,0,1,16.09-8.6C111.48,8.73,112.43,8.74,113,8.71Z"/><path class="cls-1" d="M249.58,291.11h-3.19a1.4,1.4,0,0,1-1.57-1.54q0-9,0-18c0-.82.39-1.48,1.25-1.49a37.12,37.12,0,0,1,7.15.11c3.94.66,6.11,3.29,7.14,7a13.27,13.27,0,0,1-.47,8.37,8.16,8.16,0,0,1-8,5.57h-2.28Zm-2-10.6c0,2.39,0,4.78,0,7.16,0,.78.28,1.11,1.07,1.07,1,0,2,0,3,0a5.79,5.79,0,0,0,5.17-3.36,11.65,11.65,0,0,0,.78-7.34,6.36,6.36,0,0,0-6.36-5.57c-.83,0-1.67,0-2.5,0s-1.14.31-1.12,1.14C247.63,275.88,247.61,278.19,247.61,280.51Z"/><path class="cls-1" d="M8.58,291.12H5.28a1.31,1.31,0,0,1-1.48-1.47q0-9.11,0-18.2A1.2,1.2,0,0,1,5,270.1a40.47,40.47,0,0,1,7.05.09c4.09.65,7,4,7.5,8.46A13.23,13.23,0,0,1,18.11,287a7.86,7.86,0,0,1-7.14,4.1Zm.83-2.38c2.65.18,5.07-.67,6.35-3.45a11.17,11.17,0,0,0,.27-8.87,5.78,5.78,0,0,0-4.72-3.82c-1.14-.19-2.28-.08-3.41-.18s-1.36.39-1.35,1.39c0,4.1,0,8.2,0,12.3C6.58,289.12,6.25,288.7,9.41,288.74Z"/><path class="cls-1" d="M161.72,291.12c-1.18,0-2.36,0-3.54,0a1.31,1.31,0,0,1-1.47-1.26,10.24,10.24,0,0,1-.09-1.36q0-7.9,0-15.82a8.9,8.9,0,0,1,.12-1.46,1.26,1.26,0,0,1,1.34-1.15h7.52a1.16,1.16,0,0,1,1.28,1.28,1.18,1.18,0,0,1-1.29,1.28c-1.71,0-3.42,0-5.13,0-.78,0-1.09.27-1.07,1.07,0,1.51,0,3,0,4.55,0,.82.24,1.17,1.11,1.14,1.36,0,2.73,0,4.1,0,1.18,0,1.84.47,1.76,1.28-.11,1.07-.89,1.31-1.81,1.31-1.36,0-2.73,0-4.1,0-.78,0-1.08.29-1.06,1.08,0,1.47,0,3,0,4.43,0,.81.33,1.07,1.09,1,1.59,0,3.19,0,4.78,0,.91,0,1.61.29,1.62,1.32s-.75,1.28-1.63,1.27Z"/><path class="cls-1" d="M23.66,280.58c0-2.81,0-5.62,0-8.43,0-1.67.43-2.09,2.08-2.09H32c.94,0,1.82.08,1.91,1.27.07.91-.58,1.33-2,1.33s-3,0-4.45,0c-.77,0-1.09.26-1.07,1.06,0,1.51,0,3,0,4.55,0,.83.27,1.17,1.12,1.14,1.37,0,2.74,0,4.11,0,.88,0,1.62.16,1.69,1.23,0,.86-.55,1.34-1.72,1.36-1.37,0-2.74,0-4.11,0-.77,0-1.1.26-1.08,1.06q0,2.22,0,4.44c0,.8.31,1.08,1.08,1.06,1.56,0,3.12,0,4.68,0,1.14,0,1.79.51,1.72,1.35-.08,1.05-.83,1.24-1.71,1.24H25.61c-1.51,0-1.93-.42-1.94-2C23.65,286.28,23.66,283.43,23.66,280.58Z"/></svg>