<svg id="Capa_1" data-name="Capa 1" xmlns="http://www.w3.org/2000/svg" viewBox="0 0 300 106.7"><defs><style>.cls-1{fill:#f6f6f6;}</style></defs><path class="cls-1" d="M83,17c.65,0,1.3,0,1.94,0a14.87,14.87,0,0,1,3,.25c1.68.28,3.36.55,5,1a38.7,38.7,0,0,1,10.44,4.56,50.44,50.44,0,0,1,4.9,3.59c.16.13.3.27.21.49a.44.44,0,0,1-.49.24L104.93,27c-.42,0-.84-.08-1.26-.07a15.52,15.52,0,0,0-9.76,3.43c-.41.32-.8.67-1.19,1a6.16,6.16,0,0,1-1.4.92,3.47,3.47,0,0,1-3.06-.11,7.9,7.9,0,0,0-2.73-.81,3.58,3.58,0,0,0-3.09,1.12A6.19,6.19,0,0,0,81.34,34a1.8,1.8,0,0,0,.26,2.19c.4.46.82.89,1.19,1.37A.91.91,0,0,1,82.28,39a1.56,1.56,0,0,1-.8,0l-.73-.19c-.74-.22-1-.07-1.06.7-.06.61-.11,1.23-.18,1.84a4.49,4.49,0,0,1-1.82,3.25,3.05,3.05,0,0,0-.61.52.73.73,0,0,0-.06.93,1.65,1.65,0,0,0,1.07.77,1.27,1.27,0,0,0,1.27-.38c.3-.35.59-.72.88-1.08a3.72,3.72,0,0,1,.59-.6,1.53,1.53,0,0,1,1.66-.22,5.06,5.06,0,0,1,.88.49l.63.42a2.22,2.22,0,0,0,2.47.09A12.5,12.5,0,0,1,88,45a6.14,6.14,0,0,1,.73-.22,1.51,1.51,0,0,1,2,1.19A1.72,1.72,0,0,1,90,48.1a6.81,6.81,0,0,1-2.76,1,7.5,7.5,0,0,1-3.81-.48,4.42,4.42,0,0,0-3.37.07A6,6,0,0,0,77,51.2a3.42,3.42,0,0,0-.35.81,8.32,8.32,0,0,0,.06,5.06,7.07,7.07,0,0,0,2,3,2.24,2.24,0,0,0,2.37.4c.25-.08.49-.21.73-.31a4.34,4.34,0,0,1,2.09-.43,3,3,0,0,1,2.37,1.51,17.32,17.32,0,0,1,1.94,4.24,5.67,5.67,0,0,1,.16,2,1.36,1.36,0,0,0,.3,1c1.27,1.63,2.52,3.28,3.78,4.91a4.4,4.4,0,0,0,.46.5.77.77,0,0,0,.9.13,3.14,3.14,0,0,0,.93-.72,5,5,0,0,0,1.48-3.18A10.68,10.68,0,0,0,96.26,69a5.9,5.9,0,0,1,.62-2.65,3.29,3.29,0,0,0,.32-.91,2.54,2.54,0,0,0-.49-2A3.43,3.43,0,0,1,96,61a4.74,4.74,0,0,1,.64-1.86c.29-.5.65-1,1-1.44A3.32,3.32,0,0,0,98,56.7a1.32,1.32,0,0,0-.8-1.65,7.18,7.18,0,0,0-1.09-.33,8.05,8.05,0,0,1-2.79-1.36,5.89,5.89,0,0,1-1.18-1.31,2.77,2.77,0,0,1-.41-1.19.78.78,0,0,1,.34-.88.74.74,0,0,1,.92.22c.25.22.48.47.71.71a3.15,3.15,0,0,0,3.94.51A2.5,2.5,0,0,0,98.72,50c.08-.23.13-.46.19-.69a4.64,4.64,0,0,1,.69-1.58,3,3,0,0,1,4.29-.62,6.76,6.76,0,0,1,1.22,1.34c.76,1,1.5,2,2.26,3,.12.17.22.4.48.34s.36-.31.38-.55c0-.56.08-1.13.11-1.69s0-1.06.1-1.59A1.74,1.74,0,0,1,111,46.51a2.64,2.64,0,0,1,1.16,1.13,12.73,12.73,0,0,1,.56,1.18,3.89,3.89,0,0,0,.78,1.19,1.69,1.69,0,0,0,2.26-.09,2,2,0,0,0,.16-2.53,3.6,3.6,0,0,0-.79-.86,3.43,3.43,0,0,1-.59-.55,1.41,1.41,0,0,1,.37-2.18,4.49,4.49,0,0,0,1.3-1,2.65,2.65,0,0,0,.55-2.1,5.91,5.91,0,0,1-.12-1.26,1.43,1.43,0,0,1,.17-.6.6.6,0,0,1,.56-.31c.23,0,.33.19.41.38a42.27,42.27,0,0,1,2.51,7.33,39.9,39.9,0,0,1,.87,5.54,41.76,41.76,0,0,1,.14,4.33c0,.49-.06,1-.09,1.48a2.41,2.41,0,0,1-.07.37c-.08.26-.22.35-.48.27A5.3,5.3,0,0,1,120,58a3.24,3.24,0,0,0-2.39-.15,2.43,2.43,0,0,0-1.51,1.26,29.62,29.62,0,0,1-3.51,5.15.39.39,0,0,0-.08.1,2.2,2.2,0,0,0,.36,3.25,2,2,0,0,0,1.8.31,13.6,13.6,0,0,0,2-.69,6.15,6.15,0,0,1,1.59-.38c.1,0,.2,0,.29,0a.5.5,0,0,1,.52.62A2.3,2.3,0,0,1,119,68a47,47,0,0,1-3,6.19,40.6,40.6,0,0,1-3.91,5.65A35.85,35.85,0,0,1,105.34,86a34.8,34.8,0,0,1-4.66,2.79,39.76,39.76,0,0,1-8.27,3,47.6,47.6,0,0,1-6,1.08,35.63,35.63,0,0,1-6,.16,34.06,34.06,0,0,1-9.26-1.74,36.79,36.79,0,0,1-8.34-4,42.1,42.1,0,0,1-8.3-6.93,36.35,36.35,0,0,1-5.23-7.33A38.25,38.25,0,0,1,45.35,62c-.29-1.5-.47-3-.62-4.55a2.44,2.44,0,0,1,0-.54.36.36,0,0,1,.49-.33,2.14,2.14,0,0,1,.39.16,17.36,17.36,0,0,1,2,1.18,2.87,2.87,0,0,1,1.18,1.69,3.93,3.93,0,0,0,3.33,3,5.17,5.17,0,0,0,1.18.08A6,6,0,0,1,57,63.77c.36.23.69.48,1,.73a3.44,3.44,0,0,0,1.16.59c.38.1.42.2.3.58a9,9,0,0,0-.42,2.53,5,5,0,0,0,1.36,3.49,9.7,9.7,0,0,0,2.74,2,1.51,1.51,0,0,0,.35.14A3.48,3.48,0,0,1,66,76.23c.27.76.45,1.54.67,2.31.62,2.14,1.3,4.25,2,6.37.14.43.25.86.41,1.29a4.17,4.17,0,0,0,3.27,2.72,1,1,0,0,0,.7-.11.49.49,0,0,0,.14-.79c-.11-.13-.24-.24-.36-.36a3.66,3.66,0,0,1-1.06-3.16c.07-.58.17-1.17.23-1.75a1,1,0,0,1,.65-.93,1.22,1.22,0,0,0,.71-.79,6.93,6.93,0,0,0,.31-1.49c.16-1.24.28-2.48.51-3.71a9.21,9.21,0,0,1,.56-2,3.82,3.82,0,0,1,.66-1.07,3.9,3.9,0,0,0,.31-.4,1.48,1.48,0,0,0,.16-1.59,1,1,0,0,0-.11-.23,3.87,3.87,0,0,1-.66-2.6,4.33,4.33,0,0,0-.42-2,1.6,1.6,0,0,0-1.53-1.06c-.52,0-1,0-1.56-.07a11.54,11.54,0,0,1-4.89-1.47,12,12,0,0,0-1.38-.71,3.33,3.33,0,0,0-3.15.28,8,8,0,0,0-.88.65l-.46.38a1.39,1.39,0,0,1-1.72.1,4,4,0,0,1-1.52-1.43A2.5,2.5,0,0,0,56,61.55c-.51-.16-1-.3-1.52-.49a3.14,3.14,0,0,1-1.09-.7,2.42,2.42,0,0,1-.13-3.3,3.66,3.66,0,0,1,2.62-1.27h.46a1,1,0,0,0,1-.68A7.43,7.43,0,0,0,57.77,54a9.58,9.58,0,0,1,3.6-5.54,6.46,6.46,0,0,0,2-2.45,5.1,5.1,0,0,0,.46-1.62,2.74,2.74,0,0,0-1.39-2.77,3.51,3.51,0,0,0-1.5-.53,2.6,2.6,0,0,0-2.3.91c-.43.48-.77,1-1.25,1.47a3.07,3.07,0,0,1-1.47.79,2.76,2.76,0,0,1-2.81-1,2.67,2.67,0,0,1,.2-3.74,9.33,9.33,0,0,0,.81-.85,1,1,0,0,0,.19-1.13,1.08,1.08,0,0,0-1.11-.55,10.05,10.05,0,0,0-1.2.21,16.61,16.61,0,0,0-1.94.58,5.91,5.91,0,0,1-.69.19c-.32,0-.45-.13-.34-.42a.71.71,0,0,1,.08-.15,33.91,33.91,0,0,1,3-4.71,43.47,43.47,0,0,1,5.29-5.89,36.1,36.1,0,0,1,7.13-5.14,38.18,38.18,0,0,1,11.85-4.14c1.06-.19,2.11-.32,3.17-.46a5.78,5.78,0,0,1,.93,0ZM68.23,38.43a.71.71,0,0,0,.85-.58c0-.09.06-.19.1-.28a3.33,3.33,0,0,1,1.5-1.86A5.7,5.7,0,0,1,72,35.14a4.25,4.25,0,0,0,3.09-3.31,1.41,1.41,0,0,0-.64-1.57,3.3,3.3,0,0,0-1-.41,8.23,8.23,0,0,0-2.71-.21,20.44,20.44,0,0,0-3.82.63,7.21,7.21,0,0,0-1.94.82.7.7,0,0,0-.24,1.16,9.5,9.5,0,0,0,.62.8A1.66,1.66,0,0,1,65.69,35a1.88,1.88,0,0,0-.15,1.28A3,3,0,0,0,68.23,38.43Z"/><path class="cls-1" d="M46.53,92.87a3.4,3.4,0,0,1-3.47-2.1C41.32,87,39.58,83.25,37.8,79.5a58.74,58.74,0,0,0-3.34-6.39,17.58,17.58,0,0,0-2.87-3.73,4.7,4.7,0,0,0-.55-.45,2,2,0,0,0-2.12-.15,7.26,7.26,0,0,0-2.32,1.87,44.54,44.54,0,0,0-4.7,6.78c-1.65,2.82-3.15,5.72-4.66,8.6Q16,88.4,14.72,90.76a4.1,4.1,0,0,1-3.05,2.1,3.92,3.92,0,0,1-4.6-4.1,3.09,3.09,0,0,1,.45-1.48C8.26,86,9,84.81,9.77,83.57c1.91-3.16,3.76-6.34,5.49-9.59a104.25,104.25,0,0,0,5.11-10.92,51.82,51.82,0,0,0,3-10.86,13.71,13.71,0,0,0,0-4.78,4.51,4.51,0,0,0-3.27-3.72,22,22,0,0,0-4.33-.88c-1.51-.17-3-.28-4.54-.34S8.44,42.34,7,42.22a3.42,3.42,0,0,1-2.9-1.62,3.65,3.65,0,0,1,0-3.71,3.23,3.23,0,0,1,3-1.77A8.91,8.91,0,0,1,9,35.41c2.52.49,5,1,7.57,1.44,1.29.21,2.59.36,3.89.48a37.56,37.56,0,0,0,5,.14,16.27,16.27,0,0,0,4.05-.55,11.15,11.15,0,0,0,4.33-2.53,24.6,24.6,0,0,0,4.5-5.76,61.77,61.77,0,0,0,3.48-7.07,6.42,6.42,0,0,1,.59-1.17,3.63,3.63,0,0,1,3.19-1.72,3.75,3.75,0,0,1,3.57,2.25A3.29,3.29,0,0,1,49,24.3c-.43.69-.93,1.34-1.39,2a70,70,0,0,0-4.69,7.75,51.92,51.92,0,0,0-2.63,5.79,34.54,34.54,0,0,0-1.6,6.33,38.47,38.47,0,0,0-.48,4.27,34.14,34.14,0,0,0-.06,4.17c.07,1,.09,1.91.18,2.86a45.1,45.1,0,0,0,.83,5.29A55.41,55.41,0,0,0,42.49,73.1a95.87,95.87,0,0,0,6.68,12.48c.26.42.53.82.79,1.24a3.9,3.9,0,0,1,.16,4.2A3.29,3.29,0,0,1,48,92.69,5.5,5.5,0,0,1,46.53,92.87Z"/><path class="cls-1" d="M166.83,53.23a29.1,29.1,0,0,1-.81,6.89,17.74,17.74,0,0,1-5.39,8.93,16.36,16.36,0,0,1-8,3.91,23.3,23.3,0,0,1-4.4.39,18.24,18.24,0,0,1-10.41-3.19,15.65,15.65,0,0,1-5.48-6.7,25,25,0,0,1-1.87-6.33,21.69,21.69,0,0,1-.24-4.83,22.25,22.25,0,0,1,3.15-10.13A15.53,15.53,0,0,1,142.68,35a21.8,21.8,0,0,1,5.32-.79,20,20,0,0,1,5.72.59,16.78,16.78,0,0,1,6.7,3.53,17.37,17.37,0,0,1,5.57,9,26.61,26.61,0,0,1,.84,4.93C166.86,52.52,166.83,52.88,166.83,53.23Zm-27.15.82c0,.26,0,.72.07,1.18a11.91,11.91,0,0,0,1.39,5.29,8.13,8.13,0,0,0,8,4.55A7.67,7.67,0,0,0,155,62a11.37,11.37,0,0,0,2.33-6.45c.06-1,0-2.07,0-3.11a9.82,9.82,0,0,0-.19-1.8,11.6,11.6,0,0,0-1.93-4.9A7.62,7.62,0,0,0,151.94,43a8.76,8.76,0,0,0-4.08-.66A8.25,8.25,0,0,0,144,43.64a8.4,8.4,0,0,0-3.23,4.06A17.06,17.06,0,0,0,139.68,54.05Z"/><path class="cls-1" d="M236.11,50.14a1.47,1.47,0,0,0-.05.57c0,5.51,0,11,0,16.53a8,8,0,0,1-.62,3.21,3.59,3.59,0,0,1-3.17,2.23,4.84,4.84,0,0,1-1.47,0,3.61,3.61,0,0,1-2.62-2,7,7,0,0,1-.75-3.17c0-1.64,0-3.29,0-4.93q0-11,0-22.06a9.39,9.39,0,0,1,.34-2.75,3.91,3.91,0,0,1,2.81-2.88,4.13,4.13,0,0,1,3.34.62,7.08,7.08,0,0,1,1.92,1.82q2.22,2.9,4.41,5.81L248.49,54c.79,1,1.58,2.08,2.38,3.11.06.09.11.24.24.21s.14-.19.16-.31a.5.5,0,0,0,0-.21c-.1-1.6-.07-3.2,0-4.8.08-3,0-6.08,0-9.11,0-.86,0-1.71,0-2.57a12.08,12.08,0,0,1,.38-2.54,4,4,0,0,1,1.39-2.25,3.35,3.35,0,0,1,1.45-.65,5.6,5.6,0,0,1,2.34,0A3.42,3.42,0,0,1,259.34,37a7.33,7.33,0,0,1,.59,2.92V68.21a6,6,0,0,1-.41,2.27,3.64,3.64,0,0,1-2.63,2.4,4.1,4.1,0,0,1-2.71-.32,7.46,7.46,0,0,1-2.7-2.25c-1.42-1.82-2.81-3.66-4.2-5.5l-7.8-10.28-2.91-3.83Z"/><path class="cls-1" d="M296.41,49.06c0,2.92,0,5.84,0,8.77a13.83,13.83,0,0,1-.26,2.8,18.14,18.14,0,0,1-1.8,5.33,13.05,13.05,0,0,1-7.3,6.3,19.38,19.38,0,0,1-5.06,1,18.73,18.73,0,0,1-8-1,13,13,0,0,1-7.42-6.51,18.26,18.26,0,0,1-1.9-6.53,29.72,29.72,0,0,1-.14-3q0-7.83,0-15.65a8.59,8.59,0,0,1,.6-3.47,3.48,3.48,0,0,1,2.11-2.1,4.94,4.94,0,0,1,3.51.1,3.24,3.24,0,0,1,1.6,1.5,7.26,7.26,0,0,1,.79,2.7c.08.7.07,1.4.08,2.1,0,5,0,10,0,14.93a11.68,11.68,0,0,0,1.19,5.31A5.92,5.92,0,0,0,279,65a8.73,8.73,0,0,0,4.09-.29,5.92,5.92,0,0,0,3.84-3.53,11,11,0,0,0,.78-3.1,27.68,27.68,0,0,0,.15-3.15q0-7,0-14a9.62,9.62,0,0,1,.67-3.83,3.42,3.42,0,0,1,3.27-2.23,5.21,5.21,0,0,1,2,.23,3.21,3.21,0,0,1,1.83,1.54,6.22,6.22,0,0,1,.8,3C296.39,42.73,296.41,45.89,296.41,49.06Z"/><path class="cls-1" d="M200.52,68.83A3.88,3.88,0,0,1,197,72.76a4.09,4.09,0,0,1-4.38-2.11,12.91,12.91,0,0,1-1.2-3.05c-.13-.43-.23-.87-.37-1.3-.23-.75-.49-1-1.28-1h-11.6a1.09,1.09,0,0,0-1.24.91c-.32.94-.57,1.91-.94,2.84a9.59,9.59,0,0,1-1.11,2.13,4,4,0,0,1-5.78.59,4.24,4.24,0,0,1-1.32-2.71,7.37,7.37,0,0,1,.59-3.5l5.52-14.91c1.31-3.53,2.61-7.06,3.93-10.59a11.51,11.51,0,0,1,1.76-3.25,5.66,5.66,0,0,1,4-2.17,6.39,6.39,0,0,1,4,.85,6.52,6.52,0,0,1,2.54,3c.57,1.27,1,2.58,1.49,3.9q2.49,7,5,14.11l2.89,8.23c.22.63.44,1.25.65,1.88A6.78,6.78,0,0,1,200.52,68.83ZM184.16,44.48a.64.64,0,0,0-.28.44q-1.94,5.74-3.86,11.5c-.23.69-.09.88.62.88h6.62c.74,0,.88-.19.66-.9s-.46-1.42-.68-2.13q-1.41-4.48-2.8-9C184.35,45.05,184.26,44.79,184.16,44.48Z"/><path class="cls-1" d="M223.21,51.07c0,3.67,0,7.34,0,11A13.47,13.47,0,0,1,221.84,68a8.69,8.69,0,0,1-6.22,4.86,16.63,16.63,0,0,1-3.85.41,11.66,11.66,0,0,1-7.12-2.35,4.64,4.64,0,0,1-2-3,4.09,4.09,0,0,1,1.79-4.33,3.84,3.84,0,0,1,3-.44,10,10,0,0,1,2.33,1,5.82,5.82,0,0,0,1.93.7,1.9,1.9,0,0,0,2-.9,4.81,4.81,0,0,0,.64-2,25.61,25.61,0,0,0,.19-3.61c0-5.8,0-11.59,0-17.38a10.38,10.38,0,0,1,.5-3.45,6.07,6.07,0,0,1,.29-.7,3.39,3.39,0,0,1,3.19-2,5.11,5.11,0,0,1,2.12.27,3.45,3.45,0,0,1,1.82,1.67,7.42,7.42,0,0,1,.69,2.34,12.16,12.16,0,0,1,.08,1.6V51.07Z"/><path class="cls-1" d="M18.8,27.29a7,7,0,1,1,7,7A6.94,6.94,0,0,1,18.8,27.29Z"/></svg>