<svg id="Capa_1" data-name="Capa 1" xmlns="http://www.w3.org/2000/svg" viewBox="0 0 300 153.6"><defs><style>.cls-1{fill:#f6f6f6;}</style></defs><path class="cls-1" d="M240.86,126.19l-7-5.41A34.56,34.56,0,0,1,225,105.53q-.61-4.61-1.24-9.19a26.18,26.18,0,0,1,3-13.32,26,26,0,0,1,7.15-11.13A26,26,0,0,1,245,64.74a26,26,0,0,1,12.47-3q2.9-8.09,5.82-16.17a1.23,1.23,0,0,0-.17-1.28q-3.51-4.89-7-9.81a.9.9,0,0,0-.82-.45c-2,0-4-.12-6-.14-.52,0-.76-.16-.88-.67-.34-1.41-.76-2.8-1.07-4.22a1.82,1.82,0,0,0-1.6-1.56c-1.36-.26-1.62-.55-1.86-1.9a6.4,6.4,0,0,1-.06-1.07c0-1-.22-1.34-1.22-1.65a9.93,9.93,0,0,0-2.92-.38h-6.26a4.75,4.75,0,0,1-1.19-.17c-.51-.14-.73-.47-.49-1a3.64,3.64,0,0,0,.28-1.17c.11-.79-.24-1.21-1-1.17a30.12,30.12,0,0,1-3.29.09,3.07,3.07,0,0,1-3-1.79.54.54,0,0,0-.63-.36,4.45,4.45,0,0,0-1.48.44,1.09,1.09,0,0,1-1.38-.31,7.25,7.25,0,0,1-1-1.49A2.94,2.94,0,0,0,218.1,14a11.8,11.8,0,0,0-2-.37,30.39,30.39,0,0,0-8.82.67,16.88,16.88,0,0,0-6,2.36c-.51.35-.75.71-.48,1.34a6.12,6.12,0,0,1,.37,1.35,16.4,16.4,0,0,1,.59,5.44c-.06.48-.17,1-.67,1.16A13.58,13.58,0,0,0,197.9,28a7,7,0,0,0,1.2,2.73.64.64,0,0,1,.13.63,7.75,7.75,0,0,0,.06,2.8,9.08,9.08,0,0,1-.36,4.62,2.17,2.17,0,0,0-.23,1.68c.1.28-.14.56-.37.75a1.11,1.11,0,0,0-.42,1.06,2.57,2.57,0,0,1-.78,2.19c-.44.44-.45,1.06-.66,1.6a16.55,16.55,0,0,1-2.88,4.58,39.68,39.68,0,0,1-3,3.39,22.78,22.78,0,0,1-5.69,4.34,3.08,3.08,0,0,0-.48.35c0,4.08,0,8.17-.07,12.25a.68.68,0,0,0,.43.77,17.21,17.21,0,0,0,3.91,1.21,20.18,20.18,0,0,1,4.7,1.33,3.4,3.4,0,0,1,2.08,3.32,18.13,18.13,0,0,0,.12,2.08c.09.86.47,1.13,1.31,1a15.7,15.7,0,0,1,3.27-.32c.93,0,1.08.14,1,1.06a4.91,4.91,0,0,0,.67,3,2.28,2.28,0,0,1,.28,1.68c-.09.52-.21,1-.34,1.57-1,4.1-2.22,8.12-3.41,12.15a6,6,0,0,0-.47,1.88c.09,1.86.2,3.71.37,5.57.34,3.83.57,7.68.6,11.53.07,7.18,0,14.36.16,21.53a20.81,20.81,0,0,1,0,2.09c0,.57.16.71.72.71q15.58-.06,31.18-.05c.59,0,.76-.15.75-.75,0-4.15,0-8.3-.07-12.45,0-.53.14-.69.68-.67,2.62.1,5.24.17,7.86.25.26,0,.57.11.74-.19.44-.76,1-1.47,1.45-2.22C241.9,126.77,241.37,126.49,240.86,126.19Z"/><path class="cls-1" d="M244.13,126.43a15.78,15.78,0,0,0-2.4-1.45,34.27,34.27,0,0,1-8.26-7.21,33.3,33.3,0,0,1-6.8-13.72,36.24,36.24,0,0,1-.78-5.5,33.34,33.34,0,0,1,11.24-27.13,33.12,33.12,0,0,1,16.17-7.85,47.71,47.71,0,0,1,5.06-.55,32.89,32.89,0,0,1,11.89,1.88c12.18,4.59,19.75,13.27,22,26.07a33.45,33.45,0,0,1-47.45,35.69C244.59,126.56,244.4,126.38,244.13,126.43Zm-2-26.83c.13.12.27.23.39.36,2,2.1,4,4.19,6,6.3a4.82,4.82,0,0,0,1.18.89c.17.1.37.26.55.11s.08-.38,0-.57a2,2,0,0,0-.15-.51,9.65,9.65,0,0,1-.64-2c-.4-1.83-.4-3.7-.62-5.55a2.84,2.84,0,0,0-1.15-2.15A34.29,34.29,0,0,0,242,93.12a22.37,22.37,0,0,0-5.61-2c-.42-.08-.56,0-.51.43a44.35,44.35,0,0,0,2.4,10.79,18.18,18.18,0,0,0,4.4,7.15,8.5,8.5,0,0,0,7,2.38c-3.22-3.73-5.46-8-7.76-12.17Zm39.36-20.82a9.45,9.45,0,0,0-1.21,0,27.51,27.51,0,0,0-2.72.44,60.23,60.23,0,0,0-15,5.82,20.91,20.91,0,0,0-6.8,5.29c-4.12,5.15-5.12,10.82-2.77,17a7.83,7.83,0,0,0,1.83,2.87c.49.48.61.45.75-.19s.29-1.36.4-2.05a43.48,43.48,0,0,1,2.55-9.78c2.22-5.32,5.74-9.37,11.21-11.53.15-.06.29-.21.5,0a1.65,1.65,0,0,1-.24.22,22.07,22.07,0,0,0-6.06,7.88c-2.54,5.42-3.31,11.22-3.5,17.12A1.49,1.49,0,0,0,262,113.5a9.28,9.28,0,0,0,3.69-.55c3.2-1,5.68-2.71,6.9-6a42.13,42.13,0,0,0,2-9.85,75.4,75.4,0,0,1,1.22-8.71,16,16,0,0,1,4.7-8.73Z"/><path class="cls-1" d="M69.75,62.65c.78-.63.45-1.55.62-2.34s.5-1.63.75-2.44a21.33,21.33,0,0,0,.9-3.16,16.93,16.93,0,0,1,.94-3,.68.68,0,0,0,.07-.26,3.78,3.78,0,0,1,.82-2.53,8,8,0,0,0,.58-1.79A5.65,5.65,0,0,1,75.52,45c.19-.22.48-.5.33-.76-.32-.54.06-.8.33-1.13a12.4,12.4,0,0,0,1.91-3.15A40.59,40.59,0,0,1,88,25.74a13.14,13.14,0,0,1,6.39-3.22,1.06,1.06,0,0,1,1,.14c.89.87,1.92.52,2.93.4a6.26,6.26,0,0,0,2.11-.66c.65-.33,1.06-1.12,2-.93.15,0,.37-.35.57-.55a2,2,0,0,0-1.49-.31,2.51,2.51,0,0,0-.27,0c-.38.05-.89.07-1-.32s.38-.57.73-.67a4.85,4.85,0,0,0,1.74-.84c.29-.23.47-.13.53.18.2.94.65,1.26,1.67,1.13a.7.7,0,0,0,.48-.19.57.57,0,0,0-.52-.36c-.76,0-.71-.43-.46-.95.36.09.58.4.86.61a1.37,1.37,0,0,0,1.58.15,3.27,3.27,0,0,1,2.52-.27,16.58,16.58,0,0,1,6.1,2.17c.26.16.47.3.58-.13,0-.08.09-.14.14-.2.42.37,1.09-.1,1.47.45.18.28.49.47.68.74a1.25,1.25,0,0,0,1.42.62.83.83,0,0,1,1,.57c.24.57,1,.48,1.48.6a1.87,1.87,0,0,1,.76.23c.13.1.23.19.1.38s-.55.33-.36.62a1.75,1.75,0,0,0,.89.78.29.29,0,0,0,.13,0c.3,0,.06.5.41.37s0-.36.1-.5a.3.3,0,0,1,.42-.11,3.84,3.84,0,0,1,1.77,1.87l-1.9-1.12a5.37,5.37,0,0,0,1.57,2,12.07,12.07,0,0,1,2.23,2.5,1.33,1.33,0,0,0,.82.53c.72.21,1.42.43,1.48,1.39,0,.23.37.43.55.66a26.65,26.65,0,0,1,2.46,4.23c.21.42,0,.89.11,1.33s-.27,1.26.76,1c0,0,.14.07.14.11,0,.69.65,1,.91,1.59s-.25.75-.28,1.16a1.26,1.26,0,0,0,0,.58c.3.79.62,1.58.92,2.38.11.29.29.57.63.44s.12-.42.08-.65a8,8,0,0,0-.67-1.82,1.31,1.31,0,0,1-.16-1c.27.06.34.28.43.48.39.87.87,1.71,1.25,2.59.2.48.15,1.08.37,1.6a36.45,36.45,0,0,1,2.22,9.94c.14,1.24.26,2.49.38,3.74a21.1,21.1,0,0,1-.44,5.82,10.16,10.16,0,0,0-.07,2.76c.34-.13.23-.52.51-.66.29.38,0,.77,0,1.14s-.31.65-.76.66c-.28,0-.24.3-.27.47a24.77,24.77,0,0,1-3.59,9.43,37.62,37.62,0,0,1-4.58,6.53c-.81.82-1.42,1.84-2.22,2.68-.53.55-1,1.14-1.84,1.21A1.83,1.83,0,0,0,126,92.58c-.11.83-.67.63-1,.79s-.61.3-.57.76c.05.62-.44.74-.88.67a.5.5,0,0,0-.5.18,9.12,9.12,0,0,1-3.72,2.21c-1.22.49-2.47.94-3.69,1.45-.18.07-.42.19-.57.13a1.28,1.28,0,0,0-1.34.32c-1.48,1-3.22,1.06-4.89,1.29a32,32,0,0,1-7.32,0,1.93,1.93,0,0,0-.86.08.57.57,0,0,1-.52,0,3.88,3.88,0,0,0-2.62-.21,17.41,17.41,0,0,1-5.89-.28,21.43,21.43,0,0,0-3.76-.12H87a.51.51,0,0,1-.46-.22c-.14-.25.26-.21.22-.43A8,8,0,0,1,84.31,99c-.36-.14-.79-.17-1-.63-.07-.18-.31-.14-.48-.19s-.36,0-.37-.2c0-.65-.52-.7-1-.84a1.39,1.39,0,0,1-1-.68.86.86,0,0,0-1.07-.32.61.61,0,0,1-.72-.16,22.37,22.37,0,0,1-5.58-7.33c-.15-.31-.36-.64-.28-1A2.19,2.19,0,0,0,72.33,86a20.16,20.16,0,0,1-2.69-10.48,1.31,1.31,0,0,0-.23-1c-.22-.27-.09-.71,0-1a1.14,1.14,0,0,0,0-.92,4.54,4.54,0,0,1-.2-2.25,3.26,3.26,0,0,0,0-1.32,5.45,5.45,0,0,1,0-1.34c0-.18,0-.36.17-.48.54-.31.48-.76.34-1.28s-.45-.92.21-1.28c.26-.15.07-1.74-.16-1.94Zm58.78,13.51c.53-.33.19-.84.25-1.26,0-.09-.09-.15-.2-.12s-.22.2-.16.24c.43.36,0,.78.12,1.15l-.08,0s0,0,0,0S128.52,76.18,128.53,76.16Zm2.28-22.33c.11-.34.29-.69-.21-.89.11.28-.32.7.23.88a4,4,0,0,1,.23,2,.34.34,0,0,0,.16-.16c0-.18.07-.39.31-.35s.09.26.1.4c0,.4-.09.83.16,1.14.86-1.48.24-2.91-.17-4.48a2.78,2.78,0,0,0-.19.35c-.08.23-.13.47-.23.7S131.18,53.93,130.81,53.83ZM133,78c-.08,0-.21,0-.23-.09a1.16,1.16,0,0,1,.26-1.12c.13-.17.45-.33-.05-.56-.29-.12,0-.51.14-.74s.27,0,.38.12a.52.52,0,0,0,.62.1c.27-.1.14-.34.11-.52-.12-.56-.41-1.08,0-1.67A3.69,3.69,0,0,0,135,71c0-.22.16-.76.63-.27a.38.38,0,0,0,.23,0,3.64,3.64,0,0,0,.16-.85c0-.42-.38,0-.56-.22a1,1,0,0,0,.29-1.38.83.83,0,0,1,0-.78,2,2,0,0,0,.2-1.16c0-1.33,0-2.65,0-4,0-.19-.16-.44.27-.56.22-.06.28-.67-.05-.81s-.54-.43-.89-.61a28.17,28.17,0,0,1-.08,4.23c-.21,1.26,0,2.61-1,3.74a2.76,2.76,0,0,0-.32,1.85,8.41,8.41,0,0,1-1.22,4.28c-.54,1.1-.94,2.26-1.55,3.35s-.71,2.19-1.33,3.19c-.06.1-.25.32.05.35.53,0,.26.27.11.45s-.34.32-.35.62a1.28,1.28,0,0,0,1.17-1.24A2.67,2.67,0,0,1,132.08,79a12.56,12.56,0,0,0,.95-.85c.05,0,.18,0,.12-.14S133,78,133,78Zm-16.13,7.58a2.37,2.37,0,0,0,.33-.22,28.48,28.48,0,0,0,5.9-6.86,21.69,21.69,0,0,1,2.57-3.68,1.73,1.73,0,0,0,.48-1.29c0-.15.08-.36-.13-.41s-.3.15-.34.33a4.94,4.94,0,0,1-.56,1.43,4.55,4.55,0,0,1,.7-2.62s0,0,.06,0c.45.21.48-.2.58-.42a28.25,28.25,0,0,0,1.92-8,.53.53,0,0,0-.18-.51c-.21.12-.26.34-.34.54a6.68,6.68,0,0,0-.57,2.2c0,.15,0,.33-.11.44a4.51,4.51,0,0,0-1.34,2.62,23.31,23.31,0,0,1-.94,3.08c-2.13,4.78-4.35,9.5-8.15,13.26,0,.07-.14.18-.13.19S116.77,85.7,116.84,85.62ZM94.05,88.41c.43,0,.5.42.72.66a25.13,25.13,0,0,1,2.14,2.49c.65.93,1.09,1.24,2.2,1,.76-.19,1.51-.42,2.25-.67a43.71,43.71,0,0,0,8.27-4.33,3.26,3.26,0,0,0,1-.88,3,3,0,0,1,1.25-1,2.27,2.27,0,0,0,.74-.56c1.37-1.58,3-2.91,4.13-4.73a60.67,60.67,0,0,0,3.58-5.75A27.79,27.79,0,0,0,122.85,65a29.59,29.59,0,0,0-.1-7.58,4.54,4.54,0,0,1,.09-3c.1-.2.21-.65-.33-.69-.26,0-.17-.28-.17-.44a3.39,3.39,0,0,0-.41-2c-.22-.32-.4-.84.18-1.15a.31.31,0,0,0,.08-.24,7.52,7.52,0,0,0-.81-3.09c-.39.84.5,1.56.11,2.4a27.22,27.22,0,0,1-1.12-3.65c-.08-.36-.12-.68.45-.86-.58-.13-.85-.38-.76-.83s0-.69-.5-.74a.23.23,0,0,1-.21-.28c0-.23.15-.14.29-.12s.27-.16.2-.29c-.53-1-.16-2.34-1.18-3.16a.44.44,0,0,1-.09-.18c0-.15-.11-.33,0-.44s.28.05.39.15a4.91,4.91,0,0,1,1.23,2c.51,1.43.86,2.92,1.48,4.32.13.29.44.38.47.74a19,19,0,0,0,.67,4.3c.63,1.94.46,4,1.24,6a1,1,0,0,1,0,.6,4,4,0,0,0,.09,2.31,7.76,7.76,0,0,1,.14,2.67,48.32,48.32,0,0,1-1.89,9.06,2.76,2.76,0,0,0-.24,1.2,4.06,4.06,0,0,0,.66-1.1,23.79,23.79,0,0,0,2-9.8A60.93,60.93,0,0,0,124,49.53c-.35-2.3-1.35-4.39-1.79-6.65,0-.06,0-.16-.07-.18-.69-.44-.16-1-.22-1.49.48,0,.37.57.73.69.1-.77-.41-1.25-.72-1.8-.1-.19-.19,0-.3,0-.34.18-.49-.12-.65-.3a.74.74,0,0,1-.15-.82c.19-.35.37.15.61,0-.12-.62,0-1.34-.59-1.85-.23.3.11.79-.25.86s-.68-.37-.85-.74-.37-.73,0-1,.43.28.71.33c.15-.21-.08-.54.19-.67a.93.93,0,0,0,.35-1.52c-.63-.86-.34-2.14-1.33-2.82-.07-.05,0-.25-.08-.37-.12-.29-.22-.62-.56-.7s-.36.31-.51.5a1.71,1.71,0,0,1-.21.26c-.1.12-.27.22-.15.4s.26,0,.37-.09c.27-.17.44,0,.55.2s-.11.32-.28.37c-.58.16-.47.55-.33,1a5.93,5.93,0,0,0,.67,1.08,1.27,1.27,0,0,1,.16,1.41c-.08-.19-.11-.27-.15-.35-.87-1.72-1.87-3.37-2.87-5-.08-.14-.25-.34-.13-.48s.38-.09.57,0l.52.32A6.59,6.59,0,0,0,116,28.5c-.09-.12-.21-.28-.38-.16s-.13.31,0,.45.24.2.12.33a.58.58,0,0,1-.38.09c-.44,0-.54-.45-.84-.68-.12.32,0,.5.19.71a30.32,30.32,0,0,1,2.2,3.68,2.13,2.13,0,0,1,.27,1c0,.16,0,.34-.15.4s-.33-.09-.4-.26a4.3,4.3,0,0,0-.25-.69c-.68-1-1.39-1.92-2.09-2.87-.15-.2-.31-.38-.66-.24s-.7,0-.65-.52a1.37,1.37,0,0,0-.11-.79c-.06-.11-.08-.27-.26-.25s-.15.16-.15.27c0,.31-.14.49-.46.37a3.17,3.17,0,0,1-1.31-1,1.07,1.07,0,0,1,0-1.65c.15-.14.11-.28,0-.41s-.26-.29-.35-.27-.3.33-.38.52-.16.61-.44.27c-.41-.51-.63-.19-.9.09a4.81,4.81,0,0,0-.69,1,3.29,3.29,0,0,1-1.42,1.39A10.75,10.75,0,0,0,104,31c-1,1-1.7,2.34-3,3.1-.09.06-.19.14-.12.27.31.69-.17,1.08-.6,1.41a2.81,2.81,0,0,0-1,1.25,1.29,1.29,0,0,1-.83.81c-.14.05-.35.05-.29.28a2.74,2.74,0,0,1-.49,2c-1.53,3-3.13,6-4.52,9.08a14.43,14.43,0,0,0-1.3,3,55.08,55.08,0,0,1-1.75,5.92A36.15,36.15,0,0,0,88.45,71c.07,1.14.62,2.26.22,3.43-.09-.05-.1,0-.08.07l.07-.09a.26.26,0,0,1,.25.38c-.14.41.06.65.27,1a3.59,3.59,0,0,1,.38,2.68l-.34-.83c-.24.61-.2,1.12.24,1.41a2.6,2.6,0,0,1,.79,1.19H90c-.12-.14-.11-.4-.47-.46a13.44,13.44,0,0,0,1.86,5.17c.24-.82-.29-1.39-.12-2,.33.63.6,1.28.88,1.93.09.21.21.44.08.64s-.34-.26-.6,0c.19.77.84,1.25,1.23,2,.23-.75-.68-1.07-.35-1.76a4.48,4.48,0,0,1,1.52,2.72.38.38,0,0,1-.47-.13c-.17-.21-.13-.8-.5-.56s.29.48.29.8a.17.17,0,0,0,0,.12c.14.09.28.23.47.2S94,88.54,94.05,88.41Zm27.49-52.35c0,.44,0,1.07.33,1,.55-.07.53.29.65.53a13.09,13.09,0,0,0,1.82,3.18,1.72,1.72,0,0,1,.34,1.94c-.09.19,0,.49.21.47.65-.05.57.42.64.79.12.54.15,1.11.32,1.64A23.83,23.83,0,0,1,127.08,54a3.6,3.6,0,0,0,.41,1.62c.07.12.1.35.3.31s.2-.27.2-.44a13.84,13.84,0,0,0-.2-3.15c-.33-1.55-.89-3.05-1.09-4.64-.13-1.08.08-2.21-.45-3.23-.6-1.18-.61-2.58-1.38-3.69a.78.78,0,0,1-.11-.52A3.2,3.2,0,0,0,124,38c-.18-.24-.54-.21-.56-.48,0-.49,0-1-.06-1.48s.42-.71.77-1c-.54,0-1,.06-.77-.72.1-.44-.27-.88-.64-1.2a.37.37,0,0,0-.43-.1c-.16.1,0,.24,0,.36s.11.39-.16.43-.41.1-.54-.14a.86.86,0,0,0-.13-.23c-.08-.1-.19-.23-.33-.12a.31.31,0,0,0-.08.29,3.38,3.38,0,0,0,.26.69c.29.56.59,1.1.89,1.66.09.16.2.33,0,.47s-.29,0-.41-.11Zm-4.29-9.29c.09.38.21.7.28,1.05s.24.38.51.1a.24.24,0,0,1,.4,0,4.09,4.09,0,0,1,.4.53c.6.93.84,2,1.41,3,.08.15.18.45.33.36.48-.31.62.13.84.33s.44.89,1,.33c0,0,.21.05.21.19a0,0,0,0,1,0,0l.07-.19C121.14,30.4,119.64,28.17,117.25,26.77ZM126,56.94c.5-2.42-.65-9.76-1.72-11.08a1.58,1.58,0,0,0,0,.41A75.4,75.4,0,0,1,126,56.94ZM128,37a9.28,9.28,0,0,0,2.16,4.42A17.43,17.43,0,0,0,128,37Zm-22.8,62.47a3.12,3.12,0,0,0,4.13-.45C107.93,99.65,106.6,99.45,105.17,99.51Zm21.65-13.42c.24-.15.44-.26.62-.39a10.28,10.28,0,0,0,1.63-1.6c.18-.2.3-.52.07-.73s-.44,0-.66.16-.2.65-.28.71c-.49.3-.44,1-1,1.23A.54.54,0,0,0,126.82,86.09Zm-1.21-8.35a1.88,1.88,0,0,0-1,1c-.2.43-.29.94-.81,1.16a.27.27,0,0,0-.11.4.26.26,0,0,0,.45,0A5.22,5.22,0,0,0,125.61,77.74Zm.83-36.41a2.29,2.29,0,0,0-1.27-2.78A21.66,21.66,0,0,0,126.44,41.33Zm8.81,18.52c.37-.56,0-1.24.65-1.58.09-.05.07-.3-.13-.38s-.23-.26-.32-.41-.12-.39-.36-.29a.4.4,0,0,0-.22.45C135,58.34,135.11,59,135.25,59.85Zm-4.89-11.63v3.45c0-.32.23-.41.47-.51.44-.2.3-.54,0-.63-.54-.16-.41-.48-.33-.83A1.5,1.5,0,0,0,130.36,48.22ZM78,47.21a1.85,1.85,0,0,0-.87,1.2c0,.13,0,.36.13.41a4.47,4.47,0,0,0,.84.12.42.42,0,0,0,.08-.22C77.66,48.29,78.13,47.75,78,47.21Zm52.16,2.66a2.28,2.28,0,0,0-.38-1.38c-.09-.19-.21-.51-.45-.39a.48.48,0,0,0-.08.71A13.91,13.91,0,0,0,130.11,49.87ZM124,44.57a1.78,1.78,0,0,0-.31-1.85.4.4,0,0,0-.29-.12c-.13,0-.13.19-.09.27C123.56,43.39,123.53,44,124,44.57Zm7.86,22.87c-.31.53-.14,1.15-.47,1.63-.08.12-.27.33,0,.44s.34-.07.42-.24A2,2,0,0,0,131.84,67.44ZM73.69,84.82a1.33,1.33,0,0,0-.19-1.31c-.1-.15-.24-.41-.44-.29s-.2.37,0,.58ZM78.63,45.3A2.1,2.1,0,0,0,78,46.37c0,.19,0,.36.16.44s.32-.06.39-.24A1.72,1.72,0,0,0,78.63,45.3Zm43.5,38.54a1.84,1.84,0,0,0,1.05-1.71C122.86,82.74,122.23,83.09,122.13,83.84Zm8.78-40.63c-.19-.25-.14-.74-.54-.94-.16-.08-.25.13-.18.25.17.33.09.83.56,1C130.86,43.53,131,43.43,130.91,43.21Zm3.73,9.41a2.78,2.78,0,0,0,.32,2A4.67,4.67,0,0,0,134.64,52.62Zm-1-.54a1.22,1.22,0,0,0-.09-.65c-.07-.14-.14-.34-.32-.26s-.07.27,0,.39a1.5,1.5,0,0,1,.14.5c.07.23-.2.7.22.67s-.17-.38,0-.58C133.64,52.13,133.63,52.1,133.64,52.08ZM93.35,47.61c-.67.37-.45,1-.54,1.47A1.53,1.53,0,0,0,93.35,47.61Zm38.76.4c.2-.55,0-.88-.54-1.22C131.75,47.27,131.71,47.68,132.11,48ZM73.93,85.54c.11.48.14.85.5,1.07.09,0,.17,0,.17-.14C74.61,86.08,74.41,85.82,73.93,85.54Zm3,4.59c.1-.07.37.19.41-.1s-.22-.2-.38-.19-.35-.12-.38.13S76.7,90.2,76.9,90.13Zm45-7.27c.15-.2.53-.21.43-.58,0,0-.12-.12-.14-.11C122,82.32,122,82.59,121.93,82.86Zm4.79,3.28,0,0h0Z"/><path class="cls-1" d="M197.9,28a7,7,0,0,0,1.2,2.73.64.64,0,0,1,.13.63,7.75,7.75,0,0,0,.06,2.8,9.08,9.08,0,0,1-.36,4.62,2.17,2.17,0,0,0-.23,1.68c.1.28-.14.56-.37.75a1.11,1.11,0,0,0-.42,1.06,2.57,2.57,0,0,1-.78,2.19c-.44.44-.45,1.06-.66,1.6a16.55,16.55,0,0,1-2.88,4.58,39.68,39.68,0,0,1-3,3.39,22.78,22.78,0,0,1-5.69,4.34,3.08,3.08,0,0,0-.48.35,3.66,3.66,0,0,1-2,1.09,33.91,33.91,0,0,0-4.55,2,27.13,27.13,0,0,1-8.87,2c-.65.05-.82.29-.79.85.09,2.15.36,4.28.63,6.42.32,2.48.88,4.93,1,7.44a8.65,8.65,0,0,1,0,1.61c-.15,1.18.48,2.2.64,3.32a24.49,24.49,0,0,1,.35,4,80.78,80.78,0,0,0,.49,8.79c.14,1.51,0,3,.05,4.57,0,.08,0,.25,0,.25-.79.13-1,1.16-1.89,1.18a4.84,4.84,0,0,0-2.82,1,.74.74,0,0,1-1,0c-.46-.39-.72.16-.87.38-.43.68-.57.32-.7-.14s-.35-.75-.83-.28a.79.79,0,0,1-.92.19,1.78,1.78,0,0,0-.47-.07c-1.09-.17-1.19-.09-1.18.93-.24,0-.29-.25-.51-.29-.23.48-.18,1.11-.74,1.41-.71-.08-1.43.33-2.14,0-.23-.29-.08-.66-.17-1s-.31-.64-.76-.61-.26.39-.29.62a.81.81,0,0,1-1.17.5c-.17-.11-.22-.49-.5-.32s-.07.42-.07.64-.14.51-.49.37-.57-.24-.86-.36a32.65,32.65,0,0,1-.83-6.45c-.18-3.15-.47-6.3-.63-9.46-.21-4.09-.75-8.16-1-12.25-.16-2.77-.32-5.55-.68-8.31-.51-3.86-.74-7.75-1.08-11.62-.15-1.63-.06-3.28-.31-4.87-.19-1.22-.17-2.44-.34-3.65a4.08,4.08,0,0,1,.11-2.71c.11-.2-.26-.44-.28-.76-.19-2.55-.41-5.09-.63-7.64,0-.56-.09-1.12-.14-1.66-.19-.07-.31.06-.45.11a.74.74,0,0,1-.8-.21.64.64,0,0,1-.06-.7,1.84,1.84,0,0,1,.31-.52,2.44,2.44,0,0,0,.59-1.73c0-1.19,0-2.38-.09-3.57a8.81,8.81,0,0,1,.09-2.61c.08-.4.27-.67.72-.62s.36.43.37.72a33.24,33.24,0,0,0,.19,5.18c.41-.16.49-.48.49-.9a25.3,25.3,0,0,1,.26-5.36c0-.1,0-.22.16-.31a49.73,49.73,0,0,1,.52,5c.55-.11.68-.41.68-.88,0-1.43,0-2.87,0-4.3,0-.52,0-.86.74-.79a1.11,1.11,0,0,0,1.17-.85,1.88,1.88,0,0,1,1.88-1.34c.29,0,.58-.09.87-.12a.58.58,0,0,0,.59-.6c0-.25.12-.45.36-.5s.35.18.47.33a11.36,11.36,0,0,1,.86,1.11c.3.47.56.34.83,0a1.53,1.53,0,0,0,.28-.45c.44-1.47,1.75-1.85,2.93-2.4.26-.12.42,0,.59.18s.58.56.85.86.69.86,1.31.35a.24.24,0,0,1,.4.07c.18.5.6.42,1,.42a33,33,0,0,0,4.42-.81c2.45-.33,4.84-.93,7.26-1.38a6.47,6.47,0,0,1,1.4.09,30.18,30.18,0,0,0,3.43-.15,13.48,13.48,0,0,1,4.38.5c.18,0,.59,0,.24.44-.15.19.11.33.32.37,1.33.26,2.52,1,3.83,1.23a5,5,0,0,1,2.08,1.16c1,.78,2.1,1.53,3.15,2.3A7.26,7.26,0,0,1,197.9,28Zm-22.35.12c.13,0,.26,0,.4,0s.47.2.53-.16-.24-.28-.45-.31a4,4,0,0,1-1.2-.4c-.49-.24-1.1-.56-1.53-.33-.58.3-1,0-1.51,0-2.77.07-4.66,1.61-6.21,3.71a1,1,0,0,0-.09.84,16.67,16.67,0,0,1,.23,2.73,34.05,34.05,0,0,0,.3,5.71c.58,4.15.59,8.36,1.2,12.5.17,1.17-.07,2.38.43,3.5a12.32,12.32,0,0,0,3.78-2.31c1.52-1.33,2.78-2.93,4.26-4.3a14.67,14.67,0,0,0,2.76-3.61,16.38,16.38,0,0,0,2.49-9.14,7.94,7.94,0,0,0-2.74-6.19c-.12-.1-.25-.2-.22-.38.05-.34-.21-.39-.43-.5a5.24,5.24,0,0,1-2-1.39Zm-23,39.81a.7.7,0,0,1,.19.78,3.84,3.84,0,0,0,0,1.07c0,.16.06.33.26.31s.12-.2.13-.32,0-.22,0-.34c.18-2.11-.39-4.18-.47-6.28a7.64,7.64,0,0,0-.24-2.32,2.34,2.34,0,0,1,.2-2.06c.12-.19.21-.42-.09-.47-.45-.07-.44-.42-.47-.7,0-.58,0-1.16,0-1.75,0-.13,0-.29.11-.36.52-.24.3-.62.2-1a14.94,14.94,0,0,1-.48-1.52c-.31-1.8-.16-3.62-.37-5.43a11.63,11.63,0,0,1-.25-3c.12-.87.45-1.68-.12-2.57a6,6,0,0,1-.35-1.77,2.11,2.11,0,0,1,.25-1.61,1.45,1.45,0,0,0,.13-.28c-.72-.47-.2-1.17-.32-1.75a3,3,0,0,0-.46-1.38.62.62,0,0,1-.16-.76c.09-.18.19-.47-.17-.53s-.55.06-.56.41a7.24,7.24,0,0,0,0,1.14c.21,1.51.23,3,.38,4.54.13,1.3,0,2.6.15,3.89q.3,3.82.67,7.63c.17,1.81.16,3.62.31,5.43.17,2,.41,4.06.47,6.1.05,1.72.26,3.43.47,5.15,0,.14,0,.42.22.41s.24-.23.26-.41A1.29,1.29,0,0,1,152.58,67.92Zm-1.68,1.65c.57-1.56.2-3,.18-4.36,0-1.75-.2-3.53-.31-5.29a38.94,38.94,0,0,0-.61-6.28,1.71,1.71,0,0,1,.13-1.49c.05-.07,0-.21,0-.31a14.35,14.35,0,0,1-.33-3.13c-.08-1.27-.17-2.55-.24-3.82a29.14,29.14,0,0,1-.28-4.48,25.18,25.18,0,0,0-.35-5.88c0-.3,0-.86-.31-.86-.48,0-.41.6-.56.95a.32.32,0,0,0,0,.14,70.53,70.53,0,0,0,.19,7.12c.37,3.47.59,7,.62,10.46a1.71,1.71,0,0,1,0,.6,1.64,1.64,0,0,0,.11,1.3,4.64,4.64,0,0,1,.45,2.35c-.2,1.3,0,2.59-.13,3.88a.91.91,0,0,0,.53,1,.68.68,0,0,1,0-.21c0-.19-.15-.53.17-.55s.21.33.22.53a7.85,7.85,0,0,0,.12,1.87c0,.11.05.28-.17.26s-.32-.24-.34.08-.05.87,0,.9c.7.18.46.74.48,1.14,0,.78,0,1.57,0,2.35A3.61,3.61,0,0,0,150.9,69.57Zm.5,2.7c.16-.69-.62-1.16-.31-1.9C150.35,70.87,150.54,71.78,151.4,72.27Z"/><path class="cls-1" d="M14.29,95c0-.09,0-.22,0-.26.52-.42.12-.74-.09-1.09A57.72,57.72,0,0,1,11,87.86a10.53,10.53,0,0,1-.47-1.26c-.07-.18-.22-.37.14-.52s.17-.52.12-.78c-.11-.62-.28-1.22-.41-1.84s.09-1.1-.57-1.41c-.19-.09-.06-.42,0-.63,0-.38.1-.76.13-1.14s0-.49-.32-.58-.31-.25-.05-.43.3-.26.12-.35c-.48-.24-.29-.65-.3-1A2.87,2.87,0,0,0,9,76.39a3.73,3.73,0,0,1-.32-1.9c-.12-2.85-.59-5.67-.75-8.51a13.1,13.1,0,0,1,.31-4.79,1.74,1.74,0,0,0,.12-.66c-.19-2.76.53-5.39,1.11-8,.78-3.56,1.48-7.15,2.56-10.64a36.62,36.62,0,0,1,2.88-6.65c.13-.25.48-.52.11-.82s-.67,0-.9.29A28.78,28.78,0,0,1,12,37.08,1.13,1.13,0,0,1,12.41,36c.69-.77,1.53-1.39,2.17-2.21.19-.25.61-.12.78-.45,1.15-2.25,3.44-3.22,5.33-4.61a25.55,25.55,0,0,1,8.14-3.92,4,4,0,0,0,1.24-.49,13.31,13.31,0,0,1,5.27-1.89c3.17-.67,6.33-1.5,9.62-1.41a24.41,24.41,0,0,1,7.19,1.26,7.2,7.2,0,0,1,1.87.91,5.12,5.12,0,0,0,1.85.77c.16,0,.32,0,.33.26s-.09.23-.23.3c-.71.35-.77.61-.33,1.27a1.42,1.42,0,0,0,1,.65,2.58,2.58,0,0,1,1.3.67c.31.28.2.5-.13.57a1.85,1.85,0,0,0-1.55,1.08c-.12.3-.47.2-.73.22a30.92,30.92,0,0,0-4.08.36c-.36.08-.71.1-1,.56a1.11,1.11,0,0,1-1.34.27c-.19-.1-.3-.14-.46,0-1.78,2-4.08,2.18-6.55,1.92a22.55,22.55,0,0,0-4-.22c-.24,0-.56-.07-.39.41a.49.49,0,0,1-.35.69.53.53,0,0,1-.71-.33.53.53,0,0,0-.63-.35,7,7,0,0,0-1.65.28,20.14,20.14,0,0,0-2.91,1.23,6,6,0,0,0-2.07,1.77c-4.67,6.11-7.11,13.13-8.28,20.62a51.29,51.29,0,0,0,1,20.67c0,.15.06.35.16.44,1,.84,1.15,2,1.51,3.17a4.41,4.41,0,0,0,.65,1.47,20.94,20.94,0,0,1,1.91,3.23,7,7,0,0,0,3.25,3.09c1.8.86,3.59,1.72,5.43,2.52a6.47,6.47,0,0,0,6.14-.55A22.27,22.27,0,0,0,46.31,86a4.23,4.23,0,0,0,.41-.6c.18-.25.45-.5.72-.32.42.27.64,0,.93-.18s.38-.66.75-.13c.09.11.27-.1.38-.21a24,24,0,0,0,1.9-2c.25-.32.52-.63,1-.48.27.09.32-.18.46-.31s.18-.37.4-.23a.46.46,0,0,1,.13.49,1.15,1.15,0,0,1-1.19,1c.2.17.26.6.44.54.5-.16,1.1-.35,1.29-.89.26-.76,1-1,1.39-1.68.23-.37.76,0,1.07-.51a1.3,1.3,0,0,1-.28,1,2.5,2.5,0,0,0-.32.94c0,.3,0,.55.39.59s.48-.18.52-.48a4.87,4.87,0,0,0,0-.54.7.7,0,0,1,.87-.7.94.94,0,0,0,1.28-.59,1,1,0,0,1,1.46-.48c.12.06.28.17.37,0,.43-.6,1-.19,1.57-.26.78-.1,1.66,1.44,1.36,2.22A4.64,4.64,0,0,0,63.07,84c0,.21-.13.44.3.51s.31.81-.07,1.27a27.76,27.76,0,0,1-3.81,3.62,11.49,11.49,0,0,1-2.87,1.81,1.25,1.25,0,0,0-.58.44c-.37.73-1.24.8-1.73,1.37-.15.16-.39.06-.65.12.44.39.11.51-.2.65A66.68,66.68,0,0,1,42.35,98a47.87,47.87,0,0,0-5.7,1.26l-.07,0c-1.09-.57-1.79.41-2.58.77-4,1.85-6.13,1.29-9.27,1a19.89,19.89,0,0,1-8.41-3c-.45-.28-.72-.74-1.15-1a16,16,0,0,1-6-8.41,1.93,1.93,0,0,1-.09-1.21l.61,1.27a22.35,22.35,0,0,0,4,5.92c.17.17.36.32.54.48a.48.48,0,0,0,.48.58.19.19,0,0,0,.15-.1c-.07-.3-.3-.4-.58-.44C14.33,95,14.31,95,14.29,95ZM9.87,67.59a12.54,12.54,0,0,0,.27,3.13A3.66,3.66,0,0,0,9.87,67.59Zm0-4.06H9.76v2.23h.06ZM52,82.83s.06.07.09.07.08-.07.07-.07a.38.38,0,0,0-.11-.11Z"/><path class="cls-1" d="M157.24,105.24c.71.35,1.43-.06,2.14,0a4.32,4.32,0,0,0,1.65.45,10.65,10.65,0,0,1,3.76,2.11c.27.2.59.23.82.4a2.93,2.93,0,0,1,1.18,1.87h0l-.23,0c0,.11,0,.25,0,.32a2.12,2.12,0,0,1,.43,2.06c.27-.13.12-.33.25-.48a1.77,1.77,0,0,1,.14,1.45,12.76,12.76,0,0,1-1.78,4c-.16.23-.49.44-.23.82,0,0-.09.25-.18.33-1.11,1-1.91,2.29-3.3,3a1.34,1.34,0,0,0-.37.38c-.18.22-.21.4.16.43.16,0,.31.07.46.09a14.37,14.37,0,0,1,6.58,2.83c.28.2.67.49.65.73a1.59,1.59,0,0,0,.74,1.46s0,.09,0,.2,0-.09-.08-.06-.11,0-.1,0a.44.44,0,0,0,.05.15.23.23,0,0,0,.13-.13c.08,0,.27,0,.23.09a1.46,1.46,0,0,0,.29,1.25c.41.69-.2,1.26-.38,1.87-.09.28-.25.52-.08.83s-.06.38-.2.51a25.74,25.74,0,0,1-2.6,2c-2.15,1.57-4.74,1.9-7.09,2.9-2.15.91-4.4.86-6.62,1.18a17.83,17.83,0,0,1-2.4.28,12.82,12.82,0,0,0-2.77.08c-.1,0-.23-.11-.22.1,0,.37-.23.34-.44.3a3.46,3.46,0,0,1-1-.52.75.75,0,0,1-1,.48.93.93,0,0,1-.67-1.16c.25-1.22,0-2.46.14-3.68.25-2.4-.13-4.78-.06-7.17.06-1.59-.12-3.16-.16-4.75-.07-2.78-.12-5.57,0-8.35h.17c.08,2.35.15,4.71.23,7.13a1.15,1.15,0,0,0,.11-.75c0-2.22,0-4.44-.12-6.65-.06-1,.38-2.06,0-3.1-.08-.23.19-.4.36-.42.7-.07.65-.68.62-1a6.93,6.93,0,0,0-.18-1.66,14.4,14.4,0,0,0-.2,2.43,1.48,1.48,0,0,1-.3-1.42c0-.14.39-.53-.22-.47-.16,0-.1-.27-.08-.41a8.58,8.58,0,0,0,.35-2.42c0-.32.09-.46.52-.53.65-.1,1.2-.56,1.9-.69s.84-.1,1,.57a1.66,1.66,0,0,1,1.79-.89c.41,0,.69.21.66.59-.06.91.47,1,1.14.9.29.12.57.25.86.36s.49,0,.49-.37ZM159,124.63c-.34,0-.5,0-.65,0l-5.71.79c-.28,0-.37.16-.34.45a30.75,30.75,0,0,1,.22,4.07c-.07,1.59.12,3.18,0,4.78-.07,1,.22,1.22,1.24,1a23.13,23.13,0,0,0,8.33-3.28c2-1.38,2.36-2.82,1.21-4.61a13.6,13.6,0,0,0-1.12-1.5A3.82,3.82,0,0,0,159,124.63Zm-7-5a9.89,9.89,0,0,0,.08,1.33c.16.81.17.82.89.44a18,18,0,0,0,6.27-5.17,5.32,5.32,0,0,0,1.22-4,6.35,6.35,0,0,0-1.64-3.12,6.17,6.17,0,0,0-6.51-1.78c-.31.11-.47.25-.45.57.08,1.59-.17,3.17-.11,4.76C151.82,115,152,117.32,152,119.65Zm15.26,13.63a2.05,2.05,0,0,0,1.46-1.57A8.9,8.9,0,0,0,167.24,133.28Zm1.65-3.75c0,.71-.5,1.29-.59,2.15A2.88,2.88,0,0,0,168.89,129.53Zm-23.19-7.87-.18,0,.2,2.14.19,0A17,17,0,0,1,145.7,121.66Z"/><path class="cls-1" d="M69.2,125.71a7.94,7.94,0,0,0,.13,2.71,39.6,39.6,0,0,1,.18,5.22,2.35,2.35,0,0,1-1.92,2,.38.38,0,0,1-.29-.12,1.48,1.48,0,0,0-1.68.17,3.07,3.07,0,0,1-1.3.38c-.61.07-.38-.52-.5-.89a2.59,2.59,0,0,0-.59.79c-.3.48-.54.34-.75-.05a2.36,2.36,0,0,1-.2-1.11c-.06-2,0-4.08-.14-6.12-.23-2.76-.45-5.53-.65-8.29a75.92,75.92,0,0,1-.18-8,25.38,25.38,0,0,1,.24-5.08,1.47,1.47,0,0,1,.66-1c.11-.06.24-.2.35-.09s.08.24.07.37c-.08.82-.16,1.64-.27,2.46a15.35,15.35,0,0,0,0,3.89,2.23,2.23,0,0,1-.09.85c-.18.61.5,1,.32,1.62a5.08,5.08,0,0,0,.15-1.69c0-1.47-.14-2.93,0-4.4.09-.88.18-1.77.3-2.66s.72-1.07,1.29-1.28c.39-.15.93-.54,1.36.07.12.16.33,0,.45-.17a1.37,1.37,0,0,1,1.88-.18,1.52,1.52,0,0,1,.45,1.29c0,.52.17.58.57.42a11.7,11.7,0,0,1,5.75-.57c.86.08,1.74-.05,2.6,0a4,4,0,0,1,3.13,2.51c.66,1.3.18,2.53-.14,3.74a10.92,10.92,0,0,1-2.27,3.85,12.71,12.71,0,0,1-4,3c-.88.52-.88.53-.31,1.33,1.39,1.93,3,3.7,4.44,5.55a18.9,18.9,0,0,0,1.69,2,43.08,43.08,0,0,0,4.19,3.91c.4.28.75.64,1.15.93.2.15.4.33.72.2s.51-.05.48.34c0,.24.21.26.35.33.53.27.37.49,0,.76-.2.13-.72.14-.32.62.09.1-.09.16-.17.23a1.64,1.64,0,0,1-1.6.42c-.49-.15-1,.16-1.5-.15,0,0-.21,0-.23.08-.24.68-.75.36-1.18.32s-.85-.22-1.22.24c-.21.27-.59.12-.8-.05-.76-.61-1.76-.86-2.38-1.7-.25-.34-.79-.46-1.14-.79a59.06,59.06,0,0,1-4.81-5.43C70.7,127.66,70,126.75,69.2,125.71Zm-1-11.1c0,.79,0,1.56.11,2.35.07.61.25.63.68.33a16.53,16.53,0,0,0,3.38-3A6.76,6.76,0,0,0,74.11,110c0-.95-.42-1.25-1.26-.81a11.67,11.67,0,0,0-3.2,2.17c-.26.28-.43.74-.73.84-.89.3-.78,1-.74,1.61C68.2,114.07,68.18,114.34,68.18,114.61Z"/><path class="cls-1" d="M175.82,119.92a19.25,19.25,0,0,1,.5-3.71c.23-1.11.36-2.24.65-3.34-.76,1.89-1,3.92-1.73,5.83.18-1,.29-2.11.57-3.12a8.94,8.94,0,0,0,.59-2.6c-.08-1.62.6-3,.9-4.53a5.88,5.88,0,0,1,.55-1.36c.17-.36.27-.87.88-.39.28.21.54-.12.73-.34.43-.48.84-1,1.58-1a.35.35,0,0,0,.3-.25c.15-.36.39-.26.58-.09.38.31.6.2.87-.15.56-.7.58-.67,1.25-.08.33.29.7.54,1.09.84a1.27,1.27,0,0,1,1.05-1.31,1.53,1.53,0,0,1,1.63.83,20.3,20.3,0,0,1,1.91,4.5c.37,1.45.84,2.87,1.22,4.32s.88,2.93,1.39,4.38a10.8,10.8,0,0,0,.46,1.43.52.52,0,0,0,.63.33,7.91,7.91,0,0,1,2.33-.2c.6.11.68.24.31.69s-.16.4.19.43a.27.27,0,0,1,.28.24c0,.17-.13.19-.23.27a4.24,4.24,0,0,1-2,.84c-.4.08-.49.33-.35.7a8,8,0,0,1,.66,1.83c.1.87.72,1.59.71,2.41s.48,1.31.59,2a10.18,10.18,0,0,0,.76,1.7c.41,1,.67,2,1.17,2.93a.67.67,0,0,1,0,.71c-.18.25-.4.48-.06.79.08.08,0,.24-.11.27-.34.12-.53.41-.79.62s-.73-.13-1.13,0-1.07-.05-1.34.65c-.16.4-.66.36-1.07.41s-1-.14-1.26.52c-.07.17-.16,0-.25,0a1.91,1.91,0,0,1-1-1.23c-1.46-4-2.72-8-4-12-.2-.59-.48-.78-1.06-.69-1.77.28-3.54.59-5.32.72a.62.62,0,0,0-.58.47,31.59,31.59,0,0,0-1.2,5.35,4.12,4.12,0,0,1-.56,1.7.47.47,0,0,0,0,.45,2.57,2.57,0,0,1,0,1.07c-.1,1-.12,1-1.14,1.19a5.44,5.44,0,0,1-2.34.24c-.41-.08-.56.51-1,.61-.29.06-.58.34-.85.1s-.08-.58,0-.82a49.43,49.43,0,0,0,1.71-6.31c.65-2.53,1.32-5.06,1.74-7.65a5.94,5.94,0,0,0,0-.73,3,3,0,0,0,.26-1.49,4.13,4.13,0,0,0,.32-2,4.14,4.14,0,0,0-.31,2.06c-.47,0-.69.36-.47.69a1.55,1.55,0,0,1,.19.78c-.18-.1-.1-.44-.41-.41Zm7.86-7.44c.21.14.22.14.22.07a4.29,4.29,0,0,0-.55-1.89c.08.48-.33.75-.41,1.15-.56,2.69-1.63,5.27-1.88,8-.09.93-.52,1.8-.59,2.74,0,.15-.13.32.07.41a.37.37,0,0,0,.43-.11,1,1,0,0,0,.25-.31,1.42,1.42,0,0,1,1.22-.82c.92-.13,1.85-.31,2.77-.45.39,0,.47-.17.35-.57-.42-1.29-.87-2.59-1.16-3.92s-1-2.76-.8-4.28Zm1.15.84a2.23,2.23,0,0,0-.56-1.66A3.68,3.68,0,0,0,184.83,113.32Zm-1.13-3.68a2.57,2.57,0,0,0,.39,1.3A1.38,1.38,0,0,0,183.7,109.64Z"/><path class="cls-1" d="M102.13,106.86c.63-.35,1.08.15,1.6.34,0,0,.13.12,0,.14-.54.18-.1.27,0,.34a20.48,20.48,0,0,1,7.48,6.72c.57.78,1,1.69,1.47,2.53.14.23.13.77.69.51,0,0,.19.13.21.22.22,1,1,1.82,1.07,2.87a3.61,3.61,0,0,1,0,1.31c0,.08-.07.15,0,.24.47.5.27,1.06.12,1.62a2.51,2.51,0,0,0-.2.77c.09,1.72-1,3-1.94,4.09a18.75,18.75,0,0,1-10.6,6.18A49.55,49.55,0,0,1,95.52,136c0-.19.15-.15.23-.19s.39-.15.28-.37-.27-.08-.43,0c-.5.32-.94-.34-1.46-.1-.14.06-.91,0-1,0a1.6,1.6,0,0,0-.72.45.52.52,0,0,1-.68.12c-.47-.42-1-.11-1.42-.1s-.44-.15-.41-.44c0-.52.11-1,.13-1.54a61.72,61.72,0,0,0-.21-6.38c0-.11,0-.22,0-.33s.38-.12.36-.41-.38,0-.45-.23a4.38,4.38,0,0,1-.08-1.21c.31.2.15.55.42.78-.07-.9,0-1.74-.12-2.59a12.49,12.49,0,0,0-.15-2c-.06-.2,0-.43.28-.43s.21.22.23.39c.09.73.19,1.46.3,2.37a1.74,1.74,0,0,0,.07-1.35,8.75,8.75,0,0,1-.23-2.59,5.87,5.87,0,0,1,.1-2.5c.07-.19.14-.57-.32-.52a4.48,4.48,0,0,0-.11-.76c-.15-.76.68-1.22.51-2,0-.06.06-.15,0-.19-.34-.45-.14-1-.36-1.49a12.17,12.17,0,0,1-.52-3c0-.2,0-.43-.1-.65-.28.16-.21.46-.37.64a.32.32,0,0,1-.09,0c-.19-.16.06-.67-.35-.59s-.15.47-.15.72c0,1,0,2,0,3h-.27v-.69c0-1,0-2,0-3s.26-1.35,1.24-1.71a1,1,0,0,0,.54-.37c.32-.64,1-.66,1.5-.92,0,0,.15,0,.19,0,.62.53.86,0,1.2-.39a1,1,0,0,1,1.67.13.48.48,0,0,0,.43.25c.85,0,1.7.15,2.55.11,1.18-.06,2.25.61,3.44.43.16.5.59.48,1,.52.08.18.19.19.34.08C102.37,106.82,102.25,106.85,102.13,106.86Zm2.16,6.73.11.15a3.09,3.09,0,0,0,1.1,1.47s0,0,0,.05h0l-.07-.05c-.08-.7-.61-1.07-1.07-1.49l-.15-.13s0-.13-.08,0Zm-7.44,17.06c0,.6,0,1.21,0,1.82s.17.7.74.59a18.39,18.39,0,0,0,6.3-2.71,8.59,8.59,0,0,0,3-3,6.82,6.82,0,0,0,1-5.2,18.19,18.19,0,0,0-2.43-5.43,12.48,12.48,0,0,0-2.24-2.82,19.09,19.09,0,0,0-2.43-2.33.27.27,0,0,1-.13-.15,4,4,0,0,0-.8-1.13,11.16,11.16,0,0,0-4.21-1.59c-.35,0-.48.11-.54.43a8.4,8.4,0,0,0-.06,2.74c.25,2.26.26,4.53.59,6.78.14.93.16,1.91.35,2.82A59.65,59.65,0,0,1,96.85,130.65Zm9.36-14.39a4.1,4.1,0,0,0,1,1.73A2.13,2.13,0,0,0,106.21,116.26Zm-3-9-.1,0a.07.07,0,0,0,0,0l.1,0Z"/><path class="cls-1" d="M57.55,114.93a11.08,11.08,0,0,1,1.19,3.8,21.49,21.49,0,0,1,.19,4.68,11.36,11.36,0,0,1-.52,2.41,13.93,13.93,0,0,1-8.89,9,16,16,0,0,1-4.88.55,41.56,41.56,0,0,1-4.74-.19,3.17,3.17,0,0,1-2.07-.8,2.49,2.49,0,0,0-.9-.54,4.83,4.83,0,0,1-2.56-3.14c-.06-.15-.07-.31-.14-.45a10.33,10.33,0,0,1-1.11-4.9,20.94,20.94,0,0,1,.83-6.2,22.07,22.07,0,0,1,1.56-4.51c1.26-2.42,2.4-4.93,4.62-6.7A5.26,5.26,0,0,1,42,107a.72.72,0,0,1,.46,0,1.81,1.81,0,0,0,2.15-.33,2.45,2.45,0,0,1,.51-.21c-.2-.31-.57-.07-.94-.42.55,0,.78-.81,1.32,0,.1.14.45.33.56-.11h0c1.32-.37,2.46.21,3.71.54,1,.25,1.64,1,2.61,1.13.26,0,0,.72.56.64.35,0,.53.19.71.41,0,0,0,0,0,.08l-.34-.07-.15.11a10.64,10.64,0,0,1,4.28,7c.26-.31,0-.55.07-.79Zm-6.48-5.78c0-.3-.2-.43-.59-.53.14.36.14.69.6.52,0,.34.34.59.27,1-.13,0-.47-.22-.35,0s-.21.54-.14.84c-.27-.35-.72-.76-.65-1.06.19-.79-.27-.52-.62-.5a.11.11,0,0,0,0,0s0,0,0,0l.05.07a5.08,5.08,0,0,1,.82,1.82,6.57,6.57,0,0,1-.78-1.06,2.33,2.33,0,0,0-.83-.75c-.81,0-.82-.48-.77-1a1.16,1.16,0,0,0-1.07.7,1.27,1.27,0,0,1-.48.36,4.26,4.26,0,0,0-1.18,1,14.91,14.91,0,0,0-2,3.15,38.12,38.12,0,0,0-2.49,5.93,14.61,14.61,0,0,0-.66,6,5.84,5.84,0,0,1,.31,1.41,5.26,5.26,0,0,0,.42,2.32c0,.08.12.35.23.16.21-.39.22,0,.23.05,0,.42-.06.75.53,1A4.19,4.19,0,0,1,43,132a1,1,0,0,0,1.31.4A12.56,12.56,0,0,0,48.52,130a11.49,11.49,0,0,0,3.78-6.13c.6-2.47.09-4.93-.19-7.37,0-.23-.42-.56-.49-.93a25.29,25.29,0,0,0-.53-2.59c1.12,1.67,1.32,3.64,1.71,5.54a13,13,0,0,1-.32,5.91,5.68,5.68,0,0,0,.73-2.75,18.42,18.42,0,0,0-.94-7.14c-.07-.22-.27-.45,0-.66,0,0,0,0,0,.06h0l-.08,0a.34.34,0,0,0-.26-.46c-.16,0-.3-.17-.21-.35.15-.33.23-.56-.3-.52-.07,0-.4-.33.05-.51a.62.62,0,0,0,.32-.73c.16.25.55.42.27.81,0,0,0,0,0,0s0,0,0,0l.07,0c0,.13.08.19.12.29a11.73,11.73,0,0,1,.93,1.75c0,.13-.15.36.12.36s.2-.31.14-.41c-.33-.51-.18-1.2-.67-1.65-.14-.12-.11-.33-.09-.51A3.38,3.38,0,0,0,51.07,109.15Zm-.18,20.26a10.86,10.86,0,0,0,3.52-7.34C53.36,124.57,52.65,127.24,50.89,129.41Zm4.33-.77c.27-.2.11-.66.39-.8.7-.34.24-1.34,1-1.63,0-1.09.82-2,.68-3.11a4,4,0,0,1,.09-1.86.23.23,0,0,0-.19-.31c-.17,0-.17.09-.17.2a9.08,9.08,0,0,1-.46,3,14.82,14.82,0,0,1-.63,2.16c-.29.63-.54,1.27-.82,1.89C55,128.37,55,128.52,55.22,128.64Zm-2.17-13c.22,1.24.46,2.49.63,3.74A8.51,8.51,0,0,0,53.05,115.61Zm1.22,3.44a3.89,3.89,0,0,0-.36-2.44C54.14,117.41,53.87,118.28,54.27,119.05Zm1.46.36c.27-.62.26-.73-.12-1.32A1.51,1.51,0,0,0,55.73,119.41Zm-2.19-4.78a2.75,2.75,0,0,0,.34,1.62A2.24,2.24,0,0,0,53.54,114.63Zm1.52-.88a3.11,3.11,0,0,0-.69-1.38A2.87,2.87,0,0,0,55.06,113.75Zm-1.19,0a1.1,1.1,0,0,0-.42-.86C53.54,113.28,53.55,113.51,53.87,113.73Zm.5,16a.51.51,0,0,0,.42-.41s-.1-.11-.13-.1C54.39,129.28,54.36,129.49,54.37,129.73Zm-2-5a.14.14,0,0,0,0,.06q0,.09.06,0s0,0,0,0Z"/><path class="cls-1" d="M137.55,108.62c-.32,0-.21.14-.07.25.61.48,1.07,1.1,1.65,1.61a4.1,4.1,0,0,1,1.38,2.45c0,.19,0,.37.19.53a.94.94,0,0,1,.39,1,2.21,2.21,0,0,0,.41,1.26c.2-.27.06-.47.09-.66l0,0a7.09,7.09,0,0,1,1,2.93,13.38,13.38,0,0,1,.21,5.6c0,.17-.17.44.15.58.12,0,.1.23,0,.29-.52.45-.46,1.13-.67,1.7a14.1,14.1,0,0,1-3.69,5.63,13.33,13.33,0,0,1-5.16,3,15.72,15.72,0,0,1-4.89.55c-1.58,0-3.17,0-4.74-.18a3.21,3.21,0,0,1-1.86-.68,4.16,4.16,0,0,0-1.12-.67,4.92,4.92,0,0,1-2.49-3.13,2.26,2.26,0,0,0-.19-.49,9.1,9.1,0,0,1-1-4.77c0-.38-.13-.74-.09-1.13a21.4,21.4,0,0,1,.7-4.51,34.78,34.78,0,0,1,1.16-3.76c1.36-3,2.64-6,5.26-8.13.74-.61,1.59-1.25,2.74-.71a1.63,1.63,0,0,0,1.53-.34,1.23,1.23,0,0,1,.76-.31c-.23-.39-.6-.14-.93-.44.48-.14.73-.78,1.28-.1.29.36.72-.1,1-.18a4,4,0,0,1,2.65.39c.34.13.63.41,1,.24a.3.3,0,0,1,.36.13c.31.54,1,.49,1.4.82.25.18.61.17.59.62,0,.16.21.2.38.17a.47.47,0,0,1,.57.35ZM135,129.33l-.18,0,.06.08.14-.11.14-.13.18-.23c.92-1,1.95-2,2.11-3.45a.77.77,0,0,1,.15-.3c.78-.93.73-2.08.87-3.19a33.33,33.33,0,0,1-3.21,6.87.3.3,0,0,0-.15.26ZM135,109l.14.14.4,1.21c-.4-.35-.39-.35-.54.2,0,.1-.05.27-.23.28-.22-.18-.24-.52-.51-.67,0-.17-.25-.33,0-.54s0-.21-.12-.23a.62.62,0,0,0-.33,0c-.18.06-.06.18,0,.26s.25.37.37.55.4.59.25,1.06c-.17-.28-.32-.47-.43-.69a2.46,2.46,0,0,0-1.23-1.16c-.59-.23-.79-.49-.63-1.06a1.43,1.43,0,0,0-1.13.76c-.08.16-.3.25-.48.35a3.49,3.49,0,0,0-1.27,1.08,17.43,17.43,0,0,0-1.92,3,42.86,42.86,0,0,0-2.5,5.92,14.46,14.46,0,0,0-.65,6.09c.07.49.39.94.3,1.41a2.88,2.88,0,0,0,.11,1.25c.11.43-.1,1.11.71,1.26.22.05.08.61.49.94a7.69,7.69,0,0,1,1.28,1.61.87.87,0,0,0,1.14.38,12.3,12.3,0,0,0,6.06-4.26,20.94,20.94,0,0,0,2-3.41l.08.12,0-.12a2.58,2.58,0,0,0,.65-1.5,16.69,16.69,0,0,0-.43-7.88,4.43,4.43,0,0,1-.34-1.28.85.85,0,0,0-.26-.81c-.21-.23,0-.78-.54-1-.09,0,0-.2.16-.29a.8.8,0,0,0,.35-.75c.14.27.62.48.17.86.5.44.54,1.23,1.19,1.65,0-.38,0-.73-.21-1a1.3,1.3,0,0,1-.32-1.17,1.22,1.22,0,0,0-.07-.53c0-.14-.14-.32-.33-.17s-.57-.13-.42.33c-.38-.21-.29-.62-.41-.94.3-.11.48.23.93.26a4.27,4.27,0,0,0-1.34-1.47A.12.12,0,0,0,135,109c0-.24-.17-.3-.42-.37C134.63,109,134.64,109.23,135,109Zm3.5,3.51-.05-.17,0,0,.1.12a.75.75,0,0,0,.32.76A1,1,0,0,0,138.5,112.52Zm.48,16.21.18.1a8.81,8.81,0,0,0,.88-1.54c.16-.6.74-1,.64-1.7,0-.07.09-.15.11-.24.12-.39.47-.76.48-1.09a23.81,23.81,0,0,1,.15-3c0-.16-.09-.25-.24-.27s-.13.11-.12.19a10.68,10.68,0,0,1-.47,3.07,13,13,0,0,1-1,2.81A14.52,14.52,0,0,0,139,128.73Zm-1.32-9.59a6.39,6.39,0,0,0-.64-3.55A32.77,32.77,0,0,1,137.66,119.14Zm.34-2.42c.07.79-.14,1.61.34,2.34A4.2,4.2,0,0,0,138,116.72Zm-.12-.37c.27-.92-.29-1.58-.4-2.33l-.23,0Zm1.87,1.67a1,1,0,0,0,.06,1.36C140.13,118.94,139.87,118.53,139.75,118Zm-.94-1.61c.05.38.48.54.42.93,0,0,.09.11.13.11s.1-.07.14-.11C139.23,117.07,139.63,116.33,138.81,116.41Zm.09-2.72.21.11s0-.1,0-.12a1,1,0,0,0-.16-.19Z"/><path class="cls-1" d="M27.39,129a2.72,2.72,0,0,1,.24-.24c.19-.14.27-.5.54-.43s-.13.43.18.66c.13-.58.73-.6,1.12-.9a1.17,1.17,0,0,1,1.3,0c.42.26.35.63.17,1,0,.08-.1.19-.07.25.35.85-.33,1.2-.8,1.62a16.31,16.31,0,0,1-8.72,4,3.25,3.25,0,0,0-1.08.34c-1.48.81-3,.49-4.5.11a6.41,6.41,0,0,1-4-3.16c-.1-.18-.18-.37-.26-.55a1.47,1.47,0,0,1,0-.31c.59.68.89,1.5,1.61,1.94a.23.23,0,0,0,0-.35,8.77,8.77,0,0,1-1.61-4.35c-.24-1.35-.4-2.72-.55-4.09-.45-4.09.55-8,1.88-11.75.1-.3.36-.56.38-.86.06-1.07.81-1.6,1.56-2.15a12.91,12.91,0,0,1,2.68-1.53,20.46,20.46,0,0,1,5.64-1.66,8.34,8.34,0,0,1,5,.93c.09,0,.23.1.13.24-.41.53,0,.63.39.77s.48.24.05.54a1.82,1.82,0,0,1-1.29.41,2.83,2.83,0,0,0-1.87.57,3.93,3.93,0,0,1-2.71.47c-.44,0-.92-.31-1.26.25a.24.24,0,0,1-.18,0,2.87,2.87,0,0,0-3.12,1.55,17.5,17.5,0,0,0-2.74,8.06,15.77,15.77,0,0,0,.45,6.12,9.48,9.48,0,0,0,1.93,3.79A6,6,0,0,0,21.56,132,2.71,2.71,0,0,0,24,130.86c.79-1,2.07-1.17,2.81-2.13.16.14.56-.59.55.15,0,0-.08.1-.07.11S27.35,129,27.39,129Zm-.34.14,0,0h0Z"/><path class="cls-1" d="M8.71,86.71a5.92,5.92,0,0,1-1.47-3.52A6.29,6.29,0,0,1,8.71,86.71Z"/><path class="cls-1" d="M10.05,85.64c-.48-1.11-1.13-2-1.07-3.21A4.18,4.18,0,0,1,10.05,85.64Z"/><path class="cls-1" d="M18.83,28.92l-3.28,1.71-.09-.17a8.08,8.08,0,0,1,3.26-1.75Z"/><path class="cls-1" d="M10.6,129.18a1.73,1.73,0,0,1,.48,1.14A1.91,1.91,0,0,1,10.6,129.18Z"/><path class="cls-1" d="M109.34,111.49a.53.53,0,0,1-.38-.41L109,111a.53.53,0,0,1,.41.4Z"/><path class="cls-1" d="M46.09,105.92c-.12,0-.27,0-.33-.12a.17.17,0,0,1,.06-.1c.16,0,.23.08.28.21Z"/><path class="cls-1" d="M175.81,119.91l0,.34c-.12-.16-.1-.26,0-.33Z"/><path class="cls-1" d="M137.59,108.57c.07,0,.2,0,.14.13s-.14,0-.18-.08Z"/><path class="cls-1" d="M109.53,111.71l-.19-.23.08-.06a.24.24,0,0,1,.13.27Z"/><path class="cls-1" d="M57.41,114.66l-.09-.07.06,0,0,.13Z"/><path class="cls-1" d="M109,111.08c-.1,0-.19-.07-.22-.18h0a.24.24,0,0,1,.28.12Z"/><path class="cls-1" d="M57.4,114.67c.13,0,.15.15.15.26l0,0c-.14-.06-.13-.17-.12-.29Z"/><path class="cls-1" d="M141.59,115.08l-.1-.16.08,0a1.05,1.05,0,0,0,.05.19Z"/><path class="cls-1" d="M11.41,131.18s-.05-.05-.05-.08,0,0,.05-.07,0,0,0,.05A1,1,0,0,1,11.41,131.18Z"/><path class="cls-1" d="M69.82,62.72s-.08.09-.08.08,0-.1,0-.15Z"/><path class="cls-1" d="M109.55,111.69l.08.07c-.08.09-.07,0-.1-.05Z"/><path class="cls-1" d="M108.74,110.9l-.06,0s0,0,0,0l0,.07Z"/><path class="cls-1" d="M166.79,110.09l.05,0-.05,0Z"/><polygon class="cls-1" points="141.41 114.57 141.42 114.62 141.38 114.62 141.41 114.57"/><path class="cls-1" d="M90.25,80.22a1.28,1.28,0,0,1,.26.8,2.14,2.14,0,0,1-.49-.8Z"/><path class="cls-1" d="M240.8,99.39c0-.06-.05-.15,0-.17s.11,0,.14.08Z"/><path class="cls-1" d="M119.25,32.4a4.31,4.31,0,0,1,1,1.67c.08.19,0,.3-.17.37s-.23.07-.29-.07C119.56,33.75,119,33.22,119.25,32.4Z"/><path class="cls-1" d="M91.18,82.73a.16.16,0,0,1-.08,0,.11.11,0,0,1,0-.11c.08-.1.08,0,.09.06S91.19,82.69,91.18,82.73Z"/><path class="cls-1" d="M90.67,81.28l-.08,0s0-.07,0-.11,0,0,0,0Z"/><path class="cls-1" d="M175.56,28.1l-1.44-.25a.86.86,0,0,1-.59-.39.35.35,0,0,1-.08-.24c.06-.12.19-.1.29,0a9.11,9.11,0,0,1,1.81.93Z"/><path class="cls-1" d="M183.6,112.54c-.17-.14-.12-.3,0-.53.05.2.08.33.11.47Z"/><path class="cls-1" d="M51.34,110.09a6.23,6.23,0,0,1,.78.57c.25.23.23.25-.13.33-.2,0-.06.21-.1.32A4.06,4.06,0,0,1,51.34,110.09Z"/><path class="cls-1" d="M51.09,111.29a.16.16,0,0,1,.1.19s0,0,0,0l-.1-.2Z"/><path class="cls-1" d="M51.05,111.32a.44.44,0,0,1-.07-.08c.08-.09.08,0,.11.05Z"/><path class="cls-1" d="M136.35,124.77h-.14a27.63,27.63,0,0,0,.38-2.84,18.49,18.49,0,0,0-.35-4.45,7.05,7.05,0,0,0-.35-1.33,10,10,0,0,1-.64-2.94l0,0c.17.09.21.27.28.44a23.35,23.35,0,0,1,1.39,5.62,11,11,0,0,1-.51,5.08C136.41,124.46,136.38,124.62,136.35,124.77Z"/><path class="cls-1" d="M135.25,113.21c-.11,0-.21-.06-.21-.2s0,0,.05,0,.17.09.2.2Z"/></svg>