<svg id="Capa_1" data-name="Capa 1" xmlns="http://www.w3.org/2000/svg" viewBox="0 0 300 273.95"><defs><style>.cls-1{fill:#f6f6f6;}</style></defs><path class="cls-1" d="M294.59,134.35a44.85,44.85,0,0,1-5,5.79A27.86,27.86,0,0,1,273,147.67a32.65,32.65,0,0,1-14.15-1.61,26.67,26.67,0,0,1-9.43-5.73,37.26,37.26,0,0,1-7-9.12,1.73,1.73,0,0,0-.68-.89c-.26.48-.53,1-.78,1.44a43,43,0,0,1-7.82,10.62c-.19.18-.37.38-.57.54-.61.5-.93.5-1.58-.06a12.08,12.08,0,0,1-2.16-2.57,32.25,32.25,0,0,1-4-9.45,83.78,83.78,0,0,1-2.29-12.46,92.2,92.2,0,0,1-.68-9.4c0-.74-.12-1.49-.19-2.23s-.28-1-1.09-.75c-1.29.38-2.58.76-3.91,1a33,33,0,0,1-13.46-.33,56.39,56.39,0,0,1-15-5.74c-.85-.46-1.72-.9-2.58-1.35-.16-.08-.36-.19-.52,0s-.08.43.06.6a10,10,0,0,0,1,1.08c1.85,1.75,3.82,3.36,5.75,5a5.55,5.55,0,0,1,1.16,1.21.53.53,0,0,1,.07.63.54.54,0,0,1-.6.19,14.8,14.8,0,0,1-1.61-.46A58,58,0,0,1,174,98a26.6,26.6,0,0,1-6.21-7.19,13.81,13.81,0,0,1-1.36-3.66,3.14,3.14,0,0,1,.66-2.83A43.27,43.27,0,0,1,194.84,68a44.05,44.05,0,0,1,50.27,35.1,39.29,39.29,0,0,1,.79,6.57c0,.11,0,.22,0,.33.08.76.24.84.9.41a17.33,17.33,0,0,1,7.37-2.84,15.61,15.61,0,0,1,8.21,1.29,14.79,14.79,0,0,1,8.3,8.94,27.24,27.24,0,0,1,1.29,4.76,15.85,15.85,0,0,0,20.76,11.81,3.77,3.77,0,0,1,1.84-.42Z"/><path class="cls-1" d="M49.87,5.26a20.21,20.21,0,0,0,3.1.39,53.84,53.84,0,0,1,16.91,5,30.58,30.58,0,0,1,7,4.67,18.55,18.55,0,0,1,4.2,5.36,13,13,0,0,1-1,14,22,22,0,0,1-7,6.5c-.32.2-.64.39-.94.62A2.56,2.56,0,0,0,71,44a19.79,19.79,0,0,0,.88,5,94.33,94.33,0,0,0,4,11.19,10.06,10.06,0,0,1,.44,1.15c.13.49-.13.73-.61.58a5.48,5.48,0,0,1-.92-.43c-6.71-3.38-13.45-6.71-20.39-9.61-1.38-.57-2.78-1.1-4.16-1.67A25,25,0,0,0,41,48.44a54.36,54.36,0,0,1-21.2-4.7,30.84,30.84,0,0,1-9.23-6.08A16.31,16.31,0,0,1,6,30.44c-.12-.42-.18-.9-.62-1.16V24.57c.42-.29.45-.76.58-1.18a15.33,15.33,0,0,1,2.65-5.14,27.33,27.33,0,0,1,8.8-7.15A52.81,52.81,0,0,1,35.21,5.64a16.65,16.65,0,0,0,3-.38Z"/><path class="cls-1" d="M238.46,5.26a15,15,0,0,0,3,.37,57.09,57.09,0,0,1,14.19,3.65,32.47,32.47,0,0,1,11.08,7.09,16,16,0,0,1,4.6,8.44,12.67,12.67,0,0,1-1.58,8.54,21,21,0,0,1-6.44,6.93,43.69,43.69,0,0,1-16,6.78A63.7,63.7,0,0,1,234,48.61a16.61,16.61,0,0,0-4.95.87c-3.81,1.26-7.47,2.88-11.13,4.49-5.31,2.35-10.47,5-15.66,7.58-.41.2-.86.69-1.32.29s0-1,.18-1.42c1.42-3.54,2.82-7.09,3.9-10.75A37.66,37.66,0,0,0,206,44.85a3,3,0,0,0-1.59-3.38,22.33,22.33,0,0,1-7.68-7.1,13.35,13.35,0,0,1,.72-16.09,29.24,29.24,0,0,1,11-8.25,54.3,54.3,0,0,1,16.06-4.41,11.91,11.91,0,0,0,2.65-.36Z"/><path class="cls-1" d="M192.21,264.78a5.63,5.63,0,0,1-1.6-4.48c0-10.44,0-20.87,0-31.31a7.9,7.9,0,0,1,.22-2.22,2.55,2.55,0,0,1,3.9-1.58,5.44,5.44,0,0,1,1.66,1.65l7.28,10.24q5.9,8.34,11.8,16.66a2.37,2.37,0,0,0,.78.87c.27-.37.15-.79.15-1.17q0-12.41,0-24.8a7.08,7.08,0,0,1,.16-1.89,2.51,2.51,0,0,1,2.32-1.95,2.58,2.58,0,0,1,2.69,1.62,5.53,5.53,0,0,1,.29,2.21v27.15c0,1.76,0,3.52,0,5.27a4.14,4.14,0,0,1-1.63,3.73H218c-.72-.9-1.62-1.64-2.28-2.61-.92-1.36-1.9-2.69-2.85-4Q205,246.92,197,235.71c-.2-.29-.34-.67-.82-.76a3,3,0,0,0-.12,1.32c0,8.23,0,16.46,0,24.68a4.32,4.32,0,0,1-1.66,3.83Z"/><path class="cls-1" d="M110.49,264.78a2.1,2.1,0,0,0-1-.42,16.15,16.15,0,0,1-7.69-4A17,17,0,0,1,98,255a23.4,23.4,0,0,1,.87-22.18A15.35,15.35,0,0,1,110.28,225a16.22,16.22,0,0,1,10.58,1.46,16.89,16.89,0,0,1,8,8.74,24,24,0,0,1,.16,18.59,17.38,17.38,0,0,1-5.76,7.73,16.64,16.64,0,0,1-5.64,2.67,3.11,3.11,0,0,0-1.56.57Zm14.57-20.14a18.35,18.35,0,0,0-.5-4.9,15.2,15.2,0,0,0-2.68-6.13,10.32,10.32,0,0,0-9.64-4.1c-4.92.42-7.87,3.23-9.56,7.65a20.64,20.64,0,0,0-1.06,4.47,21.33,21.33,0,0,0,1.06,10.71c1.73,4.61,5.21,8,11.11,7.69a10.39,10.39,0,0,0,9-5.56C124.58,251.44,125,248.07,125.06,244.64Z"/><path class="cls-1" d="M167.74,264.78c-.24-.24-.46-.49-.7-.72a2.91,2.91,0,0,1-.88-1.89c0-.41,0-.82,0-1.24q0-16.16,0-32.31a10.13,10.13,0,0,1,.06-1.56,2.46,2.46,0,0,1,2.39-2.26,5.16,5.16,0,0,1,.68,0H182.5a4.22,4.22,0,0,1,1.76.31,2.13,2.13,0,0,1,1.28,2.17,2.19,2.19,0,0,1-1.22,2.21,4.07,4.07,0,0,1-1.85.35h-9c-.33,0-.67,0-1,0a1,1,0,0,0-1,1,5.37,5.37,0,0,0,0,.9c0,2.91,0,5.83,0,8.75v.22c0,1.34.27,1.58,1.59,1.59,2.65,0,5.31,0,8,0a12.18,12.18,0,0,1,1.35,0,2.44,2.44,0,0,1,2.26,2.37,2.34,2.34,0,0,1-2,2.46,7.75,7.75,0,0,1-1.67.15h-8.07c-1.2,0-1.41.17-1.42,1.34,0,3.21,0,6.43,0,9.64,0,1.14.26,1.39,1.38,1.47.82.06,1.64,0,2.46,0h7a10.47,10.47,0,0,1,1.12,0,2.4,2.4,0,0,1,1.76,3.9,14,14,0,0,1-1,1.08Z"/><path class="cls-1" d="M146.41,264.78a10.94,10.94,0,0,1-2.29-4.19q-4.6-12.7-9.25-25.41c-.73-2-1.46-4-2.17-6a7.76,7.76,0,0,1-.4-1.63,2.23,2.23,0,0,1,1.08-2.4,2.61,2.61,0,0,1,3,.21,4.81,4.81,0,0,1,1.4,2.26l2.44,6.87q3.5,9.95,7,19.89c.12.33.15.73.55,1a4.42,4.42,0,0,0,.65-1.44q4.44-12.58,8.86-25.19a11.09,11.09,0,0,1,1.31-2.84,2.4,2.4,0,0,1,2.43-1.07,2.23,2.23,0,0,1,2.1,2.34,6.07,6.07,0,0,1-.45,2.18q-2.52,7-5,13.93-3.26,8.9-6.5,17.81a8.79,8.79,0,0,1-2.21,3.71Z"/><path class="cls-1" d="M79.28,264.78a2.89,2.89,0,0,0-1.43-.6,10.18,10.18,0,0,1-3.39-1.69,3.39,3.39,0,0,1-1.27-1.67,2.14,2.14,0,0,1,.44-2.3A2.29,2.29,0,0,1,76,257.9a5,5,0,0,1,1.57.86A6.75,6.75,0,0,0,81.8,260c2.3-.07,3.46-.95,3.92-3.62a11,11,0,0,0,.06-1.9v-25.7a7.18,7.18,0,0,1,.14-1.79,2.67,2.67,0,0,1,2.93-2.21,2.6,2.6,0,0,1,2.36,2.57c0,.29,0,.6,0,.89q0,13.08,0,26.16a16.48,16.48,0,0,1-.46,3.77,7.87,7.87,0,0,1-5.47,6,3.09,3.09,0,0,0-1.32.59Z"/><path class="cls-1" d="M121.83,112.17a44,44,0,0,1-37.4,43.39,36.83,36.83,0,0,1-5.91.56,47.88,47.88,0,0,1-12.31-1.57,44.29,44.29,0,0,1-16.85-8.86,45,45,0,0,1-7.9-8.7c-1.09-1.55-1.1-1.71.36-2.91a19.73,19.73,0,0,0,5.14-7,87.07,87.07,0,0,0,6.72-22.62c.2-1.11.35-2.22.56-3.32s.39-1.39,1.61-1.38a55,55,0,0,1,5.6.18,28.09,28.09,0,0,0,2.91-.11c3.22,0,6.44-.13,9.65-.31a112.33,112.33,0,0,0,22.92-3.36,39.13,39.13,0,0,0,10.34-4.27,14.38,14.38,0,0,0,4.9-4.69l.13-.18c.68-1,1-1,1.64,0A39,39,0,0,1,118,94.19,43,43,0,0,1,121.83,112.17Z"/><path class="cls-1" d="M201.4,156.87c-11.05-.18-20.62-3.5-28.82-10.46a44,44,0,0,1-11.72-51.85,45.08,45.08,0,0,1,2.47-4.66c.19-.32.39-.64.61-.94s.37-.61.78-.51.41.43.48.71c.94,4,3.47,6.91,6.35,9.58A56.84,56.84,0,0,0,187.82,109c.82.36,1.67.66,2.52,1a9.49,9.49,0,0,0,1.3.32,1,1,0,0,0,1-.34.92.92,0,0,0-.12-1.14,6.6,6.6,0,0,0-.91-1c-1.32-1.16-2.66-2.3-4-3.45-.34-.29-.66-.6-1-.92-.1-.1-.21-.24-.12-.4s.32-.17.49-.09c.41.17.82.36,1.22.57a55.15,55.15,0,0,0,13.2,4.94,37.72,37.72,0,0,0,9.34,1,27.86,27.86,0,0,0,7.31-1.08l.53-.15c1.45-.41,1.6-.3,1.68,1.22a128.14,128.14,0,0,0,1.77,17,49,49,0,0,0,4,13.06,18.74,18.74,0,0,0,3.57,5c.78.77.77,1,0,1.71a43.78,43.78,0,0,1-21.49,10A56,56,0,0,1,201.4,156.87Z"/><path class="cls-1" d="M76.72,67.13a43.63,43.63,0,0,1,28.5,10.35,40.41,40.41,0,0,1,5.59,5.66c1,1.21,1,1.41.14,2.76a16.47,16.47,0,0,1-6.68,5.67,47,47,0,0,1-11.64,4,102.84,102.84,0,0,1-11.29,1.82c-5,.56-9.9.83-14.88.94-3.48.07-6.95-.19-10.43,0-.37,0-.74,0-1.12,0-1.61,0-1.81.17-2,1.72a113.46,113.46,0,0,1-2.73,13.29,62.82,62.82,0,0,1-5.08,13.65,20.28,20.28,0,0,1-3.82,5.23c-1.87,1.79-2.23,1.76-3.42-.57a44.39,44.39,0,0,1-5-21.75A44.28,44.28,0,0,1,60,70.45a45.75,45.75,0,0,1,11.79-3.08C73.43,67.17,75.07,67.19,76.72,67.13Z"/><path class="cls-1" d="M123.25,190.32v-14.7a8,8,0,0,1,.2-2,4,4,0,0,1,3.21-3.09,6.13,6.13,0,0,1,2-.24c3.43.27,6.87.09,10.31.12a10.34,10.34,0,0,1,5.73,1.67,9.42,9.42,0,0,1,4.49,9,8.64,8.64,0,0,1-2,5.24,10,10,0,0,1-1.59,1.4c-.22.18-.61.28-.53.64s.46.34.73.43a9,9,0,0,1,2.86,1.51,9.81,9.81,0,0,1,3.78,9.63,11.61,11.61,0,0,1-2,5.51,11.84,11.84,0,0,1-7.5,4.52,12.61,12.61,0,0,1-2.67.28H127.86a4.42,4.42,0,0,1-4.59-4.72c0-2.36,0-4.71,0-7.07v-8.18Zm8.85,7.73h0c0,1.08,0,2.17,0,3.25,0,.88.29,1.19,1.14,1.2a38,38,0,0,0,6.49-.14,4.14,4.14,0,0,0,2-.87,4.38,4.38,0,0,0,1.37-4.59,3.58,3.58,0,0,0-3.11-2.84l-1.11-.18a27.94,27.94,0,0,0-5.71,0c-.91,0-1.09.21-1.12,1.16S132.1,197,132.1,198.05ZM134.92,186v0c.71,0,1.42,0,2.12-.11a3.51,3.51,0,0,0,3.29-3.71c.06-2.22-.88-3.47-3-3.89a20.39,20.39,0,0,0-4.35-.14c-.61,0-.85.41-.85,1,0,1.94,0,3.88,0,5.82,0,.79.24,1,1,1C133.72,186,134.32,186,134.92,186Z"/><path class="cls-1" d="M60.61,190.34v-14.7a12,12,0,0,1,0-1.34,4.24,4.24,0,0,1,4.09-3.88c2.73-.15,5.46-.22,8.18-.12a31.64,31.64,0,0,1,7.57.76c5.76,1.63,10,5,12.07,10.74a24.31,24.31,0,0,1,.5,16.06c-2,6.21-6.18,10-12.37,11.71a19,19,0,0,1-5.2.73c-3.29,0-6.58,0-9.87,0a7.42,7.42,0,0,1-1.34-.09,4.06,4.06,0,0,1-3.66-4.39c0-5.16,0-10.32,0-15.48Zm8.83,0q0,5.2,0,10.43c0,1.22.13,1.35,1.36,1.36,1.57,0,3.14,0,4.71,0a8.92,8.92,0,0,0,8.63-6.44A16.62,16.62,0,0,0,84.07,185a8.83,8.83,0,0,0-6.9-6.2,25.45,25.45,0,0,0-6.92-.22.75.75,0,0,0-.78.78c0,.33,0,.67,0,1Z"/><path class="cls-1" d="M188,206.46a4.09,4.09,0,0,1-4.46,4.17,4.21,4.21,0,0,1-3.94-3.13c-.4-1.28-.8-2.57-1.23-3.84-.32-1-.42-1-1.45-1q-6.39,0-12.79,0c-1.09,0-1.21.12-1.57,1.21-.43,1.32-.82,2.65-1.3,3.94a4.31,4.31,0,0,1-3.23,2.83,4.24,4.24,0,0,1-5.09-5.12,55.82,55.82,0,0,1,2.15-6q4.44-12.11,8.93-24.2a13.84,13.84,0,0,1,1.13-2.44,6.08,6.08,0,0,1,5.48-3.13A6,6,0,0,1,176,173.1a18.17,18.17,0,0,1,1.15,2.68q5.12,14.24,10.24,28.49A8.16,8.16,0,0,1,188,206.46Zm-17.56-26.7a2,2,0,0,0-.4.88q-2,6.13-4,12.27a3.24,3.24,0,0,0-.16.53c-.13.61,0,.86.6,1a4.08,4.08,0,0,0,.78,0h5.39c.6,0,1.2,0,1.8,0s.73-.33.64-.83a3.63,3.63,0,0,0-.15-.54l-4-12.61C170.78,180.2,170.76,179.92,170.42,179.76Z"/><path class="cls-1" d="M97.47,190.61c0-4.45,0-8.9,0-13.35a15.76,15.76,0,0,1,.36-3.56,4,4,0,0,1,4-3.28c3.74-.18,7.48-.15,11.21-.13,1.12,0,2.24.09,3.36.14a3.71,3.71,0,0,1,3.68,4,3.88,3.88,0,0,1-3.6,4c-2.73.24-5.46.14-8.18.16-1.85,0-1.85,0-1.85,1.87,0,1.42,0,2.85,0,4.27,0,1.15.2,1.36,1.38,1.41s2.46,0,3.7,0,2.69,0,4,0a3.84,3.84,0,0,1,4,3.63,4,4,0,0,1-3.46,4.36,18.19,18.19,0,0,1-3.13.14h-5.16c-1.19,0-1.32.12-1.33,1.26,0,1.79,0,3.59,0,5.38,0,1.08.14,1.21,1.25,1.22,2.58,0,5.16,0,7.74,0a10.77,10.77,0,0,1,1.79.12,3.87,3.87,0,0,1,3.4,4.06,4,4,0,0,1-3.73,3.93c-.33,0-.67,0-1,0H102.65a6.1,6.1,0,0,1-2.32-.32,4,4,0,0,1-2.65-3.34,17.3,17.3,0,0,1-.21-2.79C97.48,199.44,97.47,195,97.47,190.61Z"/><path class="cls-1" d="M228.38,210.29h-7.07a4.79,4.79,0,0,1-2.37-.59,4.15,4.15,0,0,1-2.2-3.32,12.12,12.12,0,0,1-.06-1.34q0-14.49,0-29a7.32,7.32,0,0,1,.57-3.17,4,4,0,0,1,3.44-2.5c1-.1,2.09-.13,3.14-.13,3.22,0,6.43,0,9.65,0a15.5,15.5,0,0,1,2.46.2,4,4,0,0,1-.19,7.93,32.45,32.45,0,0,1-6.61.06c-.95-.08-1.86.14-2.8.14-.62,0-.81.45-.82,1,0,1.12,0,2.24,0,3.36,0,.68,0,1.35,0,2a1,1,0,0,0,.92,1.06,12.22,12.22,0,0,0,1.34.09l6.85,0a3.9,3.9,0,0,1,3,1.29,3.69,3.69,0,0,1,.83,4.05,3.81,3.81,0,0,1-3.21,2.63,42,42,0,0,1-5.49.16c-1.05,0-2.1,0-3.15,0-.85,0-1.07.22-1.08,1.08q0,2.81,0,5.61c0,1,.21,1.15,1.24,1.16,2.28,0,4.56,0,6.84,0a15.11,15.11,0,0,1,2.69.13c2.36.41,3.47,1.84,3.35,4.37a3.77,3.77,0,0,1-3.85,3.61c-2.2.06-4.41,0-6.62,0h-.79Z"/><path class="cls-1" d="M196.69,192.86V180c0-1.22-.16-1.37-1.36-1.39-1.6,0-3.21,0-4.81-.15a4,4,0,0,1,.13-8c1.8-.07,3.59,0,5.39,0H206.7a22.1,22.1,0,0,0,2.57-.11,8.57,8.57,0,0,1,2.9.16,3.9,3.9,0,0,1,3,2.75,4,4,0,0,1-.85,4.08,3.45,3.45,0,0,1-2.37,1.12c-1.53.12-3.06.18-4.6.15-.33,0-.67,0-1,0a.78.78,0,0,0-.79.79c0,.41,0,.82,0,1.23v24.46c0,.56,0,1.12,0,1.68a4,4,0,0,1-3.25,3.8,4.46,4.46,0,0,1-4.78-1.9,6.08,6.08,0,0,1-.77-3.23Z"/></svg>