<svg id="Capa_1" data-name="Capa 1" xmlns="http://www.w3.org/2000/svg" viewBox="0 0 300 239.87"><defs><style>.cls-1{fill:#f6f6f6;}</style></defs><path class="cls-1" d="M157,7.73a17.46,17.46,0,0,0,2.51.21,5.34,5.34,0,0,1,4.83,6.19c-.37,3.2-.64,6.41-1,9.61s-.67,6.4-1,9.6c-.28,2.79-.53,5.59-.82,8.38a5.33,5.33,0,0,1-5.92,4.67,34.85,34.85,0,0,0-6.54,0,8.69,8.69,0,0,1-3.21-.25,4.83,4.83,0,0,1-3.71-4.21c-.47-3.31-.72-6.65-1.05-10-.29-2.86-.61-5.72-.85-8.58-.27-3.25-.78-6.48-.84-9.74a7.11,7.11,0,0,1,.2-2.06A5,5,0,0,1,144.42,8a24.92,24.92,0,0,0,3.23-.22Z"/><path class="cls-1" d="M4.76,220.92A14.53,14.53,0,0,1,6,217.19c2.18-4.1,7.19-5.79,11.81-2.89a2,2,0,0,1,.81,2.17.89.89,0,0,1-1.33.66,11.58,11.58,0,0,1-1.44-.75,4.87,4.87,0,0,0-7.2,2.2,9.52,9.52,0,0,0,.22,8.57,4.61,4.61,0,0,0,5.92,2.24c.86-.29,1.69-.67,2.53-1,.57-.22,1.14-.33,1.58.26a1.4,1.4,0,0,1,0,1.69,2.06,2.06,0,0,1-.78.77,9.69,9.69,0,0,1-8.45.5c-2.49-1-3.75-3.15-4.51-5.61-.16-.52-.26-1.05-.39-1.57Z"/><path class="cls-1" d="M174.44,137a10.83,10.83,0,0,1-2.2-.18,3.11,3.11,0,0,1-2.11-1.68,14.45,14.45,0,0,1-.82-2.59,18.34,18.34,0,0,0-28.79-9.18,17.62,17.62,0,0,0-6.25,9.54,10.43,10.43,0,0,1-.55,1.72,3.36,3.36,0,0,1-3.59,2.13c-2.09-.06-4.19-.19-6.28-.32-3.45-.21-6.9-.41-10.34-.67a2.19,2.19,0,0,1-2.34-2.64,29.81,29.81,0,0,1,1.24-6.81A40.47,40.47,0,0,1,129,103.58a39.47,39.47,0,0,1,17.48-6.48c12.53-1.62,23.57,1.9,33,10.1,7.11,6.16,11.16,14.14,12.83,23.35a8.51,8.51,0,0,1,.06,2.52,3.24,3.24,0,0,1-3.27,3.13c-3.3.2-6.6.36-9.9.54Z"/><path class="cls-1" d="M63.11,171.19c-.76,3.12-1.49,6.17-2.26,9.2-1,4-1.85,8-3.18,11.83-.19.56-.38,1.11-.6,1.65a3.5,3.5,0,0,1-2.8,2.33,8,8,0,0,1-3.66-.23,3.44,3.44,0,0,1-2.15-2,33.7,33.7,0,0,1-1.81-6.21c-1.25-5.33-2.53-10.64-3.8-16a1.35,1.35,0,0,0-.32-.69,4.58,4.58,0,0,0-.35,1.56q-1.05,7.69-2.06,15.41a21.55,21.55,0,0,1-1.06,5.39,4.23,4.23,0,0,1-5.93,2.45,3.78,3.78,0,0,1-2.3-3.61,27.76,27.76,0,0,1,.77-6.67c1.26-7,2.5-13.91,3.77-20.86.17-.95.38-1.91.62-2.85.8-3.1,3.14-4.37,6.15-4.15a5.58,5.58,0,0,1,5.2,4.08c.91,2.58,1.4,5.26,2.09,7.9,1.1,4.2,2.15,8.41,3.23,12.62,0,0,0,0,0,.07.09.28.1.71.44.71s.28-.43.34-.68c1.62-6.57,3.09-13.17,4.74-19.73A6.15,6.15,0,0,1,62,158a5.85,5.85,0,0,1,7.71,3.57,45.94,45.94,0,0,1,1.34,6.66Q72,174.11,73,180c.52,3.24,1.07,6.48,1.56,9.73a9.23,9.23,0,0,1,0,3.23,4.3,4.3,0,0,1-8.32.31,27.93,27.93,0,0,1-.83-4.72c-.33-2.74-.65-5.49-1-8.23l-1-8.37A.86.86,0,0,0,63.11,171.19Z"/><path class="cls-1" d="M240.19,176.88c0,5.26-1.18,9.67-4.17,13.49a16.44,16.44,0,0,1-11.1,6.31,21.06,21.06,0,0,1-8.55-.37,16.52,16.52,0,0,1-11.53-10.25,23.57,23.57,0,0,1-.13-17.61c2.56-6.45,7.36-10.28,14.35-11.1,4.52-.53,8.86,0,12.75,2.59a17.89,17.89,0,0,1,8,12.45A29.29,29.29,0,0,1,240.19,176.88Zm-9.89.47a13.6,13.6,0,0,0-1.48-7.36,7.8,7.8,0,0,0-7.14-4.28,7.3,7.3,0,0,0-6.86,3.91,14.85,14.85,0,0,0-.39,14.13,7.54,7.54,0,0,0,7.09,4.54,7.87,7.87,0,0,0,7.36-4.34A11.52,11.52,0,0,0,230.3,177.35Z"/><path class="cls-1" d="M95.2,157.18a18,18,0,0,1,11.44,3.47,17.52,17.52,0,0,1,6.67,10.79A24,24,0,0,1,112.23,186c-2.65,6.23-7.38,9.9-14.18,10.67a19.63,19.63,0,0,1-9.64-.89c-6.08-2.4-9.61-7-10.94-13.26a24,24,0,0,1,1-14.21c2.18-5.39,6-9.1,11.72-10.54A19.47,19.47,0,0,1,95.2,157.18ZM86.63,178a14.24,14.24,0,0,0,.92,4.68,8.5,8.5,0,0,0,7.71,5.68,8.64,8.64,0,0,0,8.22-6.53,16.51,16.51,0,0,0-.52-11,7.84,7.84,0,0,0-7.13-5.1,7.51,7.51,0,0,0-7.12,3.56C87.14,171.67,86.66,174.37,86.63,178Z"/><path class="cls-1" d="M87.3,70.87A4.47,4.47,0,0,1,86.15,74c-2,2.37-4,4.74-6.08,7.08a5.11,5.11,0,0,1-6.15,1.23,24.6,24.6,0,0,1-3.37-2.19C63.87,75.51,57.31,70.75,50.73,66a8,8,0,0,1-1.3-1.16c-1.9-2.16-2-4.28-.27-6.87a55.13,55.13,0,0,1,4.66-5.81c1.42-1.63,2.88-3.22,4.33-4.83a6.3,6.3,0,0,1,3.48-2.12,5.3,5.3,0,0,1,4.94,1.69c2,2,3.87,4,5.8,6l9.79,10.2c1.21,1.27,2.41,2.54,3.6,3.83A5.3,5.3,0,0,1,87.3,70.87Z"/><path class="cls-1" d="M256.42,61.5a4.43,4.43,0,0,1-1.84,3.83c-2.28,1.72-4.62,3.35-7,5-5.14,3.66-10.3,7.3-15.43,11a6.05,6.05,0,0,1-5,1.33,5.3,5.3,0,0,1-2.91-1.71c-2-2.26-3.94-4.49-5.81-6.81s-1.89-4.72.11-7,4.1-4.39,6.18-6.57q6.13-6.42,12.29-12.82c.36-.38.7-.77,1.09-1.11a5.37,5.37,0,0,1,7.69.29,140.94,140.94,0,0,1,9.32,10.8A6,6,0,0,1,256.42,61.5Z"/><path class="cls-1" d="M62.29,106.38a8.52,8.52,0,0,1-3.09-.68L35.46,97.59a12.05,12.05,0,0,1-1.86-.75A5.31,5.31,0,0,1,30.94,90a114.75,114.75,0,0,1,5.85-13,5.61,5.61,0,0,1,4.1-3.27,6.12,6.12,0,0,1,4.08,1l6.69,3.85c5.68,3.31,11.32,6.67,17,9.91,2.3,1.3,3.36,4.89,2.07,7.06a62.86,62.86,0,0,0-3.31,7.17,7.2,7.2,0,0,1-1.35,2.13A4.85,4.85,0,0,1,62.29,106.38Z"/><path class="cls-1" d="M96.28,63.81a5.51,5.51,0,0,1-4.72-2.47q-8.3-10.47-16.56-21c-2.25-2.85-1.86-6.15,1.06-8.28a118.36,118.36,0,0,1,11.87-7.67c3.09-1.74,6.11-.85,7.83,2.23,1.58,2.83,3,5.76,4.45,8.65q3.89,7.55,7.8,15.09a7.7,7.7,0,0,1,1,3,5,5,0,0,1-2.3,4.73c-2.54,1.72-5.15,3.34-7.74,5A4.08,4.08,0,0,1,96.28,63.81Z"/><path class="cls-1" d="M273.81,91.81c0,2.8-1.36,4.56-4.15,5.52l-15.78,5.4q-4.47,1.55-9,3.07a7.39,7.39,0,0,1-4,.47,4.78,4.78,0,0,1-3.48-2.66c-1.38-2.81-2.71-5.65-3.92-8.55a5,5,0,0,1,2.25-6.63C241.72,85,247.7,81.5,253.66,78l5.83-3.4c3.1-1.79,6.32-1,8,2.19a110.5,110.5,0,0,1,6,13.16A4.12,4.12,0,0,1,273.81,91.81Z"/><path class="cls-1" d="M54.28,132.73l-10.94-.52c-2.48-.11-5-.16-7.44-.3-3-.16-6-.11-9-.5-2.8-.37-4.43-2.78-4.32-5.62a109.82,109.82,0,0,1,1.88-14.25,5.43,5.43,0,0,1,3.83-4.64,5.22,5.22,0,0,1,2.88,0l16.31,4,10.09,2.41c2.43.58,4.14,1.9,4.63,4.48a5.28,5.28,0,0,1,0,1.94c-.48,2.68-.72,5.39-1.13,8.08a7.79,7.79,0,0,1-.74,2.34c-1,2-2.83,2.53-4.87,2.64-.41,0-.82,0-1.23,0Z"/><path class="cls-1" d="M208.17,63.84a5.18,5.18,0,0,1-3.39-1.11c-2.2-1.56-4.48-3-6.8-4.41A5.25,5.25,0,0,1,196,51.25c2.15-4.25,4.37-8.45,6.5-12.7s4.36-8.16,6.38-12.33a5.29,5.29,0,0,1,7.31-2c2,1.12,3.95,2.33,5.89,3.54a79.26,79.26,0,0,1,6.6,4.59,5.26,5.26,0,0,1,1.15,7.38c-1.33,1.84-2.78,3.59-4.19,5.37C221.36,50.56,217,56,212.73,61.43a5.41,5.41,0,0,1-3.4,2.31C209,63.8,208.56,63.81,208.17,63.84Z"/><path class="cls-1" d="M180.34,10.69a20.72,20.72,0,0,1,4.07.9c3.69,1,7.37,2.08,10.94,3.48a5.12,5.12,0,0,1,3,7c-3.23,8.34-6.68,16.6-10,24.9a7.47,7.47,0,0,1-1.26,2.4A5.21,5.21,0,0,1,181.62,51c-3-.78-6-1.67-9-2.66a5.15,5.15,0,0,1-3.41-5.91q2.6-13.6,5.22-27.18C175.06,12.31,177,10.7,180.34,10.69Z"/><path class="cls-1" d="M250.14,133a20.55,20.55,0,0,1-2.07-.07,5.39,5.39,0,0,1-4.52-4.69c-.27-2.78-.7-5.53-1.12-8.28a5.16,5.16,0,0,1,3.46-6,45.65,45.65,0,0,1,5.51-1.47c5.85-1.45,11.71-2.87,17.57-4.3,1.38-.34,2.77-.68,4.16-1,3.63-.82,6.24.82,7,4.47A89.81,89.81,0,0,1,282,124.93a12.62,12.62,0,0,1,0,2.38,4.74,4.74,0,0,1-3.72,4.24,17,17,0,0,1-3.41.34c-2.35.15-4.7.2-7.05.31-4.41.19-8.81.42-13.21.6-1.49.06-3,0-4.47,0Z"/><path class="cls-1" d="M135.21,43.34a4.9,4.9,0,0,1-3.24,5,37,37,0,0,1-4.1,1.2c-1.31.39-2.6.83-3.89,1.25-2.34.78-4.57.68-6.45-1.16a6.32,6.32,0,0,1-1.35-2.27q-5-12.39-10-24.8a6.47,6.47,0,0,1-.59-3.09A5.06,5.06,0,0,1,109.22,15c1.54-.59,3.08-1.15,4.64-1.67a91.94,91.94,0,0,1,9.51-2.55,5.12,5.12,0,0,1,6.52,4.27c.7,3.5,1.39,7,2,10.5q1.49,8.07,3.09,16.11A7.6,7.6,0,0,1,135.21,43.34Z"/><path class="cls-1" d="M128.54,195.77c-2,0-4.07,0-6.09-.12a3.45,3.45,0,0,1-3.5-2.88,18.29,18.29,0,0,1-.4-3.54c-.18-4.38.06-8.77,0-13.15,0-3.4,0-6.79,0-10.19a20.55,20.55,0,0,1,.34-4.06,4,4,0,0,1,4.21-3.47c3-.06,6-.15,8.94-.1a21.19,21.19,0,0,1,8.86,1.62,15.75,15.75,0,0,1,8.29,9,21.77,21.77,0,0,1-.8,18.17c-2.57,5.06-7,7.84-12.62,8.52A56.61,56.61,0,0,1,128.54,195.77Zm-1-18.73q0,4.61,0,9.21c0,1,.32,1.28,1.29,1.29a33.85,33.85,0,0,0,4.27-.13c3.06-.38,5.48-1.75,6.74-4.68a14.37,14.37,0,0,0,.57-10.38,7.55,7.55,0,0,0-6.08-5.37,26,26,0,0,0-5.35-.42c-1.16,0-1.44.29-1.45,1.47Z"/><path class="cls-1" d="M257.77,157.21a13.54,13.54,0,0,1,6.83,1.59,4.71,4.71,0,0,1,2.82,3.66,3.71,3.71,0,0,1-3.81,4.36,9.13,9.13,0,0,1-2.74-.44,21.26,21.26,0,0,0-3.87-.79,3.91,3.91,0,0,0-3.22,1,2.16,2.16,0,0,0,0,3.27,8.8,8.8,0,0,0,3.42,1.93c1.85.66,3.76,1.15,5.55,2,3.51,1.63,6.12,4.08,6.92,8a12.1,12.1,0,0,1-7.7,13.78,18.94,18.94,0,0,1-8.47,1.11,17.91,17.91,0,0,1-6.93-1.75,10.32,10.32,0,0,1-1.91-1.22,4.16,4.16,0,0,1-1.52-4.5,4.21,4.21,0,0,1,4-2.73,11.53,11.53,0,0,1,3.48.71,30.52,30.52,0,0,0,4.22,1,8.05,8.05,0,0,0,2.45,0,3.73,3.73,0,0,0,3-3,3.53,3.53,0,0,0-2-3.58,22.36,22.36,0,0,0-3.37-1.35,41.85,41.85,0,0,1-6.45-2.52,9.16,9.16,0,0,1-4.34-4.47,9.94,9.94,0,0,1-.67-3.35,10.92,10.92,0,0,1,3.25-9,13.59,13.59,0,0,1,8.51-3.71A18.39,18.39,0,0,1,257.77,157.21Z"/><path class="cls-1" d="M155.41,177.49c0-4.26,0-8.52,0-12.78a10.51,10.51,0,0,1,.66-3.81,3.75,3.75,0,0,1,3.64-2.54c2.59,0,5.18-.1,7.78-.1,1.92,0,3.84.05,5.77.11a4.07,4.07,0,0,1,3.69,5.89,3.3,3.3,0,0,1-2.18,1.8,11.33,11.33,0,0,1-3.52.52c-1.86,0-3.72,0-5.58,0-1,0-1.23.28-1.25,1.25,0,1.21,0,2.42,0,3.63,0,.81.32,1.16,1.14,1.17,1.53,0,3.07,0,4.6,0a10.31,10.31,0,0,1,3.81.67,3.6,3.6,0,0,1,2.51,3.31,3.66,3.66,0,0,1-2.21,3.71,7.88,7.88,0,0,1-3.44.79h-5.13c-1,0-1.28.23-1.27,1.26a23.23,23.23,0,0,0,.11,3.82,1.24,1.24,0,0,0,1.32,1.24c1.53.15,3.06.06,4.59.07a13.08,13.08,0,0,1,4.44.42,3.83,3.83,0,0,1,2.62,4.76,3.6,3.6,0,0,1-3.07,2.79,13.57,13.57,0,0,1-2.77.29c-3.61,0-7.22,0-10.84,0a9,9,0,0,1-2.31-.29,3.71,3.71,0,0,1-2.84-2.89,10.68,10.68,0,0,1-.26-2.76Z"/><path class="cls-1" d="M182.39,177.06c0-4.52,0-9,0-13.56a8.27,8.27,0,0,1,.6-3.29,4,4,0,0,1,4.23-2.44,3.74,3.74,0,0,1,3.69,3.13,14.79,14.79,0,0,1,.5,4q0,10.45,0,20.89c0,1.62.1,1.72,1.73,1.72,2,0,4.06,0,6.1,0a7.94,7.94,0,0,1,3,.59,3.36,3.36,0,0,1,2.2,3.28c.07,1.66-.42,3-2.06,3.67a8.64,8.64,0,0,1-3.28.68q-5.78,0-11.55,0a10.37,10.37,0,0,1-1.67-.15c-2.24-.4-3.39-1.81-3.42-4.27,0-2.9,0-5.8,0-8.69Z"/><path class="cls-1" d="M109.78,107.29a3.51,3.51,0,0,1-2.76-.94q-4.2-3-8.38-6.12l-7.73-5.69a4,4,0,0,1-.7-6.14,66.46,66.46,0,0,1,4.72-5.34,4.21,4.21,0,0,1,3.67-1.4,4.26,4.26,0,0,1,2.43,1.4q6.87,7.47,13.72,15a3.93,3.93,0,0,1,0,5.65c-.71.76-1.38,1.55-2.08,2.32A3.19,3.19,0,0,1,109.78,107.29Z"/><path class="cls-1" d="M202.62,120.52a3.43,3.43,0,0,1-3.4-2c-.62-1.19-1.21-2.4-1.71-3.64a3.74,3.74,0,0,1,1.55-4.74q8.85-5.37,17.73-10.68a3.71,3.71,0,0,1,5.53,1.48,50.42,50.42,0,0,1,3.35,7.09,3.75,3.75,0,0,1-2.41,5.29c-3.43,1.26-6.86,2.5-10.3,3.75l-8.47,3.07A4.58,4.58,0,0,1,202.62,120.52Z"/><path class="cls-1" d="M115,68.27a3.75,3.75,0,0,1,3.59,2.27c.79,1.54,1.53,3.1,2.29,4.65q3.33,6.81,6.67,13.63A3.81,3.81,0,0,1,126.47,94,11.33,11.33,0,0,1,122,96.39a3.36,3.36,0,0,1-3.59-1c-1.34-1.5-2.49-3.16-3.71-4.75q-4.43-5.76-8.8-11.55a4.32,4.32,0,0,1-1.1-3.54A4.22,4.22,0,0,1,106.52,73a48.67,48.67,0,0,1,6.9-4.23A3.21,3.21,0,0,1,115,68.27Z"/><path class="cls-1" d="M194.79,107.28a3,3,0,0,1-1.83-.46,9.84,9.84,0,0,1-4.11-4.54,3.59,3.59,0,0,1,.71-4.19c2.09-2.28,4.2-4.54,6.29-6.82,2.36-2.58,4.72-5.17,7.05-7.79,1.75-2,4.12-2.37,6.06-.94a6.51,6.51,0,0,1,1,1.07c1.45,1.64,2.92,3.25,4.31,4.94a3.78,3.78,0,0,1-.74,5.87q-8,6-16,11.87A4.14,4.14,0,0,1,194.79,107.28Z"/><path class="cls-1" d="M176.29,90.77a5,5,0,0,1,.63-2.11l8.37-17a11.78,11.78,0,0,1,.77-1.5,3.53,3.53,0,0,1,4.62-1.47,34.88,34.88,0,0,1,7.86,4.88,3.67,3.67,0,0,1,.27,5.11c-2.48,3.27-5,6.53-7.46,9.8l-4.8,6.29c-1.58,2.07-3.32,2.43-5.61,1.18-1.05-.57-2-1.23-3-1.88A3.53,3.53,0,0,1,176.29,90.77Z"/><path class="cls-1" d="M162,84.65c.14-1.35.52-3,.83-4.65q1.46-7.74,3-15.46a7.85,7.85,0,0,1,.39-1.44,3.41,3.41,0,0,1,3.91-2.24,36.09,36.09,0,0,1,8.27,2.39c2.33,1,3.08,2.64,2.16,5-2.5,6.47-5.06,12.92-7.76,19.31A3.58,3.58,0,0,1,170,90a3.87,3.87,0,0,1-1.48-.12,26.26,26.26,0,0,1-4-1.19C162.75,88,162,86.88,162,84.65Z"/><path class="cls-1" d="M151,87.29c-.62-.05-1.16-.07-1.69-.16a3.73,3.73,0,0,1-3.19-3.7c-.46-5-.94-10-1.41-15-.16-1.76-.3-3.52-.51-5.28A3.65,3.65,0,0,1,147.41,59a29.19,29.19,0,0,1,8.9,0,3.59,3.59,0,0,1,3.12,4c-.47,4.85-.92,9.71-1.4,14.56-.22,2.17-.44,4.34-.76,6.5s-1.56,3.14-3.74,3.16A16.6,16.6,0,0,0,151,87.29Z"/><path class="cls-1" d="M85.52,98.81a4.41,4.41,0,0,1,1.92.6c5.9,3.57,11.79,7.16,17.72,10.66a4.08,4.08,0,0,1,1.74,4.76,17,17,0,0,1-1.88,4,3.45,3.45,0,0,1-4.48,1.55c-2.11-.71-4.19-1.5-6.28-2.26l-12.8-4.66a4.86,4.86,0,0,1-2.2-1.31,3.44,3.44,0,0,1-.67-3.58,39.7,39.7,0,0,1,3.78-8A3.67,3.67,0,0,1,85.52,98.81Z"/><path class="cls-1" d="M102.25,128.39a26.46,26.46,0,0,1-.74,4.58c-.52,1.84-2,2.74-4.12,2.57-1.89-.14-3.79-.24-5.69-.36l-10.28-.63c-1.51-.09-3-.2-4.53-.27a3.84,3.84,0,0,1-3.55-4.21c.3-2.62.69-5.22,1.2-7.81s2.13-3.57,4.57-3.05c4.38,1,8.68,2.18,13,3.29l6.66,1.72a5.54,5.54,0,0,1,2.22,1A3.84,3.84,0,0,1,102.25,128.39Z"/><path class="cls-1" d="M202.14,128.46c0-2.32.82-3.43,2.86-4q8.61-2.31,17.23-4.55c1.05-.28,2.07-.65,3.14-.83a3.66,3.66,0,0,1,4.44,3,44.9,44.9,0,0,1,1.25,8.06c.1,2.35-1,3.92-3.56,4.13-3.51.28-7,.46-10.54.68l-9.69.59a7.07,7.07,0,0,1-2-.17,3.06,3.06,0,0,1-2.37-2.25A28.5,28.5,0,0,1,202.14,128.46Z"/><path class="cls-1" d="M142.36,85c0,2.11-.54,2.9-2.53,3.64A30.45,30.45,0,0,1,136,89.84a3.38,3.38,0,0,1-4.3-2.15c-1.08-2.55-2.1-5.12-3.13-7.69L124,68.69a4.8,4.8,0,0,1-.44-2.27A3.54,3.54,0,0,1,126,63.26a57.17,57.17,0,0,1,8.21-2.4A3.28,3.28,0,0,1,138.14,63a25,25,0,0,1,1.05,4.68c1,5.32,2,10.65,3.06,16A6.87,6.87,0,0,1,142.36,85Z"/><path class="cls-1" d="M54.14,218.12c-.36,1.17-.71,2.34-1.06,3.51-.91,3-1.81,6-2.72,9l0,.13c-.37,1.12-.8,1.54-1.58,1.55s-1.26-.43-1.58-1.54c-1.05-3.52-2.08-7-3.12-10.57a7.34,7.34,0,0,0-.79-2c-.3,1.9-.58,3.62-.83,5.34-.36,2.42-.68,4.84-1,7.25-.19,1.28-1.05,1.8-2.1,1.35-.64-.28-.88-.91-.84-1.94a53,53,0,0,1,1.24-8.32c.46-2.31.94-4.62,1.41-6.93.3-1.43,1-2,2.27-2a1.65,1.65,0,0,1,1.55,1,18,18,0,0,1,1,3.14c.87,2.92,1.71,5.85,2.56,8.77,0,.16.13.32.19.48.26,0,.25-.25.29-.39q1.58-5.29,3.13-10.57c.09-.29.18-.58.28-.87a2,2,0,0,1,2-1.59,2,2,0,0,1,2,1.85c.45,2.22.89,4.45,1.33,6.67.52,2.63,1,5.26,1.34,7.92a10.06,10.06,0,0,1,.07,1.55,1.33,1.33,0,0,1-1.41,1.38,1.23,1.23,0,0,1-1.45-1.09c-.27-1.46-.46-2.94-.68-4.42-.43-2.88-.85-5.76-1.28-8.64Z"/><path class="cls-1" d="M183.45,222.53v-7.71c0-.67,0-1.33.77-1.62a1.78,1.78,0,0,1,2.07.67c.63.85,1.22,1.73,1.83,2.6l6.51,9.29c.14.19.22.56.55.45s.18-.45.18-.69c0-3.33,0-6.66,0-10a5.56,5.56,0,0,1,.12-1.35,1.2,1.2,0,0,1,1.33-1.06,1.25,1.25,0,0,1,1.34,1.06,5.11,5.11,0,0,1,.1,1.29q0,6.69,0,13.36c0,.37,0,.73.07,1.1a3.41,3.41,0,0,1-.11,1.35,1.4,1.4,0,0,1-2.34.63,15.25,15.25,0,0,1-2.29-2.89c-2.1-3.17-4.28-6.28-6.49-9.38a3.47,3.47,0,0,0-.26-.37c-.07-.08-.18-.17-.26-.16s-.15.18-.16.31,0,.35,0,.52c0,3.18,0,6.35-.1,9.53a11.66,11.66,0,0,1-.16,1.67,1.24,1.24,0,0,1-1.24,1.18,1.32,1.32,0,0,1-1.39-1.11,4.36,4.36,0,0,1-.1-1Z"/><path class="cls-1" d="M219.26,222.61v-7.52c0-1.41.54-2,2-2a33.41,33.41,0,0,1,6.08.24,7,7,0,0,1,5.29,4c1.81,4,1.82,7.91-.68,11.65a7.29,7.29,0,0,1-5.69,3.17,31.84,31.84,0,0,1-5,0c-1.55-.09-2-.52-2-2.09,0-2.51,0-5,0-7.52Zm3,.12c0,2,0,4,0,6,0,.63.26.92.89.9s1.25,0,1.88,0a4.93,4.93,0,0,0,4.72-2.95,9.53,9.53,0,0,0,.42-7.26,5,5,0,0,0-4.28-3.58c-.75-.1-1.51,0-2.27-.07-1.11,0-1.35.17-1.36,1.28Z"/><path class="cls-1" d="M122.76,213.12a22.62,22.62,0,0,1,3.94.18,7.13,7.13,0,0,1,5.79,4.54A12,12,0,0,1,132.3,228a7.41,7.41,0,0,1-6.27,4.23,24.07,24.07,0,0,1-5.69.06,1.21,1.21,0,0,1-1.29-1.2,8.8,8.8,0,0,1-.09-1.36q0-7,0-14.07c0-2.11.39-2.48,2.51-2.49Zm-.93,9.66h0c0,1.92,0,3.84,0,5.76a1,1,0,0,0,.82,1.12,6,6,0,0,0,6.83-3.11,9.7,9.7,0,0,0,.61-6.26A5.09,5.09,0,0,0,126,216a10.09,10.09,0,0,0-2.9-.26c-1,.05-1.29.38-1.29,1.38C121.83,219,121.83,220.9,121.83,222.78Z"/><path class="cls-1" d="M253.7,222.28a11.38,11.38,0,0,1-1.3,6,8,8,0,0,1-6.69,4.06c-4.1.29-6.71-2.45-7.85-5.22a11.08,11.08,0,0,1,.7-10.31,7.75,7.75,0,0,1,9.65-3.38c2.8,1,4.21,3.23,5.09,5.91A7.56,7.56,0,0,1,253.7,222.28Zm-3,.36a7.85,7.85,0,0,0-1-4.46,4.49,4.49,0,0,0-2.23-2.17,5.07,5.07,0,0,0-6.77,3.1,11.12,11.12,0,0,0,0,7.14,5,5,0,0,0,4.69,3.46,4.78,4.78,0,0,0,4.62-3.14A8.25,8.25,0,0,0,250.66,222.64Z"/><path class="cls-1" d="M79.11,222.75v-7.33a4.44,4.44,0,0,1,.12-1.09,1.23,1.23,0,0,1,1.13-1.09,18.73,18.73,0,0,1,6.76.25A5.56,5.56,0,0,1,90,221.87a4.87,4.87,0,0,1-2.59,1.74c-.33.11-.67.19-1,.3-.7.23-.75.41-.24,1l3.93,4.3a5.07,5.07,0,0,1,.8,1.26,1.14,1.14,0,0,1-.18,1.48,1.21,1.21,0,0,1-1.6.17,11.92,11.92,0,0,1-2.45-2.2c-1.23-1.36-2.44-2.74-3.66-4.11-.18-.2-.36-.5-.69-.35s-.3.45-.3.74c0,1.53,0,3.07,0,4.6,0,1-.33,1.42-1.14,1.51A1.42,1.42,0,0,1,79.2,231a3.87,3.87,0,0,1-.08-.9C79.11,227.68,79.11,225.21,79.11,222.75ZM82,218.53c0,.91,0,1.51,0,2.12,0,.77.27,1,1,1a16.72,16.72,0,0,0,2-.08c1.94-.18,2.58-.78,2.8-2.71a2.61,2.61,0,0,0-2.05-2.95c-1-.14-2-.14-3-.19-.44,0-.66.19-.74.63A14.36,14.36,0,0,0,82,218.53Z"/><path class="cls-1" d="M259.75,225.39c-.14.19-.07.41-.07.62,0,1.58,0,3.16,0,4.73a1.47,1.47,0,0,1-1.43,1.61,1.44,1.44,0,0,1-1.45-1.45,34.26,34.26,0,0,1-.07-4.86,7.77,7.77,0,0,0,0-.84q0-5.14,0-10.31c0-1.18.38-1.66,1.55-1.72a25.52,25.52,0,0,1,5.17.05c3.73.54,5.58,3.43,4.7,7.12a4.12,4.12,0,0,1-2.95,3.21c-.43.14-.87.27-1.29.43-.58.21-.64.43-.23.89.83.91,1.7,1.79,2.53,2.69a24.7,24.7,0,0,1,2,2.53c.53.76.51,1.38,0,1.86s-1.14.53-1.85-.12c-1.23-1.13-2.39-2.32-3.58-3.49-.89-.88-1.77-1.78-2.65-2.66C260.05,225.56,260,225.39,259.75,225.39Zm-.08-6c0,.44,0,.78,0,1.13,0,.77.37,1.1,1.13,1.11a12.9,12.9,0,0,0,2.32-.13,2.72,2.72,0,0,0,2.39-2.52,2.87,2.87,0,0,0-1.34-2.81,5.64,5.64,0,0,0-3.33-.55,1.16,1.16,0,0,0-1.17,1.41C259.76,217.89,259.62,218.71,259.67,219.43Z"/><path class="cls-1" d="M28.67,228.21H25.94c-1,0-1.32.25-1.61,1.24-.12.41-.24.83-.39,1.23A2.69,2.69,0,0,1,22.88,232a1.24,1.24,0,0,1-2-1.22,14.66,14.66,0,0,1,.93-3.37q2.5-6.45,5-12.91a2.19,2.19,0,0,1,.89-1.24,1.76,1.76,0,0,1,2.57.63,16,16,0,0,1,.84,1.89c1.85,4.45,3.49,9,5.13,13.51a4.32,4.32,0,0,1,.31,1.71,1.2,1.2,0,0,1-.67,1.16,1.24,1.24,0,0,1-1.34-.21,4.09,4.09,0,0,1-1.39-2.28c-.35-1.3-.59-1.49-1.93-1.5Zm.1-2.65h1.88c.9,0,1.12-.26.83-1.09-.75-2.12-1.52-4.23-2.29-6.35-.07-.2-.16-.41-.43-.4s-.37.2-.44.41c-.78,2.15-1.57,4.3-2.33,6.46-.26.73-.09.93.7,1S28.08,225.56,28.77,225.56Z"/><path class="cls-1" d="M70.39,228.24a27.37,27.37,0,0,1-4.23,0,1.66,1.66,0,0,0-1.92,1.51,4.19,4.19,0,0,1-.89,2,1.36,1.36,0,0,1-1.78.44,1.29,1.29,0,0,1-.67-1.69c.62-2.24,1.47-4.39,2.3-6.54,1.19-3.07,2.39-6.12,3.59-9.18A2.53,2.53,0,0,1,68,213.2a2,2,0,0,1,2.67,1.33c.86,2.17,1.7,4.35,2.55,6.52,1.11,2.84,2.23,5.67,3.14,8.58.11.38.23.75.3,1.13a1.17,1.17,0,0,1-.49,1.31,1.31,1.31,0,0,1-1.52,0,3,3,0,0,1-1.34-2C73,228.45,72.4,228.12,70.39,228.24Zm-1.71-11c-.08.18-.14.29-.19.41l-2.41,6.69c-.31.88-.08,1.2.86,1.21,1.17,0,2.33,0,3.5,0s1.29-.34,1-1.31q-.94-2.79-1.93-5.56A3.47,3.47,0,0,0,68.68,217.25Z"/><path class="cls-1" d="M200.78,230.9a4.4,4.4,0,0,1,.25-1.13c1.55-4.71,3.5-9.26,5.25-13.88a11.72,11.72,0,0,1,.71-1.81,2,2,0,0,1,1.94-1.07,1.74,1.74,0,0,1,1.57,1.26c1.92,4.94,4,9.8,5.65,14.83.16.48.3,1,.44,1.43a1.28,1.28,0,0,1-.59,1.61,1.41,1.41,0,0,1-1.71-.32,4.41,4.41,0,0,1-1.09-2.11c-.29-1.21-.65-1.49-1.88-1.5h-5.25c-1.13,0-1.47.26-1.83,1.36a9,9,0,0,1-.89,2.07,1.29,1.29,0,0,1-1.5.62A1.32,1.32,0,0,1,200.78,230.9Zm8-5.36h0c.71,0,1.42,0,2.13,0s.77-.28.59-.8c-.81-2.34-1.64-4.68-2.46-7-.06-.16-.09-.37-.31-.36s-.24.22-.3.37q-1.24,3.4-2.48,6.81c-.24.67-.08.94.63,1S208.05,225.54,208.79,225.54Z"/><path class="cls-1" d="M108.48,230.72c0,.76-.17,1.24-.75,1.49a1.32,1.32,0,0,1-1.54-.34,4.52,4.52,0,0,1-1.09-2.1c-.4-1.36-.66-1.56-2-1.56H97.93c-1.22,0-1.61.35-1.8,1.56A3,3,0,0,1,95,231.93a1.43,1.43,0,0,1-1.8.1,1.31,1.31,0,0,1-.36-1.64c.89-2.7,1.78-5.41,2.85-8.06s2-5.06,3-7.59a6.16,6.16,0,0,1,.39-.82,1.77,1.77,0,0,1,3.1-.06,15.28,15.28,0,0,1,1.25,3c1.51,3.91,3,7.83,4.47,11.75A8.28,8.28,0,0,1,108.48,230.72Zm-7.81-5.17c.67,0,1.34,0,2,0s.93-.37.7-1c-.43-1.25-.9-2.48-1.34-3.72-.39-1.05-.77-2.11-1.15-3.16,0-.14-.1-.33-.28-.33s-.18.17-.22.29c-.83,2.32-1.68,4.63-2.49,7-.22.64,0,1,.7,1S100,225.55,100.67,225.55Z"/><path class="cls-1" d="M161.34,232.36a8.46,8.46,0,0,1-4.33-1,2,2,0,0,1-.89-.82,1.61,1.61,0,0,1,.23-1.76,1.15,1.15,0,0,1,1.42-.26,15.16,15.16,0,0,0,3.29,1.17,3.22,3.22,0,0,0,3.68-3.76,2.31,2.31,0,0,0-1.19-1.55,26.58,26.58,0,0,0-4-1.8,5.62,5.62,0,0,1-3.2-2.76,3.54,3.54,0,0,1-.24-2.59A5.67,5.67,0,0,1,161,213a6.36,6.36,0,0,1,4.43.79,2.65,2.65,0,0,1,.94.79,1.35,1.35,0,0,1,0,1.58,1.08,1.08,0,0,1-1.38.4c-.65-.22-1.29-.49-1.94-.71a3.42,3.42,0,0,0-2.42,0,2.14,2.14,0,0,0-1.42,1.85,1.87,1.87,0,0,0,1.08,1.85,25.34,25.34,0,0,0,3.68,1.76c.4.16.81.32,1.19.51a5.34,5.34,0,0,1,1.82,7.81A6.43,6.43,0,0,1,161.34,232.36Z"/><path class="cls-1" d="M288.51,232.36a8.24,8.24,0,0,1-4.26-1.08,1.67,1.67,0,0,1-1-1.22,1.36,1.36,0,0,1,1.66-1.58,9.1,9.1,0,0,1,1.92.78,4,4,0,0,0,3,.25,2.89,2.89,0,0,0,2.18-2.54,2.66,2.66,0,0,0-1.66-3c-1.18-.6-2.45-1-3.67-1.48a4.57,4.57,0,0,1-3.23-4.59,5.09,5.09,0,0,1,3.46-4.57,7.59,7.59,0,0,1,6,.49,1.47,1.47,0,0,1,.94,1.56,1.2,1.2,0,0,1-1.72,1.14c-.8-.26-1.56-.65-2.38-.84a2.51,2.51,0,0,0-3.15,1.47,2.14,2.14,0,0,0,1.12,2.51,32.26,32.26,0,0,0,3.54,1.61l.77.34c2.45,1.18,3.25,2.51,3.12,5.19a5.66,5.66,0,0,1-3.7,5A7.71,7.71,0,0,1,288.51,232.36Z"/><path class="cls-1" d="M136.36,222.76V215.3c0-1.67.53-2.17,2.19-2.18h5.77c.87,0,1.27.3,1.44,1a1.23,1.23,0,0,1-1,1.62,5.71,5.71,0,0,1-1.16.12h-3c-1,0-1.25.23-1.25,1.27,0,.86,0,1.73,0,2.59,0,1.15.25,1.41,1.4,1.43a10.92,10.92,0,0,1,3.6.25,1.24,1.24,0,0,1,1,1.23,1.38,1.38,0,0,1-1.06,1.31,3.08,3.08,0,0,1-.9.11h-2.79c-.91,0-1.12.21-1.24,1.13a17.19,17.19,0,0,0-.09,2.78,1.19,1.19,0,0,0,1,1.22,15.35,15.35,0,0,0,2.71.16c.5,0,1,0,1.49.12a1.34,1.34,0,0,1,1.3,1.36,1.29,1.29,0,0,1-1.41,1.36c-1.64,0-3.29,0-4.93,0a7.86,7.86,0,0,1-1.68,0,1.47,1.47,0,0,1-1.29-1.26,5.77,5.77,0,0,1-.1-1.1C136.35,227.52,136.36,225.14,136.36,222.76Z"/><path class="cls-1" d="M175.55,213.12h2.78a2.34,2.34,0,0,1,1.08.21,1.3,1.3,0,0,1,.69,1.42,1.11,1.11,0,0,1-.94,1,6.19,6.19,0,0,1-1.36.11h-3.31a.87.87,0,0,0-1,.9c0,1.19,0,2.38,0,3.57,0,.57.34.83.93.82a22,22,0,0,1,3.63.11c1,.15,1.49.58,1.45,1.39s-.61,1.37-1.64,1.39h-3.17c-.92,0-1.16.26-1.12,1.18s-.07,1.85-.1,2.78c0,1.13.19,1.34,1.3,1.34a37.49,37.49,0,0,1,3.82.11c1.14.11,1.68.86,1.32,1.86a1.25,1.25,0,0,1-1.15.89,39.09,39.09,0,0,1-6.67,0c-1-.07-1.27-.41-1.41-1.36a38.07,38.07,0,0,1-.13-5.12c0-3.41,0-6.83,0-10.25a5.7,5.7,0,0,1,0-.71,1.5,1.5,0,0,1,1.49-1.57A28.18,28.18,0,0,1,175.55,213.12Z"/><path class="cls-1" d="M271.42,222.61c0-2.45,0-4.89,0-7.33,0-1.59.53-2.13,2.1-2.15,1.94,0,3.89,0,5.83,0,1.12,0,1.51.45,1.46,1.52,0,.78-.38,1.16-1.3,1.2s-1.94,0-2.92,0c-.47,0-1,0-1.42,0a.79.79,0,0,0-.84.81c0,.9-.13,1.81-.13,2.72,0,1.4.74,2,2.12,1.8a7.45,7.45,0,0,1,2.9.15c.81.19,1.19.66,1.13,1.34A1.32,1.32,0,0,1,279,224c-1.08.05-2.16,0-3.24,0s-1.45.26-1.45,1.44c0,.91,0,1.82,0,2.73s.25,1.11,1.12,1.13c1.34,0,2.68-.05,4,.1,1,.11,1.41.59,1.34,1.53a1.08,1.08,0,0,1-1,1.12,34.48,34.48,0,0,1-7.11,0c-.88-.09-1.3-.84-1.3-1.9C271.41,227.67,271.42,225.14,271.42,222.61Z"/><path class="cls-1" d="M31.85,209.57a1.2,1.2,0,0,1-.68,1.06,15.39,15.39,0,0,1-3.76,1.53,1.3,1.3,0,0,1-1.66-.84c-.25-.77,0-1.23.81-1.64a11.14,11.14,0,0,1,3.74-1.4,1.25,1.25,0,0,1,1.53,1.12C31.84,209.46,31.84,209.52,31.85,209.57Z"/></svg>