<svg id="Capa_1" data-name="Capa 1" xmlns="http://www.w3.org/2000/svg" viewBox="0 0 300 300"><defs><style>.cls-1{fill:#009aa6;}</style></defs><path class="cls-1" d="M73.8,136.15c0,12.19,2.87,20.89,8.79,26.6,7.65,7.38,19.54,8.93,33.69,8.93,4.9,0,10.07-.19,15.43-.38,6-.21,12.19-.44,18.6-.44,5,0,9.85.1,14.56.19,22.44.45,41.83.83,52.82-9.94,6.14-6,9.13-15,9.13-27.47,0-29.72-18.46-69.13-48.29-81a3,3,0,0,0-1.1-.21H123.19a3,3,0,0,0-1.1.21C93.2,64.13,73.8,105.09,73.8,136.15Zm50-77.78h53.09c24.33,10,44,43.64,44,75.27,0,10.78-2.41,18.38-7.37,23.24-9.2,9-27.43,8.67-48.54,8.25-4.74-.1-9.64-.19-14.68-.19-6.51,0-12.77.22-18.81.44-19.48.69-36.3,1.3-44.79-6.89-4.7-4.54-7-11.85-7-22.34C79.72,100.38,102.4,67.25,123.77,58.37Z"/><path class="cls-1" d="M126.77,47.07h46.46a3,3,0,0,0,2.17-.94c8.64-9.24,13.81-28.08,13.81-41a3,3,0,0,0-3-3H113.76a3,3,0,0,0-3,3c0,12.88,5.17,31.73,13.81,41A3,3,0,0,0,126.77,47.07ZM183.18,8.13c-.67,10.87-4.83,25.33-11.28,33H128.1c-6.45-7.68-10.61-22.14-11.28-33Z"/><path class="cls-1" d="M128.53,136.08c4.49,2.78,11.07,3.91,14.78,4.35v6a3,3,0,0,0,3,3h9.08a2.94,2.94,0,0,0,2.1-.87,3,3,0,0,0,.87-2.11l0-6.88a19.67,19.67,0,0,0,15.11-17.13h0c1.1-11.7-6.69-16.46-8.27-17.29-.94-.5-2.34-1.06-4.13-1.77a65.91,65.91,0,0,1-10.51-4.93A2.67,2.67,0,0,1,149,95.76c.24-.91,1.47-1.13,2.19-1.18,5.33-.37,13.58,2.34,13.66,2.37a3,3,0,0,0,3.83-2.16L170.91,85a3,3,0,0,0-1.3-3.14c-2.83-1.82-8.1-2.72-11.43-3.14V73.46a3,3,0,0,0-3-3h-9.08a3,3,0,0,0-3,3v6.76c-10.58,3-15.71,10.18-14.51,20.41,1.32,11.24,16.2,16.05,19.17,16.89,6.18,1.77,5.95,2.79,5.63,4.21s-5.5,2.53-10.5,1.5a33.7,33.7,0,0,1-8-2.9,3,3,0,0,0-4.23,1.7l-3.42,10.62A3,3,0,0,0,128.53,136.08Zm6.78-9.05a37.49,37.49,0,0,0,6.45,2c6.2,1.28,16,.74,17.48-6,1.79-7.9-5.74-10-9.78-11.21-4.84-1.38-14.18-5.64-14.91-11.88-.94-7.93,2.94-12.53,12.2-14.5a3,3,0,0,0,2.35-2.9V76.43h3.15v5A3,3,0,0,0,155,84.38a49,49,0,0,1,9.62,1.71l-1,4.31c-3.3-.88-8.6-2-12.81-1.73-3.82.26-6.7,2.42-7.52,5.63a8.45,8.45,0,0,0,4,9.06,70.41,70.41,0,0,0,11.52,5.45c1.49.59,2.89,1.15,3.55,1.5,1,.52,5.88,3.54,5.14,11.49A13.76,13.76,0,0,1,155.06,134a3,3,0,0,0-2.72,3l0,6.43h-3.13v-5.69a3,3,0,0,0-2.81-3,43.39,43.39,0,0,1-12.75-2.69Z"/><path class="cls-1" d="M86.46,224,69.77,168.33a19.32,19.32,0,0,0-24.07-13h0a19.09,19.09,0,0,0-9,5.81,21.63,21.63,0,0,1,3.53,6.72c.08.28.16.57.25.85a11.92,11.92,0,0,1,22.19,1.7l15.48,51.63,1.77.65c.83.28,1.67.51,2.52.72a23.48,23.48,0,0,1,4,.57S86.46,224,86.46,224Z"/><path class="cls-1" d="M184.42,297.8H152.8c-18,0-32.09-7.23-47.32-15.95L40,244.32a3.64,3.64,0,0,1-1.53-1.67l-31-67.71c-4.15-9.2-.32-19,9.11-23.3,11-5,21.24.12,24.83,8l27.47,56.63,17.36,8a17.12,17.12,0,0,1,4.91-10.61c2.55-2.59,7.2-5.73,14.68-5.53l38-1.37,8.3-5.26c18.45-11.69,41.24-12.4,59.5-1.85.47.27.93.55,1.38.83,33.24,3.57,51.51-1.33,61.36-4,2-.54,3.57-1,4.95-1.23,1.83-.37,5.39-.29,8.35,4.26,9.5,14.63,8.52,76.5-1.44,90.68-3.13,4.44-6.68,4.37-8.53,4a114.11,114.11,0,0,0-11.36-2.26,144.94,144.94,0,0,0-51.78,2.33l-.52.12A128.77,128.77,0,0,1,184.42,297.8ZM44.65,238.49l64.5,36.94c14.3,8.19,27.46,15,43.65,15h31.62a121.25,121.25,0,0,0,27.88-3.25l.52-.12a152.27,152.27,0,0,1,54.42-2.47c4.17.53,8.76,1.61,12.11,2.39,2.2-.95,6.91-13.8,7.52-40.43.64-28.39-3.91-42.88-6.37-44l-4.25,1.14c-10.41,2.8-29.78,8-64.94,4.09a3.8,3.8,0,0,1-1.6-.57c-.58-.38-1.19-.75-1.82-1.11-15.87-9.17-35.73-8.52-51.84,1.69l-9.15,5.79a3.67,3.67,0,0,1-1.85.58l-39.18,1.4c-4.08,0-7.29,1.1-9.49,3.33a9.78,9.78,0,0,0-2.83,6.53,14.41,14.41,0,0,0,.36,3.57,3.75,3.75,0,0,1,.23.81c1.38,4.37,5.11,6.91,10.58,7l35.38.5H179a3.7,3.7,0,0,1,0,7.4H140l-35.42-.5C96.26,244,90,239.76,87.43,233L64.54,222.41a3.65,3.65,0,0,1-1.78-1.75L34.68,162.77c-2.12-4.63-8.3-7.49-15.06-4.4s-7.51,9-5.45,13.51Z"/></svg>