<svg id="Capa_1" data-name="Capa 1" xmlns="http://www.w3.org/2000/svg" viewBox="0 0 384.37 76.72"><defs><style>.cls-1{fill:#10a6e0;}.cls-2{fill:#f8ba24;}.cls-3{fill:#eb7628;}.cls-4{fill:#e33446;}.cls-5{fill:#bdcc0d;}</style></defs><path class="cls-1" d="M31,47.22,24.79,62.8h-4L14.54,47.29V66.64H8.67V37.52h7.74l6.35,17.34,6.37-17.34h7.75V66.64H31Z"/><path class="cls-1" d="M62.91,37.52V57.66c0,5.92-4.15,9.42-10.91,9.42s-10.91-3.5-10.91-9.42V37.52h6.39V57.7c0,2.45,1.77,4.13,4.52,4.13s4.5-1.66,4.5-4.13V37.52Z"/><path class="cls-1" d="M73.68,37.52v29c0,5.36-3.22,8-7.87,10.2l-2.71-4c2.21-1.46,4.17-3,4.17-6.65V37.52Z"/><path class="cls-1" d="M78.26,37.52h18v5.4H84.67v6.56H95.8v5.05H84.67v6.72h12v5.39H78.26Z"/><path class="cls-1" d="M110.08,37.52c6,0,10.39,3.1,10.39,9V48.4a8,8,0,0,1-4.92,7.77L121,66.64h-6.91l-4.47-9.35H106v9.35H99.58V37.52Zm-4.11,5v9.89h3.91c2.57,0,4.22-1.4,4.22-4v-2c0-2.56-1.65-3.93-4.22-3.93Z"/><path class="cls-1" d="M24.89,11.62,18.43,25.74H17L10.51,11.62V28.31h-2V8.08H11l6.72,14.85L24.44,8.08h2.48V28.31h-2Z"/><path class="cls-1" d="M32.33,7.82a1.2,1.2,0,0,1,1.33,1.31,1.32,1.32,0,0,1-2.64,0A1.19,1.19,0,0,1,32.33,7.82Zm1,5.61V28.31h-2V13.43Z"/><path class="cls-1" d="M39.62,13.43l.15,1.85a9.92,9.92,0,0,1,5.56-2.14c2.54,0,4,1.43,4,4.09V28.31h-2V17.77c0-1.74-.79-2.68-2.53-2.68A8.63,8.63,0,0,0,40,17V28.31h-2V13.43Z"/><path class="cls-1" d="M54.72,7.82a1.2,1.2,0,0,1,1.33,1.31,1.33,1.33,0,0,1-2.65,0A1.2,1.2,0,0,1,54.72,7.82Zm1,5.61V28.31h-2V13.43Z"/><path class="cls-1" d="M63.61,28.61A14.29,14.29,0,0,1,59,27.87l.36-1.72a13.45,13.45,0,0,0,4.06.69c2.21,0,3.37-.5,3.37-2.21s-.74-2.31-3.68-3S59,19.89,59,17.17c0-2.36,2-4,5-4a13.89,13.89,0,0,1,4.06.57l-.28,1.71a14.66,14.66,0,0,0-3.66-.51c-1.94,0-3.21.66-3.21,2.32s.58,2.12,3.38,2.81c3.26.79,4.35,1.76,4.35,4.45S66.85,28.61,63.61,28.61Z"/><path class="cls-1" d="M70,13.43h2.53l.18-4.15H74.5l0,4.15h4v1.68H74.54v9.35c0,1.81.94,2.33,2.25,2.33a12,12,0,0,0,2-.24L79,28.28a10.16,10.16,0,0,1-2.56.33c-2.3,0-4-1.16-4-3.87V15.11H70Z"/><path class="cls-1" d="M80.3,19a5.7,5.7,0,1,1,11.4,0v2.5H82.35v1.12c0,2.55,1.52,4.1,4.23,4.1a15.94,15.94,0,0,0,4.6-.7l.22,1.78a15.37,15.37,0,0,1-4.88.79c-3.6,0-6.22-2.2-6.22-5.93Zm2,.94h7.32v-.89C89.67,16.41,88.31,15,86,15s-3.66,1.45-3.66,4.11Z"/><path class="cls-1" d="M96.94,13.43l.18,2.49a9.09,9.09,0,0,1,5.26-2.78l0,2a9.12,9.12,0,0,0-5.09,2.6V28.31h-2V13.43Z"/><path class="cls-1" d="M106,7.82a1.2,1.2,0,0,1,1.33,1.31,1.32,1.32,0,0,1-2.64,0A1.19,1.19,0,0,1,106,7.82Zm1,5.61V28.31h-2V13.43Z"/><path class="cls-1" d="M110.85,18.93c0-3.77,2.82-5.79,6.15-5.79s6.14,2,6.14,5.79v3.89c0,3.76-2.81,5.79-6.14,5.79s-6.15-2-6.15-5.79Zm2.05,3.75a4.1,4.1,0,1,0,8.19,0V19.07a4.1,4.1,0,1,0-8.19,0Z"/><path class="cls-1" d="M142.62,28.31l-.13-1.68a7.51,7.51,0,0,1-4.83,2c-2.79,0-5.09-2.16-5.09-5.91V19.07c0-3.75,2.55-5.93,6.25-5.93a10.79,10.79,0,0,1,3.5.62v-7h2V28.31Zm-.34-3.37v-9.3a10.32,10.32,0,0,0-3.51-.68c-2.82,0-4.15,1.7-4.15,4.22v3.37c0,2.55,1.07,4.19,3.52,4.19A6.29,6.29,0,0,0,142.28,24.94Z"/><path class="cls-1" d="M148,19a5.7,5.7,0,1,1,11.4,0v2.5H150v1.12c0,2.55,1.53,4.1,4.24,4.1a15.79,15.79,0,0,0,4.59-.7l.23,1.78a15.43,15.43,0,0,1-4.88.79c-3.6,0-6.22-2.2-6.22-5.93Zm2,.94h7.33v-.89c0-2.66-1.36-4.11-3.66-4.11S150,16.41,150,19.07Z"/><path class="cls-1" d="M171.43,6.74V28.31h-2.05V6.74Z"/><path class="cls-1" d="M179.53,20.29H183v-2c0-2.05-.88-3.25-3.29-3.25a14.73,14.73,0,0,0-4.08.69l-.24-1.76a14.52,14.52,0,0,1,4.53-.79c3.67,0,5.13,1.82,5.13,5.35v7.12c0,.79.39,1.24,1.08,1.24a4.07,4.07,0,0,0,1-.12l.08,1.58a3.89,3.89,0,0,1-1.58.3,2.21,2.21,0,0,1-2.31-1.73,7.27,7.27,0,0,1-4.41,1.73c-2.56,0-4.37-1.4-4.37-4S176.64,20.29,179.53,20.29Zm3.5,5.12v-3.6h-3.4c-2,0-3.11.92-3.11,2.68a2.37,2.37,0,0,0,2.6,2.44A6.34,6.34,0,0,0,183,25.41Z"/><path class="cls-1" d="M263.08,46.75a17.27,17.27,0,0,1-5.68.88c-4.67,0-8.51-2.8-8.51-7.68V31.89c0-5.17,4-7.9,8.69-7.9a16.12,16.12,0,0,1,5.23.88l-.61,4a14.9,14.9,0,0,0-4.19-.68,3.86,3.86,0,0,0-4.07,4.07v7.24c0,2.46,1.73,3.85,4.31,3.85a16.4,16.4,0,0,0,4.35-.66Z"/><path class="cls-1" d="M264.45,31.72c0-5.07,3.59-7.73,8.8-7.73s8.83,2.66,8.83,7.73V39.9c0,5.08-3.61,7.73-8.83,7.73s-8.8-2.65-8.8-7.73ZM269.5,40A3.76,3.76,0,0,0,277,40V31.61c0-2.26-1.35-3.65-3.76-3.65a3.38,3.38,0,0,0-3.75,3.65ZM270.3,22l3.86-6.17,4.48,1.56-5.34,5.52Z"/><path class="cls-1" d="M293.24,24.33c4.74,0,8.19,2.44,8.19,7.11v1.47A6.3,6.3,0,0,1,297.54,39l4.28,8.26h-5.45l-3.52-7.38H290v7.38h-5v-23Zm-3.24,4v7.8h3.08c2,0,3.33-1.1,3.33-3.14V31.4c0-2-1.31-3.1-3.33-3.1Z"/><path class="cls-1" d="M305,24.33h8.21c5.12,0,8.71,2.85,8.71,7.53v8c0,5.08-3.59,7.39-8.71,7.39H305Zm11.87,8.39c0-2.2-1-4.42-3.88-4.42h-2.95v15H313c2.56,0,3.88-1.3,3.88-3.49Z"/><path class="cls-1" d="M324.16,31.72c0-5.07,3.6-7.73,8.8-7.73s8.84,2.66,8.84,7.73V39.9c0,5.08-3.61,7.73-8.84,7.73s-8.8-2.65-8.8-7.73Zm5.06,8.3a3.76,3.76,0,0,0,7.51,0V31.61c0-2.26-1.36-3.65-3.77-3.65a3.38,3.38,0,0,0-3.74,3.65Z"/><path class="cls-1" d="M344.68,47.29v-23H353c5.05,0,7.37,2.46,7.37,6.43a5,5,0,0,1-3.1,4.73,5.69,5.69,0,0,1,3.9,5.25c0,4.31-3.05,6.55-8.09,6.55ZM355.56,31c0-1.72-.93-2.75-2.95-2.75h-3.15v5.56h3.29A2.54,2.54,0,0,0,355.56,31Zm-3,6.29h-3.07v6.08h3.14c2.28,0,3.64-.93,3.64-3S354.8,37.29,352.53,37.29Z"/><path class="cls-1" d="M376.53,47.29l-1.27-4.9h-7.05l-1.27,4.9h-5.38l6.58-23h7.21l6.56,23Zm-7.47-8.85h5.37l-2.69-10.28Z"/><path class="cls-1" d="M268.5,51h7l-.31,2.17h-4.41l-.39,2.58h4.24l-.3,2h-4.25l-.39,2.64h4.58l-.32,2.16h-7.16Z"/><path class="cls-1" d="M279.23,55.27l-1.08,7.32h-2.51L277.37,51h2.55l2.65,7.32,1.1-7.32h2.5l-1.73,11.58h-2.55Z"/><path class="cls-1" d="M289.52,53.14h-2.87L287,51h8.33L295,53.14H292.1l-1.41,9.45h-2.58Z"/><path class="cls-1" d="M300.18,51c2.37,0,3.86,1.23,3.51,3.59l-.11.75a3.86,3.86,0,0,1-2.33,3.09l1.45,4.15h-2.77l-1.14-3.71h-1.31l-.56,3.71h-2.57L296.08,51Zm-1.83,2L297.76,57h1.46A1.71,1.71,0,0,0,301,55.37l.12-.79A1.21,1.21,0,0,0,299.81,53Z"/><path class="cls-1" d="M306,51h7l-.32,2.17h-4.41l-.39,2.58h4.24l-.3,2h-4.25l-.39,2.64h4.58l-.32,2.16h-7.16Z"/><path class="cls-1" d="M320.36,53.14h-2.87l.32-2.13h8.33l-.33,2.13H323l-1.42,9.45H319Z"/><path class="cls-1" d="M326.11,54.74c.39-2.56,2.34-3.9,4.92-3.9s4.15,1.34,3.77,3.9l-.61,4.12c-.39,2.57-2.34,3.9-4.94,3.9s-4.14-1.33-3.75-3.9Zm2,3.65c-.19,1.28.07,2.36,1.41,2.36s1.92-1.08,2.1-2.36l.48-3.18c.19-1.27-.07-2.35-1.41-2.35a1.94,1.94,0,0,0-2,1.82Z"/><path class="cls-1" d="M337.26,51h4.06c2.55,0,4.09,1.44,3.73,3.8l-.6,4c-.38,2.57-2.3,3.73-4.85,3.73h-4.06Zm5.15,4.24c.16-1.1-.1-2.22-1.49-2.22h-1.38l-1.13,7.54h1.38a1.91,1.91,0,0,0,2.08-1.74Z"/><path class="cls-1" d="M346.58,54.74c.39-2.56,2.34-3.9,4.92-3.9s4.15,1.34,3.77,3.9l-.62,4.12c-.38,2.57-2.33,3.9-4.93,3.9s-4.14-1.33-3.75-3.9Zm2,3.65c-.19,1.28.06,2.36,1.41,2.36s1.91-1.08,2.1-2.36l.48-3.18c.19-1.27-.07-2.35-1.41-2.35a2,2,0,0,0-2,1.82Z"/><path class="cls-1" d="M358.86,62.76a10.14,10.14,0,0,1-3.44-.55l.65-2.11a9,9,0,0,0,2.68.46c1.25,0,2.08-.27,2.08-1.42,0-1-1-1-2.77-1.77a2.19,2.19,0,0,1-1.42-2.25,4.16,4.16,0,0,1,4.43-4.28,9.53,9.53,0,0,1,3,.44l-.62,2.14a8.77,8.77,0,0,0-2.41-.39c-1.16,0-1.92.5-1.92,1.47,0,.54.3.85,1,1.1l1.17.4a2.58,2.58,0,0,1,2.06,2.68C363.4,61.16,362.06,62.76,358.86,62.76Z"/><path class="cls-1" d="M200.87,5.7l.12,1a1.62,1.62,0,0,1-.34,1.2l-1.58,2a1.76,1.76,0,0,1-.61.48l-1.2.53a1.54,1.54,0,0,0-.64.52l-.9,1.23a1.61,1.61,0,0,0-.23.43l-3.33,9.83a1.61,1.61,0,0,0-.08.57l.26,9.23a1.62,1.62,0,0,0,.88,1.38L197,36a1.58,1.58,0,0,1,.82,1l.35,1.29a1.61,1.61,0,0,0,1.55,1.2,1.61,1.61,0,0,1,1.6,1.78l-.85,7.86a1.43,1.43,0,0,1-.26.72l-.36.55a1.62,1.62,0,0,0-.27.94l.63,20.72a1.62,1.62,0,0,0,1.62,1.56l14.95-.11a1.61,1.61,0,0,0,1.6-1.57l.11-4.9A1.61,1.61,0,0,1,220,65.48l3-.14a1.61,1.61,0,0,0,1.26-.72l11.4-17.08a1.6,1.6,0,0,0-.25-2.07l-1.19-1.1a1.62,1.62,0,0,1-.51-1.07l-.21-3.18a1.56,1.56,0,0,0-.48-1l-1.32-1.29a1.63,1.63,0,0,1-.48-1.06L231,31.24l1.08-.69L234,20a1.64,1.64,0,0,0-.14-1l-1.91-3.9a1.61,1.61,0,0,0-1.37-.9l-1.69-.07a1.63,1.63,0,0,1-1.53-1.44l-.2-1.9a1.58,1.58,0,0,0-.23-.66l-1.51-2.5a1.66,1.66,0,0,0-1.09-.75l-6.73-1.25-.22-.82-4.8.26a1.56,1.56,0,0,1-.85-.19L208.58,3.2a1.57,1.57,0,0,0-1-.17l-5.36.89a1.6,1.6,0,0,0-1.33,1.78"/><rect class="cls-2" x="333.99" y="66.14" width="5.65" height="4.38"/><rect class="cls-3" x="313.36" y="66.14" width="10.93" height="4.38"/><rect class="cls-4" x="309.21" y="66.14" width="4.15" height="4.38"/><rect class="cls-1" x="299.2" y="66.14" width="8.84" height="4.38"/><path class="cls-1" d="M266.18,69.35v-2a1.17,1.17,0,0,1,1.17-1.17h35.36l-1,4.38H267.35a1.17,1.17,0,0,1-1.17-1.17"/><polygon class="cls-4" points="306.1 66.14 305.15 70.52 309.84 70.52 309.21 66.14 306.1 66.14"/><polygon class="cls-3" points="313.36 70.52 312.4 66.14 318.26 66.14 313.36 70.52"/><polygon class="cls-2" points="318.1 70.52 323.01 66.14 334.82 66.14 335.51 70.52 318.1 70.52"/><path class="cls-5" d="M337.94,66.14l.89,4.38h23.41a1.18,1.18,0,0,0,1.18-1.17v-2a1.17,1.17,0,0,0-1.18-1.17Z"/><polyline class="cls-5" points="338.83 70.52 346.99 66.14 337.94 66.14"/></svg>