<svg id="Capa_1" data-name="Capa 1" xmlns="http://www.w3.org/2000/svg" viewBox="0 0 867 300"><defs><style>.cls-1{fill:#f7f7f7;}</style></defs><path class="cls-1" d="M278.89,280.64c-4.19-.49-8.39-.89-12.57-1.47a126.16,126.16,0,0,1-72.27-35.41C173.8,224,161.48,200.05,156.81,172.2c-.8-4.78-1.12-9.64-1.7-14.88A35.73,35.73,0,0,1,167,164.87a2.35,2.35,0,0,1,.5,1.29c1,7.44,6.88,12.47,14.77,12.3,7.08-.16,12.46,2.54,17.75,6.44a40.71,40.71,0,0,0,4.12,2.37c-.64,2.28-1.72,4.8-2,7.42-.71,6.05,2.49,10.7,6.25,15,3.36,3.82,7.82,6,12.45,7.85a8.17,8.17,0,0,1,5.24,5.91c3.42,11.78,7.09,23.48,10.63,35.22a9.3,9.3,0,0,0,5,6.09,31.79,31.79,0,0,0,5.42,2.49,6.86,6.86,0,0,0,4.19-.53,1.73,1.73,0,0,0,.35-3c-6.12-4.69-5-11-4.14-17.32a3.76,3.76,0,0,1,2.17-3.2,6.89,6.89,0,0,0,2.89-4.31c1-5.31,1.57-10.71,2.43-16.06.63-3.93,1.53-7.69,4.4-10.87,2.59-2.87,2.17-5.17.41-8.53a14.57,14.57,0,0,1-1.58-6.54,15.59,15.59,0,0,0-3.42-10.42,4.75,4.75,0,0,0-3.3-1.43c-9.2.19-17.75-1.84-25.42-7.05a8.94,8.94,0,0,0-9.53-.69,57.68,57.68,0,0,0-8.28,5.18c-1.23.91-2.21,1.28-3.35.39-2.17-1.7-4.55-3.28-6.24-5.39a10.16,10.16,0,0,0-5.05-3.73c-2-.62-4-1.18-5.91-1.93a8,8,0,0,1-2.16-13.9,10.84,10.84,0,0,1,8-2.59c2.71.27,4-1,4.8-3.27s1.57-4.68,2.29-7A26.8,26.8,0,0,1,209.32,132a69.42,69.42,0,0,0,6-5.53,17,17,0,0,0,4.78-11.92c0-4.62-3.1-8.42-8-9.88s-8.73-.07-11.59,3.79a23.79,23.79,0,0,1-4.91,5.15c-3.93,2.83-8.7,1.9-11.95-2-3.09-3.68-2.89-8.35.5-11.89a31.48,31.48,0,0,0,3.24-3.51c1.89-2.7.65-5.64-2.64-5.94a19.33,19.33,0,0,0-6.11.71c-2.92.7-5.77,1.71-9.35,2.8a133.42,133.42,0,0,1,34.56-42.27C218.13,40,234.12,31.61,252,27.42c44.19-10.35,83.53-.38,118.19,28.4l-.11.73c-1.46,0-2.93.1-4.39,0-11.32-.82-22.64-1.07-33.07,4.24-5.09,2.58-9.71,6.08-14.49,9.23-1.26.83-2.32,2-3.51,2.9-3.44,2.72-7.06,3.13-11.22,1.51A46.66,46.66,0,0,0,292,71.17c-6.28-.72-13.4,5.17-14.72,11.4a6.82,6.82,0,0,0,1.87,6.16,41.45,41.45,0,0,1,3.67,4.09,4,4,0,0,1,.46,3.24,3.47,3.47,0,0,1-2.7,1.42,12.4,12.4,0,0,1-4.16-.85c-2.73-.9-3.55-.44-3.91,2.52-.29,2.45-.52,4.91-.76,7.37-.45,4.53-2.83,7.85-6.44,10.45-3.07,2.21-3.37,3.66-1.36,5.94,2.49,2.83,6,3.29,8.17,1,1.35-1.46,2.49-3.12,3.8-4.63,2.5-2.88,4.88-3.61,7.7-1.21,5.37,4.56,10.58,4.89,16.29.95a10.2,10.2,0,0,1,3.13-1.15c3.54-1,5.21-.37,6.39,2.27,1.56,3.5.93,6.43-2.13,8.1-5.25,2.86-10.81,4.29-16.82,2.65a43.7,43.7,0,0,1-4.85-1.27c-9.74-3.92-23.39,3.84-24.71,17.11A26.77,26.77,0,0,0,266.77,167c3.31,4.16,8.11,6.56,14.09,2.58,3.66-2.43,7.25-1.88,10.66.66a7.29,7.29,0,0,1,1.45,1.25c5.38,6.86,9.23,14.28,8.78,23.35a4.26,4.26,0,0,0,.83,2.53c4.41,5.88,8.89,11.7,13.37,17.52,2.35,3.06,4.28,3.36,7.18.7,5.1-4.66,7.17-10.56,6.69-17.45a12.63,12.63,0,0,1,.6-4.34c.47-1.59,1.34-3.07,1.91-4.64a8.76,8.76,0,0,0-1-8.64c-4-5.44-3.18-10.71.37-15.94.94-1.39,2-2.7,2.86-4.14,2.78-4.67,1.11-8.54-4.21-9.65A24.79,24.79,0,0,1,318.44,145a11.72,11.72,0,0,1-4.14-7.34,2.75,2.75,0,0,1,.78-2.26c.53-.31,1.68,0,2.34.46a10.75,10.75,0,0,1,2,2.07c3.75,4.15,9.27,5.42,14.11,2.67,1.78-1,3.08-3.09,4.22-4.92a13.92,13.92,0,0,0,1.25-4.33A9.06,9.06,0,0,1,345.7,124c3.62-1,7.12-.54,9.73,2.32s4.91,6.08,7.31,9.16c1.37,1.77,2.59,3.65,4,5.36s2.7,1.33,3.24-.71a25,25,0,0,0,.59-4.5c.18-2.46.25-4.93.39-7.4.12-2.09.57-3.89,3-4.64,2.62-.82,5-.55,6.77,1.56a31.56,31.56,0,0,1,3.06,5.08,37.17,37.17,0,0,0,2.1,4,6,6,0,0,0,7.8,2.19,7,7,0,0,0,3.53-7.89c-.72-2.88-2.62-4.86-4.9-6.58-3-2.29-2.79-5.86.5-7.74,5.66-3.26,7-6,5.92-12.68-.31-2-.39-3.8,1.77-5.43a129.19,129.19,0,0,1,12.09,67.24c-3.16-2.43-6.33-3.68-10.16-2.7-3.32.84-6.07,2.5-7.35,5.6-2.57,6.17-6.75,11.15-11,16.15-1.88,2.21-3,4.68-2.27,7.71,1.19,4.9,5.07,7.35,9.92,6,2.76-.76,5.39-2,8.15-2.73a65,65,0,0,1,6.64-1.08c-1,2.78-1.67,4.8-2.5,6.74q-27.84,65.37-97.55,79.46c-4.68.94-9.51,1.1-14.26,1.65a23.15,23.15,0,0,0-2.31.49ZM244.75,65c-6.9.52-13.61,1.42-19.82,4.38-5,2.38-5.31,4.22-1.69,7.46,2.45,2.18,2.94,4.71,1.7,8a8.52,8.52,0,0,0,.51,5.87c1.48,3.33,4.55,4.87,8.09,5.67,2.4.55,3.68.1,4.3-2.49,1.12-4.73,4.39-7.41,9-8.54,5.54-1.34,8.88-5.17,10.92-10.16,1.67-4.07.08-7.36-4.16-8.61A76.63,76.63,0,0,0,244.75,65Z"/><path class="cls-1" d="M16,94.74c.14-.19.38-.36.4-.57.68-5.67,6.85-10.13,14.28-8.75C42,87.51,53.22,89.85,64.55,91.67s22.56,2.4,33.89.7c9.72-1.47,17.32-6.65,23.81-13.7,8-8.69,13.56-18.91,18.58-29.46,1.95-4.1,3.72-8.29,5.61-12.42,2.12-4.63,5.8-7.34,10.82-7.46s9.24,1.88,11.66,6.57a11.56,11.56,0,0,1-1.06,13A221.79,221.79,0,0,0,140,98.16c-5,12.47-7.14,25.58-8,38.94-2.14,33.58,7.53,64.29,23,93.53,5.32,10.08,11.32,19.8,17.14,29.61,2.24,3.77,2.85,7.54,1.28,11.64-2,5.12-5.73,7.62-11.18,7.85s-9.83-1.17-12.27-6.42C144.29,261.24,139,249,133,237.11c-5.08-10.18-10.71-20.12-16.45-30-1.77-3-4.54-5.54-7.14-8-2.77-2.61-6.24-2.88-9.21-.55a62.83,62.83,0,0,0-9.57,8.93c-7.56,9-13.35,19.29-18.94,29.61-6.31,11.64-12.34,23.43-18.59,35.1a13.83,13.83,0,0,1-14.56,7.44A12.48,12.48,0,0,1,29.74,261c8.72-15,17.68-29.78,26-45,10.51-19.2,19.5-39.09,24.82-60.45,2.16-8.68,4-17.39,3.24-26.45-.7-8.75-4.22-13.89-12.7-16.2a117.14,117.14,0,0,0-18.8-3.34c-8.42-.87-16.9-1.07-25.35-1.58a10.78,10.78,0,0,1-10.38-8.39c-.15-.53-.38-1-.57-1.55Z"/><path class="cls-1" d="M436.84,69.87c-.1-12.39,2.73-23.87,10.79-33.64C455.23,27,465.07,22.08,476.94,21c10.63-1,20.79.39,29.93,6.13,12.54,7.87,19,19.66,20.85,34.1,1.38,10.84.71,21.57-3.84,31.66-6.85,15.15-18.54,24-35.27,25.81-11.81,1.29-23-.44-32.84-7.48-11-7.89-16.67-19-18.46-32.25-.2-1.5-.38-3-.45-4.52S436.84,71.39,436.84,69.87Zm22.31.19c.66,4,1,8.07,2,12,2.74,10,10.17,16.33,19.58,17.07S498.4,95,502.26,85.8a39.58,39.58,0,0,0-.51-32.95c-3.77-8.18-10.46-12.46-19.66-12.33-9,.12-15.21,4.62-19.1,12.51C460.36,58.36,459.49,64.08,459.15,70.06Z"/><path class="cls-1" d="M743.08,80.25c0-.9.14-1.8.14-2.7,0-13.25-.06-26.5.06-39.75a36.4,36.4,0,0,1,1.16-9.19c1.2-4.4,4.57-6.55,9.19-6.56s7.89,2.11,9.2,6.54a31.14,31.14,0,0,1,1.29,8.46c.1,22.59.07,45.18,0,67.76a30.65,30.65,0,0,1-.46,5.24c-1.24,7.06-7.77,10.35-14.1,6.68a27.62,27.62,0,0,1-7.6-7.11c-10.69-13.83-21.17-27.83-31.72-41.77l-6.37-8.4c-.09,1.5-.18,2.3-.18,3.11,0,12.93,0,25.86-.05,38.79a40.65,40.65,0,0,1-.91,8.53c-1.14,5.07-4.61,7.66-9.61,7.65s-8.45-2.62-9.6-7.67a34.43,34.43,0,0,1-.77-7.59q-.09-32.8,0-65.61a32.76,32.76,0,0,1,.61-6.64C685,22.7,692,19.78,698.32,24a26.25,26.25,0,0,1,5.87,5.89q18.31,24,36.46,48.09c.61.81,1.25,1.6,1.87,2.4Z"/><path class="cls-1" d="M856.4,58c0,7.83.15,15.66,0,23.47a41.82,41.82,0,0,1-4.47,18C846,111,836.33,117,823.65,118.62a49.93,49.93,0,0,1-20.18-1.24c-14.58-4.15-22.64-14.27-25.49-28.76a68.11,68.11,0,0,1-1.08-12.36q-.2-19.4,0-38.8a34.14,34.14,0,0,1,1.17-8.95c1.21-4.35,4.61-6.48,9.25-6.47s7.81,2.09,9.06,6.39a35.05,35.05,0,0,1,1.35,9.16c.15,13,0,26,.15,39a36.74,36.74,0,0,0,1.31,9c2.47,9.23,8.57,13.69,18,13.54,8.9-.14,15.14-5,17.16-14.09a62.28,62.28,0,0,0,1.29-12.57c.21-12.85.14-25.7.24-38.56a18,18,0,0,1,.62-4.24c1.29-4.95,4.57-7.55,9.43-7.62,5-.06,8.48,2.45,9.7,7.54a37.44,37.44,0,0,1,.82,8.06c.11,6.78,0,13.57,0,20.35Z"/><path class="cls-1" d="M573.16,22c6.72.09,11.43,3.47,14.06,9.4,2.35,5.3,4.15,10.85,6.09,16.33,6.23,17.56,12.48,35.12,18.55,52.73a26,26,0,0,1,1.57,9.07c-.11,4-3.23,6.94-7.22,7.93-4.44,1.11-8.7-.16-11-3.85a37.27,37.27,0,0,1-3.46-8.07c-2.2-6.8-2.11-6.82-9.18-6.82h-24c-3.79,0-3.74,0-5,3.48a84.45,84.45,0,0,1-3.85,10c-2.57,5-7.2,6.81-12,4.91-3.46-1.37-5.77-3.95-5.91-7.71a22.31,22.31,0,0,1,1-8.19q11.85-32.81,24.07-65.48a36.87,36.87,0,0,1,3.69-7.21A13.91,13.91,0,0,1,573.16,22Zm-.29,23.2h-.71L560.8,79.32h22.69C579.89,67.76,576.38,56.47,572.87,45.18Z"/><path class="cls-1" d="M671.17,62.88c0,8.46.2,16.93-.09,25.39a57.56,57.56,0,0,1-1.85,13.2c-2.83,10.28-10.06,15.85-20.52,17-6.3.7-12.69.53-18.54-2.35a31.27,31.27,0,0,1-7.4-5.15c-3-2.79-3.49-6.58-2.55-10.43,1.26-5.16,6.94-7.87,12.46-5.95,2.24.79,4.33,2,6.53,3,5.27,2.29,9,.44,10-5.21A70.6,70.6,0,0,0,650.17,81c.11-14.53,0-29.06.11-43.59a34,34,0,0,1,1.2-8.94c1.21-4.26,4.55-6.35,9.09-6.38s7.79,2,9.06,6.07a33.71,33.71,0,0,1,1.47,9.14C671.29,45.79,671.17,54.34,671.17,62.88Z"/><path class="cls-1" d="M113.88,58.05A23.13,23.13,0,0,1,90.77,81.19a23.15,23.15,0,1,1,.13-46.3A22.87,22.87,0,0,1,113.88,58.05Z"/><path class="cls-1" d="M766.89,226.13c0-.86,0-1.71,0-2.57q0-19.4.12-38.8a20.67,20.67,0,0,1,.26-3.33,3.68,3.68,0,0,1,7-.5,8.26,8.26,0,0,1,.42,2.81q0,26,0,52a7.69,7.69,0,0,1,0,1c-.24,1.72-.17,3.68-2.27,4.36s-3.94-.22-5.24-1.94c-1.72-2.3-3.33-4.68-5-7q-12.78-18.39-25.56-36.77a4.92,4.92,0,0,0-2-1.83c0,.83-.11,1.66-.12,2.49,0,13.41,0,26.82-.09,40.23,0,1.1,0,2.57-.6,3.18-1,.94-2.63,1.9-3.78,1.68s-2.17-1.75-3-2.9c-.38-.56-.14-1.56-.14-2.35q0-25.87,0-51.74c0-2-.54-4.36,2.06-5.32,2.19-.81,4,.07,6,2.85q14.8,21.21,29.55,42.46c.54.77,1.1,1.53,1.65,2.29Z"/><path class="cls-1" d="M436.87,209.77q0-12.69,0-25.37c0-4.17,1.27-5.53,5.39-5.49,6.38.07,12.85-.36,19.13.52,11.19,1.57,19.2,10.23,21.22,22,1.26,7.38,1.2,14.76-1.35,21.94-3.94,11.08-12.6,17.24-24.36,17.33-5,0-10.06,0-15.1,0-3.65,0-4.91-1.24-4.92-4.88C436.85,227.16,436.87,218.47,436.87,209.77Zm7.62-.14c0,7.34,0,14.69,0,22,0,1.8.47,2.62,2.44,2.52,2.79-.14,5.59,0,8.39-.05,8.94-.2,14.95-4.4,18-12.82a33.79,33.79,0,0,0,.27-22.77c-2.61-7.7-7.95-12.39-16.35-12.94-3.42-.23-6.87-.09-10.3-.28-1.94-.1-2.46.7-2.44,2.52C444.53,195.1,444.49,202.36,444.49,209.63Z"/><path class="cls-1" d="M633.82,209c0,7.8-1.6,14.15-5.13,20.09-9.68,16.24-34.21,16.28-43.68-.11-7.23-12.52-7.28-25.44-.09-38,5.51-9.62,14.35-13.45,25.31-12.27,10.17,1.09,16.54,7.25,20.65,16.1A33,33,0,0,1,633.82,209Zm-8,.94c-.19-5.73-1.13-11.21-4-16.33C615.4,182,597.5,182,591.55,194a34.24,34.24,0,0,0-.06,31.54c3,6.27,8.56,9.09,15.42,9.08s11.88-3.08,15.19-9.09C624.8,220.65,625.55,215.33,625.78,209.89Z"/><path class="cls-1" d="M835.92,241.8c-4.08-1-8.22-1.8-12.21-3.07a9.18,9.18,0,0,1-4-3.21,3.22,3.22,0,0,1,.58-4.55,4.86,4.86,0,0,1,3.86-.53c1.87.55,3.55,1.77,5.34,2.64a14.25,14.25,0,0,0,12.72.41c4.58-2.1,6.67-5.92,6.82-10.92.14-4.6-2.52-7.29-6.28-9-4.48-2.07-9.12-3.82-13.69-5.69-10.48-4.27-12.56-17.2-4-24.61,7.3-6.32,17.58-6.17,25.27-1.65a6.32,6.32,0,0,1,2.59,3.93c.45,2.47-1.76,4-4.14,3.15-1.72-.63-3.35-1.5-5-2.23-3.51-1.51-7.09-2-10.68-.42-6,2.6-7,9.77-1.87,13.79a22.34,22.34,0,0,0,4.76,2.72c3.48,1.58,7,3.23,10.58,4.45,14.34,4.87,12.79,22.69,4.2,29.43C846.41,239.84,841.49,241.24,835.92,241.8Z"/><path class="cls-1" d="M660.12,228c.58-1.5.93-2.36,1.24-3.24q7.14-20.52,14.29-41a19.52,19.52,0,0,1,1.5-3.51,3.67,3.67,0,0,1,4.54-1.7c1.81.58,2.28,2.2,2,3.87a26.87,26.87,0,0,1-1.26,5.09q-8.94,25-18,49.89c-.13.38-.31.74-.47,1.1a4.21,4.21,0,0,1-3.85,2.76c-2,0-3.09-1.19-3.73-2.83q-2.5-6.45-4.85-13-7-19.56-14-39.15c-.42-1.2-.64-2.47-1-3.7a3,3,0,0,1,1.87-3.87c1.73-.75,3.39-.5,4.43,1.15a21,21,0,0,1,1.83,4.14q7.05,20.31,14,40.64C659.14,225.54,659.51,226.42,660.12,228Z"/><path class="cls-1" d="M500.06,186.1c0,6.53,0,12.66.08,18.79,0,.43,1.26,1.19,1.95,1.2,4,.07,8-.08,12-.07a23.1,23.1,0,0,1,3.79.47c1.72.32,2.95,1.48,2.58,3.14A6.63,6.63,0,0,1,518,213c-.68.54-2,.36-3,.37-4.16,0-8.32.12-12.47,0-2.06-.07-2.57.69-2.53,2.61.11,5,.13,10.06,0,15.09-.06,2.14.64,2.65,2.77,2.6,5.33-.14,10.68,0,16,.13,2.1,0,3.47,1.06,3.28,3.47a3.46,3.46,0,0,1-3.77,3.48c-7.27.06-14.54.07-21.82,0-2.67,0-4-1.41-4-4.09q-.06-26.7,0-53.4c0-2.8,1.45-4.25,4.35-4.28q10.67-.12,21.34,0c2.9,0,4,1.12,3.93,3.64,0,2.15-1.37,3.47-4,3.51-5,.07-10.07,0-15.1,0Z"/><path class="cls-1" d="M792.22,206c4.52,0,8.82,0,13.12,0a36.43,36.43,0,0,1,4,.41,3,3,0,0,1,3,3.58,3.27,3.27,0,0,1-3.4,3.31c-2.3.18-4.63.07-6.95.07h-9.73v20.12c1.06,0,2.06,0,3.06,0,5.18.08,10.36.11,15.54.28,1.87.06,3.21,1,3.24,3.1a3.55,3.55,0,0,1-3.51,3.8c-7.51.09-15,.1-22.53,0a3.36,3.36,0,0,1-3.54-3.7c0-1.27,0-2.55,0-3.83q0-24.4,0-48.83c0-4.32,1.07-5.4,5.35-5.42q9.95,0,19.89,0c1.59,0,3.22,0,4,1.87,1.25,2.84-.46,5.25-4,5.3-4.95.07-9.9,0-14.86,0h-2.72Z"/><path class="cls-1" d="M696.76,213.39v20.1c1.16,0,2.17,0,3.19,0,5.1.08,10.21.11,15.31.27,2,.07,3.38,1,3.35,3.25a3.7,3.7,0,0,1-3.64,3.71,5.77,5.77,0,0,1-.72,0c-6.87,0-13.75,0-20.63,0-3.43,0-4.6-1.16-4.61-4.63q0-26.24,0-52.46c0-3.49,1.27-4.71,4.83-4.74q10.2-.07,20.39,0c3.17,0,4.52,1.21,4.44,3.71-.06,2.17-1.69,3.45-4.58,3.47-4.87,0-9.75,0-14.63,0h-2.71V206c2.51,0,5-.06,7.41,0,3.34.1,6.69.22,10,.5a2.76,2.76,0,0,1,2.68,3.07c0,1.84-.73,3.11-2.54,3.55a12.34,12.34,0,0,1-2.85.25C706.62,213.4,701.77,213.39,696.76,213.39Z"/><path class="cls-1" d="M572.44,205.19c0,7,.06,14.06,0,21.08-.07,5.75-1.69,10.91-7.38,13.44-6.22,2.76-12.36,2-18-1.85a5.6,5.6,0,0,1-1.94-3.35c-.4-2.3,1.19-3.71,3.5-3.16a15,15,0,0,1,4.08,1.91c5.2,3.16,10.36,1.47,11.72-4.4a51.24,51.24,0,0,0,1.23-12.78c-.22-8.13-1.1-16.24-1.43-24.37A48.34,48.34,0,0,1,565,182c.44-2.69,2-3.68,4.35-3.39,2.07.26,3.12,1.65,3.13,4.33,0,7.43,0,14.86,0,22.28Z"/><path class="cls-1" d="M491,160.09c-4.68,3.51-9.14,3.42-12.41.08-4.12-4.19-4.44-12-.69-16.74,3.18-4,7.39-4.46,12.28-1.54l2.95-1.95c.5,1,1.42,2.07,1.44,3.13.14,5.81.1,11.63.06,17.45,0,4.11-1.1,7.83-5,10s-8,1.41-11.9-.54c-1.24-.62-2.26-1.66-1.39-3,.33-.49,1.9-.28,2.88-.17a5.72,5.72,0,0,1,1.72.81c2.5,1.22,5.07,1.74,7.46-.06S491,163.13,491,160.09Zm-12.52-9a40.84,40.84,0,0,0,1.37,5.17,5.19,5.19,0,0,0,5,3.37,5.29,5.29,0,0,0,5.21-3.09,11.24,11.24,0,0,0,0-10.54,5.24,5.24,0,0,0-5-3.05,5.08,5.08,0,0,0-5,3A39,39,0,0,0,478.48,151.12Z"/><path class="cls-1" d="M737.5,142.3c.23-.44.3-.78.51-1,.6-.51,1.25-1,1.88-1.41.5.7,1.37,1.37,1.43,2.1.19,2.46.09,4.94.09,7.41,0,4.06.08,8.13-.06,12.19-.25,7.4-5.62,11.45-12.81,9.69a15.61,15.61,0,0,1-4.56-1.94c-.57-.35-.6-1.56-.88-2.39a7,7,0,0,1,2.49-.44,13,13,0,0,1,2.81,1.27c2.4,1.1,4.84,1.34,7-.34s2.4-4.41,2.45-6.93c-1.77.76-3.34,1.85-5,2.09-4.18.6-7.28-1.32-9.17-5a13.67,13.67,0,0,1-.51-11.33C725,141.25,731.35,137.2,737.5,142.3Zm1,9.13c-.56-2-.79-3.9-1.65-5.53a5.52,5.52,0,0,0-9.76-.2,10.9,10.9,0,0,0-.1,11.15,5.51,5.51,0,0,0,9.76,0A30,30,0,0,0,738.54,151.43Z"/><path class="cls-1" d="M810.42,258.64c0-2.6,0-5.43,0-8.26a3.12,3.12,0,0,1,.21-1.64,16.32,16.32,0,0,1,2-2c.53.75,1.51,1.49,1.52,2.25q.15,14.36,0,28.71c0,.77-1,1.54-1.49,2.31L810,277.91c-3.14,2.57-7,3.17-10.62.55-4.22-3-5.2-7.54-4.46-12.37.91-6,4.84-9.64,10-9.24C806.67,257,808.41,258,810.42,258.64Zm-12.55,9.67c.64,2,.94,4.06,1.88,5.73a5.61,5.61,0,0,0,9.7.24,11.93,11.93,0,0,0,0-11.82,5.6,5.6,0,0,0-9.58,0C798.9,264.2,798.55,266.3,797.87,268.31Z"/><path class="cls-1" d="M544.19,258.89l2.62-2.08c.5.95,1.42,1.89,1.44,2.86q.21,9,0,17.92c0,.81-.92,1.6-1.42,2.4-.61-.66-1.23-1.32-1.83-2a5.62,5.62,0,0,1-.41-.78c-2.22,1.82-4.63,3.54-7.52,2.63a13.14,13.14,0,0,1-5.64-3.21c-4-4.36-3.83-12.22.06-16.73C534.79,256.08,539,255.81,544.19,258.89Zm1,9.82a35.84,35.84,0,0,0-.92-4.54,5.65,5.65,0,0,0-5.46-4.24c-2.77-.07-4.69,1.25-5.83,4.08a11.48,11.48,0,0,0,.28,9.51,5.51,5.51,0,0,0,5.09,3.4,5.32,5.32,0,0,0,5.39-3.24A34.59,34.59,0,0,0,545.15,268.71Z"/><path class="cls-1" d="M504.9,277c-3.39,3.35-7,4-10.76,1.86-4.29-2.45-5.62-6.65-5.29-11.24a15.41,15.41,0,0,1,2.2-6.67c2.82-4.59,8.21-5.44,12.66-2.39.32.22.64.42,1.13.74a6.67,6.67,0,0,1,.66-1.57c.31-.38.87-.87,1.26-.83a2.36,2.36,0,0,1,1.46.94,2.91,2.91,0,0,1,.3,1.6q0,9,0,17.92a2.6,2.6,0,0,1-.17,1.39c-.39.52-1,1.17-1.54,1.2s-1-.71-1.42-1.22A5.91,5.91,0,0,1,504.9,277ZM492,268.2a41.1,41.1,0,0,0,1.39,5.09,5.81,5.81,0,0,0,10.7.19,11.37,11.37,0,0,0-.21-10.59,5.66,5.66,0,0,0-10-.15C492.88,264.41,492.55,266.44,492,268.2Z"/><path class="cls-1" d="M616.73,277.78c-1.89.7-4,2-6.1,2.14-3.73.29-6.51-1.72-8.33-5-2.65-4.76-1.89-11.64,1.73-15.4,3.38-3.52,7.47-3.63,12.87-.25.12-.38.13-.82.35-1a19.61,19.61,0,0,1,1.85-1.41c.43.67,1.2,1.34,1.22,2,.13,3.74.07,7.49.07,11.24q0,3.47,0,6.93c0,1.26.23,2.93-1.57,2.86C618.07,279.86,617.37,278.47,616.73,277.78Zm.79-9.22a40.29,40.29,0,0,0-1.44-5.13,5.82,5.82,0,0,0-10.6-.2,11.34,11.34,0,0,0,.21,10.8,5.64,5.64,0,0,0,9.87.15C616.57,272.46,616.92,270.35,617.52,268.56Z"/><path class="cls-1" d="M833.74,259.3a8.53,8.53,0,0,1,1-2c.29-.32,1.23-.55,1.44-.36a3.21,3.21,0,0,1,1.09,1.87c.11,3.19.06,6.37.07,9.56,0,3,.1,6.06-.07,9.07-.06.89-.92,1.73-1.41,2.59-.6-.7-1.21-1.39-1.79-2.11-.13-.17-.16-.42-.06-.15-2.33.78-4.55,2-6.85,2.14a9,9,0,0,1-5.24-1.86c-3.92-2.8-5.22-9.16-3.45-14.38C820.38,258,827.17,253.89,833.74,259.3Zm.78,9.16c-.68-2.08-1-4.2-2-5.91a5.67,5.67,0,0,0-9.63-.08c-2.1,3.06-2.13,8.76-.06,11.84a5.65,5.65,0,0,0,9.62,0C833.46,272.62,833.82,270.51,834.52,268.46Z"/><path class="cls-1" d="M469.41,258.9a1.73,1.73,0,0,1,.33-.81c.51-.49,1.23-1.27,1.69-1.17a2.2,2.2,0,0,1,1.28,1.64c.16,2.38.1,4.77.11,7.16,0,3.75.09,7.5-.06,11.24,0,1-.57,2.63-1.27,2.89-1.64.59-1.7-1.12-2.07-2.2,0-.12-.2-.21-.39-.41-3.33,3.28-7.19,3.84-11,1.25-4.31-2.89-5.38-7.4-4.68-12.25.9-6.17,5-9.88,10.35-9.38C465.53,257,467.32,258.13,469.41,258.9Zm.55,9.48c-.69-2.07-1-4.18-2-5.89a5.67,5.67,0,0,0-9.5-.17c-2.23,3.1-2.29,8.89-.13,12a5.65,5.65,0,0,0,9.62-.1C468.93,272.56,469.27,270.45,470,268.38Z"/><path class="cls-1" d="M515.48,142.43a3.84,3.84,0,0,1,.42-.73c.5-.6,1-1.18,1.54-1.77.55.67,1.56,1.33,1.57,2,.13,6.3.12,12.6,0,18.9,0,.62-.93,1.23-1.42,1.85l-2.4-2.15c-1.27.57-3,1.8-4.8,2.07-5.25.76-9.13-2.48-10.44-8.27-1.5-6.61,1.88-12.91,7.56-14.26C510.62,139.35,513.09,140.65,515.48,142.43Zm-12.7,8.92c.63,2,.91,4.06,1.86,5.72a5.59,5.59,0,0,0,9.58.17,11.53,11.53,0,0,0,.08-11.61,5.58,5.58,0,0,0-9.58.08C503.76,147.36,503.43,149.39,502.78,151.35Z"/><path class="cls-1" d="M591.85,142.15l2.49-2.22c.51.94,1.44,1.88,1.46,2.84.14,5.66.13,11.33,0,17,0,1-.83,1.94-1.28,2.92l-2.58-2.1c-1.28.56-3,1.79-4.85,2-5.35.71-9.16-2.61-10.41-8.6-1.34-6.4,2-12.53,7.52-13.89A8.47,8.47,0,0,1,591.85,142.15Zm.94,9a33.29,33.29,0,0,0-1-4.15,5.5,5.5,0,0,0-5.41-4,5.24,5.24,0,0,0-5.46,3.85,19.58,19.58,0,0,0-.76,6.55c.21,3.74,2.76,6.27,5.94,6.4s5.43-2,6.22-5.81C592.48,153.16,592.59,152.29,592.79,151.14Z"/><path class="cls-1" d="M852.9,142.14l2.54-2.2c.49.95,1.36,1.89,1.38,2.86.14,5.66.13,11.33,0,17,0,1-.81,1.93-1.25,2.9l-2.47-2.1c-1.42.59-3.24,1.85-5.16,2-6.17.62-10.82-4.76-10.45-11.71.3-5.63,3.25-9.66,7.8-10.79A8.32,8.32,0,0,1,852.9,142.14Zm-12.24,9a46.43,46.43,0,0,0,1.5,5.3,5.3,5.3,0,0,0,5.09,3.33,5.37,5.37,0,0,0,5.21-3.15,10.94,10.94,0,0,0-.25-10.93,5.52,5.52,0,0,0-9.52-.15C841.66,147.28,841.29,149.37,840.66,151.18Z"/><path class="cls-1" d="M750,152.66a5.64,5.64,0,0,0,2.45,5.92c2.6,1.87,5,1.46,11.84-1.84,1.61,1.21,1.23,2.56-.15,3.45-3.79,2.41-7.93,3.6-12.25,1.67-4-1.79-5.45-5.41-5.62-9.56-.25-6.56,2.75-11,8.06-12.15,7.16-1.52,11.87,5.45,11.29,10.83-.07.63-1.48,1.56-2.31,1.6-3.5.18-7,.08-10.53.08Zm-.09-2.84H762c.06-4.14-2.29-6.77-5.87-6.81C752.16,143,749.83,145.46,749.89,149.82Z"/><path class="cls-1" d="M705,269.69c-2,0-4,0-6,0-1.35,0-1.8.48-1.53,1.91a6.64,6.64,0,0,0,8.57,5.06,47.18,47.18,0,0,0,4.55-2.06,8.26,8.26,0,0,1,2.14-.24c-.1.88.11,2-.37,2.58-3.81,4.58-13.14,3.94-16.53-1.05-2.72-4-2.73-10.72,0-14.73a9.48,9.48,0,0,1,11.32-3.81c3.87,1.46,7,6.49,6.3,10.55a2.77,2.77,0,0,1-2,1.68,60.29,60.29,0,0,1-6.45.08Zm4.76-2.79c.29-4-2.05-6.85-5.56-7-4.27-.17-6.74,2.33-6.68,7Z"/><path class="cls-1" d="M660.09,256.77c4.65,0,8.27,3.37,9.31,9A12.71,12.71,0,0,1,666.58,277a9.33,9.33,0,0,1-14.42-.66,13.94,13.94,0,0,1-.09-15.72A9,9,0,0,1,660.09,256.77Zm-7,11.43a35.08,35.08,0,0,0,1,4.69,5.64,5.64,0,0,0,5.63,4c2.73-.05,4.43-1.57,5.42-4a11.61,11.61,0,0,0-.14-9.5,5.46,5.46,0,0,0-5.2-3.54,5.25,5.25,0,0,0-5.33,3.29A37.07,37.07,0,0,0,653.05,268.2Z"/><path class="cls-1" d="M677.09,258.78c1.41-.58,3-1.61,4.74-1.9,4.89-.84,8.76,2.55,9,7.83.17,4.3.13,8.61,0,12.91,0,.82-1.09,1.59-1.67,2.39-.63-.78-1.74-1.53-1.8-2.35-.2-2.77,0-5.57,0-8.35a27.55,27.55,0,0,0-.37-5.46c-.59-2.76-2.22-3.91-4.91-3.94-2.86,0-4.65,1.08-5.13,3.94a58.8,58.8,0,0,0-.38,8.31c0,1.67.07,3.34,0,5,0,1.31-.19,2.79-1.89,2.77s-1.82-1.44-1.81-2.8c0-5.73-.07-11.47.07-17.21,0-1.05.91-2.08,1.4-3.12Z"/><path class="cls-1" d="M582,261.44c0,4.84,0,9.69,0,14.53a7.47,7.47,0,0,1-.07,2.37c-.22.61-.94,1.05-1.44,1.56-.4-.52-.82-1-1.18-1.57-.11-.17,0-.47,0-.71,0-6.7,0-13.4,0-20.09a6.42,6.42,0,0,1,.91-2.17c.71.4,1.67.63,2.1,1.24,3.62,5.06,7.14,10.19,10.7,15.29.47.68,1,1.32,1.51,2l.61-.19v-9.43c0-2.39-.08-4.79.09-7.17,0-.61.92-1.15,1.41-1.73.41.57,1.17,1.14,1.18,1.71q.12,10.53,0,21.06c0,.58-.57,1.16-.88,1.74-.76-.46-1.77-.76-2.25-1.43-3.3-4.59-6.49-9.27-9.73-13.92-.76-1.09-1.55-2.17-2.33-3.26Z"/><path class="cls-1" d="M649.88,151.55c-.94,2.47-1.48,5.21-2.9,7.37a9.09,9.09,0,0,1-15.16-.18,13.74,13.74,0,0,1-.16-14.47,9.09,9.09,0,0,1,9.89-4.15,10.16,10.16,0,0,1,7.57,8.58c.12.87.13,1.75.19,2.62Zm-3.75.19a41.79,41.79,0,0,0-1.47-5.39,5.18,5.18,0,0,0-5-3.35,5.3,5.3,0,0,0-5.2,3.15,11.2,11.2,0,0,0,.17,10.76,5.52,5.52,0,0,0,9.64.16A29.5,29.5,0,0,0,646.13,151.74Z"/><path class="cls-1" d="M658.41,142A25.15,25.15,0,0,1,662,140.3c4.62-1.46,9.27,1.32,9.64,6.11s.2,9.71.12,14.56a2.22,2.22,0,0,1-1.45,1.62,2.3,2.3,0,0,1-1.71-1.41,31.52,31.52,0,0,1-.29-5A86.29,86.29,0,0,0,668,147c-.37-2.76-2.18-3.93-4.86-4s-4.39,1.1-5,3.84a30.65,30.65,0,0,0-.44,5.92c-.05,2.7.14,5.42,0,8.11,0,.64-1.12,1.22-1.73,1.82-.59-.61-1.69-1.22-1.7-1.85q-.19-9.43,0-18.88c0-.69,1-1.36,1.57-2Z"/><path class="cls-1" d="M774.51,142a26.1,26.1,0,0,1,3.77-1.78,7.14,7.14,0,0,1,9.42,6.18c.36,4.85.18,9.74.11,14.61,0,.56-.86,1.59-1.25,1.56-.68-.06-1.77-.7-1.86-1.23a39.48,39.48,0,0,1-.32-5.45,82.33,82.33,0,0,0-.3-9c-.35-2.62-2.16-3.8-4.71-3.85-2.78-.06-4.63,1-5.06,3.71a77.25,77.25,0,0,0-.42,9.27,34.74,34.74,0,0,1-.14,5,2.63,2.63,0,0,1-1.88,1.57c-.43.07-1.51-1.05-1.53-1.65q-.17-9.57,0-19.16c0-.62,1.26-1.83,1.47-1.74A14.79,14.79,0,0,1,774.51,142Z"/><path class="cls-1" d="M819.22,142.06a21.87,21.87,0,0,1,3.35-1.72c4.74-1.57,9.41,1.22,9.79,6.17.38,4.76.22,9.57.16,14.35,0,.62-.9,1.23-1.39,1.84-.64-.55-1.67-1-1.84-1.67a20.72,20.72,0,0,1-.26-4.26,97.69,97.69,0,0,0-.32-10c-.35-2.63-2.17-3.74-4.77-3.76s-4.57,1.06-5,3.8a83.62,83.62,0,0,0-.41,9.52,28.29,28.29,0,0,1-.12,4.52c-.13.7-1.12,1.24-1.72,1.84a19.49,19.49,0,0,1-1.75-1.89c-.2-.26-.06-.77-.06-1.17,0-5.51-.08-11,.07-16.52,0-1.07.93-2.12,1.43-3.17Z"/><path class="cls-1" d="M769.8,258.68c1.71-.57,3.65-1.62,5.68-1.82a7.06,7.06,0,0,1,7.94,6.81c.26,4.77.16,9.57.07,14.35,0,.66-.85,1.31-1.3,2-.67-.54-1.83-1-1.91-1.63A56.69,56.69,0,0,1,780,272a70.58,70.58,0,0,0-.24-7.84c-.41-2.95-2.25-4.24-5.17-4.21s-4.62,1.31-5,4.13a81.24,81.24,0,0,0-.29,8.56,44.69,44.69,0,0,1-.18,5.68c-.1.65-1.23,1.14-1.88,1.7-.5-.63-1.43-1.26-1.44-1.9q-.17-9.69,0-19.38c0-.64,1.14-1.87,1.35-1.79A13.34,13.34,0,0,1,769.8,258.68Z"/><path class="cls-1" d="M529.22,142.15l.65-.48c2.67-1.92,5.56-2.46,8.56-1s4.05,4,4.15,7.07c.15,4.23.12,8.46,0,12.69,0,.76-1,1.49-1.49,2.24-.68-.72-1.88-1.4-1.94-2.16-.2-2.61,0-5.26,0-7.89a35.3,35.3,0,0,0-.24-5.24,4.72,4.72,0,0,0-5-4.41c-2.87,0-4.73,1.33-5.11,4.29a75.08,75.08,0,0,0-.23,8.09,46.79,46.79,0,0,1-.16,5.69c-.09.62-1.25,1.08-1.92,1.61-.48-.62-1.37-1.23-1.38-1.86-.1-6.3-.11-12.61,0-18.91,0-.68,1-1.33,1.56-2Z"/><path class="cls-1" d="M724,256.34a47.81,47.81,0,0,1,5.89,2.34c.66.35.79,1.68,1.16,2.56a10.16,10.16,0,0,1-2.73.17c-1.84-.37-3.62-1.32-5.44-1.35a3.77,3.77,0,0,0-3,2.05c-.23.83.85,2.48,1.79,3.08a47.17,47.17,0,0,0,6.08,2.78c2.24,1,3.93,2.39,4,5.14A6,6,0,0,1,728,279c-4.05,1.91-8,1.2-11.57-1.17-.7-.47-.7-2-1-3a12.69,12.69,0,0,1,2.7.16c2.05.56,4,1.57,6.08,1.84a3.37,3.37,0,0,0,3.9-2.48c.51-2-1-2.93-2.38-3.69-1.69-.91-3.46-1.65-5.19-2.46-3.58-1.69-4.9-3.58-4.38-6.28s3.3-4.82,6.53-5.1c.4,0,.8,0,1.2,0Z"/><path class="cls-1" d="M849.18,256.26a63.79,63.79,0,0,1,6.22,2.7c.53.28.49,1.6.71,2.45a8.37,8.37,0,0,1-2.37.14c-1.83-.44-3.6-1.45-5.41-1.5a4.42,4.42,0,0,0-3.31,2c-.83,1.56.62,2.62,2,3.27,2.09,1,4.25,1.83,6.34,2.82,4.43,2.11,4.87,7.36.88,10.19-3.39,2.41-9.78,2.19-12.79-.65-.64-.59-.62-1.89-.9-2.87a12,12,0,0,1,2.69.12c2,.56,4,1.56,6.08,1.86a3.4,3.4,0,0,0,3.92-2.46c.53-1.94-.92-2.94-2.35-3.71-1.68-.9-3.45-1.65-5.19-2.46-3.6-1.69-4.88-3.5-4.4-6.26s3.38-4.92,6.74-5.14c.32,0,.64,0,1,0Z"/><path class="cls-1" d="M436.83,150.48a12.56,12.56,0,0,1,3-8.8,9.83,9.83,0,0,1,15.63,1.18,14.54,14.54,0,0,1,0,15.37,9.73,9.73,0,0,1-10.82,4.2c-4.36-1.13-7.54-5.26-7.87-10.27C436.8,151.6,436.83,151,436.83,150.48Zm18.27,0c-.69-2.19-1-4.45-2.06-6.32a6.68,6.68,0,0,0-11.74,0,12.66,12.66,0,0,0-.05,12.77,6.72,6.72,0,0,0,11.87-.05C454.13,155,454.43,152.72,455.1,150.46Z"/><path class="cls-1" d="M560,256.34a43.46,43.46,0,0,1,5.87,2.33c.66.37.7,1.83,1,2.78a12.62,12.62,0,0,1-2.61,0c-1.83-.41-3.62-1.37-5.42-1.35a4.44,4.44,0,0,0-3.08,2.3c-.26.51,1,2.26,1.87,2.81a57.84,57.84,0,0,0,6.3,2.87c2.17,1,3.73,2.4,3.76,5a6,6,0,0,1-3.49,5.8c-4.1,2.05-8.09,1.38-11.78-1a3.2,3.2,0,0,1-1-2.91c.64-1.65,1.81-.25,2.75.06a33.85,33.85,0,0,0,5.83,1.82,3.48,3.48,0,0,0,4.08-2.58c.48-1.95-1.09-2.87-2.48-3.63-1.68-.91-3.46-1.63-5.18-2.45-3.45-1.63-4.85-3.55-4.38-6,.53-2.84,3.23-5,6.57-5.32.39,0,.8,0,1.19,0Z"/><path class="cls-1" d="M567.83,143.11c-3.32,0-5.86,0-8.39,0-1.1,0-2.78.42-2.55-1.46.06-.56,1.57-1.28,2.45-1.32,3.35-.16,6.71-.08,10.06-.07,3.6,0,4.06.7,2.06,3.83-2.79,4.37-5.79,8.6-8.7,12.89-.47.7-.91,1.41-1.66,2.56,3.5,0,6.5-.11,9.49.07.87,0,1.68.94,2.52,1.44-.82.53-1.62,1.49-2.47,1.52-4,.16-8,.11-12,.06-2.43,0-3-.88-1.73-2.93,2.91-4.67,6-9.21,9-13.81C566.44,145.17,566.92,144.47,567.83,143.11Z"/><path class="cls-1" d="M695.22,157.36a11.52,11.52,0,0,1-1.44,0c-2.72-.37-4.74.12-5.28,3.38-.12.72-1.48,1.25-2.27,1.86-.12-.92-.58-2-.3-2.74q3.6-9.87,7.49-19.64a2.81,2.81,0,0,1,2-1.62,2.9,2.9,0,0,1,2,1.67q3.9,10,7.52,20.13c.22.61-.29,1.48-.46,2.22-.68-.41-1.9-.74-2-1.24C701.74,156.83,698.6,156.93,695.22,157.36Zm-4.64-2.61h9.53l-4.41-12.42-.59-.07C693.65,146.3,692.18,150.33,690.58,154.75Z"/><path class="cls-1" d="M743.19,264.55c0-2.39-.11-4.79.07-7.17,0-.71.88-1.37,1.35-2.06.49.7,1.37,1.38,1.4,2.09.11,2.38-.16,4.77-.16,7.16a56.86,56.86,0,0,0,.27,7.84c.45,3.21,2.58,4.88,5.73,5,3.79.19,6.36-1.1,6.82-4.49.57-4.13.26-8.38.34-12.58a22.65,22.65,0,0,1,.21-3.78,1.83,1.83,0,0,1,1.36-1.19,1.81,1.81,0,0,1,1.23,1.31,156.42,156.42,0,0,1-.14,15.77c-.46,5.09-4.36,7.77-9.67,7.47-5.47-.3-8.4-3.1-8.71-8.48-.14-2.31,0-4.62,0-6.94Z"/><path class="cls-1" d="M439.68,270.76a62.11,62.11,0,0,1-.08,6.71c-.1.85-1.11,1.6-1.7,2.39a7.86,7.86,0,0,1-1.08-2.59c-.09-6.38,0-12.75-.08-19.13,0-2,.59-3,2.74-2.81,1.82.14,3.67-.06,5.5.07a7.32,7.32,0,0,1,7,6.63c.37,4.66-1.37,7.17-5.86,8.07C444,270.51,441.89,270.54,439.68,270.76Zm-.19-7.91h0a30.55,30.55,0,0,0,.05,3.83c.07.52.72,1.37,1.12,1.38a19.35,19.35,0,0,0,5.22-.35c2.43-.63,3.79-3.44,3.21-5.94-.73-3.23-3.52-4.71-8.08-4.08-2.9.4-1,2.81-1.51,4.21A2.73,2.73,0,0,0,439.49,262.85Z"/><path class="cls-1" d="M623.81,268.31c0-8.5,6.27-13.54,13.74-11.05a4.3,4.3,0,0,1,1.82,1.05,1.92,1.92,0,0,1,.42,1.66,2,2,0,0,1-1.46.9,4.32,4.32,0,0,1-1.83-.4c-4.35-1.43-7.56,0-8.54,4.48a16.22,16.22,0,0,0,.23,7.68c1.06,3.66,4.68,5,8.29,3.72.37-.13.75-.42,1.11-.39a13.51,13.51,0,0,1,2.06.44c-.24.77-.27,2-.77,2.22A12.38,12.38,0,0,1,634.4,280C628.1,280.39,623.8,275.56,623.81,268.31Z"/><path class="cls-1" d="M610.75,162.89A9.16,9.16,0,0,1,601.9,157a13.91,13.91,0,0,1,0-11.17,9.71,9.71,0,0,1,13-5.18c.78.35,1.17,1.59,1.74,2.42-1,.23-2,.87-2.83.64-5.55-1.51-8.83.62-9.25,6.41a14,14,0,0,0,.52,5.16c1.25,3.84,4.55,5.23,8.4,4,1-.33,2.38-1.58,3,.22s-.8,2.43-2.19,2.8C613.1,162.55,611.91,162.68,610.75,162.89Z"/><path class="cls-1" d="M521.73,263.2c0-4.63,0-9.27,0-13.9,0-1.27.08-2.53,1.76-2.54s1.87,1.2,1.87,2.5q0,14.13,0,28.26c0,1.35-.4,2.64-1.9,2.37a3,3,0,0,1-1.64-2.33C521.65,272.78,521.73,268,521.73,263.2Z"/><path class="cls-1" d="M798.69,140a5.67,5.67,0,0,1,1.66.3,9.22,9.22,0,0,1,1.42,1.25c-.46.5-.9,1.41-1.39,1.45-1.66.12-1.92,1-1.91,2.39,0,4.87,0,9.74,0,14.61a3.51,3.51,0,0,1-.92,2.48c-1.18.91-2.39-.11-2.41-2q-.06-7.31,0-14.6c0-1.58,0-2.87-2.15-2.9-.4,0-1.1-.94-1.08-1.42a1.8,1.8,0,0,1,1.29-1.23c1.71-.07,1.93-.9,1.72-2.35a5.6,5.6,0,0,1,.25-2.82c.31-.74,1.16-1.26,1.76-1.87.61.66,1.59,1.25,1.73,2A27.06,27.06,0,0,1,798.69,140Z"/><path class="cls-1" d="M480.94,259.9c1.18-.95,2.15-2.16,3.4-2.63,1-.35,2.82-.18,3.31.47,1,1.4-.57,2.19-1.6,2.52-4.38,1.38-5.62,4.46-5.34,8.69a63.44,63.44,0,0,1,0,8.61c-.06.85-1,2.22-1.63,2.33-1.49.25-1.91-1-1.91-2.37,0-6.07-.06-12.13.08-18.19,0-.86,1-1.69,1.52-2.53.67.7,1.37,1.38,2,2.12C480.89,259.13,480.86,259.51,480.94,259.9Z"/><path class="cls-1" d="M466.45,142.46a18.83,18.83,0,0,1,3.6-2.34c.66-.26,1.74.54,2.62.86a9.46,9.46,0,0,1-1.32,2.15,8.26,8.26,0,0,1-2.13,1,5.54,5.54,0,0,0-3.42,5.29c0,3.51,0,7-.07,10.52,0,1.24.1,2.78-1.82,2.72s-1.69-1.56-1.7-2.82c0-5.42,0-10.84,0-16.25,0-1.35-.58-3.31,1.38-3.51C464.44,140,465.45,141.59,466.45,142.46Z"/><path class="cls-1" d="M713.33,142.55a11.83,11.83,0,0,1,3-2.18c.87-.33,2.09.29,3.16.48-.52.83-.87,2.18-1.59,2.42-4.59,1.5-5.7,4.85-5.43,9.18a64.08,64.08,0,0,1,0,6.93c-.06,1.27.74,3.24-1.59,3.29s-1.78-1.87-1.8-3.2c-.05-5.42,0-10.85,0-16.27,0-1.3-.29-3.14,1.59-3.13C711.52,140.07,712.34,141.57,713.33,142.55Z"/><path class="cls-1" d="M787.93,268.18c0-3,0-6.05,0-9.08,0-1.23.27-2.48,1.74-2.19a2.77,2.77,0,0,1,1.75,2q.21,9.44,0,18.87c0,.75-1.23,1.47-1.89,2.21-.53-.76-1.48-1.49-1.52-2.28C787.83,274.56,787.93,271.37,787.93,268.18Z"/><path class="cls-1" d="M646.36,268.48c0,3.1.11,6.21-.07,9.3,0,.77-1,1.49-1.56,2.22-.6-.68-1.72-1.36-1.73-2.06q-.19-9.65,0-19.31c0-.62,1.09-1.22,1.67-1.82.56.63,1.57,1.24,1.6,1.9.17,3.25.08,6.51.08,9.77Z"/><path class="cls-1" d="M624.74,151.48c0,3,.1,6.06-.07,9.08,0,.74-1,1.43-1.54,2.15-.59-.67-1.68-1.33-1.69-2q-.21-9.31,0-18.63c0-.72,1.09-1.41,1.67-2.12.55.74,1.52,1.46,1.57,2.23C624.85,145.26,624.74,148.38,624.74,151.48Z"/><path class="cls-1" d="M548.54,151.52c0-3-.12-6.06.07-9.08,0-.86,1-1.66,1.52-2.49.61.77,1.72,1.52,1.74,2.31q.21,9.19,0,18.39c0,.7-1.07,1.38-1.65,2.06-.56-.7-1.55-1.38-1.59-2.11C548.44,157.58,548.54,154.55,548.54,151.52Z"/><path class="cls-1" d="M809.05,151.34c0,3,0,6.06,0,9.08,0,1.17-.1,2.32-1.72,2.29s-1.67-1.19-1.67-2.35c0-6-.06-12,.07-17.92,0-.84.9-2.27,1.55-2.37,1.61-.27,1.77,1.19,1.77,2.43C809.06,145.45,809.05,148.4,809.05,151.34Z"/><path class="cls-1" d="M644.24,133.47a35.61,35.61,0,0,1-4.46,2.22,23.47,23.47,0,0,1-4.23.67c0-.75-.26-2,.05-2.16a44.47,44.47,0,0,1,6.54-2.82c.52-.17,1.39.68,2.09,1.05Z"/><path class="cls-1" d="M550.21,137.6c-1-1.47-2.11-2.41-2-3.06.19-.87,1.37-1.52,2.13-2.26.64.76,1.74,1.49,1.8,2.3S551.21,136.17,550.21,137.6Z"/><path class="cls-1" d="M810.31,134.72c-1.41.89-2.32,1.91-3,1.78s-2-1.49-1.9-2a3.29,3.29,0,0,1,2.19-2.06C808.19,132.33,809,133.59,810.31,134.72Z"/><path class="cls-1" d="M792.79,251.35c-1.51.94-2.39,1.93-3.13,1.83s-1.45-1.23-2.16-1.91c.76-.72,1.44-1.88,2.3-2C790.45,249.12,791.34,250.27,792.79,251.35Z"/><path class="cls-1" d="M626,134.6c-1.37.94-2.24,2-3,1.9s-2.07-1.41-2-1.94a3.23,3.23,0,0,1,2.09-2.13C623.84,132.3,624.72,133.53,626,134.6Z"/><path class="cls-1" d="M641.53,251.35c1.44-1.08,2.14-2,3-2.18a1.7,1.7,0,0,1,2.15,2.08,3,3,0,0,1-2,1.93C643.92,253.28,643,252.29,641.53,251.35Z"/></svg>