<svg id="Capa_1" data-name="Capa 1" xmlns="http://www.w3.org/2000/svg" viewBox="0 0 300 300"><defs><style>.cls-1{fill:#f6f6f6;}</style></defs><path class="cls-1" d="M283.59,82c-12.69-22.28-25.46-31.44-33.92-35.2a16.44,16.44,0,0,0-15,.48c-.78.32-1.62.69-2.52,1.07-7.6,3.27-19.13,8.21-32.06,7.62a40.64,40.64,0,0,0-22,5L153.46,74.82l-.27.17-.23.16L133.42,90l.49.23a17.59,17.59,0,0,1,5.46,4.61l17.92-13.6,24.42-13.77a33.07,33.07,0,0,1,18-4.06c14.7.7,27.62-4.89,35.35-8.22L237.84,54a3.73,3.73,0,0,0,.65-.35,9.16,9.16,0,0,1,8.14-.07c6.1,2.72,18.18,10.49,30.49,32.1,11.26,19.73,13.67,34,13.7,42.52h0a9,9,0,0,1-5.18,8.56l-.23.09a112.84,112.84,0,0,0-15.78,8.27c-11.4,7.2-19.61,14.09-29.8,23.88a23.09,23.09,0,0,1,4.38,5.05c.14.22.27.45.41.68,10-9.64,18-16.36,29-23.31a105.34,105.34,0,0,1,14.63-7.68l.24-.1a16.58,16.58,0,0,0,9.8-15.47C298.23,118.75,295.64,103.1,283.59,82Z"/><path class="cls-1" d="M245.67,177.1a20.41,20.41,0,0,0-7.83-12.74l-51.52-39.29c-5.12-3.81-7.66-5.48-9.9-7-4.09-2.71-7.32-4.84-25.34-19.56-22.62-18.48-40-23.5-40.88-23.73-9.89-2.45-15.53-7.66-21-12.7a56.79,56.79,0,0,0-9.58-7.66,19.41,19.41,0,0,0-15.81-3.18c-9.75,2.19-24.79,9-41.07,29.2-15.53,19.23-20,34.68-20.93,44.23a18.11,18.11,0,0,0,9.08,17.37,134.53,134.53,0,0,1,15.62,10.79c2.74,2.2,5.09,4,7.18,5.65,2.7,2.1,4.95,3.85,7.11,5.67a22.64,22.64,0,0,1,3.33-6.91c-1.81-1.48-3.72-3-5.87-4.64s-4.39-3.41-7.08-5.57A140.71,140.71,0,0,0,14.56,135.6a10.49,10.49,0,0,1-5.33-10.11c.88-8.57,4.94-22.52,19.32-40.33,14.93-18.5,28.32-24.69,36.93-26.62a12,12,0,0,1,9.87,2,3.11,3.11,0,0,0,.38.25,50.36,50.36,0,0,1,8.44,6.79C90,73,96.67,79.13,108.3,82c.16,0,16.77,4.89,38.07,22.3,18.31,15,21.68,17.18,25.95,20,2.16,1.42,4.6,3,9.53,6.7l51.47,39.26a13,13,0,0,1,5,8.1,10.49,10.49,0,0,1-9.54,12.5,12.91,12.91,0,0,1-9.13-2.7,3.72,3.72,0,1,0-4.52,5.92h0l.07.06a13,13,0,0,1,4.94,8,10.67,10.67,0,0,1-1.95,8.41c-4.05,5.3-11.3,4.71-16.44,1.37l-8.24-6.28a3.72,3.72,0,1,0-4.51,5.92h0a13,13,0,0,1,5,8.09,10.69,10.69,0,0,1-2,8.4c-3.76,4.93-11.26,5.57-16.72,1.41l-7.14-5.45A3.72,3.72,0,1,0,163.7,230h0a9.43,9.43,0,0,1,4,7.29c0,2.84-1.52,5.61-4.52,8-5.62,5-15.62-.15-20.63-4l-8-6.07a22.3,22.3,0,0,1-4.39,6l7.83,6c5.42,4.13,12.67,7.59,19.41,7.59A15.35,15.35,0,0,0,168,251c4.46-3.49,7-8.08,7.18-13,8.08,3.55,17.59,1.58,22.87-5.34a17.92,17.92,0,0,0,3.6-12.37c8.3,3.44,17.43,1.54,22.53-5.15a18,18,0,0,0,3.37-14.19,20.31,20.31,0,0,0-.62-2.56,19.31,19.31,0,0,0,2.63-.08,17.93,17.93,0,0,0,16.16-21.19Z"/><path class="cls-1" d="M218.34,195.58a3.63,3.63,0,0,1-2.24-.76l-37.45-28.36a3.72,3.72,0,1,1,4.5-5.93l37.44,28.36a3.72,3.72,0,0,1-2.25,6.69Z"/><path class="cls-1" d="M192.86,213.58a3.74,3.74,0,0,1-2.25-.76l-32.7-24.77a3.72,3.72,0,1,1,4.49-5.93l32.71,24.77a3.72,3.72,0,0,1-2.25,6.69Z"/><path class="cls-1" d="M168.1,232.46a3.63,3.63,0,0,1-2.24-.76l-29.11-22a3.72,3.72,0,0,1,4.49-5.94l29.11,22.05a3.72,3.72,0,0,1-2.25,6.69Z"/><path class="cls-1" d="M56.31,186.27c-.45,0-.9,0-1.35-.05A18.66,18.66,0,0,1,44,153.52l15-13a2.73,2.73,0,0,1,.47-.35l3.95-2.46a3.4,3.4,0,0,1,.5-.26,18.63,18.63,0,0,1,26,17.37h0a18.67,18.67,0,0,1-6.41,13.88l-14.95,13A18.46,18.46,0,0,1,56.31,186.27Zm7.33-39.92-14.73,12.8a11.22,11.22,0,0,0,14.71,16.94l15-13a11.21,11.21,0,0,0-11.51-18.88Zm22.51,8.45h0Z"/><path class="cls-1" d="M95.44,231.33a18.65,18.65,0,0,1-12.33-32.68l15.07-13.09A18.65,18.65,0,0,1,129,199.9h0a18.68,18.68,0,0,1-6.41,13.87l-14.94,13A18.7,18.7,0,0,1,95.44,231.33Zm14.94-42.86a11.17,11.17,0,0,0-7.33,2.72L88,204.25a11.24,11.24,0,0,0,14.8,16.91l15-13a11.21,11.21,0,0,0-7.38-19.67Zm14.94,11.38h0Z"/><path class="cls-1" d="M75.84,208.81c-.44,0-.88,0-1.32-.05A18.59,18.59,0,0,1,63.63,176.2l20.44-17.78a18.6,18.6,0,0,1,30.79,14.25h0a18.65,18.65,0,0,1-6.38,13.82L88,204.25A18.37,18.37,0,0,1,75.84,208.81Zm20.4-47.48A11.08,11.08,0,0,0,89,164L68.51,181.82a11.14,11.14,0,0,0,14.61,16.82l20.48-17.77a11.16,11.16,0,0,0,1.09-15.72,11.08,11.08,0,0,0-7.64-3.79C96.78,161.34,96.5,161.33,96.24,161.33Zm14.9,11.3h0Z"/><path class="cls-1" d="M117.8,249.09a17.6,17.6,0,0,1-11.56-30.89l7.17-6.23a15.7,15.7,0,0,1,1.48-1.15,17.58,17.58,0,0,1,27.68,14.63h0a17.6,17.6,0,0,1-6.06,13.11l-7.17,6.23A17.55,17.55,0,0,1,117.8,249.09Zm7.2-34a10.19,10.19,0,0,0-5.92,1.9,7.91,7.91,0,0,0-.83.64l-7.13,6.2a10.19,10.19,0,0,0-1,14.34,10.21,10.21,0,0,0,14.37,1l7.16-6.23a10.13,10.13,0,0,0,3.49-7.58h0a10.22,10.22,0,0,0-2.47-6.79A10.11,10.11,0,0,0,125,215.08Z"/><path class="cls-1" d="M181.94,127.33c-1.51,0-3-.06-4.55-.18a3.72,3.72,0,0,1-3.42-4,3.68,3.68,0,0,1,4-3.42c23.67,1.82,46.75-13.92,47-14.08a3.72,3.72,0,0,1,4.24,6.12C228.22,112.44,206.42,127.33,181.94,127.33Z"/></svg>