<svg id="Capa_1" data-name="Capa 1" xmlns="http://www.w3.org/2000/svg" viewBox="0 0 300 300"><defs><style>.cls-1{fill:#009aa6;}</style></defs><path class="cls-1" d="M146.43,297.5c-33.55,0-54.08-7.54-65.42-13.9a23.1,23.1,0,0,1-12.08-22.51c0-.09,0-.39.07-.48a146,146,0,0,0,.69-23c-1-21.07-4.47-36.87-10.87-60.4a116.5,116.5,0,0,1-4.31-30.38l0-75a5.19,5.19,0,0,1,5.19-5.2h0a5.2,5.2,0,0,1,5.2,5.2l0,75a106.13,106.13,0,0,0,3.94,27.65c6.6,24.27,10.15,40.61,11.22,62.63A155.48,155.48,0,0,1,79.3,262c0,.08,0,.38-.07.46-.49,4.72,2.12,9.44,6.85,12.06,10.28,5.77,29.05,12.59,60.35,12.59h.8c34.68-.13,52.47-9.48,60-15a12.65,12.65,0,0,0,5.49-10.22,6.64,6.64,0,0,1,0-.77c.15-1.26.3-2.66.46-4.17,1.27-11.68,3.38-31.24,14.29-48.65A46.68,46.68,0,0,0,235,183.54V139.18a5.2,5.2,0,1,1,10.4,0v44.36a57.06,57.06,0,0,1-9,30.24c-9.64,15.38-11.52,32.75-12.76,44.24-.16,1.44-.3,2.79-.45,4a22.94,22.94,0,0,1-9.74,18.41c-10.4,7.7-30.35,16.93-66.1,17.06Z"/><path class="cls-1" d="M134.31,216.5a5.2,5.2,0,0,1-5.2-5.2c0-36.29,8.25-62.84,24.52-78.9,15.08-14.89,31.43-14.83,32.16-14.83a5.2,5.2,0,0,1-.06,10.4h0c-2,0-46.18,1.06-46.18,83.33A5.2,5.2,0,0,1,134.31,216.5Z"/><path class="cls-1" d="M147.39,76V28.64A15.76,15.76,0,0,1,163.12,12.9a15.42,15.42,0,0,1,15.44,15.74v47.7l2.06,0A20.14,20.14,0,0,1,189,78.23V28.64a26,26,0,1,0-52,0V78.05A52.17,52.17,0,0,1,147.39,76Z"/><path class="cls-1" d="M135.45,113.1a15.72,15.72,0,0,1-29.92-6.74V28.64a15.73,15.73,0,0,1,31.46,0V87.4a21.77,21.77,0,0,1,10.39-6.05V28.64a26.13,26.13,0,1,0-52.25,0v77.72A26.12,26.12,0,0,0,143.57,120,20.38,20.38,0,0,1,135.45,113.1Z"/><path class="cls-1" d="M189,75.75V28.64a15.73,15.73,0,1,1,31.46,0V77.83a36.82,36.82,0,0,1,10.4,3.87V28.64a26.13,26.13,0,1,0-52.26,0v47.3C182,75.79,185.51,75.74,189,75.75Z"/><path class="cls-1" d="M208.1,145.54a5.15,5.15,0,0,1-3.19-1.1l-20.54-16.07H155.1c-18.95,0-29.17-13.48-29.17-26.17,0-16.72,11.32-28,28.16-28h54c12.61,0,21.66,3,27.67,9.06,10.15,10.29,9.93,27.13,9.64,48.44q0,3.66-.08,7.48a5.2,5.2,0,0,1-5.2,5.16h0a5.2,5.2,0,0,1-5.16-5.24q0-3.85.09-7.53c.25-18.9.45-33.82-6.65-41-4-4-10.59-6-20.27-6h-54c-11.12,0-17.76,6.56-17.76,17.56,0,6.34,5,15.77,18.77,15.77h31.06a5.21,5.21,0,0,1,3.21,1.11l21.94,17.17a5.2,5.2,0,0,1-3.21,9.29Z"/><path class="cls-1" d="M80.11,115.17A25.66,25.66,0,0,1,54.48,89.54V38.26a25.63,25.63,0,1,1,51.26,0V89.54A25.66,25.66,0,0,1,80.11,115.17Zm0-92.14A15.24,15.24,0,0,0,64.88,38.26V89.54a15.23,15.23,0,1,0,30.46,0V38.26A15.24,15.24,0,0,0,80.11,23Z"/></svg>