<svg id="Capa_1" data-name="Capa 1" xmlns="http://www.w3.org/2000/svg" viewBox="0 0 177.52 73.42"><defs><style>.cls-1{fill:none;}.cls-2{fill:#006553;}.cls-3{fill:#fff;}.cls-4{fill:#009a84;}.cls-5{fill:#706f6f;}</style></defs><rect class="cls-1" x="-11.39" y="-11.9" width="200.95" height="95.87"/><polygon class="cls-2" points="129.07 15.6 129.07 61.69 164.82 61.69 173.86 15.6 129.07 15.6"/><path class="cls-3" d="M153.43,26.86c-1.5-1.28-3.84-1.93-6.94-1.93a22.75,22.75,0,0,0-4.48.47c-.78.16-1.54.36-2.32.6l-1.15,6A14,14,0,0,1,141,30.92a11.84,11.84,0,0,1,3.52-.48,3.84,3.84,0,0,1,2.83.9,3.16,3.16,0,0,1,.87,2.27,5.32,5.32,0,0,1-1.72,3.75,61.31,61.31,0,0,1-6.95,5.49L136,45.44l-1.34,7h17.67l1.09-5.66H142.72l4.66-3.26a29.34,29.34,0,0,0,6.28-5.7,9.49,9.49,0,0,0,2-5.86A6.33,6.33,0,0,0,153.43,26.86Z"/><polygon class="cls-4" points="175.16 15.6 173.36 15.6 164.32 61.69 175.16 61.69 175.16 15.6"/><polygon class="cls-3" points="164.58 34.7 157.86 36.99 156.71 42.98 161.85 40.94 157.79 61.69 164.32 61.69 169.61 34.7 164.58 34.7"/><path class="cls-5" d="M4.19,2.71H6.57V9.55c0,2,.65,3.35,2.46,3.35s2.47-1.33,2.47-3.35V2.71h2.37v7.57c0,3.18-1.8,4.48-4.84,4.48s-4.84-1.3-4.84-4.48Z"/><path class="cls-5" d="M16.51,2.71h2.92l4.51,8.86h0V2.71h2.27V14.56h-2.9L18.81,5.7h0v8.86H16.51Z"/><path class="cls-5" d="M28.77,2.71h2.37V14.56H28.77Z"/><path class="cls-5" d="M32.57,2.71h2.55l3,9.3h0l3-9.3h2.36l-4,11.85H36.65Z"/><path class="cls-5" d="M45.19,2.71h7V4.58H47.57V7.5h4.22V9.36H47.57v3.33h4.65v1.87h-7Z"/><path class="cls-5" d="M54.51,2.71h2.56c2.55,0,5.59-.09,5.59,3.21a2.71,2.71,0,0,1-2.44,2.75v0c.64.05,1,.7,1.25,1.22l1.9,4.64H60.73l-1.43-3.7C59,10,58.65,9.64,57.65,9.64h-.76v4.92H54.51Zm2.38,5.06h.78c1.17,0,2.51-.17,2.51-1.65s-1.32-1.54-2.51-1.54h-.78Z"/><path class="cls-5" d="M71.54,4.88a6.16,6.16,0,0,0-2.41-.51A1.66,1.66,0,0,0,67.26,6c0,2.05,5.2,1.19,5.2,5.16,0,2.6-2.06,3.58-4.45,3.58a10.39,10.39,0,0,1-3-.45l.22-2.14a5.76,5.76,0,0,0,2.69.73c.9,0,2.1-.46,2.1-1.53,0-2.26-5.2-1.33-5.2-5.25,0-2.65,2.06-3.62,4.15-3.62a8.84,8.84,0,0,1,2.83.43Z"/><path class="cls-5" d="M74.5,2.71h2.38V14.56H74.5Z"/><path class="cls-5" d="M79.51,2.71h3.24c3.63,0,6.84,1.22,6.84,5.92s-3.21,5.93-6.84,5.93H79.51Zm2.38,10h1.32a3.87,3.87,0,0,0,3.9-4.06,3.86,3.86,0,0,0-3.9-4.05H81.89Z"/><path class="cls-5" d="M95.25,2.71h2.68l4.65,11.85H100l-1-2.72h-4.8l-1,2.72H90.63Zm1.31,2.38h0L94.81,10h3.46Z"/><path class="cls-5" d="M104.2,2.71h3.24c3.64,0,6.84,1.22,6.84,5.92s-3.2,5.93-6.84,5.93H104.2Zm2.38,10h1.32a3.88,3.88,0,0,0,3.91-4.06,3.87,3.87,0,0,0-3.91-4.05h-1.32Z"/><path class="cls-2" d="M28,25.36h7.21v27H28Z"/><path class="cls-2" d="M101.91,24.89c8.91,0,13.55,5.31,13.55,14s-4.72,14-13.55,14-13.56-5.38-13.56-14S93,24.89,101.91,24.89Zm0,22.62c4.37,0,6.12-4.18,6.12-8.64,0-4.68-1.75-8.63-6.12-8.63s-6.12,3.95-6.12,8.63C95.79,43.33,97.53,47.51,101.91,47.51Z"/><path class="cls-2" d="M55.38,24.89c-9.91,0-15.57,3.92-15.57,14.1s6.82,13.86,14,13.86a39.89,39.89,0,0,0,10.46-1.23v-15H54.18l-1,5.11h4.12v5.35a6.3,6.3,0,0,1-2.56.46c-5.26,0-7.52-3.21-7.52-8.52,0-6.31,3.3-8.75,9.15-8.75a14,14,0,0,1,6,1.44l1.08-5.61A26.41,26.41,0,0,0,55.38,24.89Z"/><path class="cls-2" d="M14.79,24.89C9.37,24.89,3,26.68,3,33.18,3,43,15.8,39.84,15.8,44.88c0,2.17-2.17,2.63-4.46,2.63a15.78,15.78,0,0,1-7.43-1.78l-.62,6a28.14,28.14,0,0,0,8.05,1.16c6,0,11.89-1.89,11.89-8.9,0-9.76-12.78-6.82-12.78-11.19,0-2.37,3-2.52,4.84-2.52a14.9,14.9,0,0,1,5.12.88l1-5.32A23.31,23.31,0,0,0,14.79,24.89Z"/><polygon class="cls-2" points="86.26 47.05 76.84 47.05 76.84 25.36 69.64 25.36 69.64 52.39 86.26 52.39 86.26 47.05"/><path class="cls-5" d="M4,62.66H5.38v5.72H8v1.07H4Z"/><path class="cls-5" d="M9,64.7a4.58,4.58,0,0,1,1.74-.38c1.53,0,2.16.63,2.16,2.11v.64c0,.51,0,.89,0,1.26s0,.73.06,1.12H11.82a6.14,6.14,0,0,1-.06-.75h0a1.78,1.78,0,0,1-1.54.86,1.59,1.59,0,0,1-1.75-1.48,1.47,1.47,0,0,1,.85-1.43,3.9,3.9,0,0,1,1.69-.3h.71c0-.8-.35-1.08-1.12-1.08A2.63,2.63,0,0,0,9,65.82Zm1.53,3.91a1.07,1.07,0,0,0,.91-.45,1.61,1.61,0,0,0,.27-1h-.56c-.58,0-1.45.1-1.45.87C9.69,68.43,10.05,68.61,10.52,68.61Z"/><path class="cls-5" d="M20.9,69.17a3.49,3.49,0,0,1-1.73.39A2.37,2.37,0,0,1,16.56,67c0-1.45.77-2.65,2.32-2.65,1.86,0,2.39,1.28,2.39,3H17.8a1.32,1.32,0,0,0,1.43,1.26,3.32,3.32,0,0,0,1.67-.51ZM20,66.45c0-.63-.33-1.18-1.06-1.18a1.14,1.14,0,0,0-1.16,1.18Z"/><path class="cls-5" d="M25.62,68.88h0a1.83,1.83,0,0,1-1.53.68c-1.54,0-2.1-1.26-2.1-2.63s.56-2.61,2.1-2.61a1.8,1.8,0,0,1,1.5.7h0V62.15h1.31v7.3H25.62Zm-1.19-.33c.86,0,1.15-.91,1.15-1.62s-.34-1.6-1.17-1.6-1.08.93-1.08,1.6S23.57,68.55,24.43,68.55Z"/><path class="cls-5" d="M32.83,69.45H31.6v-.68h0a2.12,2.12,0,0,1-1.65.79c-1.18,0-1.7-.83-1.7-2V64.44h1.3v2.67c0,.62,0,1.44.85,1.44s1.15-1,1.15-1.66V64.44h1.3Z"/><path class="cls-5" d="M37.42,65.52a1.88,1.88,0,0,0-.88-.19c-.81,0-1.33.64-1.33,1.59s.44,1.63,1.36,1.63a2.73,2.73,0,0,0,1-.23l.06,1.08a4.51,4.51,0,0,1-1.31.16,2.63,2.63,0,0,1,0-5.24,4.15,4.15,0,0,1,1.27.17Z"/><path class="cls-5" d="M38.72,64.7a4.5,4.5,0,0,1,1.74-.38c1.52,0,2.16.63,2.16,2.11v.64c0,.51,0,.89,0,1.26s0,.73,0,1.12H41.55a6.14,6.14,0,0,1-.06-.75h0a1.8,1.8,0,0,1-1.55.86,1.6,1.6,0,0,1-1.75-1.48A1.47,1.47,0,0,1,39,66.65a3.83,3.83,0,0,1,1.68-.3h.72c0-.8-.36-1.08-1.13-1.08a2.66,2.66,0,0,0-1.55.55Zm1.52,3.91a1.11,1.11,0,0,0,.92-.45,1.68,1.68,0,0,0,.27-1h-.57c-.58,0-1.44.1-1.44.87C39.42,68.43,39.78,68.61,40.24,68.61Z"/><path class="cls-5" d="M47.15,65.52a2,2,0,0,0-.89-.19c-.8,0-1.32.64-1.32,1.59s.44,1.63,1.35,1.63a2.68,2.68,0,0,0,1-.23l.06,1.08a4.48,4.48,0,0,1-1.3.16,2.63,2.63,0,0,1,0-5.24,4,4,0,0,1,1.26.17Z"/><path class="cls-5" d="M48.25,62.28h1.3v1.24h-1.3Zm0,2.16h1.3v5h-1.3Z"/><path class="cls-5" d="M53.22,64.32A2.5,2.5,0,0,1,55.84,67a2.62,2.62,0,0,1-5.24,0A2.51,2.51,0,0,1,53.22,64.32Zm0,4.23c1,0,1.26-.89,1.26-1.73a1.28,1.28,0,1,0-2.52,0C52,67.65,52.23,68.55,53.22,68.55Zm.1-6.21h1.33l-1.33,1.42h-.81Z"/><path class="cls-5" d="M56.87,64.44H58.1v.68h0a1.88,1.88,0,0,1,1.64-.8c1.19,0,1.71.84,1.71,2v3.16H60.16V66.77c0-.61,0-1.44-.84-1.44s-1.15,1-1.15,1.67v2.45h-1.3Z"/><path class="cls-5" d="M69.53,69.17a3.47,3.47,0,0,1-1.72.39A2.38,2.38,0,0,1,65.19,67a2.35,2.35,0,0,1,2.33-2.65c1.85,0,2.38,1.28,2.38,3H66.44a1.3,1.3,0,0,0,1.43,1.26,3.31,3.31,0,0,0,1.66-.51Zm-.88-2.72c0-.63-.33-1.18-1.06-1.18a1.13,1.13,0,0,0-1.15,1.18Z"/><path class="cls-5" d="M70.37,64.44h1.4L73,68.09h0l1.21-3.65h1.3l-1.85,5H72.22Z"/><path class="cls-5" d="M78.62,64.32A2.51,2.51,0,0,1,81.25,67,2.62,2.62,0,0,1,76,67,2.51,2.51,0,0,1,78.62,64.32Zm0,4.23c1,0,1.27-.89,1.27-1.73a1.28,1.28,0,1,0-2.52,0C77.37,67.65,77.63,68.55,78.62,68.55Z"/><path class="cls-5" d="M82.3,62.15h1.3v7.3H82.3Z"/><path class="cls-5" d="M89.58,69.45H88.34v-.68h0a2.1,2.1,0,0,1-1.64.79c-1.19,0-1.7-.83-1.7-2V64.44h1.3v2.67c0,.62,0,1.44.84,1.44s1.15-1,1.15-1.66V64.44h1.31Z"/><path class="cls-5" d="M94.17,65.52a2,2,0,0,0-.89-.19c-.81,0-1.32.64-1.32,1.59s.44,1.63,1.35,1.63a2.68,2.68,0,0,0,1-.23l.06,1.08a4.48,4.48,0,0,1-1.3.16,2.63,2.63,0,0,1,0-5.24,4.13,4.13,0,0,1,1.26.17Z"/><path class="cls-5" d="M95.27,62.28h1.3v1.24h-1.3Zm0,2.16h1.3v5h-1.3Z"/><path class="cls-5" d="M100.24,64.32A2.51,2.51,0,0,1,102.86,67a2.62,2.62,0,0,1-5.24,0A2.51,2.51,0,0,1,100.24,64.32Zm0,4.23c1,0,1.26-.89,1.26-1.73a1.28,1.28,0,1,0-2.52,0C99,67.65,99.24,68.55,100.24,68.55Z"/><path class="cls-5" d="M103.88,64.44h1.24v.68h0a1.88,1.88,0,0,1,1.64-.8c1.19,0,1.7.84,1.7,2v3.16h-1.3V66.77c0-.61,0-1.44-.85-1.44s-1.14,1-1.14,1.67v2.45h-1.31Z"/><path class="cls-5" d="M110.05,64.7a4.58,4.58,0,0,1,1.74-.38c1.53,0,2.16.63,2.16,2.11v.64c0,.51,0,.89,0,1.26s0,.73.06,1.12h-1.15a6.14,6.14,0,0,1-.06-.75h0a1.78,1.78,0,0,1-1.54.86,1.59,1.59,0,0,1-1.75-1.48,1.47,1.47,0,0,1,.85-1.43,3.88,3.88,0,0,1,1.68-.3h.72c0-.8-.36-1.08-1.13-1.08a2.63,2.63,0,0,0-1.54.55Zm1.53,3.91a1.07,1.07,0,0,0,.91-.45,1.68,1.68,0,0,0,.27-1h-.56c-.58,0-1.45.1-1.45.87C110.75,68.43,111.11,68.61,111.58,68.61Z"/></svg>