<svg id="Capa_1" data-name="Capa 1" xmlns="http://www.w3.org/2000/svg" viewBox="0 0 300 300"><defs><style>.cls-1{fill:#f6f6f6;}</style></defs><path class="cls-1" d="M227.43,300.05a172.14,172.14,0,0,1-23.12-4.78c-18.48-5.5-35.43-14.18-51.53-24.61C123,251.39,97.18,227.6,73,201.9,56.37,184.27,41.05,165.59,28.13,145c-11-17.42-20-35.73-24.83-55.85C-.64,72.77-1.42,56.27,3,39.76A34.12,34.12,0,0,1,17.79,19.09Q31.2,10.5,45.06,2.6C54-2.53,63.76.11,69.79,9.05c7.58,11.23,15,22.53,22.57,33.81q8,11.93,15.89,23.85c7,10.49,5.45,20-4.44,27.66L85.09,108.89c-5.66,4.4-6,6.92-2.8,13.22,10.75,20.82,26.16,38,42.57,54.34C137.58,189.14,150.73,201.34,166,211c4.54,2.85,9.23,5.46,13.93,8,4.2,2.29,7.25,1.62,10.5-2.44,5.42-6.77,10.64-13.71,16-20.52,7.25-9.16,16.82-10.7,26.59-4.34l1.7,1.13C253,205,271.21,217.23,289.53,229.3c4.89,3.23,8.81,7,10.47,12.81v8.19a38.87,38.87,0,0,1-2.06,4.81c-5.58,9.36-11,18.79-16.95,27.94-4.7,7.29-11.62,11.88-20,14.29a139.17,139.17,0,0,1-13.69,2.71Zm10.75-10.26c4.07-.36,8.16-.61,12.21-1.11,10.79-1.33,19.3-6,24.65-16,3.91-7.29,8.47-14.24,12.72-21.36,2.92-4.9,2-8.79-2.75-12Q256.3,220.14,227.57,201c-5.48-3.66-9-3-13.07,2.16-5.45,7-10.82,14.07-16.39,21S184,233,176,229a170.38,170.38,0,0,1-26.61-16.4c-18.3-14-34.43-30.22-49.84-47.22A188.65,188.65,0,0,1,72.2,126.17c-5.06-9.63-3.48-17.89,5-24.66C83.75,96.28,90.41,91.18,97,86c5.42-4.2,6-7.73,2.15-13.52q-7.6-11.46-15.25-22.89-11.5-17.28-23-34.57C58.18,11,54.1,9.7,50.31,12q-13.58,8.06-27,16.4a22.55,22.55,0,0,0-8.94,11.27C11.53,46.81,10.79,54.41,10.74,62c-.11,16.11,3.82,31.43,10,46.23C28.83,127.54,40,145,52.65,161.55,70.63,185,91,206.23,112.88,226c20.83,18.84,42.93,35.91,68.2,48.51C199.06,283.5,217.79,289.74,238.18,289.79Z"/><path class="cls-1" d="M265.09,131.42a24.38,24.38,0,0,1,.23,3.57c-.14,3.33-2.27,5.46-5.27,5.46s-5-2-5.3-5.4c-.6-7.67-1.17-15.31-3.37-22.77q-10.24-34.61-41.93-51.7a80.61,80.61,0,0,0-37.56-9.71c-4.37-.07-7-2.18-7-5.43s2.5-5.47,6.33-5.39A92.81,92.81,0,0,1,199,44.58c27.06,9.08,46.49,26.71,58.39,52.64A93.63,93.63,0,0,1,265.09,131.42Z"/><path class="cls-1" d="M235.22,132.4c0,1.07.06,2.15,0,3.22a5.16,5.16,0,0,1-10.19.77c-.57-3.36-.67-6.78-1.2-10.14a54.41,54.41,0,0,0-46.16-45c-2.23-.3-4.44-.47-6.68-.56-3.75-.16-6.13-2.31-6.14-5.37s2.6-5.53,6.4-5.4c15.72.58,29.77,5.68,41.68,16.12,12.8,11.21,20,25.4,22.16,42.24,0,.29.08.58.09.87,0,1.07,0,2.15,0,3.22Z"/><path class="cls-1" d="M205.31,133.64a13.92,13.92,0,0,1,0,2.33,5,5,0,0,1-4.67,4.45,4.84,4.84,0,0,1-5.5-3.74c-.54-2.25-.52-4.65-1.12-6.88-3.11-11.6-10.58-17.65-23.56-19.16-2.31-.26-4.12-1.1-5.1-3.29a4.91,4.91,0,0,1,.64-5.22,5.73,5.73,0,0,1,5.16-2.22C191.85,100.93,204.77,117.21,205.31,133.64Z"/></svg>