<svg id="Capa_1" data-name="Capa 1" xmlns="http://www.w3.org/2000/svg" viewBox="0 0 300 300"><defs><style>.cls-1{fill:#f6f6f6;}</style></defs><path class="cls-1" d="M251.17,301.3H48.6a55,55,0,0,1-25.17-10.07c-13-9.69-21.09-22.35-23.43-38.52V50.13c.11-.47.25-.94.33-1.42A56.11,56.11,0,0,1,55.56,1.32q94.38,0,188.76,0a59.41,59.41,0,0,1,7.87.5C278.67,5.37,300,29.42,300,56.11q.07,95.4,0,190.8A51.14,51.14,0,0,1,289.59,278C280,291,267.28,299,251.17,301.3ZM243.43,80.42a88.92,88.92,0,0,1-22.7,8.78A4.38,4.38,0,0,1,216.24,88c-8.79-8.57-19.41-11.81-31.54-10.87-16.83,1.3-31.81,13.9-35.73,30.28a38.65,38.65,0,0,0-.73,16.23c.38,2.1.24,3.75-2.63,3.38-2.41-.31-4.86-.39-7.26-.75-29-4.35-53.31-17.42-72.69-39.47-1.8-2-2.44-1.39-3.36.57a42,42,0,0,0-3.64,21.34c.84,11.22,5.5,20.36,14.28,27.41.84.67,2,1.12,2.21,2.67-4.52.19-8.61-.93-12.71-2.21C60.61,136,58.05,134,57.2,135c-1.24,1.51-.35,4.27.15,6.43,3.63,15.77,13.33,26.06,28.51,31.35,1.11.39,2.46.34,3.54,1.81-4.35,1.24-8.36,2.06-12.59,1.24-.94-.18-2-.59-2.77.23s0,1.85.39,2.69c5.29,11.43,13.91,19.08,26,22.78a28.91,28.91,0,0,0,8,1.32c.65,0,1.48.11,1.63.92.12.65-.58.95-1,1.32s-.77.59-1.17.88a80.12,80.12,0,0,1-50.53,15.32c-1.36,0-2.72,0-4.08,0a22.3,22.3,0,0,0,5.53,3.81,115.24,115.24,0,0,0,62.7,12.93c14.78-1.05,29-4.27,42.22-10.77,31.65-15.53,51.27-41.15,61.12-74.59a102.18,102.18,0,0,0,4-33.78,3.68,3.68,0,0,1,1.44-3.33c1.24-1,2.48-1.89,3.67-2.91a76,76,0,0,0,14.4-15.93c-7.44,2.63-14.21,5-21.6,5.21C234.29,96.51,240.19,90,243.43,80.42Z"/></svg>