<svg id="Capa_1" data-name="Capa 1" xmlns="http://www.w3.org/2000/svg" viewBox="0 0 300 300"><defs><style>.cls-1{fill:#f6f6f6;}</style></defs><path class="cls-1" d="M160,3c8.1,1.16,16.17,2.5,23.86,5.41q57.54,21.78,69.51,82.15c3.94,19.86-.71,38.38-8,56.57C234.15,175,219.15,201,203.22,226.35c-14.6,23.27-30.17,45.88-46.49,68-.51.7-1,1.4-1.59,2.06-3.51,4.09-8,4.08-11.2-.25-5.58-7.49-11.1-15-16.48-22.68C108.83,247,91.08,219.91,75.37,191.56c-10.13-18.3-19.35-37-26-56.94-9.71-29.12-4.76-56.37,10.81-81.89S98.69,11.48,127.87,4.92c3.55-.8,7.18-1.3,10.77-1.93ZM149.85,52.84A54.6,54.6,0,0,0,94.5,108c.1,32.27,25.93,54.63,54.46,55,28.89.37,55.67-22,55.78-55.11A54.59,54.59,0,0,0,149.85,52.84Z"/></svg>