<svg id="Capa_1" data-name="Capa 1" xmlns="http://www.w3.org/2000/svg" viewBox="0 0 272.24 71.23"><defs><style>.cls-1{fill:#a4243b;}.cls-2{fill:#fff;}</style></defs><path class="cls-1" d="M99.2,56.86a6.12,6.12,0,0,1,1.13,3.61,6.47,6.47,0,0,1-2.21,5.23c-1.47,1.24-3.6,1.85-6.4,1.85H80.15V42.83H91.34a8.81,8.81,0,0,1,5.93,1.77,5.82,5.82,0,0,1,2,4.62A5.54,5.54,0,0,1,96,54.53,6.4,6.4,0,0,1,99.2,56.86ZM84.84,46.68v6.46H91a3.84,3.84,0,0,0,2.72-.88,3.17,3.17,0,0,0,1-2.45,2.84,2.84,0,0,0-1-2.29,4,4,0,0,0-2.7-.84Zm6.63,17a4.58,4.58,0,0,0,3-.88,3.14,3.14,0,0,0,1-2.52q0-3.43-4.07-3.44H84.84v6.84Z"/><path class="cls-1" d="M104.52,67.55V42.83h4.38V67.55Z"/><path class="cls-1" d="M125.91,67.55a6.54,6.54,0,0,1-.49-2.18q-1.8,2.59-5.76,2.6A7.31,7.31,0,0,1,115,66.55a4.84,4.84,0,0,1-1.75-4q0-4.89,6.87-5.59l2.71-.24a4,4,0,0,0,2-.65,1.67,1.67,0,0,0,.59-1.4,1.94,1.94,0,0,0-.75-1.69,6.12,6.12,0,0,0-5.26.11,3,3,0,0,0-1,2.2H114q.39-6.11,8.06-6.11,7.47,0,7.47,5.39v9.55a6.06,6.06,0,0,0,.73,3.4h-4.38ZM124,63.72a4.13,4.13,0,0,0,1.28-3.25V58.84a3.82,3.82,0,0,1-2,.73l-2.36.27a5.08,5.08,0,0,0-2.48.82,2.14,2.14,0,0,0-.75,1.76,2.17,2.17,0,0,0,.78,1.78,3.44,3.44,0,0,0,2.24.64A4.89,4.89,0,0,0,124,63.72Z"/><path class="cls-1" d="M133.62,61.86h4.27A3.19,3.19,0,0,0,139,64.22a4.86,4.86,0,0,0,2.9.69c2.36,0,3.54-.72,3.54-2.15a1.69,1.69,0,0,0-.76-1.49,7.45,7.45,0,0,0-2.74-.87l-2-.35C136,59.41,134,57.6,134,54.64a4.69,4.69,0,0,1,1.94-4,9.1,9.1,0,0,1,5.49-1.44q7.68,0,7.91,6.07h-4.13a2.74,2.74,0,0,0-1-2.27,4.71,4.71,0,0,0-2.77-.68c-2.09,0-3.13.7-3.13,2.09a1.61,1.61,0,0,0,.7,1.4,5.52,5.52,0,0,0,2.29.78l2.26.35a10,10,0,0,1,4.74,1.87,4.51,4.51,0,0,1,1.47,3.58,4.79,4.79,0,0,1-2.08,4.17A10.16,10.16,0,0,1,141.81,68Q134,68,133.62,61.86Z"/><path class="cls-1" d="M174.17,42.83A9,9,0,0,1,180.61,45a7.69,7.69,0,0,1,2.3,5.89,7.65,7.65,0,0,1-2.3,5.85,9.07,9.07,0,0,1-6.44,2.17H168v8.64H163.3V42.83ZM174,54.88a4.44,4.44,0,0,0,3.14-1,3.88,3.88,0,0,0,1.1-3,3.94,3.94,0,0,0-1.1-3,4.34,4.34,0,0,0-3.14-1h-6v8Z"/><path class="cls-1" d="M197.88,67.55a6.54,6.54,0,0,1-.49-2.18q-1.8,2.59-5.76,2.6a7.31,7.31,0,0,1-4.71-1.42,4.81,4.81,0,0,1-1.75-4q0-4.89,6.87-5.59l2.71-.24a4,4,0,0,0,1.95-.65,1.67,1.67,0,0,0,.59-1.4,1.94,1.94,0,0,0-.75-1.69,6.12,6.12,0,0,0-5.26.11,2.94,2.94,0,0,0-1,2.2H186q.39-6.11,8.06-6.11,7.45,0,7.46,5.39v9.55a6.15,6.15,0,0,0,.73,3.4h-4.37ZM196,63.72a4.1,4.1,0,0,0,1.29-3.25V58.84a3.82,3.82,0,0,1-2,.73l-2.36.27a5,5,0,0,0-2.48.82,2.14,2.14,0,0,0-.75,1.76,2.17,2.17,0,0,0,.78,1.78,3.46,3.46,0,0,0,2.24.64A4.86,4.86,0,0,0,196,63.72Z"/><path class="cls-1" d="M205.59,61.86h4.26a3.23,3.23,0,0,0,1.1,2.36,4.86,4.86,0,0,0,2.9.69c2.36,0,3.54-.72,3.54-2.15a1.69,1.69,0,0,0-.76-1.49,7.45,7.45,0,0,0-2.75-.87l-2-.35c-3.92-.64-5.87-2.45-5.87-5.41a4.69,4.69,0,0,1,1.94-4,9.1,9.1,0,0,1,5.49-1.44q7.68,0,7.91,6.07h-4.13a2.74,2.74,0,0,0-1-2.27,4.73,4.73,0,0,0-2.78-.68c-2.08,0-3.12.7-3.12,2.09a1.63,1.63,0,0,0,.69,1.4,5.63,5.63,0,0,0,2.3.78l2.26.35a10,10,0,0,1,4.74,1.87,4.51,4.51,0,0,1,1.47,3.58,4.79,4.79,0,0,1-2.08,4.17A10.16,10.16,0,0,1,213.78,68C208.55,68,205.81,66,205.59,61.86Z"/><path class="cls-1" d="M227.42,65.4A9.43,9.43,0,0,1,225,58.59a9.47,9.47,0,0,1,2.43-6.84,8.46,8.46,0,0,1,6.43-2.53,8.64,8.64,0,0,1,5.73,1.86,7.41,7.41,0,0,1,2.6,5h-4.37a4,4,0,0,0-1.36-2.4,4,4,0,0,0-2.6-.83,3.85,3.85,0,0,0-3.21,1.47,6.75,6.75,0,0,0-1.17,4.26,6.64,6.64,0,0,0,1.18,4.25,3.88,3.88,0,0,0,3.2,1.48,4.15,4.15,0,0,0,2.69-.89,3.88,3.88,0,0,0,1.34-2.55h4.37a7.55,7.55,0,0,1-2.63,5.16A8.68,8.68,0,0,1,233.85,68,8.53,8.53,0,0,1,227.42,65.4Z"/><path class="cls-1" d="M258.25,67.55a6.35,6.35,0,0,1-.48-2.18Q256,68,252,68a7.28,7.28,0,0,1-4.7-1.42,4.79,4.79,0,0,1-1.76-4q0-4.89,6.88-5.59l2.7-.24a4,4,0,0,0,1.95-.65,1.67,1.67,0,0,0,.59-1.4,1.94,1.94,0,0,0-.75-1.69,4.47,4.47,0,0,0-2.51-.54,4.56,4.56,0,0,0-2.75.65,3,3,0,0,0-1,2.2h-4.3q.38-6.11,8.05-6.11,7.47,0,7.47,5.39v9.55a6.06,6.06,0,0,0,.73,3.4h-4.38Zm-1.87-3.83a4.13,4.13,0,0,0,1.28-3.25V58.84a3.82,3.82,0,0,1-2.05.73l-2.36.27a5.12,5.12,0,0,0-2.48.82,2.13,2.13,0,0,0-.74,1.76,2.16,2.16,0,0,0,.77,1.78,3.46,3.46,0,0,0,2.24.64A4.89,4.89,0,0,0,256.38,63.72Z"/><path class="cls-1" d="M266.86,67.55V42.83h4.38V67.55Z"/><path class="cls-1" d="M85.17,28.53a5,5,0,0,1-3.71-1.31,5,5,0,0,1-1.31-3.68v-8h1.51v8q0,3.63,3.51,3.63t3.5-3.63v-8h1.51v8a5,5,0,0,1-1.31,3.68A5,5,0,0,1,85.17,28.53Z"/><path class="cls-1" d="M103.29,15.52h1.49V28.27H103L98.73,21.7q-1.83-2.91-2.65-4.32c0,1.67,0,3.87,0,6.59v4.3H94.65V15.52h1.82l4.23,6.57q1.81,2.89,2.65,4.31-.06-2.5-.06-6.58v-4.3Z"/><path class="cls-1" d="M109.43,28.27V15.52h1.51V28.27Z"/><path class="cls-1" d="M124.15,15.52h1.57L121,28.27h-1.68l-4.8-12.75h1.6l3,8.07c.54,1.52.9,2.58,1.09,3.17.18-.6.54-1.65,1.09-3.17Z"/><path class="cls-1" d="M138.16,16.88H130.8v4.06h6.64v1.37H130.8v4.6h7.28v1.36h-8.79V15.52h8.87Z"/><path class="cls-1" d="M151.58,26.64a3.43,3.43,0,0,0,.46,1.62h-1.56a3.19,3.19,0,0,1-.41-1.7l0-1.36a2.78,2.78,0,0,0-.57-1.83,2.26,2.26,0,0,0-1.7-.55H143.6v5.44h-1.51V15.51h5.39a5,5,0,0,1,3.14.91A3.07,3.07,0,0,1,151.79,19a3.33,3.33,0,0,1-.56,2,2.92,2.92,0,0,1-1.54,1.12,2.53,2.53,0,0,1,1.76,2.51Zm-3.92-5.18a2.74,2.74,0,0,0,1.89-.61,2.26,2.26,0,0,0,.69-1.77,1.94,1.94,0,0,0-.73-1.64,3.27,3.27,0,0,0-2-.56H143.6v4.58Z"/><path class="cls-1" d="M156.77,27.42a4.07,4.07,0,0,1-1.42-3.36h1.56q0,3.14,3.74,3.13a4,4,0,0,0,2.39-.61,2,2,0,0,0,.84-1.77,1.66,1.66,0,0,0-.69-1.42,6.72,6.72,0,0,0-2.41-.89l-1.13-.25a6.64,6.64,0,0,1-2.9-1.29,3,3,0,0,1-1-2.4A2.89,2.89,0,0,1,157,16.14a5,5,0,0,1,3.16-.91,7.42,7.42,0,0,1,2.34.33,3.6,3.6,0,0,1,1.55.9,3.92,3.92,0,0,1,.81,1.26,4.55,4.55,0,0,1,.28,1.51h-1.54a2.77,2.77,0,0,0-.89-2,4.08,4.08,0,0,0-2.55-.63,3.5,3.5,0,0,0-2.07.52,1.69,1.69,0,0,0-.72,1.45A1.8,1.8,0,0,0,158,20a6,6,0,0,0,2.37.91l1.13.25a6.64,6.64,0,0,1,3,1.33,3,3,0,0,1,.93,2.3,3.28,3.28,0,0,1-1.27,2.74,5.53,5.53,0,0,1-3.51,1A6,6,0,0,1,156.77,27.42Z"/><path class="cls-1" d="M169.37,28.27V15.52h1.5V28.27Z"/><path class="cls-1" d="M179.82,15.52a6.19,6.19,0,0,1,4.58,1.68,6.39,6.39,0,0,1,1.67,4.69,6.41,6.41,0,0,1-1.67,4.68,6.2,6.2,0,0,1-4.58,1.7h-4.3V15.52Zm0,11.39a4.44,4.44,0,0,0,3.46-1.33,5.24,5.24,0,0,0,1.21-3.69,5.23,5.23,0,0,0-1.21-3.68,4.42,4.42,0,0,0-3.46-1.33H177v10Z"/><path class="cls-1" d="M198.54,28.27l-1.49-3.71h-5.8l-1.47,3.71h-1.57l5.08-12.75H195l5.15,12.75Zm-6.75-5.07h4.73l-.07-.16q-.45-1.09-2.33-5.89-1.27,3.41-2.27,5.91Z"/><path class="cls-1" d="M207.83,15.52a6.19,6.19,0,0,1,4.58,1.68,6.38,6.38,0,0,1,1.66,4.69,6.4,6.4,0,0,1-1.66,4.68,6.2,6.2,0,0,1-4.58,1.7h-4.3V15.52Zm0,11.39a4.45,4.45,0,0,0,3.46-1.33,5.24,5.24,0,0,0,1.21-3.69,5.23,5.23,0,0,0-1.21-3.68,4.42,4.42,0,0,0-3.46-1.33H205v10Z"/><polygon class="cls-1" points="67.1 3.38 67.1 14.16 59.48 21.78 67.1 29.4 67.1 68.04 2.44 68.04 2.44 3.38 67.1 3.38"/><path class="cls-2" d="M11.2,27a4.89,4.89,0,0,1-1.43-3.75v-8H12.2v8A3,3,0,0,0,13,25.46a2.92,2.92,0,0,0,2.18.76,2.91,2.91,0,0,0,2.17-.76,3,3,0,0,0,.76-2.22v-8H20.5v8A4.94,4.94,0,0,1,19.08,27a5.57,5.57,0,0,1-3.94,1.32A5.52,5.52,0,0,1,11.2,27Z"/><path class="cls-2" d="M33.19,22.51a3.14,3.14,0,0,1,.58,1.87,3.36,3.36,0,0,1-1.14,2.71,5.05,5.05,0,0,1-3.32,1h-6V15.23h5.8a4.6,4.6,0,0,1,3.08.92,3.05,3.05,0,0,1,1.06,2.4,2.9,2.9,0,0,1-1.71,2.76A3.28,3.28,0,0,1,33.19,22.51Zm-7.45-5.28v3.35h3.19a2,2,0,0,0,1.41-.46,1.66,1.66,0,0,0,.5-1.27,1.47,1.47,0,0,0-.51-1.19,2.13,2.13,0,0,0-1.4-.43ZM29.18,26a2.43,2.43,0,0,0,1.57-.46,1.64,1.64,0,0,0,.54-1.31c0-1.19-.71-1.78-2.11-1.78H25.74V26Z"/><path class="cls-2" d="M41.71,15.23a4.69,4.69,0,0,1,3.34,1.13,4,4,0,0,1,1.2,3.05,4,4,0,0,1-1.2,3,4.73,4.73,0,0,1-3.34,1.12h-3.2v4.48H36.08V15.23Zm-.11,6.25A2.3,2.3,0,0,0,43.23,21a2,2,0,0,0,.57-1.54,2,2,0,0,0-.57-1.55,2.24,2.24,0,0,0-1.63-.54H38.51v4.16Z"/></svg>