<svg id="Capa_1" data-name="Capa 1" xmlns="http://www.w3.org/2000/svg" viewBox="0 0 300 300"><defs><style>.cls-1{fill:#009aa6;}</style></defs><path class="cls-1" d="M171,186.87a38.14,38.14,0,1,0-42.08,0,61.08,61.08,0,0,0-40,57.22H99.14a50.86,50.86,0,0,1,101.72,0H211A61.08,61.08,0,0,0,171,186.87Zm-21-3.81a28,28,0,1,1,28-28A28,28,0,0,1,150,183.06Z"/><path class="cls-1" d="M221.9,161.44a38.11,38.11,0,1,0-53.85-51.14,48,48,0,0,1,9,4.77,27.95,27.95,0,1,1,31.37,41.49,27.65,27.65,0,0,1-7.55,1.07,26.22,26.22,0,0,1-2.67-.14,47.59,47.59,0,0,1-1.71,10.62c1.46-.12,2.89-.31,4.38-.31a51.16,51.16,0,0,1,50.86,50.86h10.17A61.08,61.08,0,0,0,221.9,161.44Z"/><path class="cls-1" d="M99.14,167.8c1.49,0,2.92.19,4.38.31a47.59,47.59,0,0,1-1.71-10.62,26.22,26.22,0,0,1-2.67.14,27.65,27.65,0,0,1-7.55-1.07A27.93,27.93,0,1,1,123,115.07a48,48,0,0,1,9-4.77,38.45,38.45,0,0,0-6.52-8.22A38.11,38.11,0,1,0,78.1,161.44a61.08,61.08,0,0,0-40,57.22H48.28A51.16,51.16,0,0,1,99.14,167.8Z"/><path class="cls-1" d="M257.5,125.84A38.1,38.1,0,1,0,203.65,74.7a48.56,48.56,0,0,1,9,4.76,28,28,0,0,1,6.83-7.57,27.93,27.93,0,1,1,28.62,47.56,39.08,39.08,0,0,1,.08,14.19,50.87,50.87,0,0,1,39.15,49.42h10.17A61.08,61.08,0,0,0,257.5,125.84Z"/><path class="cls-1" d="M51.22,126.86a42.11,42.11,0,0,1,.69-7.41,27.93,27.93,0,1,1,35.45-40,48.56,48.56,0,0,1,9-4.76A38.11,38.11,0,1,0,42.5,125.84a61.08,61.08,0,0,0-40,57.22H12.68a50.87,50.87,0,0,1,39.15-49.42A42.1,42.1,0,0,1,51.22,126.86Z"/><path class="cls-1" d="M150,66.08a27.93,27.93,0,0,1,27.34,22.69,32.13,32.13,0,0,1,9.59-4.11,38.09,38.09,0,0,0-73.86,0,32.13,32.13,0,0,1,9.59,4.11A27.93,27.93,0,0,1,150,66.08Z"/></svg>